<svg width="32" height="32" viewBox="0 0 32 32" fill="none" xmlns="http://www.w3.org/2000/svg">
<path d="M15.8836 17.2425C15.9168 17.2425 15.9499 17.2425 15.9897 17.2425C16.0029 17.2425 16.0162 17.2425 16.0294 17.2425C16.0493 17.2425 16.0758 17.2425 16.0957 17.2425C18.0373 17.2094 19.6078 16.5268 20.7675 15.2214C23.3187 12.3454 22.8946 7.4152 22.8482 6.94471C22.6826 3.41272 21.0126 1.72292 19.6343 0.934355C18.6072 0.344585 17.4078 0.0265065 16.0692 0H16.0228C16.0162 0 16.0029 0 15.9963 0H15.9565C15.221 0 13.7764 0.119279 12.3914 0.907848C10.9998 1.69642 9.30339 3.38621 9.13773 6.94471C9.09134 7.4152 8.66724 12.3454 11.2185 15.2214C12.3715 16.5268 13.942 17.2094 15.8836 17.2425ZM10.907 7.11038C10.907 7.0905 10.9137 7.07062 10.9137 7.05736C11.1323 2.30607 14.5053 1.79582 15.9499 1.79582H15.9764C15.9897 1.79582 16.0095 1.79582 16.0294 1.79582C17.8186 1.83558 20.8602 2.56451 21.0657 7.05736C21.0657 7.07724 21.0657 7.09712 21.0723 7.11038C21.0789 7.15676 21.5428 11.6629 19.4355 14.0352C18.6006 14.9762 17.4873 15.4401 16.0228 15.4533C16.0095 15.4533 16.0029 15.4533 15.9897 15.4533C15.9764 15.4533 15.9698 15.4533 15.9565 15.4533C14.4987 15.4401 13.3788 14.9762 12.5504 14.0352C10.4498 11.6761 10.9004 7.15014 10.907 7.11038Z" fill="#39BF9E"/>
<path d="M29.6075 25.4193C29.6075 25.4127 29.6075 25.4061 29.6075 25.3994C29.6075 25.3464 29.6009 25.2934 29.6009 25.2338C29.5611 23.9217 29.475 20.8536 26.599 19.8728C26.5791 19.8662 26.5526 19.8596 26.5328 19.8529C23.5441 19.0909 21.0592 17.368 21.0327 17.3481C20.6284 17.0631 20.0718 17.1625 19.7868 17.5668C19.5019 17.971 19.6013 18.5276 20.0055 18.8126C20.1182 18.8921 22.7556 20.7277 26.0556 21.5759C27.5996 22.1259 27.7719 23.7759 27.8183 25.2868C27.8183 25.3464 27.8183 25.3994 27.825 25.4525C27.8316 26.0489 27.7918 26.97 27.6858 27.5001C26.6123 28.1097 22.4044 30.217 16.003 30.217C9.62822 30.217 5.3938 28.1031 4.31366 27.4935C4.20764 26.9633 4.16125 26.0422 4.1745 25.4458C4.1745 25.3928 4.18113 25.3398 4.18113 25.2802C4.22752 23.7693 4.39981 22.1193 5.94381 21.5692C9.24388 20.721 11.8813 18.8788 11.9939 18.8059C12.3982 18.521 12.4976 17.9644 12.2126 17.5601C11.9277 17.1559 11.371 17.0565 10.9668 17.3415C10.9403 17.3613 8.46856 19.0843 5.4667 19.8463C5.44019 19.8529 5.42031 19.8596 5.40043 19.8662C2.52447 20.8536 2.43833 23.9217 2.39857 25.2272C2.39857 25.2868 2.39857 25.3398 2.39194 25.3928C2.39194 25.3994 2.39194 25.4061 2.39194 25.4127C2.38531 25.7573 2.37869 27.5266 2.7299 28.4146C2.79616 28.5869 2.91544 28.7326 3.07448 28.832C3.27328 28.9646 8.03783 31.9996 16.0097 31.9996C23.9815 31.9996 28.7461 28.9579 28.9449 28.832C29.0973 28.7326 29.2232 28.5869 29.2894 28.4146C29.6208 27.5332 29.6141 25.7639 29.6075 25.4193Z" fill="#39BF9E"/>
</svg>
