<svg width="24" height="24" viewBox="0 0 24 24" fill="none" xmlns="http://www.w3.org/2000/svg">
<path d="M20.4848 20.4848C18.2172 22.7525 15.2071 24 12 24C8.79293 24 5.78283 22.7525 3.51515 20.4848C1.24747 18.2172 0 15.2071 0 12C0 8.79293 1.24747 5.78283 3.51515 3.51515C5.78283 1.24747 8.79293 0 12 0C15.2071 0 18.2172 1.24747 20.4848 3.51515C22.7525 5.78283 24 8.79293 24 12C24 15.2071 22.7525 18.2172 20.4848 20.4848ZM19.5202 4.4798C17.5101 2.4697 14.8384 1.36364 12 1.36364C9.16162 1.36364 6.4899 2.4697 4.4798 4.4798C0.333333 8.62626 0.333333 15.3737 4.4798 19.5202C6.4899 21.5303 9.16162 22.6364 12 22.6364C14.8384 22.6364 17.5101 21.5303 19.5202 19.5202C23.6667 15.3737 23.6667 8.62626 19.5202 4.4798Z" fill="#1992CE"/>
<path d="M17.2882 17.2875C17.0206 17.5552 16.5913 17.5552 16.3236 17.2875L12.0004 12.9643L7.67712 17.2875C7.40945 17.5552 6.98015 17.5552 6.71248 17.2875C6.4448 17.0198 6.4448 16.5906 6.71248 16.3229L11.0357 11.9996L6.71248 7.67641C6.4448 7.40874 6.4448 6.97944 6.71248 6.71177C6.84379 6.58045 7.02056 6.50975 7.19228 6.50975C7.36399 6.50975 7.54076 6.5754 7.67207 6.71177L11.9953 11.035L16.3186 6.71177C16.4499 6.58045 16.6266 6.50975 16.7983 6.50975C16.9751 6.50975 17.1468 6.5754 17.2781 6.71177C17.5458 6.97944 17.5458 7.40874 17.2781 7.67641L12.965 11.9996L17.2882 16.3229C17.5559 16.5906 17.5559 17.0198 17.2882 17.2875Z" fill="#1992CE"/>
</svg>
