<svg width="20" height="20" viewBox="0 0 20 20" fill="none" xmlns="http://www.w3.org/2000/svg">
<g clip-path="url(#clip0)">
<path d="M19.009 7.95735C19.009 7.95071 19.0055 7.94499 19.0052 7.93868C19.0032 7.91673 18.9989 7.89505 18.9922 7.87404C18.9878 7.85529 18.9818 7.83695 18.9741 7.81924C18.9651 7.80245 18.9545 7.78653 18.9425 7.77171C18.9299 7.75356 18.9155 7.73678 18.8994 7.72167C18.8943 7.71721 18.8921 7.7112 18.8867 7.70707L15.8408 5.34075V2.88821C15.8408 2.3633 15.4152 1.93774 14.8903 1.93774H11.4569L10.0822 0.870359C9.74251 0.605714 9.26642 0.605714 8.92674 0.870359L7.55176 1.93774H4.11834C3.59343 1.93774 3.16788 2.36326 3.16788 2.88821V5.34075L0.122261 7.70707C0.116878 7.7112 0.11465 7.71721 0.109601 7.72167C0.0934873 7.73678 0.0790447 7.75356 0.0664956 7.77171C0.0544662 7.78653 0.0438477 7.80245 0.0348257 7.81924C0.0271403 7.83691 0.0210885 7.85525 0.0167817 7.87404C0.010173 7.89464 0.00582904 7.91588 0.00378702 7.93741C0.00378702 7.94376 0 7.94944 0 7.95609V18.7293C0.00126234 18.8313 0.0191207 18.9324 0.0529068 19.0287C-0.0198261 19.1384 -0.0164104 19.2818 0.0614091 19.3879C0.139229 19.494 0.274967 19.5403 0.401424 19.5039C0.561518 19.6183 0.753394 19.6798 0.95017 19.6798H18.0586C18.2562 19.6794 18.4486 19.617 18.6089 19.5014C18.6359 19.5097 18.6639 19.5143 18.6922 19.515C18.8079 19.5157 18.9146 19.4527 18.9699 19.351C19.0251 19.2493 19.02 19.1254 18.9564 19.0287C18.9901 18.9325 19.0079 18.8313 19.009 18.7293V7.95735H19.009ZM9.3142 1.37032C9.42484 1.2824 9.58152 1.2824 9.69216 1.37032L10.4231 1.93774H8.5855L9.3142 1.37032ZM1.02869 19.0461L9.31424 12.6102C9.42496 12.5228 9.58119 12.5228 9.6919 12.6102L17.9799 19.0461H1.02869ZM18.3753 18.5513L10.0816 12.11C9.7421 11.8457 9.26653 11.8457 8.92707 12.11L0.633286 18.5513V8.43986L5.82506 12.4714C5.9634 12.5787 6.16248 12.5535 6.26974 12.4152C6.377 12.2769 6.35183 12.0778 6.21349 11.9705L0.939032 7.87467L3.16788 6.14293V8.59101C3.16788 8.76599 3.30974 8.90782 3.48469 8.90782C3.65967 8.90782 3.8015 8.76595 3.8015 8.59101V2.88821C3.8015 2.71323 3.94332 2.5714 4.11831 2.5714H14.8903C15.0652 2.5714 15.2071 2.71323 15.2071 2.88821V8.59101C15.2071 8.76599 15.3489 8.90782 15.5239 8.90782C15.6989 8.90782 15.8407 8.76595 15.8407 8.59101V6.14293L18.0695 7.87467L12.7856 11.9778C12.6474 12.0852 12.6224 12.2842 12.7297 12.4225C12.8371 12.5607 13.0361 12.5858 13.1744 12.4784L18.3753 8.4399V18.5513Z" fill="white"/>
<path d="M6.33585 4.78792H12.6723C12.8473 4.78792 12.9891 4.64609 12.9891 4.47111C12.9891 4.29612 12.8473 4.1543 12.6723 4.1543H6.33585C6.16087 4.1543 6.01904 4.29612 6.01904 4.47111C6.01904 4.64609 6.16087 4.78792 6.33585 4.78792Z" fill="white"/>
<path d="M12.9891 6.37199C12.9891 6.197 12.8473 6.05518 12.6723 6.05518H6.33585C6.16087 6.05518 6.01904 6.19704 6.01904 6.37199C6.01904 6.54697 6.16087 6.6888 6.33585 6.6888H12.6723C12.8473 6.6888 12.9891 6.54693 12.9891 6.37199Z" fill="white"/>
<path d="M12.9894 8.27286C12.9894 8.09788 12.8476 7.95605 12.6726 7.95605H9.8212C9.64622 7.95605 9.50439 8.09788 9.50439 8.27286C9.50439 8.44785 9.64622 8.58967 9.8212 8.58967H12.6726C12.8476 8.58967 12.9894 8.44781 12.9894 8.27286Z" fill="white"/>
</g>
<defs>
<clipPath id="clip0">
<rect width="19.009" height="19.009" fill="white" transform="translate(0 0.669922)"/>
</clipPath>
</defs>
</svg>
