<svg width="119" height="138" viewBox="0 0 119 138" fill="none" xmlns="http://www.w3.org/2000/svg">
<path d="M108.867 0H28.3398C22.7716 0 18.2418 4.53001 18.2418 10.098V37.6055C18.2418 38.7219 19.1469 39.627 20.2633 39.627C21.3797 39.627 22.2848 38.7219 22.2848 37.6055V10.098C22.2848 6.7593 25.0011 4.04297 28.3398 4.04297H108.867C112.205 4.04297 114.922 6.7593 114.922 10.098V57.6274C114.922 60.9661 112.205 63.6824 108.867 63.6824H56.495C55.3787 63.6824 54.4736 64.5875 54.4736 65.7039C54.4736 66.8203 55.3787 67.7254 56.495 67.7254H108.867C114.435 67.7254 118.965 63.1954 118.965 57.6274V10.098C118.965 4.53001 114.435 0 108.867 0Z" fill="white"/>
<path d="M49.1126 10.6807C43.4546 10.6807 38.8513 15.284 38.8513 20.942V24.8122C38.8513 30.4702 43.4546 35.0732 49.1126 35.0732C54.7706 35.0732 59.3737 30.4702 59.3737 24.8122V20.942C59.3737 15.284 54.7706 10.6807 49.1126 10.6807ZM55.3307 24.8122C55.3307 28.2409 52.5413 31.0303 49.1126 31.0303C45.6839 31.0303 42.8943 28.2409 42.8943 24.8122V20.942C42.8943 17.5133 45.6839 14.7236 49.1126 14.7236C52.5413 14.7236 55.3307 17.5133 55.3307 20.942V24.8122Z" fill="white"/>
<path d="M88.0938 10.6807C82.4358 10.6807 77.8328 15.284 77.8328 20.942V24.8122C77.8328 30.4702 82.4358 35.0732 88.0938 35.0732C93.7518 35.0732 98.3551 30.4702 98.3551 24.8122V20.942C98.3551 15.284 93.7518 10.6807 88.0938 10.6807ZM94.3122 24.8122C94.3122 28.2409 91.5225 31.0303 88.0938 31.0303C84.6651 31.0303 81.8757 28.2409 81.8757 24.8122V20.942C81.8757 17.5133 84.6651 14.7236 88.0938 14.7236C91.5225 14.7236 94.3122 17.5133 94.3122 20.942V24.8122Z" fill="white"/>
<path d="M103.987 54.7911L102.936 45.7049C102.358 40.7035 98.125 36.9316 93.0894 36.9316H83.0995C78.0633 36.9316 73.83 40.7035 73.2519 45.7049L72.2015 54.7911C72.1352 55.3638 72.3169 55.9376 72.7004 56.3681C73.084 56.7985 73.633 57.0449 74.2098 57.0449H101.979C102.555 57.0449 103.104 56.7985 103.488 56.3681C103.871 55.9376 104.053 55.3638 103.987 54.7911ZM97.0526 53.0019V48.1107C97.0526 46.9943 96.1475 46.0892 95.0311 46.0892C93.9147 46.0892 93.0096 46.9943 93.0096 48.1107V53.0019H83.1782V48.1107C83.1782 46.9943 82.2731 46.0892 81.1567 46.0892C80.0403 46.0892 79.1352 46.9943 79.1352 48.1107V53.0019H76.4782L77.2682 46.1693C77.6105 43.2079 80.1171 40.9749 83.0989 40.9749H93.0888C96.0707 40.9749 98.5773 43.2079 98.9196 46.1693L99.7096 53.0019H97.0526Z" fill="white"/>
<path d="M83.8802 96.5103C82.7639 96.5103 81.8588 97.4153 81.8588 98.5317V99.8794C81.8588 100.996 82.7639 101.901 83.8802 101.901C84.9966 101.901 85.9017 100.996 85.9017 99.8794V98.5317C85.9017 97.4153 84.9966 96.5103 83.8802 96.5103Z" fill="white"/>
<path d="M83.8802 79.1489C82.7639 79.1489 81.8588 80.054 81.8588 81.1704V83.3407C81.8588 84.4571 82.7639 85.3622 83.8802 85.3622C84.9966 85.3622 85.9017 84.4571 85.9017 83.3407V81.1704C85.9017 80.054 84.9966 79.1489 83.8802 79.1489Z" fill="white"/>
<path d="M83.8802 87.8296C82.7639 87.8296 81.8588 88.7347 81.8588 89.8511V92.0213C81.8588 93.1377 82.7639 94.0428 83.8802 94.0428C84.9966 94.0428 85.9017 93.1377 85.9017 92.0213V89.8511C85.9017 88.7347 84.9966 87.8296 83.8802 87.8296Z" fill="white"/>
<path d="M83.8802 71.291C82.7639 71.291 81.8588 72.1961 81.8588 73.3125V74.6602C81.8588 75.7766 82.7636 76.6816 83.8802 76.6816C84.9966 76.6816 85.9017 75.7766 85.9017 74.6602V73.3125C85.9017 72.1961 84.9966 71.291 83.8802 71.291Z" fill="white"/>
<path d="M88.3808 116.972H85.9017V114.493C85.9017 113.376 84.9966 112.471 83.8802 112.471C82.7638 112.471 81.8587 113.376 81.8587 114.493V116.972H79.3796C78.2632 116.972 77.3581 117.877 77.3581 118.993C77.3581 120.11 78.2632 121.015 79.3796 121.015H81.8587V123.494C81.8587 124.61 82.7638 125.515 83.8802 125.515C84.9966 125.515 85.9017 124.61 85.9017 123.494V121.015H88.3808C89.4972 121.015 90.4023 120.11 90.4023 118.993C90.4023 117.877 89.4972 116.972 88.3808 116.972Z" fill="white"/>
<path d="M83.8803 104.724C76.0121 104.724 69.6108 111.125 69.6108 118.993C69.6108 126.862 76.0121 133.263 83.8803 133.263C91.7485 133.263 98.1496 126.862 98.1496 118.993C98.1496 111.125 91.7485 104.724 83.8803 104.724ZM83.8803 129.22C78.2414 129.22 73.6537 124.632 73.6537 118.993C73.6537 113.355 78.2414 108.767 83.8803 108.767C89.5192 108.767 94.1066 113.355 94.1066 118.993C94.1066 124.633 89.5192 129.22 83.8803 129.22Z" fill="white"/>
<path d="M33.6203 86.8266C32.5861 86.4072 31.4069 86.9053 30.9872 87.94C30.2538 89.7483 28.5167 90.9167 26.5618 90.9167C25.2872 90.9167 24.0864 90.4194 23.1829 89.5184C22.7272 89.0626 22.3754 88.5324 22.1377 87.9432C21.7199 86.9082 20.5423 86.4072 19.5065 86.8252C18.4713 87.243 17.9707 88.4209 18.3885 89.4564C18.8308 90.5523 19.482 91.535 20.3259 92.3792C21.9943 94.0435 24.209 94.96 26.5618 94.96C30.1708 94.96 33.3785 92.801 34.7337 89.4596C35.1534 88.4249 34.655 87.2462 33.6203 86.8266Z" fill="white"/>
<path d="M65.005 54.7898L63.9538 45.7039C63.3749 40.7027 59.1419 36.9312 54.1079 36.9312H44.1163C40.6421 36.9312 37.4603 38.747 35.6752 41.6506H26.0793C22.0644 41.6506 18.7963 44.9106 18.7831 48.9226H16.926C8.98536 48.9226 2.52497 55.3841 2.52497 63.3263V77.5783C0.999152 78.6549 0 80.43 0 82.435V84.2891C0 87.5656 2.66566 90.231 5.94182 90.231H7.97947C8.93173 96.4054 12.868 101.548 18.2413 104.2V106.077H17.8963C14.3984 106.077 10.9583 107.263 8.20992 109.418C7.33125 110.107 7.17735 111.378 7.86627 112.256C8.26491 112.765 8.85868 113.031 9.45839 113.031C9.89476 113.031 10.3344 112.89 10.7044 112.6C12.7739 110.977 15.2609 110.12 17.8963 110.12H18.2413V110.289C18.2413 114.877 21.9738 118.61 26.5618 118.61C28.7822 118.61 30.8716 117.746 32.4464 116.174C34.017 114.604 34.8822 112.514 34.8822 110.289V110.12H35.2272C41.1558 110.12 46.1394 114.559 46.8197 120.446L48.3811 133.957H43.5517V123.985C43.5517 122.869 42.6466 121.964 41.5302 121.964C40.4138 121.964 39.5087 122.869 39.5087 123.985V133.957H13.6151V123.985C13.6151 122.869 12.71 121.964 11.5936 121.964C10.4772 121.964 9.57213 122.869 9.57213 123.985V133.957H4.7424L6.30407 120.444C6.39193 119.679 6.55716 118.918 6.79569 118.182C7.13961 117.12 6.55743 115.98 5.4952 115.636C4.43244 115.291 3.29313 115.874 2.94921 116.936C2.6282 117.927 2.40557 118.952 2.28751 119.982L0.465481 135.746C0.399176 136.319 0.58084 136.893 0.964382 137.323C1.34793 137.754 1.89696 138 2.47376 138H50.6498C51.2263 138 51.7753 137.754 52.1591 137.323C52.5427 136.893 52.7241 136.319 52.658 135.746L50.836 119.982C49.9201 112.054 43.2099 106.077 35.2272 106.077H34.8822V104.197C36.5678 103.364 38.136 102.277 39.5297 100.949C42.5579 98.0643 44.5115 94.3122 45.1435 90.231H47.182C50.4584 90.231 53.1238 87.5653 53.1238 84.2891V82.435C53.1238 80.4297 52.1244 78.6549 50.5986 77.5783V57.0436H56.0366C56.0409 57.0436 56.0452 57.0441 56.0496 57.0441C56.0539 57.0441 56.0582 57.0436 56.0625 57.0436H62.9967C63.5733 57.0436 64.1226 56.7972 64.5061 56.3668C64.8896 55.9363 65.0713 55.3625 65.005 54.7898ZM6.56794 63.3263C6.56794 57.6134 11.2144 52.9656 16.926 52.9656H18.8073C19.8812 52.9656 20.8906 52.5475 21.649 51.7885C22.408 51.0295 22.8261 50.0204 22.8261 48.9469C22.8261 47.1529 24.2856 45.6936 26.0793 45.6936H36.8581C36.8624 45.6936 36.8667 45.6936 36.8711 45.6936H39.3025C43.3018 45.6936 46.5556 48.9474 46.5556 52.9467V76.4932H45.3678V71.8039C45.3678 71.1331 45.3168 70.4657 45.2163 69.8207C45.0632 68.8361 44.2153 68.11 43.2188 68.11H30.7214C26.5405 68.11 23.0792 64.8446 22.8417 60.6758C22.8371 60.5936 22.8258 60.5132 22.8118 60.4337V57.0037C22.8118 55.8873 21.9067 54.9822 20.7903 54.9822C19.6739 54.9822 18.7688 55.8873 18.7688 57.0037V58.9268C12.5383 59.9011 7.75603 65.3039 7.75603 71.8036V76.4929H6.56794V63.3263ZM30.8392 110.289C30.8392 111.434 30.3948 112.509 29.5894 113.314C28.7795 114.122 27.704 114.567 26.5618 114.567C24.2034 114.567 22.2843 112.648 22.2843 110.289V105.648C23.6594 105.968 25.0915 106.137 26.5618 106.137C28.0178 106.137 29.4506 105.968 30.8392 105.645V110.289ZM49.0808 84.2891C49.0808 85.3363 48.2288 86.188 47.182 86.188H43.3223C42.2466 86.188 41.3593 87.0303 41.3035 88.1044C41.107 91.8843 39.4866 95.4065 36.7411 98.022C35.3816 99.3174 33.8124 100.324 32.1146 101.013C32.0885 101.024 32.0626 101.034 32.037 101.046C30.3153 101.733 28.4628 102.093 26.562 102.093C24.6238 102.093 22.7708 101.718 21.0714 101.038C21.0404 101.025 21.0083 101.013 20.9765 101.001C15.8317 98.8999 12.1241 93.9791 11.8208 88.1049C11.7653 87.0305 10.8777 86.1877 9.80204 86.1877H5.94236C4.89523 86.1877 4.04351 85.3357 4.04351 84.2889V82.4348C4.04351 81.3876 4.8955 80.5359 5.94236 80.5359H9.77778C10.8942 80.5359 11.7993 79.6308 11.7993 78.5144V71.8036C11.7993 67.4216 14.9498 63.7619 19.1052 62.9708C20.3526 68.2585 25.1082 72.153 30.722 72.153H41.3251V78.5147C41.3251 79.6311 42.2302 80.5362 43.3466 80.5362H47.182C48.2291 80.5362 49.0808 81.3879 49.0808 82.435V84.2891ZM58.0713 53.0006V48.1105C58.0713 46.9941 57.1662 46.089 56.0498 46.089C54.9334 46.089 54.0283 46.9941 54.0283 48.1105V53.0006H50.5986V52.9467C50.5986 47.3375 46.4882 42.6719 41.1218 41.7992C42.0105 41.2717 43.039 40.9741 44.1163 40.9741H54.1079C57.0886 40.9741 59.595 43.2075 59.9378 46.1685L60.7283 53.0006H58.0713Z" fill="white"/>
<path d="M18.1597 76.7695C17.0433 76.7695 16.1382 77.6746 16.1382 78.791V79.6018C16.1382 80.7182 17.0433 81.6232 18.1597 81.6232C19.2761 81.6232 20.1812 80.7184 20.1812 79.6018V78.791C20.1812 77.6746 19.2761 76.7695 18.1597 76.7695Z" fill="white"/>
<path d="M34.9641 76.7695C33.8477 76.7695 32.9426 77.6746 32.9426 78.791V79.6018C32.9426 80.7182 33.8477 81.6232 34.9641 81.6232C36.0805 81.6232 36.9856 80.7182 36.9856 79.6018V78.791C36.9856 77.6746 36.0805 76.7695 34.9641 76.7695Z" fill="white"/>
</svg>
