<svg width="76" height="56" viewBox="0 0 76 56" fill="none" xmlns="http://www.w3.org/2000/svg">
<mask id="path-1-inside-1" fill="white">
<path d="M62.8881 31.6348C58.9869 31.6348 55.5133 33.4609 53.2961 36.2881L49.8139 33.9668C50.8005 32.372 51.3944 30.5532 51.5378 28.6917C51.6785 26.8628 51.3904 25.0086 50.689 23.3085C50.3101 22.3901 49.8139 21.519 49.2166 20.721L52.2335 18.3941C53.5242 20.7317 55.6128 22.6203 58.0958 23.6732C60.4765 24.6827 63.1796 24.9045 65.7009 24.3186C68.2034 23.7373 70.4675 22.3502 72.1302 20.4228C73.8216 18.4622 74.8293 15.9839 74.982 13.4161C75.1134 11.2062 74.6144 8.97888 73.5398 7.03292C72.5189 5.18432 70.9996 3.61427 69.1745 2.51918C67.2997 1.3937 65.1253 0.791563 62.9292 0.784247C60.732 0.776931 58.5519 1.36556 56.6679 2.47979C54.8411 3.56025 53.3155 5.11454 52.2832 6.94964C51.1737 8.92092 50.6593 11.186 50.7953 13.4347C50.8394 14.1662 50.9514 14.8939 51.1309 15.6052L47.2154 18.6254C45.3863 17.1206 43.1188 16.1668 40.7484 15.9186C40.4443 15.8865 40.1396 15.8663 39.8338 15.8573C39.5629 15.8488 39.2902 15.8353 39.0278 15.9152C38.5671 16.0553 38.1985 16.4234 38.0624 16.8786C37.9229 17.3457 38.0384 17.8629 38.3648 18.2287C38.5197 18.4025 38.7169 18.5387 38.9364 18.6214C39.1747 18.7115 39.4131 18.7132 39.6646 18.7188C41.6412 18.7616 43.5743 19.4442 45.1302 20.6456C46.6455 21.8161 47.7716 23.4498 48.3049 25.2725C48.9451 27.4587 48.7159 29.8583 47.6664 31.8864C47.5247 32.1593 47.3692 32.4255 47.2006 32.6827C46.0636 31.3968 44.6312 30.3327 43.0336 29.6669C44.3551 27.3974 43.7161 24.1048 41.2977 22.8099C40.2705 22.2596 39.0301 22.1954 37.9544 22.6495C36.8489 23.1155 36.0092 24.062 35.5697 25.1521C34.9752 26.6259 35.0952 28.3636 35.9195 29.73C34.3122 30.3732 32.8409 31.3945 31.7388 32.7187C30.371 30.6562 29.9229 28.0693 30.5013 25.6737C30.6511 25.0541 30.8694 24.4531 31.1472 23.878C31.3621 23.4318 31.377 22.9309 31.1238 22.4948C30.6225 21.6299 29.349 21.5348 28.7214 22.3147C28.5133 22.573 28.3921 22.9073 28.2646 23.2089C28.128 23.5325 28.0057 23.8617 27.8988 24.196C27.6748 24.896 27.5181 25.6169 27.4301 26.3456H24.2206C23.9559 24.1791 23.0745 22.1048 21.7004 20.3935C20.3463 18.707 18.5326 17.3907 16.4914 16.626C14.376 15.8331 12.041 15.6451 9.82145 16.0812C7.69511 16.4988 5.70252 17.4909 4.0929 18.9191C2.50328 20.3299 1.30235 22.151 0.651301 24.1594C-0.0803453 26.4165 -0.106639 28.8825 0.571848 31.1554C1.30978 33.6281 2.88111 35.8216 4.9783 37.3602C7.06864 38.8936 9.63854 39.7158 12.2439 39.7051C14.8332 39.695 17.3797 38.8672 19.4512 37.3343C21.5529 35.7783 23.1174 33.5634 23.8405 31.0727C24.0177 30.4632 24.1446 29.8397 24.2212 29.2105H27.433C27.6433 30.9494 28.2458 32.6348 29.1924 34.1171C30.1383 35.5971 31.4182 36.8706 32.9106 37.8182C34.3808 38.7524 36.0544 39.3596 37.7875 39.5937C39.5291 39.8289 41.324 39.6938 43.0062 39.1891C44.6781 38.6871 46.2271 37.8194 47.5275 36.6708C47.6916 36.5256 47.8522 36.3759 48.0082 36.2223L51.8048 38.7535C50.8662 40.8424 50.561 43.1823 50.9217 45.4383C51.252 47.5058 52.1455 49.467 53.4893 51.0882C54.8228 52.6971 56.5765 53.9599 58.5474 54.7038C60.5348 55.4534 62.7183 55.6673 64.8189 55.3392C66.8881 55.0167 68.8516 54.1546 70.48 52.858C72.1405 51.5367 73.4421 49.7922 74.2057 47.8277C74.9431 45.9313 75.1734 43.8525 74.8779 41.8435C74.623 40.1125 73.9742 38.4457 72.9928 36.9876C72.0257 35.5521 70.7436 34.327 69.2568 33.4187C67.7364 32.4902 66.0113 31.901 64.233 31.7069C63.7861 31.659 63.3368 31.6348 62.8881 31.6348ZM57.1641 19.81C58.185 18.4239 59.7694 17.4177 61.4459 16.9906C62.3079 16.7712 63.219 16.6986 64.0976 16.8584C64.9464 17.0131 65.7529 17.3677 66.4789 17.8218C67.31 18.3429 68.0559 19.0052 68.6675 19.7661C66.121 21.7998 62.5543 22.3299 59.5048 21.1453C58.6628 20.8178 57.8717 20.3654 57.1641 19.81ZM62.8881 13.9057C62.2147 13.9057 61.7757 13.2366 61.622 12.6654C61.4345 11.971 61.55 11.1415 62.0318 10.5816C62.4405 10.1066 63.0818 9.99519 63.5769 10.415C64.1302 10.8843 64.3125 11.6992 64.2113 12.3863C64.1153 13.0436 63.6689 13.9057 62.8881 13.9057ZM62.8881 3.64916C65.3151 3.64916 67.6775 4.61708 69.3934 6.30642C71.1094 7.99634 72.0925 10.3216 72.0925 12.7115C72.0925 14.4437 71.5849 16.16 70.6304 17.6158C69.4946 16.3294 68.0599 15.2658 66.4634 14.5995C67.785 12.33 67.1459 9.03797 64.7269 7.74254C63.6997 7.19274 62.4599 7.12859 61.3836 7.58272C60.2787 8.04867 59.4391 8.9952 58.9995 10.0852C58.405 11.5585 58.5251 13.2968 59.3487 14.6631C57.742 15.3063 56.2707 16.3277 55.1686 17.6518C53.5779 15.254 53.2475 12.164 54.2838 9.49098C55.1223 7.32667 56.8131 5.5259 58.936 4.52816C60.1667 3.94967 61.5242 3.64916 62.8881 3.64916ZM6.47246 34.8773C7.48876 33.4896 9.08123 32.484 10.7554 32.0575C11.6168 31.8385 12.5274 31.7654 13.4059 31.9258C14.2651 32.0822 15.0784 32.4435 15.8118 32.9049C16.6338 33.4221 17.3711 34.0805 17.9759 34.8335C15.4288 36.8666 11.8626 37.3973 8.81315 36.2122C7.97119 35.8852 7.1801 35.4328 6.47246 34.8773ZM12.1959 28.9725C11.5231 28.9725 11.0841 28.304 10.9304 27.7328C10.7423 27.0384 10.8583 26.2083 11.3396 25.649C11.7483 25.174 12.3902 25.0626 12.8847 25.4824C13.438 25.9517 13.6203 26.7666 13.5197 27.4537C13.4237 28.1104 12.9772 28.9725 12.1959 28.9725ZM19.9387 32.6827C18.8018 31.3968 17.3688 30.3332 15.7712 29.6669C17.0928 27.3974 16.4543 24.1054 14.0353 22.8099C13.0081 22.2601 11.7683 22.196 10.692 22.6501C9.5871 23.1161 8.74685 24.0626 8.30729 25.1521C7.7134 26.6259 7.83344 28.3636 8.65711 29.7305C7.04977 30.3737 5.57905 31.3945 4.47644 32.7192C2.9194 30.3709 2.5673 27.3574 3.53044 24.7204C4.3404 22.5032 6.03919 20.6479 8.19126 19.6198C10.4079 18.5612 13.0253 18.4301 15.3391 19.2607C17.5878 20.0671 19.4649 21.7469 20.5001 23.8701C21.6924 26.3164 21.6936 29.2381 20.5041 31.6866C20.3372 32.0304 20.148 32.363 19.9387 32.6827ZM39.4583 25.2095C40.131 25.2095 40.5694 25.878 40.7238 26.4492C40.9113 27.1436 40.7958 27.9736 40.3139 28.533C39.9052 29.008 39.2639 29.1194 38.7695 28.6996C38.2156 28.2303 38.0333 27.4154 38.1344 26.7283C38.2305 26.0716 38.6769 25.2095 39.4583 25.2095ZM33.7343 34.8773C34.7397 33.5048 36.3145 32.4992 37.9692 32.0698C38.8346 31.8453 39.7469 31.7648 40.6312 31.919C41.4789 32.0676 42.2865 32.4165 43.0125 32.8661C43.8584 33.3906 44.6181 34.0608 45.2377 34.8335C42.6906 36.8666 39.125 37.3973 36.0755 36.2122C35.233 35.8852 34.4425 35.4328 33.7343 34.8773ZM57.1641 50.66C58.1752 49.2813 59.7586 48.2728 61.4231 47.8468C62.2868 47.6257 63.1985 47.5469 64.0793 47.705C64.9367 47.8592 65.7518 48.2154 66.484 48.6752C67.3134 49.1963 68.0576 49.8564 68.6675 50.6161C66.1205 52.6493 62.5543 53.1799 59.5048 51.9948C58.6628 51.6679 57.8717 51.2154 57.1641 50.66ZM62.8881 44.7557C62.2147 44.7557 61.7757 44.0866 61.622 43.5154C61.4345 42.821 61.55 41.991 62.0318 41.4316C62.4405 40.9566 63.0818 40.8452 63.5769 41.265C64.1302 41.7343 64.3125 42.5498 64.2113 43.2363C64.1153 43.8936 63.6689 44.7557 62.8881 44.7557ZM70.6304 48.4659C69.494 47.1794 68.0605 46.1153 66.4634 45.4496C67.785 43.18 67.1459 39.888 64.7269 38.5926C63.6997 38.0428 62.4599 37.9786 61.3836 38.4327C60.2787 38.8987 59.4391 39.8452 58.9995 40.9347C58.405 42.4085 58.5251 44.1463 59.3487 45.5132C57.7414 46.1569 56.2713 47.1772 55.1686 48.5019C53.611 46.1541 53.2595 43.1406 54.2226 40.5036C55.032 38.2864 56.7308 36.4311 58.8835 35.403C61.0995 34.3444 63.7169 34.2133 66.0313 35.0439C68.2794 35.8503 70.1565 37.5301 71.1917 39.6533C72.384 42.0996 72.3858 45.0213 71.1963 47.4698C71.0294 47.8131 70.8402 48.1457 70.6304 48.4659Z"/>
</mask>
<path d="M62.8881 31.6348C58.9869 31.6348 55.5133 33.4609 53.2961 36.2881L49.8139 33.9668C50.8005 32.372 51.3944 30.5532 51.5378 28.6917C51.6785 26.8628 51.3904 25.0086 50.689 23.3085C50.3101 22.3901 49.8139 21.519 49.2166 20.721L52.2335 18.3941C53.5242 20.7317 55.6128 22.6203 58.0958 23.6732C60.4765 24.6827 63.1796 24.9045 65.7009 24.3186C68.2034 23.7373 70.4675 22.3502 72.1302 20.4228C73.8216 18.4622 74.8293 15.9839 74.982 13.4161C75.1134 11.2062 74.6144 8.97888 73.5398 7.03292C72.5189 5.18432 70.9996 3.61427 69.1745 2.51918C67.2997 1.3937 65.1253 0.791563 62.9292 0.784247C60.732 0.776931 58.5519 1.36556 56.6679 2.47979C54.8411 3.56025 53.3155 5.11454 52.2832 6.94964C51.1737 8.92092 50.6593 11.186 50.7953 13.4347C50.8394 14.1662 50.9514 14.8939 51.1309 15.6052L47.2154 18.6254C45.3863 17.1206 43.1188 16.1668 40.7484 15.9186C40.4443 15.8865 40.1396 15.8663 39.8338 15.8573C39.5629 15.8488 39.2902 15.8353 39.0278 15.9152C38.5671 16.0553 38.1985 16.4234 38.0624 16.8786C37.9229 17.3457 38.0384 17.8629 38.3648 18.2287C38.5197 18.4025 38.7169 18.5387 38.9364 18.6214C39.1747 18.7115 39.4131 18.7132 39.6646 18.7188C41.6412 18.7616 43.5743 19.4442 45.1302 20.6456C46.6455 21.8161 47.7716 23.4498 48.3049 25.2725C48.9451 27.4587 48.7159 29.8583 47.6664 31.8864C47.5247 32.1593 47.3692 32.4255 47.2006 32.6827C46.0636 31.3968 44.6312 30.3327 43.0336 29.6669C44.3551 27.3974 43.7161 24.1048 41.2977 22.8099C40.2705 22.2596 39.0301 22.1954 37.9544 22.6495C36.8489 23.1155 36.0092 24.062 35.5697 25.1521C34.9752 26.6259 35.0952 28.3636 35.9195 29.73C34.3122 30.3732 32.8409 31.3945 31.7388 32.7187C30.371 30.6562 29.9229 28.0693 30.5013 25.6737C30.6511 25.0541 30.8694 24.4531 31.1472 23.878C31.3621 23.4318 31.377 22.9309 31.1238 22.4948C30.6225 21.6299 29.349 21.5348 28.7214 22.3147C28.5133 22.573 28.3921 22.9073 28.2646 23.2089C28.128 23.5325 28.0057 23.8617 27.8988 24.196C27.6748 24.896 27.5181 25.6169 27.4301 26.3456H24.2206C23.9559 24.1791 23.0745 22.1048 21.7004 20.3935C20.3463 18.707 18.5326 17.3907 16.4914 16.626C14.376 15.8331 12.041 15.6451 9.82145 16.0812C7.69511 16.4988 5.70252 17.4909 4.0929 18.9191C2.50328 20.3299 1.30235 22.151 0.651301 24.1594C-0.0803453 26.4165 -0.106639 28.8825 0.571848 31.1554C1.30978 33.6281 2.88111 35.8216 4.9783 37.3602C7.06864 38.8936 9.63854 39.7158 12.2439 39.7051C14.8332 39.695 17.3797 38.8672 19.4512 37.3343C21.5529 35.7783 23.1174 33.5634 23.8405 31.0727C24.0177 30.4632 24.1446 29.8397 24.2212 29.2105H27.433C27.6433 30.9494 28.2458 32.6348 29.1924 34.1171C30.1383 35.5971 31.4182 36.8706 32.9106 37.8182C34.3808 38.7524 36.0544 39.3596 37.7875 39.5937C39.5291 39.8289 41.324 39.6938 43.0062 39.1891C44.6781 38.6871 46.2271 37.8194 47.5275 36.6708C47.6916 36.5256 47.8522 36.3759 48.0082 36.2223L51.8048 38.7535C50.8662 40.8424 50.561 43.1823 50.9217 45.4383C51.252 47.5058 52.1455 49.467 53.4893 51.0882C54.8228 52.6971 56.5765 53.9599 58.5474 54.7038C60.5348 55.4534 62.7183 55.6673 64.8189 55.3392C66.8881 55.0167 68.8516 54.1546 70.48 52.858C72.1405 51.5367 73.4421 49.7922 74.2057 47.8277C74.9431 45.9313 75.1734 43.8525 74.8779 41.8435C74.623 40.1125 73.9742 38.4457 72.9928 36.9876C72.0257 35.5521 70.7436 34.327 69.2568 33.4187C67.7364 32.4902 66.0113 31.901 64.233 31.7069C63.7861 31.659 63.3368 31.6348 62.8881 31.6348ZM57.1641 19.81C58.185 18.4239 59.7694 17.4177 61.4459 16.9906C62.3079 16.7712 63.219 16.6986 64.0976 16.8584C64.9464 17.0131 65.7529 17.3677 66.4789 17.8218C67.31 18.3429 68.0559 19.0052 68.6675 19.7661C66.121 21.7998 62.5543 22.3299 59.5048 21.1453C58.6628 20.8178 57.8717 20.3654 57.1641 19.81ZM62.8881 13.9057C62.2147 13.9057 61.7757 13.2366 61.622 12.6654C61.4345 11.971 61.55 11.1415 62.0318 10.5816C62.4405 10.1066 63.0818 9.99519 63.5769 10.415C64.1302 10.8843 64.3125 11.6992 64.2113 12.3863C64.1153 13.0436 63.6689 13.9057 62.8881 13.9057ZM62.8881 3.64916C65.3151 3.64916 67.6775 4.61708 69.3934 6.30642C71.1094 7.99634 72.0925 10.3216 72.0925 12.7115C72.0925 14.4437 71.5849 16.16 70.6304 17.6158C69.4946 16.3294 68.0599 15.2658 66.4634 14.5995C67.785 12.33 67.1459 9.03797 64.7269 7.74254C63.6997 7.19274 62.4599 7.12859 61.3836 7.58272C60.2787 8.04867 59.4391 8.9952 58.9995 10.0852C58.405 11.5585 58.5251 13.2968 59.3487 14.6631C57.742 15.3063 56.2707 16.3277 55.1686 17.6518C53.5779 15.254 53.2475 12.164 54.2838 9.49098C55.1223 7.32667 56.8131 5.5259 58.936 4.52816C60.1667 3.94967 61.5242 3.64916 62.8881 3.64916ZM6.47246 34.8773C7.48876 33.4896 9.08123 32.484 10.7554 32.0575C11.6168 31.8385 12.5274 31.7654 13.4059 31.9258C14.2651 32.0822 15.0784 32.4435 15.8118 32.9049C16.6338 33.4221 17.3711 34.0805 17.9759 34.8335C15.4288 36.8666 11.8626 37.3973 8.81315 36.2122C7.97119 35.8852 7.1801 35.4328 6.47246 34.8773ZM12.1959 28.9725C11.5231 28.9725 11.0841 28.304 10.9304 27.7328C10.7423 27.0384 10.8583 26.2083 11.3396 25.649C11.7483 25.174 12.3902 25.0626 12.8847 25.4824C13.438 25.9517 13.6203 26.7666 13.5197 27.4537C13.4237 28.1104 12.9772 28.9725 12.1959 28.9725ZM19.9387 32.6827C18.8018 31.3968 17.3688 30.3332 15.7712 29.6669C17.0928 27.3974 16.4543 24.1054 14.0353 22.8099C13.0081 22.2601 11.7683 22.196 10.692 22.6501C9.5871 23.1161 8.74685 24.0626 8.30729 25.1521C7.7134 26.6259 7.83344 28.3636 8.65711 29.7305C7.04977 30.3737 5.57905 31.3945 4.47644 32.7192C2.9194 30.3709 2.5673 27.3574 3.53044 24.7204C4.3404 22.5032 6.03919 20.6479 8.19126 19.6198C10.4079 18.5612 13.0253 18.4301 15.3391 19.2607C17.5878 20.0671 19.4649 21.7469 20.5001 23.8701C21.6924 26.3164 21.6936 29.2381 20.5041 31.6866C20.3372 32.0304 20.148 32.363 19.9387 32.6827ZM39.4583 25.2095C40.131 25.2095 40.5694 25.878 40.7238 26.4492C40.9113 27.1436 40.7958 27.9736 40.3139 28.533C39.9052 29.008 39.2639 29.1194 38.7695 28.6996C38.2156 28.2303 38.0333 27.4154 38.1344 26.7283C38.2305 26.0716 38.6769 25.2095 39.4583 25.2095ZM33.7343 34.8773C34.7397 33.5048 36.3145 32.4992 37.9692 32.0698C38.8346 31.8453 39.7469 31.7648 40.6312 31.919C41.4789 32.0676 42.2865 32.4165 43.0125 32.8661C43.8584 33.3906 44.6181 34.0608 45.2377 34.8335C42.6906 36.8666 39.125 37.3973 36.0755 36.2122C35.233 35.8852 34.4425 35.4328 33.7343 34.8773ZM57.1641 50.66C58.1752 49.2813 59.7586 48.2728 61.4231 47.8468C62.2868 47.6257 63.1985 47.5469 64.0793 47.705C64.9367 47.8592 65.7518 48.2154 66.484 48.6752C67.3134 49.1963 68.0576 49.8564 68.6675 50.6161C66.1205 52.6493 62.5543 53.1799 59.5048 51.9948C58.6628 51.6679 57.8717 51.2154 57.1641 50.66ZM62.8881 44.7557C62.2147 44.7557 61.7757 44.0866 61.622 43.5154C61.4345 42.821 61.55 41.991 62.0318 41.4316C62.4405 40.9566 63.0818 40.8452 63.5769 41.265C64.1302 41.7343 64.3125 42.5498 64.2113 43.2363C64.1153 43.8936 63.6689 44.7557 62.8881 44.7557ZM70.6304 48.4659C69.494 47.1794 68.0605 46.1153 66.4634 45.4496C67.785 43.18 67.1459 39.888 64.7269 38.5926C63.6997 38.0428 62.4599 37.9786 61.3836 38.4327C60.2787 38.8987 59.4391 39.8452 58.9995 40.9347C58.405 42.4085 58.5251 44.1463 59.3487 45.5132C57.7414 46.1569 56.2713 47.1772 55.1686 48.5019C53.611 46.1541 53.2595 43.1406 54.2226 40.5036C55.032 38.2864 56.7308 36.4311 58.8835 35.403C61.0995 34.3444 63.7169 34.2133 66.0313 35.0439C68.2794 35.8503 70.1565 37.5301 71.1917 39.6533C72.384 42.0996 72.3858 45.0213 71.1963 47.4698C71.0294 47.8131 70.8402 48.1457 70.6304 48.4659Z" stroke="#70CCFB" stroke-width="2.61628" mask="url(#path-1-inside-1)"/>
<circle cx="33.5946" cy="18.5946" r="0.59461" fill="#70CCFB"/>
</svg>
