<svg width="131" height="96" viewBox="0 0 131 96" fill="none" xmlns="http://www.w3.org/2000/svg">
<path d="M17.6415 96.0005C27.3846 96.0005 35.283 94.7246 35.283 93.1506C35.283 91.5767 27.3846 90.3008 17.6415 90.3008C7.89836 90.3008 0 91.5767 0 93.1506C0 94.7246 7.89836 96.0005 17.6415 96.0005Z" fill="#F2F2F2" fill-opacity="0.33"/>
<path d="M103.703 93.1034C118.779 93.1034 131 91.1291 131 88.6938C131 86.2584 118.779 84.2842 103.703 84.2842C88.6279 84.2842 76.4067 86.2584 76.4067 88.6938C76.4067 91.1291 88.6279 93.1034 103.703 93.1034Z" fill="#F2F2F2" fill-opacity="0.33"/>
<path d="M97.6384 46.3086C97.6384 46.3086 97.8708 47.0907 96.5539 47.7946C95.237 48.4985 94.8497 51.1577 96.399 51.9399C97.9483 52.722 98.413 53.7387 97.6384 54.4426C96.8637 55.1466 95.4694 57.0236 97.3285 57.4929C99.1877 57.9622 99.4201 58.9007 98.8778 59.2918C98.3356 59.6829 100.117 58.5879 100.117 58.5879C100.117 58.5879 100.427 60.465 102.054 59.9957C103.681 59.5264 108.251 50.6103 105.927 49.3589C103.603 48.1075 97.6384 46.3086 97.6384 46.3086Z" fill="#2F2E41"/>
<path d="M100.446 53.861C100.446 53.861 101.25 56.7005 99.8437 56.9033C98.9711 57.0406 98.1441 57.3885 97.4331 57.9174L100.045 61.3654H104.866L107.879 58.3231C107.879 58.3231 103.861 55.2807 104.665 53.4553C105.469 51.6299 100.446 53.861 100.446 53.861Z" fill="#FFB9B9"/>
<path opacity="0.1" d="M100.446 53.861C100.446 53.861 101.25 56.7005 99.8437 56.9033C98.9711 57.0406 98.1441 57.3885 97.4331 57.9174L100.045 61.3654H104.866L107.879 58.3231C107.879 58.3231 103.861 55.2807 104.665 53.4553C105.469 51.6299 100.446 53.861 100.446 53.861Z" fill="black"/>
<path d="M101.651 89.1519L106.272 90.7744L109.486 90.9772L109.285 88.1377L102.656 86.1582L101.651 89.1519Z" fill="#CD8787"/>
<path d="M107.578 88.543C107.578 88.543 107.578 91.3825 107.979 91.3825C108.381 91.3825 113.805 90.7741 115.412 91.3825C117.019 91.991 119.43 89.76 118.225 88.543C117.019 87.3261 115.053 85.5006 113.827 85.9063C112.6 86.3119 107.578 87.3261 107.578 87.3261V88.543Z" fill="#575A89"/>
<path d="M92.8125 85.9062C92.8125 85.9062 90.4019 90.774 92.009 91.1797C93.6161 91.5853 95.4241 90.9769 95.6249 90.774C95.8258 90.5712 98.6383 89.7599 99.04 90.1656C99.4418 90.5712 99.4418 88.543 99.4418 88.543L92.8125 85.9062Z" fill="#575A89"/>
<path d="M94.8215 79.2139C94.8215 79.2139 91.0046 84.4873 93.8171 85.9071C96.6295 87.3268 110.089 87.3268 111.093 85.9071C112.098 84.4873 112.499 80.0252 111.093 79.6195C109.687 79.2139 94.8215 79.2139 94.8215 79.2139Z" fill="#2F2E41"/>
<path opacity="0.2" d="M94.8215 79.2139C94.8215 79.2139 91.0046 84.4873 93.8171 85.9071C96.6295 87.3268 110.089 87.3268 111.093 85.9071C112.098 84.4873 112.499 80.0252 111.093 79.6195C109.687 79.2139 94.8215 79.2139 94.8215 79.2139Z" fill="black"/>
<path d="M102.053 55.2801C104.605 55.2801 106.674 53.1915 106.674 50.6151C106.674 48.0388 104.605 45.9502 102.053 45.9502C99.5017 45.9502 97.4331 48.0388 97.4331 50.6151C97.4331 53.1915 99.5017 55.2801 102.053 55.2801Z" fill="#CD8787"/>
<path d="M94.8213 57.9168L98.839 57.1055C98.839 57.1055 99.8434 60.3506 103.058 59.7422C106.272 59.1337 107.075 57.1055 107.075 57.1055C107.075 57.1055 109.486 58.1196 109.687 58.1196C109.888 58.1196 112.499 59.1337 112.499 59.7422C112.499 60.3506 109.486 66.4353 109.486 66.4353L109.888 77.3878L95.0222 76.9822L96.0266 66.2325L94.8213 57.9168Z" fill="#6C63FF"/>
<path d="M92.6116 63.1904C92.6116 63.1904 91.4063 73.9401 92.2098 74.7514C93.0134 75.5627 96.2276 77.7937 96.2276 77.7937V75.3598L94.6205 72.3175L96.2276 65.2187L92.6116 63.1904Z" fill="#CD8787"/>
<path d="M113.403 62.8857C113.403 62.8857 112.7 73.9396 112.7 74.3453C112.7 74.7509 110.892 76.1707 110.29 76.1707C109.687 76.1707 109.285 75.1566 109.285 75.1566L110.691 73.534L109.687 65.2182L113.403 62.8857Z" fill="#CD8787"/>
<path d="M111.495 78.402C111.495 78.402 120.535 73.3314 120.736 78.402C120.937 83.4726 116.115 85.5009 116.115 85.5009C116.115 85.5009 103.66 89.2717 103.158 87.8933C102.656 86.515 101.651 84.2839 102.455 84.0811C103.259 83.8783 104.263 83.4726 104.665 83.8783C105.067 84.2839 110.089 80.8359 110.089 80.8359L111.495 78.402Z" fill="#2F2E41"/>
<path opacity="0.2" d="M115.714 77.7939C115.714 77.7939 113.906 78.6052 113.303 79.2137C112.7 79.8222 110.089 80.8363 110.089 80.8363" stroke="black" stroke-width="2" stroke-miterlimit="10"/>
<path d="M96.0269 58.3226L94.8215 57.917C94.8215 57.917 90.402 62.5819 91.8082 63.7989C93.2145 65.0158 94.018 65.4215 94.4198 65.8271C94.8215 66.2328 96.8304 66.4356 96.8304 66.4356L96.0269 58.3226Z" fill="#6C63FF"/>
<path d="M110.692 59.3369L112.5 59.7426C112.5 59.7426 113.906 62.7849 114.308 63.1906C114.709 63.5962 113.705 63.3934 113.102 64.2047C112.5 65.016 111.897 66.4357 110.692 66.4357C109.486 66.4357 107.879 64.4075 107.879 64.4075L110.692 59.3369Z" fill="#6C63FF"/>
<path d="M95.2231 80.2277C95.2231 80.2277 87.5894 74.7514 84.9779 78.8079C82.3664 82.8644 96.2275 88.3406 98.2364 89.1519C100.245 89.9632 102.053 90.7745 102.053 90.7745C102.053 90.7745 103.861 86.3124 103.861 85.5011C103.861 84.6898 102.455 84.6898 102.053 84.6898C101.651 84.6898 99.8435 84.2841 99.4417 83.6757C99.0399 83.0672 95.2231 80.2277 95.2231 80.2277Z" fill="#2F2E41"/>
<path opacity="0.2" d="M91.0046 78.8076C91.0046 78.8076 93.0135 80.4302 94.8215 80.8359C96.6294 81.2415 97.2321 82.2556 97.2321 82.2556" stroke="black" stroke-width="2" stroke-miterlimit="10"/>
<path d="M93.8373 71.1822L93.9978 79.7699C94.0031 80.0535 94.1193 80.3236 94.3209 80.5211C94.5226 80.7187 94.7934 80.8278 95.0744 80.8246L110.903 80.645C111.173 80.642 111.431 80.5357 111.626 80.3477C111.821 80.1596 111.938 79.9038 111.954 79.632L112.434 71.2239C112.443 71.0777 112.421 70.9314 112.372 70.7939C112.322 70.6563 112.245 70.5305 112.146 70.424C112.046 70.3175 111.926 70.2327 111.793 70.1748C111.66 70.1168 111.516 70.0869 111.371 70.0869H94.9019C94.7604 70.0869 94.6203 70.1154 94.4898 70.1707C94.3593 70.226 94.2411 70.307 94.142 70.409C94.0428 70.511 93.9648 70.6319 93.9125 70.7646C93.8602 70.8974 93.8347 71.0394 93.8373 71.1822Z" fill="#575A89"/>
<path d="M102.3 44.7549C102.3 44.7549 102.558 45.6213 101.099 46.4011C99.64 47.1809 99.2109 50.1268 100.927 50.9932C102.643 51.8596 103.158 52.986 102.3 53.7658C101.442 54.5456 99.8974 56.625 101.957 57.1449C104.017 57.6647 104.274 58.7044 103.673 59.1377C103.073 59.5709 105.046 58.3579 105.046 58.3579C105.046 58.3579 105.39 60.4373 107.192 59.9175C108.994 59.3976 110.792 49.9478 108.783 47.5139C106.915 45.2508 102.3 44.7549 102.3 44.7549Z" fill="#2F2E41"/>
<path d="M101.752 43.8633C101.753 42.5939 105.514 43.506 107.127 45.2783C108.243 46.5056 109.94 48.3521 108.518 49.6536C107.097 50.9552 110.955 52.6614 111.989 53.1787C113.024 53.696 115.067 55.2779 113.222 56.3392C111.378 57.4005 111.407 58.4718 112.102 58.7254C112.796 58.9791 110.571 58.3483 110.571 58.3483C110.571 58.3483 110.796 60.4441 108.922 60.4341C107.047 60.4241 101.67 50.0246 102.955 47.134C104.149 44.4462 101.752 43.8633 101.752 43.8633Z" fill="#2F2E41"/>
<path d="M102.567 43.5858C97.5368 43.28 97.032 47.1027 97.032 47.1027C97.0668 49.3149 100.546 48.237 101.513 48.5668C102.679 47.72 104.926 46.1177 106.533 44.9742C105.366 44.1447 103.992 43.6635 102.567 43.5858Z" fill="#2F2E41"/>
<path d="M101.134 67.979C101.134 67.979 96.6217 46.6292 68.3809 31.1416" stroke="#3F3D56" stroke-width="0.5" stroke-miterlimit="10"/>
<path d="M69.5445 30.6758L69.6011 30.9099L68.4587 31.1895L68.8186 32.3195L68.5914 32.393L68.1533 31.0167L69.5445 30.6758Z" fill="#3F3D56"/>
<path d="M8.16191 89.7934C8.16191 92.4975 6.56983 93.4417 4.60573 93.4417C4.56024 93.4417 4.51481 93.4412 4.46945 93.4401C4.37845 93.4382 4.28832 93.4338 4.19927 93.4277C2.4267 93.301 1.04956 92.3083 1.04956 89.7934C1.04956 87.1909 4.34357 83.9069 4.591 83.6638L4.59143 83.6634C4.60097 83.654 4.60574 83.6494 4.60574 83.6494C4.60574 83.6494 8.16191 87.0894 8.16191 89.7934Z" fill="#6C63FF"/>
<path d="M4.47624 93.028L5.7769 91.1931L4.47299 93.2295L4.46952 93.4402C4.37852 93.4382 4.28839 93.4338 4.19934 93.4277L4.33952 90.7223L4.33844 90.7013L4.34082 90.6974L4.35404 90.4419L3.04688 88.4004L4.35815 90.2502L4.36119 90.3045L4.46714 88.2604L3.34805 86.1509L4.48079 87.9016L4.59107 83.6639L4.5915 83.6494V83.6634L4.57309 87.0052L5.6872 85.6804L4.56854 87.2931L4.53907 89.1232L5.5793 87.3668L4.53474 89.3925L4.51827 90.4099L6.02845 87.9653L4.51264 90.765L4.47624 93.028Z" fill="#3F3D56"/>
<path d="M25.1239 89.0931L25.8846 88.5225C25.8846 88.5225 26.3882 91.3623 25.8263 91.7878C25.2644 92.2133 23.1573 92.9224 23.1573 93.7733C23.1573 94.6243 18.3813 95.7589 18.2408 94.4825C18.1003 93.206 18.6622 92.4969 18.6622 92.4969C18.6622 92.4969 20.9098 90.2277 21.1907 89.8022C21.4717 89.3767 22.174 88.5258 22.174 88.5258L25.1239 89.0931Z" fill="#2F2E41"/>
<path d="M13.8862 53.7788C13.8862 53.7788 13.9073 53.9037 13.9438 54.132C13.9775 54.3348 14.0239 54.6213 14.0801 54.9744C14.6701 58.6095 16.3909 69.3103 16.2742 69.6634C16.1338 70.0889 15.1505 71.649 16.2742 72.0745C16.3824 72.1156 16.499 72.2489 16.624 72.4588C16.8653 72.9109 17.0643 73.3848 17.2182 73.8743C17.8883 75.8372 18.6047 78.9786 19.0191 81.1542C19.2003 82.1102 19.3239 82.8789 19.3604 83.2816C19.3731 83.3747 19.3745 83.469 19.3646 83.5625C19.2242 84.1298 20.2075 86.1153 20.6289 86.6827C21.0503 87.25 21.7526 87.8173 21.6122 88.3846C21.4717 88.9519 25.124 90.512 25.5454 89.5192C25.9668 88.5264 25.9668 87.9591 26.1073 87.6754C26.2477 87.3918 26.3882 85.4062 25.6858 85.1226C24.9835 84.8389 25.4049 79.875 24.7025 78.8822C24.468 78.5517 24.1098 77.4327 23.7347 76.0868C23.5872 75.5592 23.4383 74.9975 23.2922 74.4345C22.6994 72.127 22.1741 69.8053 22.1741 69.8053L22.3145 53.2115L14.5886 52.2188L14.3905 52.6598L13.9958 53.5349L13.8862 53.7788Z" fill="#2F2E41"/>
<path d="M13.4647 81.0092C13.4647 81.0092 12.3409 79.8745 11.779 81.0092C11.2172 82.1438 10.6553 86.5404 9.67197 87.5332C8.68867 88.526 7.42443 93.4899 8.82914 93.7736C10.2339 94.0572 11.779 93.3481 11.9195 92.4971C12.06 91.6462 15.0099 87.2495 15.0099 86.8241C15.0099 86.3986 13.0433 84.8385 13.0433 84.8385L13.4647 81.0092Z" fill="#2F2E41"/>
<path d="M30.7427 45.9774C30.7427 45.9774 28.9166 62.5711 28.4952 64.1312C28.0738 65.6913 25.8262 71.6481 25.1239 72.6408C24.4215 73.6336 19.9264 81.7178 19.3645 82.1432C18.8026 82.5687 17.6789 83.7033 17.6789 83.7033C17.6789 83.7033 15.5718 85.8307 15.2908 86.2562C15.0099 86.6817 12.6219 85.4052 12.4814 84.5543C12.3409 83.7033 12.6219 82.2851 12.7623 81.7178C12.9028 81.1504 12.4814 80.2995 12.9028 79.874C13.3242 79.4485 15.4313 77.3211 15.4313 76.3283C15.4313 75.3356 19.0836 69.5207 20.4883 68.2442C21.893 66.9678 21.6121 64.8404 21.6121 64.8404V56.189L13.8861 53.7779C13.8861 53.7779 14.3075 46.9702 15.2908 46.9702C16.2741 46.9702 29.1975 44.701 30.7427 45.9774Z" fill="#2F2E41"/>
<path d="M19.3646 22.2932C21.9247 22.2932 24.0001 20.1977 24.0001 17.6129C24.0001 15.0281 21.9247 12.9326 19.3646 12.9326C16.8044 12.9326 14.729 15.0281 14.729 17.6129C14.729 20.1977 16.8044 22.2932 19.3646 22.2932Z" fill="#9F616A"/>
<path d="M20.9098 21.2996C20.9098 21.2996 21.4716 23.427 22.174 23.9943C22.8764 24.5616 20.3479 26.9727 20.3479 26.9727L15.5718 27.2564L14.729 24.5616C14.729 24.5616 16.2742 21.4415 15.8528 19.4559C15.4314 17.4703 20.9098 21.2996 20.9098 21.2996Z" fill="#9F616A"/>
<path d="M22.8764 23.7109C22.8764 23.7109 21.6122 23.8528 21.3312 24.2782C21.0503 24.7037 19.0837 25.9802 17.5385 25.6965C15.9933 25.4129 15.01 24.9874 14.7291 25.1292C14.4481 25.271 13.8862 28.2494 13.8862 28.2494L15.4314 32.7878L15.1505 45.2686L14.7291 48.6724C14.7291 48.6724 13.8862 47.5378 17.2576 48.2469C20.6289 48.9561 24.9835 47.6796 26.3882 47.5378C27.7929 47.396 30.181 46.9705 30.3214 46.1195C30.4619 45.2686 29.9 42.1484 29.9 42.1484L27.6525 32.646L26.2477 27.5403L22.8764 23.7109Z" fill="#FF9263"/>
<path d="M21.5476 23.071C21.5476 23.071 22.7358 22.4347 23.1573 23.002C23.5787 23.5693 28.9166 24.4203 28.9166 24.8458C28.9166 25.2712 30.0404 36.7592 29.7594 37.752C29.4785 38.7448 30.3213 39.8794 30.3213 39.8794L31.3046 44.1342C31.3046 44.1342 33.9736 52.2183 32.8498 52.502C31.726 52.7856 30.7427 52.502 30.3213 52.502C29.8999 52.502 30.0404 47.1125 28.9166 45.6943C27.7928 44.276 26.2476 40.7303 25.9667 40.0212C25.6857 39.3121 22.174 29.526 22.3144 28.3914C22.4549 27.2568 21.5476 23.071 21.5476 23.071Z" fill="#D0CDE1"/>
<path d="M15.7123 23.7109C15.7123 23.7109 14.5885 23.7109 14.4481 23.9946C14.3076 24.2782 12.9029 26.122 12.341 26.5475C11.7791 26.973 9.8125 28.8167 9.8125 29.2422C9.8125 29.6677 13.8862 32.7878 13.8862 32.7878C13.8862 32.7878 15.5718 41.1556 14.729 43.9921C13.8862 46.8287 12.6219 53.6363 13.1838 54.0618C13.7457 54.4873 15.01 54.6291 15.01 54.0618C15.01 53.4945 15.8528 47.396 16.5551 46.1195C17.2575 44.8431 19.3646 36.759 18.5217 34.4898C17.6789 32.2205 15.7123 23.7109 15.7123 23.7109Z" fill="#D0CDE1"/>
<path d="M34.2548 37.752C34.2548 37.752 34.3952 42.1486 32.85 44.4178C31.3048 46.687 30.3215 49.2399 30.3215 49.2399C30.3215 49.2399 27.7931 48.5307 27.3716 47.6798C26.9502 46.8288 24.2812 47.538 24.2812 47.2543C24.2812 46.9707 27.5121 45.5524 27.793 45.2687C28.074 44.9851 29.0573 44.9851 29.6192 44.4178C30.1811 43.8505 30.3215 42.574 30.3215 42.574L30.8834 38.8866L34.2548 37.752Z" fill="#9F616A"/>
<path d="M22.5574 14.7264C22.914 14.6937 23.2818 14.6577 23.597 14.4861C24.3032 14.1016 24.4905 13.0065 23.9529 12.4052C23.8046 12.2522 23.6388 12.1176 23.459 12.0042L22.3912 11.2705C21.919 10.9459 21.4356 10.6161 20.8848 10.4631C20.3866 10.3247 19.8604 10.3389 19.3447 10.3713C18.3436 10.4341 17.3363 10.5639 16.3947 10.9128C15.4531 11.2618 14.5747 11.8457 14.0045 12.6788C13.1004 13.9995 13.088 15.7807 13.5859 17.3055C14.0838 18.8302 15.0297 20.1579 15.9617 21.4587L16.4453 19.0764C16.4883 18.8642 16.544 18.6317 16.7188 18.5061C17.1532 18.194 17.6847 18.8348 18.2178 18.8307C18.5604 18.828 18.848 18.5435 18.9779 18.2234C19.1077 17.9033 19.1163 17.5488 19.1463 17.2042C19.2099 16.4744 19.4626 15.4589 20.1471 15.0564C20.785 14.6814 21.8404 14.7922 22.5574 14.7264Z" fill="#2F2E41"/>
<path opacity="0.1" d="M22.2972 53.8932C22.2972 53.8932 21.8228 67.7486 21.5419 68.1741C21.2609 68.5995 21.5419 53.8496 21.5419 53.8496L22.2972 53.8932Z" fill="black"/>
<path d="M27.793 24.8457H28.9167C28.9167 24.8457 33.6928 31.3697 33.1309 31.7952C32.569 32.2207 33.1309 33.3553 33.1309 33.3553L34.2547 35.4827C34.2547 35.4827 35.6594 36.7591 35.238 37.0428C34.8166 37.3265 34.2547 38.4611 34.2547 38.4611C34.2547 38.4611 31.4452 38.0356 30.6024 39.7375L28.7805 37.4153L27.793 24.8457Z" fill="#D0CDE1"/>
<path d="M28.1901 26.944L24.334 28.5518L27.3014 35.8071L31.1576 34.1994L28.1901 26.944Z" fill="#2F2E41"/>
<path d="M27.7382 31.1989C28.1641 31.0214 28.3784 30.5571 28.2168 30.1621C28.0553 29.767 27.579 29.5907 27.1531 29.7683C26.7271 29.9459 26.5128 30.4101 26.6744 30.8052C26.836 31.2002 27.3122 31.3765 27.7382 31.1989Z" fill="#6C63FF"/>
<path d="M24.9835 36.1915C24.9835 36.1915 14.8695 44.7011 13.1839 42.0064C11.4982 39.3117 15.01 37.0425 15.01 37.0425C15.01 37.0425 18.1004 37.1843 21.6122 34.9151L25.124 33.355C25.124 33.355 28.33 28.7337 29.4225 30.4934C30.515 32.2532 27.5576 35.3159 24.9835 36.1915Z" fill="#9F616A"/>
<path d="M11.3578 28.6748L9.81262 29.2421V33.4969L9.25073 34.3479C9.25073 34.3479 9.3912 36.0498 9.81262 36.4753C10.234 36.9007 11.0769 36.7589 10.7959 37.7517C10.6271 38.399 10.5794 39.0724 10.6554 39.7373C10.6554 39.7373 13.1839 42.9993 13.3244 42.5738C13.4649 42.1483 15.4315 36.9007 15.7124 36.9007C15.9934 36.9007 12.903 28.6748 12.903 28.6748H11.3578Z" fill="#D0CDE1"/>
<path d="M29.8299 50.1616C29.8299 50.1616 31.2823 48.7433 30.5561 48.6724C29.8299 48.6015 27.3014 47.1832 26.88 47.8923C26.4585 48.6015 29.8299 50.1616 29.8299 50.1616Z" fill="#2F2E41"/>
<path d="M57.4541 23.1067C58.5733 23.1067 59.4805 22.6218 59.4805 22.0236C59.4805 21.4254 58.5733 20.9404 57.4541 20.9404C56.335 20.9404 55.4277 21.4254 55.4277 22.0236C55.4277 22.6218 56.335 23.1067 57.4541 23.1067Z" fill="#259DD9"/>
<path d="M65.2021 25.6348C60.6328 23.8924 56.0634 23.8924 51.4941 25.6348V19.9784C55.9639 18.6166 60.7323 18.6166 65.2021 19.9784V25.6348Z" stroke="#3F3D56" stroke-width="0.5" stroke-miterlimit="10"/>
<path d="M63.2949 24.4641C59.9971 23.2066 56.6992 23.2066 53.4014 24.4641V20.3817C56.6274 19.3988 60.0689 19.3988 63.2949 20.3817V24.4641Z" stroke="#3F3D56" stroke-width="0.5" stroke-miterlimit="10"/>
<path d="M58.1692 22.6253C59.2884 22.6253 60.1956 22.1403 60.1956 21.5421C60.1956 20.9439 59.2884 20.459 58.1692 20.459C57.0501 20.459 56.1428 20.9439 56.1428 21.5421C56.1428 22.1403 57.0501 22.6253 58.1692 22.6253Z" stroke="#3F3D56" stroke-width="0.5" stroke-miterlimit="10"/>
<path d="M58.9441 29.8901C60.0406 29.6642 60.8335 29.0059 60.715 28.4198C60.5965 27.8336 59.6115 27.5417 58.515 27.7676C57.4185 27.9936 56.6256 28.6519 56.7441 29.238C56.8626 29.8241 57.8475 30.1161 58.9441 29.8901Z" fill="#259DD9"/>
<path d="M67.036 30.802C62.2139 30.0174 57.7369 30.94 53.605 33.5697L52.4846 28.0276C56.5944 25.7908 61.2665 24.8281 65.9157 25.2599L67.036 30.802Z" stroke="#3F3D56" stroke-width="0.5" stroke-miterlimit="10"/>
<path d="M64.9359 30.0414C61.4556 29.4751 58.2243 30.141 55.2422 32.039L54.4336 28.039C57.3998 26.4246 60.7718 25.7298 64.1273 26.0415L64.9359 30.0414Z" stroke="#3F3D56" stroke-width="0.5" stroke-miterlimit="10"/>
<path d="M59.5495 29.2739C60.6461 29.048 61.4389 28.3897 61.3204 27.8035C61.202 27.2174 60.217 26.9255 59.1205 27.1514C58.0239 27.3774 57.2311 28.0357 57.3495 28.6218C57.468 29.2079 58.453 29.4999 59.5495 29.2739Z" stroke="#3F3D56" stroke-width="0.5" stroke-miterlimit="10"/>
<path d="M60.3309 35.7035C60.372 35.1068 59.5003 34.5594 58.3838 34.481C57.2674 34.4025 56.329 34.8227 56.2879 35.4195C56.2467 36.0162 57.1184 36.5636 58.2349 36.642C59.3513 36.7205 60.2897 36.3003 60.3309 35.7035Z" fill="#259DD9"/>
<path d="M65.7904 39.7057C61.3519 37.6472 56.7936 37.327 52.1155 38.7449L52.5044 33.1021C57.057 32.0569 61.8139 32.3911 66.1793 34.0629L65.7904 39.7057Z" stroke="#3F3D56" stroke-width="0.5" stroke-miterlimit="10"/>
<path d="M63.9681 38.4054C60.7646 36.9197 57.4747 36.6886 54.0984 37.712L54.3791 33.6393C57.6649 32.885 61.0981 33.1262 64.2488 34.3328L63.9681 38.4054Z" stroke="#3F3D56" stroke-width="0.5" stroke-miterlimit="10"/>
<path d="M61.0772 35.2729C61.1184 34.6761 60.2466 34.1287 59.1302 34.0503C58.0137 33.9719 57.0753 34.392 57.0342 34.9888C56.9931 35.5856 57.8648 36.1329 58.9812 36.2114C60.0977 36.2898 61.0361 35.8696 61.0772 35.2729Z" stroke="#3F3D56" stroke-width="0.5" stroke-miterlimit="10"/>
<path d="M49.4584 25.7653C49.4584 25.7653 40.6977 24.5552 34.4414 28.257" stroke="#3F3D56" stroke-width="0.5" stroke-miterlimit="10"/>
<path d="M34.6523 27.0137L34.8798 27.0864L34.5242 28.2175L35.6678 28.493L35.6121 28.7273L34.2195 28.3914L34.6523 27.0137Z" fill="#3F3D56"/>
</svg>
