<svg width="20" height="19" viewBox="0 0 20 19" fill="none" xmlns="http://www.w3.org/2000/svg">
<path d="M5.35941 12.5552C5.30574 12.55 5.25159 12.5587 5.20224 12.5804L5.35075 13.1865L5.29847 13.1812M5.35941 12.5552L5.32773 12.8654L5.32709 12.8717L5.3117 13.0224L5.29551 13.1809L5.29847 13.1812M5.35941 12.5552L5.32894 12.8682L5.32832 12.8746L5.31353 13.0265L5.29847 13.1812M5.35941 12.5552L5.44078 12.5635L7.95896 12.8207V13.2872V13.4385M5.29847 13.1812C5.32036 13.1833 5.34236 13.1831 5.36412 13.1807L5.37827 13.1745L5.39319 13.176C5.41253 13.172 5.43154 13.1661 5.44997 13.1584C5.45187 13.1576 5.45377 13.1568 5.45566 13.156L5.44999 13.1585L5.44998 13.1584L5.40593 13.1773L7.94367 13.437L7.95896 13.4385M7.95896 13.4385H8.00611H8.64713H9.26323V13.1399C9.26323 13.1708 9.2677 13.2008 9.27603 13.229C9.30513 13.3277 9.38134 13.4062 9.47864 13.4385C9.50981 13.4489 9.54314 13.4545 9.57779 13.4545H9.27603V14.0674V14.2171L9.54606 14.1871L9.5495 14.2181L9.58058 14.4978L9.58083 14.5L9.61523 14.8096M7.95896 13.4385L8.00611 12.9777L8.02168 12.8256H9.27603H9.57779C9.75138 12.8256 9.89212 12.9663 9.89212 13.1399V13.4385V14.2181V14.4978C9.89316 14.6438 9.7941 14.7692 9.6561 14.8045L9.61523 14.8096M9.61523 14.8096L9.6152 14.8096M9.61523 14.8096L9.6152 14.8096M9.6152 14.8096L9.57781 14.5001L9.57754 14.4978L9.54375 14.2181L9.54009 14.1878C9.50378 14.1922 9.46955 14.2026 9.43836 14.2181C9.37516 14.2493 9.32444 14.301 9.29417 14.364C9.2746 14.4047 9.26357 14.4501 9.26324 14.4978C9.26323 14.4993 9.26323 14.5008 9.26324 14.5023L9.26321 14.4978H9.26323V14.2197L9.6152 14.8096ZM3.58916 13.9559L3.58917 13.9559L3.46654 13.6683L3.46397 13.6622L3.39796 13.5074L3.34308 13.3787C3.36085 13.3711 3.37922 13.3652 3.39796 13.361C3.39892 13.3608 3.39988 13.3606 3.40084 13.3604C3.42155 13.3559 3.4427 13.3536 3.46397 13.3534C3.46569 13.3534 3.4674 13.3534 3.46912 13.3534L3.46912 13.3534H3.46397H3.40066L3.39831 13.3545L3.39796 13.3546L3.33758 13.381L3.39796 13.519L3.46397 13.6698L3.46648 13.6756L3.58916 13.9559ZM0 13.3536V13.9823H0.628894V13.3536H0Z" fill="#516573" stroke="#717171" stroke-width="1.25779"/>
<path d="M9.67434 4.44489L9.67157 4.48639L9.67157 4.4864L9.65446 4.74301L9.5916 5.68602L9.56952 6.0171L9.56843 6.01704L9.67434 4.44489ZM9.67434 4.44489C9.69164 4.357 9.74553 4.28167 9.82055 4.23647M9.67434 4.44489L9.82055 4.23647M9.82055 4.23647L9.92705 4.21495L9.92729 4.2149L10.1574 4.16841L11.3865 3.92008L11.4591 3.90541L11.4602 3.90518L11.5176 3.89359L11.5771 3.90688L11.5779 3.90707L11.6482 3.92276L13.2968 4.29114M9.82055 4.23647L10.2191 5.70625M13.2968 4.29114L13.2601 4.2955L13.2437 4.29744L13.2274 4.30024C13.2383 4.29837 13.2492 4.29708 13.2602 4.29636C13.2752 4.29537 13.2903 4.29547 13.3054 4.29665C13.3088 4.29692 13.3121 4.29724 13.3155 4.29762C13.3217 4.29831 13.3279 4.29918 13.334 4.30024L13.3228 4.36552L13.2906 4.55258L13.2807 4.60974L13.232 4.89259M13.2968 4.29114L13.3061 4.29323L13.3153 4.29527L13.3644 4.30625L13.332 4.45146L13.2971 4.6076L13.2876 4.6499L13.2333 4.89289M13.2968 4.29114L13.3069 4.28994L13.3146 4.28903L14.3038 4.17166L13.2333 4.89289M13.232 4.89259L13.176 4.88016L11.5165 4.51206L11.5163 4.51202M13.232 4.89259L13.2333 4.89289M13.232 4.89259L13.2273 4.92001L13.2333 4.89289M11.5163 4.51202L11.5165 4.51198L11.5809 4.49874L11.5964 4.49556L11.6117 4.4916C11.6015 4.49425 11.5912 4.49645 11.5808 4.4982C11.5602 4.5017 11.5393 4.50343 11.5184 4.50341C11.5137 4.5034 11.509 4.5033 11.5043 4.50312C11.4851 4.50237 11.466 4.50013 11.4472 4.49642C11.4401 4.49502 11.433 4.49342 11.426 4.4916L11.4365 4.49432L11.4471 4.49667L11.5056 4.50964L11.5163 4.51202ZM11.5163 4.51202L11.5065 4.51403L10.2809 4.76569M10.2809 4.76569L10.2966 4.52746L10.2966 4.52746L10.2967 4.52532C10.2966 4.52603 10.2966 4.52675 10.2966 4.52746C10.2932 4.57531 10.2792 4.62041 10.2568 4.66022C10.23 4.70763 10.1913 4.74754 10.1443 4.77567C10.1157 4.79283 10.084 4.8056 10.0501 4.81303C10.0474 4.81362 10.0447 4.81418 10.0419 4.81471L10.0419 4.81476L10.0501 4.81308L10.2107 4.7801L10.2782 4.76624L10.2809 4.76569ZM10.2809 4.76569L10.2802 4.77617L10.2797 4.78469L10.259 5.09896M10.259 5.09896H10.2191V5.70625M10.259 5.09896H10.261L10.2191 5.70625M10.259 5.09896L10.2191 5.70625" fill="#516573" stroke="#717171" stroke-width="1.25779"/>
<mask id="path-3-inside-1" fill="white">
<path d="M16.2225 1.32061C16.1878 1.29248 16.1468 1.27307 16.1031 1.26403L10.7594 0.00669162C10.6689 -0.0122864 10.5746 0.00955993 10.5016 0.0664153L7.04395 2.58109L7.41486 3.09032L10.7562 0.660508L15.8925 1.86755L18.668 4.02704L19.0515 3.52096L16.2225 1.32061Z"/>
</mask>
<path d="M16.2225 1.32061C16.1878 1.29248 16.1468 1.27307 16.1031 1.26403L10.7594 0.00669162C10.6689 -0.0122864 10.5746 0.00955993 10.5016 0.0664153L7.04395 2.58109L7.41486 3.09032L10.7562 0.660508L15.8925 1.86755L18.668 4.02704L19.0515 3.52096L16.2225 1.32061Z" fill="#516573"/>
<path d="M16.2225 1.32061L15.4309 2.29801L15.4405 2.30583L15.4503 2.31345L16.2225 1.32061ZM16.1031 1.26403L15.815 2.48838L15.8318 2.49234L15.8487 2.49584L16.1031 1.26403ZM10.7594 0.00669162L11.0475 -1.21766L11.0325 -1.22118L11.0174 -1.22434L10.7594 0.00669162ZM10.5016 0.0664153L11.2414 1.08363L11.2583 1.07137L11.2747 1.05856L10.5016 0.0664153ZM7.04395 2.58109L6.30415 1.56388L5.28619 2.30421L6.02727 3.32164L7.04395 2.58109ZM7.41486 3.09032L6.39818 3.83086L7.13814 4.84673L8.1546 4.10758L7.41486 3.09032ZM10.7562 0.660508L11.044 -0.563922L10.4828 -0.695813L10.0165 -0.356751L10.7562 0.660508ZM15.8925 1.86755L16.6648 0.874839L16.4478 0.706019L16.1802 0.643124L15.8925 1.86755ZM18.668 4.02704L17.8957 5.01975L18.9011 5.80203L19.6705 4.78668L18.668 4.02704ZM19.0515 3.52096L20.054 4.2806L20.8041 3.29066L19.8237 2.52812L19.0515 3.52096ZM17.0142 0.343209C16.8236 0.188843 16.5985 0.0819992 16.3574 0.0322242L15.8487 2.49584C15.6952 2.46414 15.552 2.39611 15.4309 2.29801L17.0142 0.343209ZM16.3911 0.0396796L11.0475 -1.21766L10.4713 1.23104L15.815 2.48838L16.3911 0.0396796ZM11.0174 -1.22434C10.5647 -1.31925 10.0933 -1.20994 9.72853 -0.925731L11.2747 1.05856C11.0559 1.22906 10.773 1.29468 10.5013 1.23772L11.0174 -1.22434ZM9.76183 -0.950802L6.30415 1.56388L7.78374 3.59831L11.2414 1.08363L9.76183 -0.950802ZM6.02727 3.32164L6.39818 3.83086L8.43154 2.34978L8.06062 1.84055L6.02727 3.32164ZM8.1546 4.10758L11.496 1.67777L10.0165 -0.356751L6.67512 2.07306L8.1546 4.10758ZM10.4685 1.88494L15.6047 3.09198L16.1802 0.643124L11.044 -0.563922L10.4685 1.88494ZM15.1201 2.86027L17.8957 5.01975L19.4404 3.03432L16.6648 0.874839L15.1201 2.86027ZM19.6705 4.78668L20.054 4.2806L18.049 2.76131L17.6656 3.26739L19.6705 4.78668ZM19.8237 2.52812L16.9947 0.327775L15.4503 2.31345L18.2793 4.51379L19.8237 2.52812Z" fill="#717171" mask="url(#path-3-inside-1)"/>
<mask id="path-5-inside-2" fill="white">
<path d="M11.1179 1.92754C11.0359 1.89069 10.9421 1.89069 10.8601 1.92754L8.97412 2.87055L9.25702 3.43007L11.0173 2.55307L12.457 3.14088L12.6896 2.55621L11.1179 1.92754Z"/>
</mask>
<path d="M11.1179 1.92754C11.0359 1.89069 10.9421 1.89069 10.8601 1.92754L8.97412 2.87055L9.25702 3.43007L11.0173 2.55307L12.457 3.14088L12.6896 2.55621L11.1179 1.92754Z" fill="#516573"/>
<path d="M11.1179 1.92754L10.6021 3.07469L10.6262 3.08554L10.6508 3.09537L11.1179 1.92754ZM10.8601 1.92754L10.3443 0.780397L10.3207 0.790991L10.2976 0.802545L10.8601 1.92754ZM8.97412 2.87055L8.41162 1.74555L7.28156 2.31058L7.85166 3.43809L8.97412 2.87055ZM9.25702 3.43007L8.13456 3.99761L8.69875 5.11345L9.81791 4.55587L9.25702 3.43007ZM11.0173 2.55307L11.4927 1.38861L10.9658 1.17347L10.4564 1.42727L11.0173 2.55307ZM12.457 3.14088L11.9815 4.30534L13.1565 4.78508L13.6256 3.60584L12.457 3.14088ZM12.6896 2.55621L13.8583 3.02118L14.3224 1.85465L13.1567 1.38839L12.6896 2.55621ZM11.6337 0.780397C11.2237 0.596021 10.7543 0.596021 10.3443 0.780397L11.376 3.07469C11.1299 3.18536 10.8482 3.18536 10.6021 3.07469L11.6337 0.780397ZM10.2976 0.802545L8.41162 1.74555L9.53662 3.99555L11.4226 3.05254L10.2976 0.802545ZM7.85166 3.43809L8.13456 3.99761L10.3795 2.86253L10.0966 2.30301L7.85166 3.43809ZM9.81791 4.55587L11.5782 3.67887L10.4564 1.42727L8.69613 2.30426L9.81791 4.55587ZM10.5419 3.71754L11.9815 4.30534L12.9324 1.97641L11.4927 1.38861L10.5419 3.71754ZM13.6256 3.60584L13.8583 3.02118L11.5209 2.09125L11.2883 2.67592L13.6256 3.60584ZM13.1567 1.38839L11.585 0.759718L10.6508 3.09537L12.2224 3.72404L13.1567 1.38839Z" fill="#717171" mask="url(#path-5-inside-2)"/>
<path d="M8.5964 7.95191L8.59423 7.9472L8.5964 7.95191Z" fill="#516573" stroke="#717171" stroke-width="1.25779"/>
</svg>
