<svg width="127" height="127" viewBox="0 0 127 127" fill="none" xmlns="http://www.w3.org/2000/svg">
<path d="M102 46.691C102 41.3391 97.6904 37 92.375 37H34.625C29.3096 37 25 41.3391 25 46.691V81.7724C25 87.1243 29.3096 91.4634 34.625 91.4634H92.375C97.6904 91.4634 102 87.1243 102 81.7724V46.691ZM34.625 40.8764H92.375C95.5597 40.8764 98.15 43.5723 98.15 46.7788V47.2725H28.85V46.7788C28.85 43.5723 31.4403 40.8764 34.625 40.8764ZM98.15 51.1489V57.9326H28.85V51.1489H98.15ZM92.375 87.7808H34.625C31.4403 87.7808 28.85 85.0849 28.85 81.8784V61.809H98.15V81.8784C98.15 85.0849 95.5597 87.7808 92.375 87.7808Z" fill="#717171"/>
<path d="M67.5479 67.0488C66.129 67.0483 64.7344 67.3907 63.5032 68.0412C60.0743 66.2347 55.7317 66.9496 53.1952 69.7398C50.6582 72.5299 50.6582 76.5923 53.1952 79.3824C55.7317 82.1721 60.0743 82.888 63.5032 81.0804C66.4766 82.6448 70.1951 82.3318 72.812 80.298C75.429 78.2635 76.3866 74.9406 75.2105 71.9792C74.0332 69.0173 70.9733 67.0483 67.5479 67.0488ZM63.1798 74.5611C63.1798 74.0409 63.2894 73.5256 63.5032 73.0441C63.9349 74.0164 63.9349 75.1053 63.5032 76.0775C63.29 75.596 63.1798 75.0818 63.1798 74.5616V74.5611ZM55.0909 74.5611C55.0909 73.3135 55.7198 72.1373 56.7923 71.3751C57.8654 70.6138 59.2612 70.3543 60.5712 70.6716C58.9965 73.0621 58.9965 76.0595 60.5712 78.45C59.2612 78.7679 57.8648 78.5078 56.7923 77.7466C55.7198 76.9849 55.0909 75.8081 55.0909 74.5611ZM67.5479 78.5831C67.1731 78.5831 66.7988 78.5389 66.4364 78.45C68.0104 76.0606 68.0104 73.0621 66.4364 70.6716C68.075 70.2741 69.8161 70.7862 70.9022 71.9852C71.9877 73.1832 72.2222 74.8528 71.5039 76.2662C70.7855 77.6801 69.2434 78.5831 67.5479 78.5831Z" fill="#717171"/>
<circle cx="63.5" cy="63.5" r="62.5" stroke="#717171" stroke-width="2"/>
<line x1="106.707" y1="18.7071" x2="18.7071" y2="106.707" stroke="#717171" stroke-width="2"/>
</svg>
