<svg width="24" height="20" viewBox="0 0 24 20" fill="none" xmlns="http://www.w3.org/2000/svg">
<path d="M14.98 9.11812L14.7799 8.91804L15.2854 8.61264L14.98 9.11812Z" fill="#57584F" stroke="#57584F" stroke-width="1.25779"/>
<mask id="path-2-inside-1" fill="white">
<path d="M23.0447 7.52762C23.0396 7.50079 23.0321 7.47413 23.0217 7.44818C23.0113 7.42214 22.9981 7.39829 22.9827 7.37644C22.3858 5.94742 21.5187 4.65688 20.4459 3.56934C20.4308 3.54684 20.4132 3.52528 20.3929 3.50502C20.3727 3.48476 20.3511 3.46716 20.3286 3.45204C18.1677 1.3206 15.2053 0 11.949 0C10.3892 0 8.8969 0.303392 7.52762 0.853279C7.50079 0.85832 7.47413 0.865881 7.44823 0.876243C7.42223 0.886652 7.39833 0.899908 7.37649 0.915311C5.94747 1.51215 4.65693 2.37929 3.56938 3.45204C3.54689 3.46716 3.52532 3.48476 3.50507 3.50502C3.48481 3.52528 3.46716 3.54684 3.45209 3.56934C1.3206 5.73024 0 8.6927 0 11.949C0 14.6574 0.876243 17.2463 2.58896 19.3574C2.66864 19.4768 2.78813 19.5167 2.90762 19.5167H20.9904C21.1099 19.5167 21.2294 19.4768 21.309 19.3574C23.0217 17.2464 23.898 14.6574 23.898 11.949C23.898 10.3892 23.5946 8.8969 23.0447 7.52762ZM20.831 18.7201H3.10673C2.56814 18.0256 2.12085 17.2804 1.76738 16.4976L2.86776 16.0515C3.06692 15.9718 3.14655 15.7328 3.06692 15.5337C2.98725 15.3346 2.74827 15.2549 2.54915 15.3346L1.47047 15.7719C1.07027 14.6824 0.845297 13.5304 0.804036 12.3473H3.58469C3.82367 12.3473 3.98298 12.188 3.98298 11.949C3.98298 11.71 3.82367 11.5507 3.58469 11.5507H0.804549C0.849218 10.2948 1.10402 9.09019 1.53493 7.97095L2.62878 8.44396C2.66859 8.48378 2.74827 8.48378 2.78808 8.48378C2.94738 8.48378 3.06687 8.4041 3.14655 8.2448C3.22623 8.04563 3.14655 7.80665 2.94738 7.72702L1.84248 7.2492C2.34186 6.18355 3.00498 5.2085 3.79922 4.35685L4.62024 5.17788C4.69992 5.25755 4.77955 5.29737 4.89904 5.29737C5.01853 5.29737 5.0982 5.25755 5.17783 5.17788C5.33713 5.01857 5.33713 4.77959 5.17783 4.62024L4.3568 3.79922C5.2491 2.96708 6.27662 2.27847 7.40211 1.77172L7.84647 2.86776C7.88628 3.02706 8.04563 3.10673 8.20494 3.10673C8.24475 3.10673 8.28461 3.10674 8.36424 3.06692C8.56341 2.98725 8.64303 2.74827 8.56341 2.54915L8.12797 1.47505C9.20249 1.08003 10.3534 0.847164 11.5507 0.804596V3.58474C11.5507 3.82372 11.71 3.98302 11.9489 3.98302C12.1879 3.98302 12.3472 3.82372 12.3472 3.58474V0.804549C13.6031 0.849218 14.8077 1.10402 15.927 1.53493L15.454 2.62882C15.3743 2.82799 15.454 3.06697 15.6531 3.1466C15.6929 3.18641 15.7726 3.18641 15.8124 3.18641C15.9717 3.18641 16.1311 3.06692 16.1709 2.94743L16.6487 1.84252C17.7144 2.34191 18.6894 3.00503 19.5411 3.79926L18.72 4.62029C18.5607 4.77959 18.5607 5.01857 18.72 5.17792C18.7997 5.2576 18.8793 5.29741 18.9988 5.29741C19.0785 5.29741 19.198 5.2576 19.2776 5.17792L20.0987 4.3569C20.9308 5.2492 21.6194 6.27672 22.1262 7.40221L21.0301 7.84656C20.8309 7.92624 20.7513 8.16522 20.8309 8.36433C20.8708 8.52364 21.0301 8.60331 21.1894 8.60331C21.2292 8.60331 21.2691 8.5635 21.3487 8.5635L22.4229 8.12806C22.8179 9.20258 23.0508 10.3535 23.0933 11.5507H20.3133C20.0743 11.5507 19.915 11.71 19.915 11.949C19.915 12.188 20.0743 12.3473 20.3133 12.3473H23.094C23.0507 13.5886 22.8059 14.7955 22.3743 15.932L21.2692 15.454C21.07 15.3744 20.831 15.454 20.7514 15.6532C20.6717 15.8524 20.7514 16.0914 20.9506 16.171L22.0699 16.655C21.7343 17.3804 21.3202 18.0723 20.831 18.7201Z"/>
</mask>
<path d="M23.0447 7.52762C23.0396 7.50079 23.0321 7.47413 23.0217 7.44818C23.0113 7.42214 22.9981 7.39829 22.9827 7.37644C22.3858 5.94742 21.5187 4.65688 20.4459 3.56934C20.4308 3.54684 20.4132 3.52528 20.3929 3.50502C20.3727 3.48476 20.3511 3.46716 20.3286 3.45204C18.1677 1.3206 15.2053 0 11.949 0C10.3892 0 8.8969 0.303392 7.52762 0.853279C7.50079 0.85832 7.47413 0.865881 7.44823 0.876243C7.42223 0.886652 7.39833 0.899908 7.37649 0.915311C5.94747 1.51215 4.65693 2.37929 3.56938 3.45204C3.54689 3.46716 3.52532 3.48476 3.50507 3.50502C3.48481 3.52528 3.46716 3.54684 3.45209 3.56934C1.3206 5.73024 0 8.6927 0 11.949C0 14.6574 0.876243 17.2463 2.58896 19.3574C2.66864 19.4768 2.78813 19.5167 2.90762 19.5167H20.9904C21.1099 19.5167 21.2294 19.4768 21.309 19.3574C23.0217 17.2464 23.898 14.6574 23.898 11.949C23.898 10.3892 23.5946 8.8969 23.0447 7.52762ZM20.831 18.7201H3.10673C2.56814 18.0256 2.12085 17.2804 1.76738 16.4976L2.86776 16.0515C3.06692 15.9718 3.14655 15.7328 3.06692 15.5337C2.98725 15.3346 2.74827 15.2549 2.54915 15.3346L1.47047 15.7719C1.07027 14.6824 0.845297 13.5304 0.804036 12.3473H3.58469C3.82367 12.3473 3.98298 12.188 3.98298 11.949C3.98298 11.71 3.82367 11.5507 3.58469 11.5507H0.804549C0.849218 10.2948 1.10402 9.09019 1.53493 7.97095L2.62878 8.44396C2.66859 8.48378 2.74827 8.48378 2.78808 8.48378C2.94738 8.48378 3.06687 8.4041 3.14655 8.2448C3.22623 8.04563 3.14655 7.80665 2.94738 7.72702L1.84248 7.2492C2.34186 6.18355 3.00498 5.2085 3.79922 4.35685L4.62024 5.17788C4.69992 5.25755 4.77955 5.29737 4.89904 5.29737C5.01853 5.29737 5.0982 5.25755 5.17783 5.17788C5.33713 5.01857 5.33713 4.77959 5.17783 4.62024L4.3568 3.79922C5.2491 2.96708 6.27662 2.27847 7.40211 1.77172L7.84647 2.86776C7.88628 3.02706 8.04563 3.10673 8.20494 3.10673C8.24475 3.10673 8.28461 3.10674 8.36424 3.06692C8.56341 2.98725 8.64303 2.74827 8.56341 2.54915L8.12797 1.47505C9.20249 1.08003 10.3534 0.847164 11.5507 0.804596V3.58474C11.5507 3.82372 11.71 3.98302 11.9489 3.98302C12.1879 3.98302 12.3472 3.82372 12.3472 3.58474V0.804549C13.6031 0.849218 14.8077 1.10402 15.927 1.53493L15.454 2.62882C15.3743 2.82799 15.454 3.06697 15.6531 3.1466C15.6929 3.18641 15.7726 3.18641 15.8124 3.18641C15.9717 3.18641 16.1311 3.06692 16.1709 2.94743L16.6487 1.84252C17.7144 2.34191 18.6894 3.00503 19.5411 3.79926L18.72 4.62029C18.5607 4.77959 18.5607 5.01857 18.72 5.17792C18.7997 5.2576 18.8793 5.29741 18.9988 5.29741C19.0785 5.29741 19.198 5.2576 19.2776 5.17792L20.0987 4.3569C20.9308 5.2492 21.6194 6.27672 22.1262 7.40221L21.0301 7.84656C20.8309 7.92624 20.7513 8.16522 20.8309 8.36433C20.8708 8.52364 21.0301 8.60331 21.1894 8.60331C21.2292 8.60331 21.2691 8.5635 21.3487 8.5635L22.4229 8.12806C22.8179 9.20258 23.0508 10.3535 23.0933 11.5507H20.3133C20.0743 11.5507 19.915 11.71 19.915 11.949C19.915 12.188 20.0743 12.3473 20.3133 12.3473H23.094C23.0507 13.5886 22.8059 14.7955 22.3743 15.932L21.2692 15.454C21.07 15.3744 20.831 15.454 20.7514 15.6532C20.6717 15.8524 20.7514 16.0914 20.9506 16.171L22.0699 16.655C21.7343 17.3804 21.3202 18.0723 20.831 18.7201Z" fill="#57584F"/>
<path d="M23.0447 7.52762L21.8085 7.75981L21.8314 7.88148L21.8775 7.99635L23.0447 7.52762ZM23.0217 7.44818L24.1898 6.98178L24.1897 6.98141L23.0217 7.44818ZM22.9827 7.37644L21.822 7.86119L21.8752 7.98851L21.9547 8.10127L22.9827 7.37644ZM20.4459 3.56934L19.4021 4.27103L19.4678 4.36877L19.5505 4.45262L20.4459 3.56934ZM20.3286 3.45204L19.4454 4.34751L19.5292 4.43021L19.6269 4.49591L20.3286 3.45204ZM7.52762 0.853279L7.75981 2.08945L7.88148 2.0666L7.99635 2.02046L7.52762 0.853279ZM7.44823 0.876243L6.9811 -0.291583L6.98074 -0.291439L7.44823 0.876243ZM7.37649 0.915311L7.86123 2.07594L7.98855 2.02276L8.10132 1.94325L7.37649 0.915311ZM3.56938 3.45204L4.27107 4.49591L4.36882 4.43021L4.45266 4.3475L3.56938 3.45204ZM3.45209 3.56934L4.34755 4.45261L4.43089 4.36812L4.49696 4.26953L3.45209 3.56934ZM2.58896 19.3574L3.63544 18.6596L3.60279 18.6106L3.56571 18.5649L2.58896 19.3574ZM21.309 19.3574L20.3323 18.5649L20.2952 18.6106L20.2626 18.6596L21.309 19.3574ZM20.831 18.7201V19.9779H21.4574L21.8348 19.478L20.831 18.7201ZM3.10673 18.7201L2.11279 19.4909L2.49045 19.9779H3.10673V18.7201ZM1.76738 16.4976L1.29484 15.3319L0.0828414 15.8233L0.621028 17.0152L1.76738 16.4976ZM2.86776 16.0515L2.40057 14.8837L2.39522 14.8858L2.86776 16.0515ZM3.06692 15.5337L4.23479 15.0667L4.23473 15.0665L3.06692 15.5337ZM2.54915 15.3346L2.08211 14.1667L2.07659 14.1689L2.54915 15.3346ZM1.47047 15.7719L0.289814 16.2055L0.73811 17.426L1.94303 16.9375L1.47047 15.7719ZM0.804036 12.3473V11.0895H-0.498381L-0.452988 12.3911L0.804036 12.3473ZM0.804549 11.5507L-0.452444 11.506L-0.498769 12.8085H0.804549V11.5507ZM1.53493 7.97095L2.03416 6.81648L0.831797 6.29654L0.361133 7.51903L1.53493 7.97095ZM2.62878 8.44396L3.51817 7.55457L3.34839 7.38479L3.128 7.28949L2.62878 8.44396ZM3.14655 8.2448L4.27148 8.80743L4.29491 8.76059L4.31436 8.71198L3.14655 8.2448ZM2.94738 7.72702L2.44814 8.88148L2.4642 8.88843L2.48044 8.89493L2.94738 7.72702ZM1.84248 7.2492L0.703544 6.71548L0.153529 7.88918L1.34323 8.40367L1.84248 7.2492ZM3.79922 4.35685L4.68861 3.46746L3.76765 2.54651L2.87936 3.49901L3.79922 4.35685ZM5.17783 5.17788L4.28844 4.28849L4.28818 4.28875L5.17783 5.17788ZM5.17783 4.62024L6.06735 3.73098L6.06722 3.73085L5.17783 4.62024ZM4.3568 3.79922L3.49897 2.87936L2.54645 3.76764L3.46741 4.68861L4.3568 3.79922ZM7.40211 1.77172L8.56775 1.29915L8.07692 0.0884766L6.88572 0.624822L7.40211 1.77172ZM7.84647 2.86776L9.06672 2.56278L9.0453 2.47707L9.0121 2.39519L7.84647 2.86776ZM8.36424 3.06692L7.89706 1.89911L7.84851 1.91854L7.80174 1.94192L8.36424 3.06692ZM8.56341 2.54915L9.73128 2.08211L9.72905 2.0766L8.56341 2.54915ZM8.12797 1.47505L7.69398 0.294504L6.47398 0.742998L6.96232 1.9476L8.12797 1.47505ZM11.5507 0.804596H12.8084V-0.498708L11.506 -0.452397L11.5507 0.804596ZM12.3472 0.804549L12.3919 -0.452444L11.0894 -0.498769V0.804549H12.3472ZM15.927 1.53493L17.0814 2.03414L17.6014 0.831789L16.3789 0.361133L15.927 1.53493ZM15.454 2.62882L14.2995 2.12961L14.2926 2.14554L14.2861 2.16164L15.454 2.62882ZM15.6531 3.1466L16.5425 2.25721L16.3599 2.07458L16.1201 1.97869L15.6531 3.1466ZM16.1709 2.94743L15.0164 2.44818L14.9948 2.49816L14.9776 2.54982L16.1709 2.94743ZM16.6487 1.84252L17.1824 0.70359L16.0087 0.153576L15.4943 1.34327L16.6487 1.84252ZM19.5411 3.79926L20.4305 4.68865L21.3514 3.7677L20.3989 2.87941L19.5411 3.79926ZM18.72 5.17792L17.8305 6.06718L17.8307 6.06731L18.72 5.17792ZM19.2776 5.17792L18.3882 4.28853L18.388 4.28879L19.2776 5.17792ZM20.0987 4.3569L21.0185 3.49906L20.1302 2.54654L19.2093 3.46751L20.0987 4.3569ZM22.1262 7.40221L22.5987 8.56784L23.8094 8.07702L23.273 6.88581L22.1262 7.40221ZM21.0301 7.84656L21.4973 9.01438L21.5027 9.0122L21.0301 7.84656ZM20.8309 8.36433L22.0512 8.05936L22.0305 7.97655L21.9988 7.8973L20.8309 8.36433ZM21.3487 8.5635V9.82129H21.594L21.8213 9.72915L21.3487 8.5635ZM22.4229 8.12806L23.6034 7.69407L23.1549 6.4741L21.9503 6.96241L22.4229 8.12806ZM23.0933 11.5507V12.8085H24.3966L24.3503 11.5061L23.0933 11.5507ZM23.094 12.3473L24.351 12.3911L24.3964 11.0895H23.094V12.3473ZM22.3743 15.932L21.8751 17.0864L23.083 17.6088L23.5502 16.3785L22.3743 15.932ZM21.2692 15.454L21.7684 14.2996L21.7525 14.2927L21.7364 14.2862L21.2692 15.454ZM20.7514 15.6532L21.9192 16.1204L21.9193 16.1202L20.7514 15.6532ZM20.9506 16.171L21.4498 15.0165L21.4338 15.0096L21.4175 15.0031L20.9506 16.171ZM22.0699 16.655L23.2114 17.1832L23.7531 16.0125L22.5691 15.5005L22.0699 16.655ZM24.2809 7.29544C24.2616 7.19289 24.232 7.08745 24.1898 6.98178L21.8536 7.91459C21.8321 7.86082 21.8177 7.80868 21.8085 7.75981L24.2809 7.29544ZM24.1897 6.98141C24.1406 6.85859 24.079 6.74865 24.0106 6.65161L21.9547 8.10127C21.9171 8.04793 21.882 7.98568 21.8537 7.91495L24.1897 6.98141ZM24.1433 6.8917C23.4833 5.31149 22.5252 3.88623 21.3414 2.68606L19.5505 4.45262C20.5121 5.42753 21.2883 6.58335 21.822 7.86119L24.1433 6.8917ZM21.4898 2.86765C21.4301 2.77882 21.3609 2.69423 21.2823 2.61563L19.5036 4.39441C19.4655 4.35632 19.4315 4.31486 19.4021 4.27103L21.4898 2.86765ZM21.2823 2.61563C21.2037 2.53703 21.1191 2.46789 21.0303 2.40817L19.6269 4.49591C19.5831 4.46644 19.5416 4.43249 19.5036 4.39441L21.2823 2.61563ZM21.2119 2.55657C18.8274 0.204588 15.5521 -1.25779 11.949 -1.25779V1.25779C14.8585 1.25779 17.508 2.4366 19.4454 4.34751L21.2119 2.55657ZM11.949 -1.25779C10.2248 -1.25779 8.57366 -0.922221 7.0589 -0.313908L7.99635 2.02046C9.22014 1.52901 10.5535 1.25779 11.949 1.25779V-1.25779ZM7.29544 -0.382893C7.19296 -0.363645 7.08723 -0.334038 6.9811 -0.291583L7.91536 2.04407C7.86103 2.0658 7.80861 2.08028 7.75981 2.08945L7.29544 -0.382893ZM6.98074 -0.291439C6.85899 -0.242694 6.74919 -0.181394 6.65166 -0.112626L8.10132 1.94325C8.04748 1.98121 7.98548 2.016 7.91572 2.04393L6.98074 -0.291439ZM6.89175 -0.245315C5.31154 0.41467 3.88628 1.37274 2.68611 2.55658L4.45266 4.3475C5.42758 3.38585 6.58339 2.60964 7.86123 2.07594L6.89175 -0.245315ZM2.8677 2.40817C2.77885 2.4679 2.69426 2.53705 2.61568 2.61563L4.39446 4.39441C4.35639 4.43248 4.31493 4.46643 4.27107 4.49591L2.8677 2.40817ZM2.61568 2.61563C2.5379 2.6934 2.46811 2.77827 2.40722 2.86914L4.49696 4.26953C4.46622 4.31541 4.43171 4.35715 4.39446 4.39441L2.61568 2.61563ZM2.55663 2.68606C0.204589 5.07055 -1.25779 8.34591 -1.25779 11.949H1.25779C1.25779 9.03948 2.4366 6.38993 4.34755 4.45261L2.55663 2.68606ZM-1.25779 11.949C-1.25779 14.9332 -0.290251 17.8049 1.61222 20.1498L3.56571 18.5649C2.04274 16.6878 1.25779 14.3817 1.25779 11.949H-1.25779ZM1.54248 20.0551C1.91964 20.6208 2.49826 20.7744 2.90762 20.7744V18.2589C2.98368 18.2589 3.10949 18.2712 3.25374 18.3367C3.40873 18.4072 3.54272 18.5205 3.63544 18.6596L1.54248 20.0551ZM2.90762 20.7744H20.9904V18.2589H2.90762V20.7744ZM20.9904 20.7744C21.3998 20.7744 21.9784 20.6208 22.3555 20.0551L20.2626 18.6596C20.3553 18.5205 20.4893 18.4072 20.6443 18.3367C20.7885 18.2712 20.9143 18.2589 20.9904 18.2589V20.7744ZM22.2858 20.1498C24.1882 17.805 25.1558 14.9331 25.1558 11.949H22.6402C22.6402 14.3817 21.8552 16.6878 20.3323 18.5649L22.2858 20.1498ZM25.1558 11.949C25.1558 10.2248 24.8202 8.57366 24.2119 7.0589L21.8775 7.99635C22.369 9.22014 22.6402 10.5535 22.6402 11.949H25.1558ZM20.831 17.4623H3.10673V19.9779H20.831V17.4623ZM4.10068 17.9493C3.6226 17.3328 3.22648 16.6726 2.91372 15.98L0.621028 17.0152C1.01522 17.8882 1.51368 18.7183 2.11279 19.4909L4.10068 17.9493ZM2.23991 17.6632L3.34029 17.2171L2.39522 14.8858L1.29484 15.3319L2.23991 17.6632ZM3.33493 17.2193C4.29033 16.8371 4.52543 15.7935 4.23479 15.0667L1.89906 16.0008C1.76767 15.6722 1.84351 15.1065 2.40058 14.8837L3.33493 17.2193ZM4.23473 15.0665C3.85252 14.1111 2.8089 13.876 2.08211 14.1667L3.01618 16.5024C2.68763 16.6338 2.12197 16.558 1.89911 16.0009L4.23473 15.0665ZM2.07659 14.1689L0.99791 14.6062L1.94303 16.9375L3.02171 16.5002L2.07659 14.1689ZM2.65113 15.3382C2.2975 14.3755 2.09774 13.3553 2.06106 12.3035L-0.452988 12.3911C-0.407145 13.7056 -0.156951 14.9893 0.289814 16.2055L2.65113 15.3382ZM0.804036 13.6051H3.58469V11.0895H0.804036V13.6051ZM3.58469 13.6051C3.98998 13.6051 4.4255 13.4645 4.76285 13.1272C5.10019 12.7898 5.24077 12.3543 5.24077 11.949H2.72519C2.72519 11.7827 2.78611 11.5463 2.98406 11.3484C3.18201 11.1504 3.41838 11.0895 3.58469 11.0895V13.6051ZM5.24077 11.949C5.24077 11.5438 5.1002 11.1083 4.76292 10.7709C4.42561 10.4336 3.99009 10.2929 3.58469 10.2929V12.8085C3.41828 12.8085 3.1819 12.7475 2.98399 12.5496C2.7861 12.3516 2.72519 12.1153 2.72519 11.949H5.24077ZM3.58469 10.2929H0.804549V12.8085H3.58469V10.2929ZM2.06154 11.5954C2.10116 10.4815 2.32699 9.41439 2.70873 8.42287L0.361133 7.51903C-0.118949 8.76599 -0.402723 10.1081 -0.452444 11.506L2.06154 11.5954ZM1.0357 9.12542L2.12955 9.59843L3.128 7.28949L2.03416 6.81648L1.0357 9.12542ZM1.73939 9.33335C2.03822 9.63219 2.38476 9.7 2.50173 9.71949C2.64771 9.74381 2.77542 9.74156 2.78808 9.74156V7.22599C2.76093 7.22599 2.8289 7.22375 2.91513 7.23811C2.9625 7.24601 3.04372 7.26301 3.14097 7.30278C3.23811 7.34251 3.38057 7.41697 3.51817 7.55457L1.73939 9.33335ZM2.78808 9.74156C3.0879 9.74156 3.40628 9.66297 3.69489 9.47055C3.97562 9.28339 4.15705 9.03624 4.27148 8.80743L2.02162 7.68217C2.05638 7.61266 2.13822 7.48499 2.29946 7.3775C2.46858 7.26475 2.64756 7.22599 2.78808 7.22599V9.74156ZM4.31436 8.71198C4.60518 7.98501 4.36993 6.94118 3.41433 6.55912L2.48044 8.89493C1.92317 8.67212 1.84727 8.10625 1.97874 7.77762L4.31436 8.71198ZM3.44663 6.57256L2.34173 6.09474L1.34323 8.40367L2.44814 8.88148L3.44663 6.57256ZM2.98141 7.78293C3.42438 6.83766 4.01312 5.97167 4.71907 5.2147L2.87936 3.49901C1.99684 4.44532 1.25934 5.52944 0.703544 6.71548L2.98141 7.78293ZM2.90983 5.24624L3.73085 6.06727L5.50963 4.28849L4.68861 3.46746L2.90983 5.24624ZM3.73085 6.06727C3.84489 6.18131 4.00895 6.31691 4.23386 6.41687C4.46425 6.51927 4.69258 6.55515 4.89904 6.55515V4.03958C4.986 4.03958 5.11478 4.05555 5.25556 4.11812C5.39087 4.17826 5.47527 4.25412 5.50963 4.28849L3.73085 6.06727ZM4.89904 6.55515C5.10547 6.55515 5.33379 6.51928 5.56417 6.4169C5.78914 6.31693 5.95328 6.18127 6.06748 6.06701L4.28818 4.28875C4.32275 4.25416 4.40724 4.17825 4.54259 4.1181C4.68335 4.05554 4.8121 4.03958 4.89904 4.03958V6.55515ZM6.06722 6.06727C6.71779 5.41669 6.71761 4.38143 6.06735 3.73098L4.28831 5.5095C4.1397 5.36084 4.03952 5.14353 4.03952 4.89908C4.03952 4.65461 4.13971 4.43722 4.28844 4.28849L6.06722 6.06727ZM6.06722 3.73085L5.24619 2.90983L3.46741 4.68861L4.28844 5.50963L6.06722 3.73085ZM5.21464 4.71908C6.00801 3.97921 6.92058 3.36793 7.91851 2.91861L6.88572 0.624822C5.63266 1.18902 4.4902 1.95496 3.49897 2.87936L5.21464 4.71908ZM6.23648 2.24429L6.68083 3.34032L9.0121 2.39519L8.56775 1.29915L6.23648 2.24429ZM6.62621 3.17273C6.85919 4.10491 7.72161 4.36452 8.20494 4.36452V1.84895C8.3233 1.84895 8.47894 1.87661 8.64009 1.97578C8.81608 2.08408 8.99641 2.28145 9.06672 2.56278L6.62621 3.17273ZM8.20494 4.36452C8.22681 4.36452 8.35749 4.36687 8.51622 4.33514C8.67425 4.30355 8.81085 4.24986 8.92674 4.19192L7.80174 1.94192C7.838 1.92379 7.91485 1.89001 8.0231 1.86837C8.13204 1.8466 8.22288 1.84895 8.20494 1.84895V4.36452ZM8.83142 4.23473C9.78682 3.85252 10.0219 2.80889 9.73127 2.08211L7.39554 3.01618C7.26415 2.68764 7.33999 2.12197 7.89706 1.89911L8.83142 4.23473ZM9.72905 2.0766L9.29361 1.0025L6.96232 1.9476L7.39776 3.0217L9.72905 2.0766ZM8.56196 2.65559C9.51331 2.30585 10.5329 2.09936 11.5953 2.06159L11.506 -0.452397C10.1739 -0.405035 8.89167 -0.145794 7.69398 0.294504L8.56196 2.65559ZM10.2929 0.804596V3.58474H12.8084V0.804596H10.2929ZM10.2929 3.58474C10.2929 3.99003 10.4334 4.42554 10.7708 4.76289C11.1081 5.10024 11.5436 5.24081 11.9489 5.24081V2.72524C12.1152 2.72524 12.3516 2.78616 12.5496 2.98411C12.7475 3.18206 12.8084 3.41843 12.8084 3.58474H10.2929ZM11.9489 5.24081C12.3542 5.24081 12.7897 5.10024 13.1271 4.76289C13.4644 4.42554 13.605 3.99003 13.605 3.58474H11.0894C11.0894 3.41843 11.1504 3.18206 11.3483 2.98411C11.5463 2.78616 11.7826 2.72524 11.9489 2.72524V5.24081ZM13.605 3.58474V0.804549H11.0894V3.58474H13.605ZM12.3025 2.06154C13.4164 2.10116 14.4835 2.32699 15.475 2.70873L16.3789 0.361133C15.1319 -0.118949 13.7899 -0.402723 12.3919 -0.452444L12.3025 2.06154ZM14.7725 1.03572L14.2995 2.12961L16.6084 3.12803L17.0814 2.03414L14.7725 1.03572ZM14.2861 2.16164C13.9953 2.88861 14.2306 3.93244 15.1862 4.3145L16.1201 1.97869C16.6773 2.2015 16.7532 2.76737 16.6218 3.096L14.2861 2.16164ZM14.7637 4.03599C15.0626 4.33482 15.4091 4.40263 15.5261 4.42212C15.672 4.44644 15.7998 4.4442 15.8124 4.4442V1.92862C15.7853 1.92862 15.8532 1.92638 15.9395 1.94075C15.9868 1.94864 16.0681 1.96565 16.1653 2.00542C16.2625 2.04514 16.4049 2.11961 16.5425 2.25721L14.7637 4.03599ZM15.8124 4.4442C16.1961 4.4442 16.5208 4.3062 16.7524 4.14589C16.9716 3.99412 17.2349 3.73295 17.3642 3.34504L14.9776 2.54982C15.067 2.2814 15.2308 2.13972 15.3205 2.07757C15.4227 2.00688 15.588 1.92862 15.8124 1.92862V4.4442ZM17.3254 3.44668L17.8032 2.34177L15.4943 1.34327L15.0164 2.44818L17.3254 3.44668ZM16.115 2.98146C17.0603 3.42443 17.9262 4.01317 18.6832 4.71912L20.3989 2.87941C19.4526 1.99689 18.3685 1.25939 17.1824 0.70359L16.115 2.98146ZM18.6517 2.90987L17.8307 3.7309L19.6094 5.50968L20.4305 4.68865L18.6517 2.90987ZM17.8307 3.7309C17.1801 4.38147 17.1803 5.41674 17.8305 6.06718L19.6096 4.28866C19.7582 4.43732 19.8583 4.65463 19.8583 4.89909C19.8583 5.14355 19.7582 5.36095 19.6094 5.50968L17.8307 3.7309ZM17.8307 6.06731C17.9447 6.18135 18.1087 6.31696 18.3337 6.41692C18.564 6.51932 18.7924 6.5552 18.9988 6.5552V4.03963C19.0858 4.03963 19.2146 4.0556 19.3554 4.11817C19.4907 4.17831 19.5751 4.25417 19.6094 4.28853L17.8307 6.06731ZM18.9988 6.5552C19.3895 6.5552 19.8361 6.3984 20.1673 6.06705L18.388 4.28879C18.4913 4.18538 18.5954 4.13 18.6711 4.09971C18.7414 4.07159 18.8506 4.03963 18.9988 4.03963V6.5552ZM20.167 6.06731L20.988 5.24629L19.2093 3.46751L18.3882 4.28853L20.167 6.06731ZM19.1788 5.21473C19.9187 6.0081 20.5299 6.92068 20.9793 7.9186L23.273 6.88581C22.7089 5.63276 21.9429 4.49029 21.0185 3.49906L19.1788 5.21473ZM21.6536 6.23657L20.5575 6.68092L21.5027 9.0122L22.5987 8.56784L21.6536 6.23657ZM20.5629 6.67875C19.6075 7.06096 19.3724 8.10458 19.6631 8.83137L21.9988 7.8973C22.1302 8.22585 22.0544 8.79151 21.4973 9.01437L20.5629 6.67875ZM19.6107 8.66931C19.8437 9.60149 20.7061 9.8611 21.1894 9.8611V7.34553C21.3078 7.34553 21.4634 7.37318 21.6246 7.47235C21.8006 7.58065 21.9809 7.77802 22.0512 8.05936L19.6107 8.66931ZM21.1894 9.8611C21.2997 9.8611 21.3947 9.84726 21.4692 9.83121C21.5422 9.81548 21.6009 9.79645 21.6384 9.78323C21.6749 9.77035 21.7044 9.75823 21.7142 9.75418C21.7173 9.75293 21.72 9.75181 21.7216 9.75112C21.7238 9.75024 21.7242 9.75004 21.7251 9.7497C21.7264 9.74916 21.7244 9.74998 21.7211 9.75131C21.7069 9.75697 21.6575 9.77644 21.5893 9.7928C21.518 9.8099 21.4367 9.82129 21.3487 9.82129V7.30571C21.2209 7.30571 21.1048 7.32207 21.0024 7.34664C20.9031 7.37047 20.8263 7.39989 20.7872 7.4155C20.7777 7.41932 20.7696 7.42263 20.765 7.42454C20.7629 7.42542 20.7604 7.42643 20.7596 7.42676C20.7584 7.42727 20.7582 7.42734 20.7584 7.42726C20.7586 7.42717 20.7631 7.42533 20.7697 7.42276C20.7764 7.42014 20.7874 7.41592 20.8014 7.41096C20.8283 7.40147 20.8767 7.38555 20.9397 7.372C21.0041 7.35812 21.0891 7.34553 21.1894 7.34553V9.8611ZM21.8213 9.72915L22.8954 9.29371L21.9503 6.96241L20.8762 7.39785L21.8213 9.72915ZM21.2423 8.56205C21.5921 9.5134 21.7986 10.533 21.8363 11.5954L24.3503 11.5061C24.3029 10.174 24.0437 8.89176 23.6034 7.69407L21.2423 8.56205ZM23.0933 10.293H20.3133V12.8085H23.0933V10.293ZM20.3133 10.293C19.908 10.293 19.4725 10.4335 19.1351 10.7709C18.7978 11.1082 18.6572 11.5437 18.6572 11.949H21.1728C21.1728 12.1153 21.1118 12.3517 20.9139 12.5497C20.7159 12.7476 20.4796 12.8085 20.3133 12.8085V10.293ZM18.6572 11.949C18.6572 12.3543 18.7978 12.7898 19.1351 13.1272C19.4725 13.4645 19.908 13.6051 20.3133 13.6051V11.0895C20.4796 11.0895 20.7159 11.1504 20.9139 11.3484C21.1118 11.5463 21.1728 11.7827 21.1728 11.949H18.6572ZM20.3133 13.6051H23.094V11.0895H20.3133V13.6051ZM21.8369 12.3035C21.7985 13.4074 21.5809 14.4782 21.1985 15.4855L23.5502 16.3785C24.0308 15.1127 24.3029 13.7697 24.351 12.3911L21.8369 12.3035ZM22.8736 14.7775L21.7684 14.2996L20.7699 16.6085L21.8751 17.0864L22.8736 14.7775ZM21.7364 14.2862C21.0094 13.9954 19.9656 14.2307 19.5835 15.1863L21.9193 16.1202C21.6965 16.6774 21.1307 16.7533 20.802 16.6219L21.7364 14.2862ZM19.5836 15.186C19.2928 15.913 19.528 16.9568 20.4836 17.3389L21.4175 15.0031C21.9748 15.2259 22.0507 15.7918 21.9192 16.1204L19.5836 15.186ZM20.4514 17.3255L21.5707 17.8095L22.5691 15.5005L21.4498 15.0165L20.4514 17.3255ZM20.9284 16.1268C20.6304 16.7709 20.2625 17.3858 19.8273 17.9621L21.8348 19.478C22.3779 18.7588 22.8382 17.9899 23.2114 17.1832L20.9284 16.1268Z" fill="#57584F" mask="url(#path-2-inside-1)"/>
</svg>
