<svg width="37" height="39" viewBox="0 0 37 39" fill="none" xmlns="http://www.w3.org/2000/svg">
<path d="M29.4063 30.0349C25.8959 26.5234 25.3676 24.7615 25.3676 19.1513C25.3676 13.382 20.6917 8.70508 14.9233 8.70508C9.15499 8.70508 4.47906 13.3821 4.47906 19.1513C4.47906 22.1763 4.3985 23.3055 3.98211 24.6918C3.46428 26.4189 2.40124 28.0725 0.439825 30.0349C-0.499814 30.975 0.165785 32.5822 1.49494 32.5822H9.77582L9.70068 33.3284C9.70068 36.2131 12.0387 38.5515 14.9228 38.5515C17.807 38.5515 20.145 36.2131 20.145 33.3284L20.0698 32.5822H28.3512C29.6809 32.5822 30.3465 30.975 29.4063 30.0349ZM14.9238 37.0592C12.8639 37.0592 11.1935 35.3883 11.1935 33.3284L11.2687 32.5822H18.5781L18.6542 33.3284C18.6541 35.3883 16.9837 37.0592 14.9238 37.0592ZM1.49541 31.0899C5.97138 27.1397 5.97139 23.6283 5.97139 19.1513C5.97139 14.2068 9.97926 10.1974 14.9233 10.1974C19.8674 10.1974 23.8753 14.2068 23.8758 19.1513C23.8758 23.6283 23.8758 26.6129 28.3517 31.0899H1.49541Z" fill="#4F4F4F"/>
<circle cx="26.7372" cy="9.32703" r="9.32703" fill="#259DD9"/>
<path d="M25.3723 6.87825V5.78564H27.8471V15.3032H26.636V6.87825H25.3723Z" fill="white"/>
</svg>
