<svg width="317" height="26" viewBox="0 0 317 26" fill="none" xmlns="http://www.w3.org/2000/svg">
<path opacity="0.5" fill-rule="evenodd" clip-rule="evenodd" d="M305.517 12C305.517 15.9 302.852 19 299.5 19L6.01653 19C2.66446 19 0 15.9 0 12C0 8.09998 2.66446 5 6.01653 5H299.5C302.852 5 305.517 8.1 305.517 12Z" fill="#70CCFB"/>
<g filter="url(#filter0_dd)">
<path fill-rule="evenodd" clip-rule="evenodd" d="M305 22C310.523 22 315 17.5228 315 12C315 6.47715 310.523 2 305 2C299.477 2 295 6.47715 295 12C295 17.5228 299.477 22 305 22Z" fill="#70CCFB"/>
<path d="M314.75 12C314.75 17.3848 310.385 21.75 305 21.75C299.615 21.75 295.25 17.3848 295.25 12C295.25 6.61522 299.615 2.25 305 2.25C310.385 2.25 314.75 6.61522 314.75 12Z" stroke="url(#paint0_linear)" stroke-width="0.5"/>
<path d="M314.75 12C314.75 17.3848 310.385 21.75 305 21.75C299.615 21.75 295.25 17.3848 295.25 12C295.25 6.61522 299.615 2.25 305 2.25C310.385 2.25 314.75 6.61522 314.75 12Z" stroke="url(#paint1_linear)" stroke-width="0.5"/>
</g>
<defs>
<filter id="filter0_dd" x="293" y="0" width="24" height="26" filterUnits="userSpaceOnUse" color-interpolation-filters="sRGB">
<feFlood flood-opacity="0" result="BackgroundImageFix"/>
<feColorMatrix in="SourceAlpha" type="matrix" values="0 0 0 0 0 0 0 0 0 0 0 0 0 0 0 0 0 0 127 0"/>
<feOffset dy="2"/>
<feGaussianBlur stdDeviation="1"/>
<feColorMatrix type="matrix" values="0 0 0 0 0 0 0 0 0 0 0 0 0 0 0 0 0 0 0.24 0"/>
<feBlend mode="normal" in2="BackgroundImageFix" result="effect1_dropShadow"/>
<feColorMatrix in="SourceAlpha" type="matrix" values="0 0 0 0 0 0 0 0 0 0 0 0 0 0 0 0 0 0 127 0"/>
<feOffset/>
<feGaussianBlur stdDeviation="1"/>
<feColorMatrix type="matrix" values="0 0 0 0 0 0 0 0 0 0 0 0 0 0 0 0 0 0 0.12 0"/>
<feBlend mode="normal" in2="effect1_dropShadow" result="effect2_dropShadow"/>
<feBlend mode="normal" in="SourceGraphic" in2="effect2_dropShadow" result="shape"/>
</filter>
<linearGradient id="paint0_linear" x1="295.098" y1="2" x2="295.098" y2="21.8043" gradientUnits="userSpaceOnUse">
<stop stop-opacity="0"/>
<stop offset="0.8" stop-opacity="0.02"/>
<stop offset="1" stop-opacity="0.04"/>
</linearGradient>
<linearGradient id="paint1_linear" x1="295" y1="2" x2="295" y2="22" gradientUnits="userSpaceOnUse">
<stop stop-color="white" stop-opacity="0.12"/>
<stop offset="0.2" stop-color="white" stop-opacity="0.06"/>
<stop offset="1" stop-color="white" stop-opacity="0"/>
</linearGradient>
</defs>
</svg>
