<svg width="40" height="40" viewBox="0 0 40 40" fill="none" xmlns="http://www.w3.org/2000/svg">
<path d="M14.1805 23.4476C13.9398 23.216 13.9398 22.8305 14.1805 22.5909C14.413 22.3593 14.7999 22.3593 15.0319 22.5909L19.393 26.9351L19.393 12.5998C19.3936 12.2656 19.6602 12 19.9957 12C20.3311 12 20.6064 12.2656 20.6064 12.5998L20.6064 26.9351L24.9594 22.5909C25.2001 22.3593 25.5876 22.3593 25.8195 22.5909C26.0602 22.8305 26.0602 23.2165 25.8195 23.4476L20.426 28.8202C20.1935 29.0599 19.8065 29.0599 19.5746 28.8202L14.1805 23.4476Z" fill="#70CCFB"/>
<circle cx="20" cy="20" r="19" transform="rotate(-90 20 20)" stroke="#70CCFB" stroke-width="2"/>
</svg>
