<svg width="40" height="40" viewBox="0 0 40 40" fill="none" xmlns="http://www.w3.org/2000/svg">
<path d="M25.8195 16.5524C26.0602 16.784 26.0602 17.1695 25.8195 17.4091C25.587 17.6407 25.2001 17.6407 24.9681 17.4091L20.607 13.0649L20.607 27.4002C20.6064 27.7344 20.3398 28 20.0043 28C19.6689 28 19.3936 27.7344 19.3936 27.4002L19.3936 13.0649L15.0406 17.4091C14.7999 17.6407 14.4124 17.6407 14.1805 17.4091C13.9398 17.1695 13.9398 16.7835 14.1805 16.5524L19.574 11.1798C19.8065 10.9401 20.1935 10.9401 20.4254 11.1798L25.8195 16.5524Z" fill="#70CCFB"/>
<circle cx="20" cy="20" r="19" transform="rotate(90 20 20)" stroke="#70CCFB" stroke-width="2"/>
</svg>
