<svg width="51" height="49" viewBox="0 0 51 49" fill="none" xmlns="http://www.w3.org/2000/svg">
<circle cx="7.46739" cy="5.53868" r="4.9127" fill="#4CB449"/>
<path d="M5.86529 14.403C4.92547 14.7448 5.2601 16.1118 5.5449 16.7526C5.90089 17.429 6.71968 19.0381 7.14687 20.0633C7.68086 21.3449 7.57406 22.4129 8.32165 23.4809C9.06923 24.5488 10.3508 23.4809 12.2732 22.4129C14.1955 21.3449 17.2927 18.9953 20.4966 16.1118C23.7005 13.2283 24.7685 10.1311 25.5161 8.42236C26.1142 7.05535 24.9821 6.00161 24.3413 5.64562C23.0242 5.21843 20.1121 4.32132 19.0014 4.15045C17.6131 3.93685 17.6131 4.36404 15.4771 7.67477C13.3411 10.9855 7.04007 13.9758 5.86529 14.403Z" fill="#49B747"/>
<circle cx="4.99775" cy="43.5029" r="4.9127" transform="rotate(-90.2674 4.99775 43.5029)" fill="#259DD9"/>
<path d="M13.869 45.063C14.2152 46.0012 15.5806 45.6602 16.2201 45.3724C16.8948 45.0132 18.5 44.187 19.5233 43.755C20.8023 43.215 21.8708 43.3168 22.9353 42.5643C23.9998 41.8117 22.9258 40.5351 21.8489 38.6178C20.7719 36.7004 18.408 33.6143 15.5095 30.4238C12.611 27.2334 9.50894 26.1799 7.79671 25.4403C6.42692 24.8486 5.37847 25.9856 5.02547 26.628C4.60443 27.9472 3.72093 30.8633 3.55524 31.9748C3.34813 33.3642 3.77531 33.3622 7.09598 35.4827C10.4166 37.6031 13.4364 43.8902 13.869 45.063Z" fill="#259DD9"/>
<circle cx="43.0633" cy="42.6681" r="4.9127" transform="rotate(178.552 43.0633 42.6681)" fill="#4CB449"/>
<path d="M44.4409 33.7663C45.3717 33.4009 45.0027 32.0428 44.7018 31.4094C44.3288 30.7422 43.4696 29.1543 43.0167 28.1402C42.4505 26.8725 42.5303 25.8022 41.7559 24.7534C40.9816 23.7047 39.7274 24.8047 37.8327 25.9209C35.9379 27.0371 32.9011 29.4642 29.771 32.4277C26.641 35.3913 25.6516 38.5145 24.9474 40.2416C24.3841 41.6233 25.5424 42.6481 26.192 42.9877C27.5195 43.3815 30.4533 44.2048 31.568 44.3475C32.9613 44.526 32.9505 44.0989 35.0021 40.7353C37.0537 37.3716 43.2773 34.223 44.4409 33.7663Z" fill="#4CB449"/>
<circle cx="44.9859" cy="4.97323" r="4.9127" transform="rotate(89.2897 44.9859 4.97323)" fill="#259DD9"/>
<path d="M36.1026 3.48145C35.7492 2.54594 34.3865 2.89749 33.7493 3.19021C33.0774 3.55456 31.4785 4.39323 30.4587 4.8331C29.1838 5.38294 28.1146 5.28939 27.056 6.05015C25.9973 6.81092 27.0811 8.07916 28.1728 9.98813C29.2646 11.8971 31.6523 14.9649 34.5754 18.1328C37.4984 21.3008 40.6086 22.3303 42.3265 23.0566C43.7008 23.6377 44.7404 22.4926 45.0884 21.8475C45.4993 20.5251 46.3602 17.6022 46.5173 16.4895C46.7137 15.0986 46.2865 15.1039 42.9495 13.0091C39.6126 10.9144 36.5443 4.65084 36.1026 3.48145Z" fill="#259DD9"/>
</svg>
