<svg width="39" height="39" viewBox="0 0 39 39" fill="none" xmlns="http://www.w3.org/2000/svg">
<circle cx="19.5" cy="19.5" r="19" stroke="white"/>
<path fill-rule="evenodd" clip-rule="evenodd" d="M19.5 37C29.165 37 37 29.165 37 19.5C37 9.83502 29.165 2 19.5 2C9.83502 2 2 9.83502 2 19.5C2 29.165 9.83502 37 19.5 37ZM15.2856 25.2422C15.3627 25.2422 15.4382 25.2735 15.4927 25.328C15.5472 25.3825 15.5786 25.4581 15.5786 25.5351C15.5786 25.6122 15.5472 25.6878 15.4927 25.7422C15.4382 25.7968 15.3627 25.8281 15.2856 25.8281C15.2086 25.8281 15.133 25.7967 15.0785 25.7422C15.024 25.6878 14.9926 25.6122 14.9926 25.5351C14.9926 25.4581 15.024 25.3825 15.0785 25.328C15.133 25.2735 15.2086 25.2422 15.2856 25.2422ZM26.7558 17.3595C26.7013 17.305 26.626 17.2737 26.5486 17.2737C26.4716 17.2737 26.396 17.305 26.3415 17.3595C26.287 17.414 26.2557 17.4896 26.2557 17.5666C26.2557 17.6437 26.287 17.7193 26.3415 17.7737C26.396 17.8282 26.4716 17.8596 26.5486 17.8596C26.626 17.8596 26.7013 17.8282 26.7558 17.7737C26.8105 17.7193 26.8419 17.6437 26.8419 17.5666C26.8419 17.4896 26.8105 17.414 26.7558 17.3595ZM27.7066 12C27.7843 12 27.8588 12.0309 27.9138 12.0858C27.9687 12.1407 27.9995 12.2153 27.9996 12.293V26.7071C27.9996 26.8688 27.8684 27 27.7066 27H18.8629C18.5061 27 18.1615 26.8709 17.8926 26.6364L17.5443 26.3326C17.4494 26.7153 17.103 27 16.6913 27H13.8789C13.3942 27 13 26.6057 13 26.1211V21.3458C13 20.8612 13.3942 20.4669 13.8789 20.4669H16.6913C16.9923 20.4669 17.2583 20.6191 17.4168 20.8505L18.6619 19.6054L17.2226 14.2341C17.1807 14.0778 17.2735 13.9172 17.4298 13.8753L20.2068 13.1312V12.2933C20.2068 12.1316 20.338 12.0004 20.4997 12.0004L27.7066 12ZM16.6913 26.4141C16.8528 26.4141 16.9842 26.2826 16.9842 26.1211L16.9843 21.3458C16.9843 21.1843 16.8528 21.0529 16.6913 21.0529H15.578V24.4277C15.578 24.5895 15.4468 24.7207 15.2851 24.7207C15.1233 24.7207 14.9921 24.5895 14.9921 24.4277V21.0529H13.8788C13.7173 21.0529 13.5859 21.1843 13.5859 21.3458V26.1211C13.5859 26.2827 13.7173 26.4141 13.8788 26.4141H16.6913ZM20.2068 13.7377L17.8644 14.3654L19.2403 19.5007C19.2629 19.5309 19.2798 19.5657 19.2894 19.6034L19.5925 20.7889H20.1805L19.0385 16.5603C19.0182 16.4851 19.0286 16.405 19.0675 16.3376C19.1063 16.2702 19.1704 16.221 19.2455 16.2009C19.6656 16.0883 19.9159 15.6549 19.8033 15.2348C19.7832 15.1597 19.7937 15.0797 19.8326 15.0124C19.8714 14.9452 19.9354 14.8961 20.0104 14.876L20.2068 14.8233V13.7377ZM20.2068 18.639V16.1669C20.0783 16.3727 19.8957 16.5451 19.6724 16.6604L20.2068 18.639ZM18.8628 26.4141H24.4157C24.6418 26.4141 24.8258 26.2301 24.8259 26.004C24.8259 25.7778 24.6419 25.5939 24.4157 25.5939H22.1735C22.0117 25.5939 21.8806 25.4627 21.8806 25.3009C21.8806 25.1391 22.0117 25.0079 22.1735 25.0079H25.415C25.6412 25.0079 25.8252 24.8239 25.8252 24.5978C25.8252 24.3716 25.6412 24.1876 25.415 24.1876H22.1735C22.0117 24.1876 21.8806 24.0564 21.8806 23.8946C21.8806 23.7329 22.0117 23.6017 22.1735 23.6017H26.0419C26.268 23.6017 26.452 23.4177 26.452 23.1915C26.452 22.9653 26.268 22.7814 26.0419 22.7814H22.1735C22.0117 22.7814 21.8806 22.6502 21.8806 22.4884C21.8806 22.3266 22.0117 22.1954 22.1735 22.1954H25.1249C25.3511 22.1954 25.535 22.0114 25.535 21.7853C25.535 21.5591 25.3511 21.3751 25.1249 21.3751L19.365 21.3748C19.2311 21.3748 19.1143 21.2841 19.0812 21.1544L18.8492 20.2467L17.5702 21.5258V25.5777L18.2777 26.1948C18.4398 26.3362 18.6476 26.4141 18.8628 26.4141ZM25.323 26.4141H27.4137V12.5859L20.7928 12.5863V20.7892H21.365V14.9571C21.365 14.7953 21.4962 14.6641 21.658 14.6641C22.0929 14.6641 22.4467 14.3103 22.4467 13.8753C22.4467 13.7135 22.5779 13.5823 22.7397 13.5823H25.4665C25.6283 13.5823 25.7595 13.7135 25.7595 13.8753C25.7595 14.3102 26.1133 14.6641 26.5483 14.6641C26.7101 14.6641 26.8413 14.7953 26.8413 14.9571V16.1295C26.8413 16.2913 26.7101 16.4224 26.5483 16.4224C26.3865 16.4224 26.2553 16.2913 26.2553 16.1295V15.2186C25.732 15.1046 25.319 14.6916 25.205 14.1683H23.0012C22.8872 14.6916 22.4743 15.1046 21.9509 15.2186V20.7892H23.5523C23.0523 20.5747 22.7011 20.0777 22.7011 19.5C22.7011 18.7269 23.33 18.0979 24.1031 18.0979C24.8762 18.0979 25.5052 18.7269 25.5052 19.5C25.5052 20.0777 25.154 20.5747 24.6539 20.7892H25.1249C25.6741 20.7892 26.1209 21.236 26.1209 21.7853C26.1209 21.9315 26.089 22.0702 26.0322 22.1954H26.0418C26.1151 22.1954 26.1865 22.2036 26.2554 22.2187V18.885C26.2554 18.7232 26.3866 18.592 26.5483 18.592C26.7101 18.592 26.8413 18.7232 26.8413 18.885V22.598C26.9647 22.7639 27.0379 22.9693 27.0379 23.1915C27.0379 23.6495 26.7271 24.036 26.3053 24.1519C26.3728 24.2861 26.4111 24.4375 26.4111 24.5977C26.4111 25.1469 25.9642 25.5937 25.415 25.5937H25.323C25.3799 25.7189 25.4118 25.8577 25.4118 26.0039C25.4118 26.1501 25.3799 26.2889 25.323 26.4141ZM23.2871 19.5C23.2871 19.95 23.6532 20.3161 24.1032 20.3161C24.5532 20.3161 24.9193 19.95 24.9193 19.5C24.9193 19.05 24.5532 18.6839 24.1032 18.6839C23.6532 18.6839 23.2871 19.05 23.2871 19.5Z" fill="#076FA3"/>
</svg>
