<svg width="19" height="19" viewBox="0 0 19 19" fill="none" xmlns="http://www.w3.org/2000/svg">
<circle cx="9.43352" cy="8.25432" r="3.22308" stroke="#717171" stroke-width="0.628894"/>
<path fill-rule="evenodd" clip-rule="evenodd" d="M9.43341 0C4.24503 0 0 4.24503 0 9.43341C0 14.6218 4.24503 18.8668 9.43341 18.8668C14.6218 18.8668 18.8668 14.6218 18.8668 9.43341C18.8668 4.24503 14.6218 0 9.43341 0ZM13.763 14.9602H5.23697C4.5362 14.9602 3.95223 15.2533 3.60185 15.7223C1.81402 14.9602 0.556234 11.8157 0.556234 9.30016C0.556234 4.78598 4.3296 0.495647 9.36075 0.495647C14.3919 0.495647 18.1653 4.78598 18.1653 9.30016C18.1653 12.4446 16.7996 14.2567 15.3981 15.7223C15.0208 14.9602 14.4053 14.9602 13.763 14.9602Z" fill="#717171"/>
</svg>
