<svg width="45" height="52" viewBox="0 0 45 52" fill="none" xmlns="http://www.w3.org/2000/svg">
<path d="M43.756 11.8337C43.6596 11.1073 43.058 10.5619 42.3257 10.535C35.0473 10.2728 27.7006 5.24232 23.2518 0.621502C22.658 0.00703101 21.6846 0.0148338 21.1029 0.617601C15.2902 6.60938 8.16038 10.3169 2.02893 10.5357C1.29586 10.5619 0.694263 11.1073 0.597508 11.8345C-2.87279 37.9673 9.80482 51.2492 22.3447 51.2996H22.4149C34.4828 51.2996 47.341 38.7546 43.756 11.8337ZM40.6653 34.7486C31.4674 60.9013 -3.30858 52.7552 2.09019 12.0405C9.5286 11.7725 16.9896 7.01824 22.175 1.67644C24.865 4.4679 28.0037 6.89262 31.2532 8.6896C35.0442 10.785 38.7485 11.9129 42.2645 12.0405C43.4275 20.7875 42.8891 28.4276 40.6653 34.7486Z" fill="#70CCFB"/>
<path d="M39.5481 13.7812C33.9945 12.8742 28.1092 9.84083 22.9761 5.23912C22.515 4.82635 21.8201 4.82323 21.359 5.23405C17.6565 8.53269 11.7803 12.6955 4.8143 13.7914C4.26264 13.8776 3.84207 14.3247 3.79057 14.8779C3.59667 16.9625 3.51747 18.9483 3.54049 20.8358C3.54556 21.2485 3.88108 21.5802 4.29385 21.5802C4.71091 21.5802 5.04643 21.2423 5.04643 20.8276V20.8186C5.02498 19.0509 5.09637 17.1922 5.27037 15.2439C12.376 14.0594 18.3405 9.90286 22.1646 6.534C27.396 11.1685 33.3866 14.2482 39.0862 15.2306C42.5978 53.6009 8.16522 55.3655 5.1467 24.0911C5.10964 23.7056 4.78504 23.4103 4.39841 23.4103H4.39724C3.95326 23.4103 3.60369 23.793 3.647 24.2339C6.85317 57.4668 44.435 55.5614 40.5644 14.8651C40.5125 14.3157 40.0947 13.8706 39.5481 13.7812Z" fill="#70CCFB"/>
<path d="M27.2933 12.6683C27.8251 10.6653 25.1218 9.45977 23.9908 11.2076C23.9908 11.2076 20.8728 16.0812 20.8486 16.1183H16.9804C16.2329 16.1183 15.538 16.5201 15.1643 17.167L9.95512 26.1894C9.58137 26.8362 9.58137 27.6395 9.95512 28.2868L15.1643 37.3088C15.4124 37.7387 15.8022 38.0602 16.2551 38.2279L14.7293 41.4251C13.7551 43.2853 16.1931 45.0534 17.6604 43.5455C17.6815 43.5245 17.7006 43.5015 17.7185 43.4784L21.6371 38.3575H27.3987C28.1462 38.3575 28.8414 37.9556 29.2148 37.3088L34.4243 28.2868C34.7977 27.6395 34.7977 26.8362 34.4243 26.1894L32.172 22.2778C31.9633 21.9181 31.503 21.7948 31.1425 22.0028C30.9006 22.1421 30.766 22.3953 30.766 22.6567C30.766 22.7842 30.798 22.9138 30.8662 23.0324L33.1193 26.9435C33.2239 27.1253 33.2239 27.3504 33.1193 27.5334L27.9102 36.5554C27.8048 36.7372 27.609 36.8507 27.3987 36.8507H22.7903L25.0524 33.9344C25.2822 33.6344 25.2541 33.2107 24.9868 32.9439L24.9861 32.9431C24.6638 32.6208 24.1316 32.656 23.855 33.018C21.0277 36.7138 17.8477 40.8306 16.5555 42.5191C16.403 42.6549 16.2571 42.6014 16.1599 42.53C15.9828 42.3997 15.9961 42.26 16.0823 42.0884C20.1495 33.5681 15.9196 42.4278 21.3238 31.1063C21.84 30.0256 21.0546 28.767 19.8471 28.767H14.7808C14.7304 28.767 14.6922 28.7436 14.668 28.6995C14.6438 28.6555 14.645 28.611 14.6719 28.5688C27.0764 9.1816 18.8425 22.0488 25.2572 12.0242C25.3809 11.8353 25.5424 11.8564 25.6571 11.9075C25.7675 11.9571 25.8881 12.0593 25.8409 12.2641C22.8126 20.8156 25.9794 11.8736 22.0541 22.9528C21.6773 24.0155 22.4669 25.1337 23.5948 25.1337H29.5987C29.6178 25.1337 29.6779 25.1337 29.7142 25.2058C29.7493 25.2772 29.7122 25.3244 29.7001 25.3404C28.8207 26.4902 27.3027 28.4733 25.588 30.7154C25.3586 31.0154 25.3863 31.4391 25.6536 31.7063C25.9755 32.0286 26.5076 31.9931 26.7846 31.6314L30.8975 26.2565C31.7191 25.1809 30.9529 23.6269 29.5987 23.6269H23.5948C23.5507 23.6269 23.5156 23.609 23.4903 23.5727C23.4641 23.5364 23.4594 23.4974 23.4743 23.4561L25.5397 17.625H27.3987C27.609 17.625 27.8048 17.7385 27.9102 17.9203L29.3186 20.3595C29.5265 20.72 29.9873 20.8437 30.3481 20.6357C30.5892 20.4961 30.7246 20.2429 30.7246 19.9826C30.7246 19.8551 30.6915 19.7255 30.6232 19.6069L29.2148 17.167C28.8414 16.5201 28.1462 16.1183 27.3987 16.1183H26.0738L27.2723 12.7354C27.2781 12.717 27.2875 12.6866 27.2933 12.6683ZM13.4036 27.7562C12.7064 28.847 13.4937 30.2734 14.7808 30.2734H19.8471C19.8943 30.2734 19.9314 30.2936 19.9568 30.3338C19.9817 30.3728 19.9837 30.415 19.9638 30.4571L16.9141 36.8468C16.7291 36.8258 16.5637 36.7181 16.4693 36.5554L11.2597 27.5322C11.1556 27.3504 11.1556 27.1253 11.2597 26.9427L16.4693 17.9203C16.5746 17.7385 16.7705 17.625 16.9804 17.625H19.8854L13.4036 27.7562Z" fill="#70CCFB"/>
</svg>
