<svg width="138" height="80" viewBox="0 0 138 80" fill="none" xmlns="http://www.w3.org/2000/svg">
<path d="M107.603 2.24121H107.603C104.327 2.24121 101.671 5.17558 101.671 8.79531V13.3942H103.091L103.914 11.6903L103.708 13.3942H112.84L113.588 11.8452L113.401 13.3942H114.429V9.78325C114.429 5.6179 111.373 2.24121 107.603 2.24121Z" fill="#2F2E41"/>
<path d="M72.6369 79.9996C108.185 79.9996 137.003 78.074 137.003 75.6985C137.003 73.3231 108.185 71.3975 72.6369 71.3975C37.0887 71.3975 8.27124 73.3231 8.27124 75.6985C8.27124 78.074 37.0887 79.9996 72.6369 79.9996Z" fill="#065177"/>
<path d="M29.2753 74.1655C29.2469 74.1194 28.579 73.0091 28.3474 70.7035C28.135 68.5882 28.2716 65.0228 30.129 60.0493C33.6477 50.6274 29.3181 43.0253 29.2738 42.9495L29.4874 42.8262C29.4986 42.8454 30.6158 44.7836 31.2758 47.87C32.1479 51.9618 31.8303 56.2164 30.3604 60.135C26.8477 69.5408 29.4592 73.9935 29.486 74.0374L29.2753 74.1655Z" fill="#065177"/>
<path d="M27.8994 42.3963C28.7856 42.3963 29.5041 41.681 29.5041 40.7987C29.5041 39.9164 28.7856 39.2012 27.8994 39.2012C27.0131 39.2012 26.2947 39.9164 26.2947 40.7987C26.2947 41.681 27.0131 42.3963 27.8994 42.3963Z" fill="#0C587E"/>
<path d="M32.9604 48.2947C33.8467 48.2947 34.5651 47.5795 34.5651 46.6972C34.5651 45.8149 33.8467 45.0996 32.9604 45.0996C32.0742 45.0996 31.3557 45.8149 31.3557 46.6972C31.3557 47.5795 32.0742 48.2947 32.9604 48.2947Z" fill="#065177"/>
<path d="M29.5041 52.2273C30.3904 52.2273 31.1088 51.5121 31.1088 50.6298C31.1088 49.7475 30.3904 49.0322 29.5041 49.0322C28.6179 49.0322 27.8994 49.7475 27.8994 50.6298C27.8994 51.5121 28.6179 52.2273 29.5041 52.2273Z" fill="#0C587E"/>
<path d="M33.7009 55.5457C34.5871 55.5457 35.3056 54.8304 35.3056 53.9481C35.3056 53.0658 34.5871 52.3506 33.7009 52.3506C32.8146 52.3506 32.0962 53.0658 32.0962 53.9481C32.0962 54.8304 32.8146 55.5457 33.7009 55.5457Z" fill="#0C587E"/>
<path d="M28.2697 60.7068C29.156 60.7068 29.8744 59.9916 29.8744 59.1093C29.8744 58.227 29.156 57.5117 28.2697 57.5117C27.3835 57.5117 26.665 58.227 26.665 59.1093C26.665 59.9916 27.3835 60.7068 28.2697 60.7068Z" fill="#065177"/>
<path d="M30.2448 74.2245C30.2448 74.2245 28.6401 70.2921 33.4542 67.3428L30.2448 74.2245Z" fill="#065177"/>
<path d="M28.2712 74.153C28.2712 74.153 27.5409 69.9712 21.8884 70.0071L28.2712 74.153Z" fill="#065177"/>
<path d="M104.74 10.5073C104.74 10.5073 106.591 14.8084 104.122 15.6686L106.591 23.7792L110.788 23.5335L111.899 20.8299L111.652 16.7746L111.282 14.0711C111.282 14.0711 108.69 14.6855 108.936 10.1387L104.74 10.5073Z" fill="#CD8787"/>
<path d="M103.752 15.545C103.752 15.545 99.6785 15.1764 100.049 18.1257C100.419 21.075 100.789 21.6894 100.789 21.6894L101.16 26.1134L98.9379 27.4651H96.8395C96.8395 27.4651 90.4207 28.9398 93.6301 30.5373C96.8395 32.1349 97.9504 29.3085 97.9504 29.3085C97.9504 29.3085 103.875 29.3085 104.246 28.3254C104.616 27.3422 103.752 15.545 103.752 15.545Z" fill="#CD8787"/>
<path d="M111.652 14.317C111.652 14.317 115.478 12.9652 115.725 15.9145C115.972 18.8639 115.972 19.1096 115.972 19.1096L116.713 23.2878C116.713 23.2878 118.194 26.9745 118.194 28.0805C118.194 29.1864 119.305 32.6273 119.305 32.6273C119.305 32.6273 120.786 37.4199 119.182 37.297C117.577 37.1742 117.33 32.1358 117.33 32.1358L113.997 25.4998L113.01 21.4445L111.652 14.317Z" fill="#CD8787"/>
<path d="M104.369 15.0539H103.382L103.258 20.2152C103.258 20.2152 101.654 22.4272 103.629 24.3934L104.122 27.5885L113.133 27.2198L113.75 23.9018C113.75 23.9018 114.985 21.1983 113.257 18.7406L111.652 13.7021H110.788C110.788 13.7021 112.789 21.0482 108.566 21.1983C105.11 21.3212 104.369 15.0539 104.369 15.0539Z" fill="#4CB449"/>
<path d="M104.616 26.9743L103.875 29.432C103.875 29.432 88.4457 72.6886 93.1363 73.7946C97.8269 74.9006 104.369 76.3752 104.986 75.2692C105.604 74.1632 108.813 41.8437 108.813 41.8437C108.813 41.8437 108.319 75.6379 109.924 75.6379C111.529 75.6379 122.144 75.8837 122.761 74.2861C123.379 72.6886 117.207 29.9236 113.627 28.9405L112.639 26.7285L104.616 26.9743Z" fill="#2F2E41"/>
<path d="M113.504 25.7451L103.752 26.1138C103.752 26.1138 103.307 29.4318 103.752 29.4318C103.875 29.4318 113.997 30.292 113.874 28.8173C113.75 27.3427 113.504 25.7451 113.504 25.7451Z" fill="#3F3D56"/>
<path d="M63.0791 49.1549C63.0797 51.7684 62.3394 54.3291 60.9435 56.5425C59.5475 58.7559 57.5525 60.5323 55.1878 61.6673C55.1865 61.6673 55.1865 61.6673 55.1853 61.6686C54.7614 61.8723 54.3271 62.0541 53.8842 62.213C53.8139 62.24 53.7423 62.2646 53.6695 62.2879C53.5213 62.3408 53.3707 62.3887 53.2189 62.4341C52.9066 62.53 52.5898 62.6148 52.2684 62.6885H52.2672L52.2586 62.691L52.2388 62.6947C52.1969 62.7045 52.1537 62.7143 52.1104 62.7229C51.871 62.7758 51.629 62.8212 51.3846 62.8593C50.6396 62.9811 49.8857 63.0419 49.1307 63.0412C48.7258 63.0412 48.3234 63.024 47.9271 62.9896C47.9056 62.9888 47.8842 62.9867 47.863 62.9835C46.7764 62.8856 45.7051 62.6616 44.6709 62.3162C44.5178 62.2646 44.3647 62.2105 44.2141 62.1527C41.832 61.2598 39.7407 59.7351 38.1667 57.7436C36.5928 55.7522 35.5961 53.3699 35.2847 50.855C34.9733 48.34 35.3591 45.7881 36.4002 43.4757C37.4413 41.1634 39.0981 39.1787 41.1911 37.7366C43.2841 36.2946 45.7335 35.4501 48.2741 35.2947C50.8147 35.1393 53.3495 35.6789 55.6041 36.855C57.8587 38.0312 59.7471 39.799 61.0647 41.9671C62.3823 44.1352 63.0789 46.6209 63.0791 49.1549Z" fill="#26B4FC"/>
<path d="M47.4734 49.3108C47.4734 49.3108 50.745 47.8916 52.2816 49.3908C53.8183 50.89 48.1674 50.3965 47.4734 49.3108Z" fill="#3F3D56"/>
<path d="M53.1226 42.5803C52.0232 40.7309 49.8481 40.6447 49.8481 40.6447C49.8481 40.6447 47.7285 40.3748 46.3688 43.1915C45.1015 45.8169 43.3524 48.3518 46.0872 48.9664L46.5812 47.4357L46.8871 49.0804C47.2765 49.1082 47.6672 49.1149 48.0573 49.1003C50.9861 49.0061 53.7753 49.1278 53.6855 48.0815C53.5661 46.6906 54.1805 44.3598 53.1226 42.5803Z" fill="#171720"/>
<path d="M53.6694 62.2884C53.7422 62.2651 53.8138 62.2405 53.8842 62.2135L53.8681 62.1914L53.6694 62.1803L52.3832 62.1115H52.3819L52.1659 62.1004L51.1426 62.0451L48.9146 61.9247L47.7209 61.8608L47.6604 61.8571H47.6456L46.805 61.8116L46.531 61.7969L46.2705 62.748C46.7961 62.8581 47.3278 62.9369 47.8629 62.984C47.8841 62.9872 47.9056 62.9893 47.927 62.9901C48.3233 63.0245 48.7257 63.0417 49.1306 63.0417C49.8856 63.0424 50.6395 62.9816 51.3846 62.8599C51.629 62.8218 51.8709 62.7763 52.1104 62.7235C52.1536 62.7149 52.1968 62.705 52.2387 62.6952L52.2585 62.6915L52.2671 62.689H52.2684C52.5893 62.6153 52.9061 62.5305 53.2188 62.4347L53.6694 62.2884Z" fill="#2F2E41"/>
<path d="M48.0186 46.5973C48.0186 46.5973 48.5143 49.8543 47.5229 50.2491C46.5315 50.6439 49.5057 52.3217 49.5057 52.3217H51.191L52.2816 50.0517C52.2816 50.0517 51.2902 48.2751 51.885 46.5973C52.4799 44.9194 48.0186 46.5973 48.0186 46.5973Z" fill="#CD8787"/>
<path d="M53.6694 62.2882V50.7416C53.6694 50.7416 53.5435 49.5557 52.5449 49.8642C52.4428 49.8967 52.3437 49.9378 52.2486 49.9871C52.0833 50.076 51.9256 50.1784 51.7771 50.2931C51.7203 50.3361 51.6623 50.3828 51.6018 50.4332C51.5969 50.4369 51.5919 50.4418 51.587 50.4455C49.7033 52.0246 48.8121 50.9395 48.6134 50.7416C48.5406 50.6703 48.3505 50.4676 48.1369 50.239V50.2378C48.0443 50.1395 47.9481 50.0362 47.8567 49.9355C47.574 49.6319 47.3247 49.3604 47.3247 49.3604L46.3335 50.1493L46.5754 56.1315L46.6322 57.5422V57.5435L46.6507 57.9822V57.9846L46.805 61.8114L46.8285 62.3889C47.164 62.4952 47.5048 62.5846 47.8493 62.6568C47.9505 62.6777 48.0579 62.6986 48.1678 62.7183C49.0269 62.8731 50.1082 62.953 50.7945 62.5856C50.9332 62.5115 51.0787 62.451 51.229 62.4049C51.5276 62.3156 51.8382 62.2729 52.1499 62.2783C52.2165 62.2796 52.282 62.282 52.3474 62.2857H52.3486C52.6429 62.3064 52.9344 62.3563 53.2189 62.4344L53.6694 62.2882Z" fill="#3F3D56"/>
<path d="M48.9146 61.9241C48.6903 62.2106 48.4403 62.4763 48.1678 62.7179C48.0839 62.7941 47.9999 62.8678 47.9147 62.9403C47.8975 62.9551 47.8802 62.9686 47.8629 62.9834C46.7764 62.8855 45.7051 62.6615 44.6708 62.3161C44.5177 62.2645 44.3647 62.2104 44.2141 62.1526C44.3094 61.9123 44.3841 61.6644 44.4375 61.4116C45.1201 58.2264 43.1352 53.392 42.9624 52.6165C42.8995 52.3376 43.1315 51.9505 43.5031 51.5388C44.3141 50.643 45.7891 49.6304 46.3335 49.36C46.7462 49.1761 47.2086 49.1338 47.6481 49.2396H47.6493C47.7872 49.2677 47.9223 49.308 48.053 49.36V49.3612C48.0542 49.3797 48.0678 49.5198 48.0913 49.7594C48.1036 49.8909 48.1184 50.0506 48.1369 50.2374V50.2387C48.1703 50.5877 48.2122 51.0227 48.2616 51.5191V51.5204C48.5591 54.5791 49.0973 59.9026 49.3071 60.8082C49.3849 61.1437 49.2121 61.532 48.9146 61.9241Z" fill="#D0CDE1"/>
<path d="M53.6695 62.2882C53.7423 62.2648 53.8139 62.2403 53.8843 62.2132C54.3272 62.0543 54.7614 61.8726 55.1853 61.6688C54.5509 59.823 56.4259 53.9551 56.9628 52.1389V52.1364C57.0258 51.9238 57.0702 51.7665 57.09 51.6792C57.2887 50.7908 54.2645 49.9527 54.1657 49.7548C54.0892 49.6049 52.861 49.4537 52.2821 49.3911C52.1031 49.3714 51.9858 49.3604 51.9858 49.3604C51.8328 49.4783 51.7155 49.8175 51.6242 50.3103C51.6155 50.3496 51.6081 50.3914 51.6019 50.4332C51.5365 50.8141 51.4859 51.275 51.4452 51.7923C51.2205 54.6138 51.297 59.0722 51.0921 60.9081C51.0507 61.2874 51.0677 61.6707 51.1428 62.0449C51.1653 62.1663 51.1941 62.2865 51.2292 62.4049C51.2723 62.5593 51.3242 62.7111 51.3847 62.8596C51.6291 62.8215 51.871 62.776 52.1105 62.7232C52.1537 62.7146 52.1969 62.7048 52.2389 62.6949L52.2586 62.6913L52.2673 62.6888H52.2685C52.5894 62.6151 52.9063 62.5303 53.219 62.4344L53.6695 62.2882Z" fill="#D0CDE1"/>
<path d="M52.9261 45.6587C53.0356 45.6587 53.1243 45.482 53.1243 45.2639C53.1243 45.0459 53.0356 44.8691 52.9261 44.8691C52.8166 44.8691 52.7278 45.0459 52.7278 45.2639C52.7278 45.482 52.8166 45.6587 52.9261 45.6587Z" fill="#A0616A"/>
<path d="M47.0769 45.6587C47.1865 45.6587 47.2752 45.482 47.2752 45.2639C47.2752 45.0459 47.1865 44.8691 47.0769 44.8691C46.9674 44.8691 46.8787 45.0459 46.8787 45.2639C46.8787 45.482 46.9674 45.6587 47.0769 45.6587Z" fill="#A0616A"/>
<path d="M53.6696 62.2884C53.7424 62.265 53.814 62.2405 53.8844 62.2134C54.3272 62.0545 54.7615 61.8728 55.1854 61.669C55.1853 61.6697 55.1854 61.6704 55.1856 61.671C55.1858 61.6717 55.1862 61.6722 55.1866 61.6727C55.1865 61.671 55.1869 61.6692 55.1879 61.6678C55.9285 57.7747 56.7136 53.6101 56.9629 52.1391V52.1366C57.0061 51.881 57.0333 51.7078 57.0407 51.6303C57.1394 50.6436 54.6608 50.6436 54.6608 50.6436L54.2658 52.6307L53.6696 55.6328L53.4647 56.6638L52.3821 62.1114L52.3476 62.2859L52.2673 62.689H52.2686C52.5895 62.6153 52.9063 62.5305 53.219 62.4346L53.6696 62.2884Z" fill="#D0CDE1"/>
<path d="M47.8629 62.9837C46.7764 62.8858 45.7051 62.6619 44.6708 62.3164C44.593 62.0178 44.5152 61.7155 44.4375 61.412C43.4734 57.6454 42.5662 53.6602 42.5662 52.913C42.5662 52.2949 42.9994 51.8488 43.5031 51.5391C43.9824 51.2604 44.5026 51.058 45.0448 50.9395C45.0448 50.9395 45.3608 52.2482 45.815 54.1358C46.0582 55.1434 46.3397 56.3158 46.6322 57.5422V57.5434C46.9729 58.9665 47.3296 60.4608 47.6604 61.8568C47.7135 62.0829 47.7662 62.3058 47.8184 62.5253V62.5302C47.8192 62.5318 47.8196 62.5334 47.8197 62.5352C47.8295 62.5757 47.8394 62.6163 47.8493 62.6568C47.8715 62.7527 47.8937 62.8473 47.9147 62.9407C47.9197 62.9567 47.9234 62.9726 47.9271 62.9898C47.9056 62.989 47.8841 62.987 47.8629 62.9837Z" fill="#D0CDE1"/>
<path opacity="0.2" d="M45.5898 53.8506L47.8205 62.5351C47.8205 62.5351 46.7795 54.9363 45.5898 53.8506Z" fill="black"/>
<path opacity="0.2" d="M51.3848 62.8598L52.1106 62.7197V62.7234C51.8711 62.7763 51.6292 62.8217 51.3848 62.8598Z" fill="black"/>
<path opacity="0.2" d="M54.2656 52.6309L53.6694 55.633L53.4645 56.664L52.3831 62.1117H52.3819L52.3486 62.2861H52.3474L52.2684 62.6892H52.2671L52.2585 62.6917L52.2387 62.6954L52.1104 62.7199C52.1215 62.5823 52.135 62.4348 52.1498 62.2788C52.1548 62.221 52.1597 62.162 52.1659 62.1006C52.398 59.59 52.8929 55.2533 53.6694 53.437C53.8521 53.0094 54.0508 52.7218 54.2656 52.6309Z" fill="black"/>
<path d="M50.0015 48.1756C51.5893 48.1756 52.8765 46.8942 52.8765 45.3134C52.8765 43.7326 51.5893 42.4512 50.0015 42.4512C48.4137 42.4512 47.1265 43.7326 47.1265 45.3134C47.1265 46.8942 48.4137 48.1756 50.0015 48.1756Z" fill="#CD8787"/>
<path d="M52.6365 42.4019L50.4876 41.2812L47.52 41.7396L46.906 44.4393L48.4344 44.3808L48.8614 43.389V44.3645L49.5666 44.3375L49.9759 42.7584L50.2318 44.4393L52.7388 44.3885L52.6365 42.4019Z" fill="#171720"/>
<path d="M27.8993 31.5816C27.8993 33.7863 27.372 35.9593 26.361 37.9207C25.35 39.8822 23.8844 41.5759 22.0854 42.8615C21.5941 43.2145 21.0799 43.5347 20.5461 43.82C17.6223 45.3781 14.2374 45.8511 10.9957 45.1546C10.3056 45.0072 9.62792 44.8067 8.96889 44.5549C6.59407 43.6512 4.5125 42.1185 2.94912 40.1225C1.38574 38.1266 0.40002 35.7432 0.0984732 33.23C-0.203073 30.7168 0.191026 28.1693 1.23818 25.8629C2.28534 23.5565 3.94573 21.5788 6.03991 20.1436C8.1341 18.7085 10.5824 17.8704 13.1203 17.7199C15.6583 17.5694 18.1892 18.1123 20.4397 19.2899C22.6902 20.4674 24.5746 22.2349 25.8893 24.4013C27.2041 26.5677 27.8991 29.0506 27.8993 31.5816Z" fill="#26B4FC"/>
<path d="M13.0713 30.6765C14.843 30.6765 16.2793 29.2466 16.2793 27.4828C16.2793 25.7189 14.843 24.2891 13.0713 24.2891C11.2995 24.2891 9.86328 25.7189 9.86328 27.4828C9.86328 29.2466 11.2995 30.6765 13.0713 30.6765Z" fill="#CD8787"/>
<path d="M11.8181 29.9277C11.8181 29.9277 12.2191 31.824 12.2191 32.0236C12.2191 32.2232 14.1239 33.1214 14.1239 33.1214L15.8281 32.822L16.4296 31.0256C16.4296 31.0256 15.4271 29.5285 15.4271 28.9297L11.8181 29.9277Z" fill="#CD8787"/>
<path d="M13.951 45.4683C12.9575 45.4688 11.9669 45.3638 10.9959 45.1549C10.9477 44.178 10.9156 43.1015 10.9156 43.1015L9.93801 40.2775L7.90869 34.4194L12.0871 31.244C12.0871 31.244 13.1215 32.9214 14.6249 32.4225C15.0431 32.2962 15.4104 32.0416 15.6746 31.6952C15.9389 31.3487 16.0864 30.9281 16.0963 30.4932L21.0412 32.2234L20.187 39.1236L20.1389 39.5095L20.5462 43.8204C18.5191 44.9056 16.2526 45.4719 13.951 45.4683Z" fill="#7685D6"/>
<path d="M10.2894 24.9095C10.2894 24.9095 11.3079 22.7125 13.2601 23.2195C15.2122 23.7265 16.3157 24.487 16.4005 25.2475C16.4854 26.008 16.3581 27.1487 16.3581 27.1487C16.3581 27.1487 16.1459 25.5855 14.7879 25.9235C13.4298 26.2615 11.3079 26.008 11.3079 26.008L10.9684 29.0499C10.9684 29.0499 10.5865 28.5007 10.1621 28.8387C9.73768 29.1767 8.93135 25.5855 10.2894 24.9095Z" fill="#171720"/>
<path d="M6.05957 43.0331L6.70515 37.6138C6.60517 35.5173 7.90867 34.4199 7.90867 34.4199H9.41214L10.5144 38.1127L9.93799 40.278L9.21217 43.0024L9.01097 43.3023C9.01097 43.3023 9.21217 43.6009 9.11095 43.7016C9.01097 43.8012 8.91098 44.2006 8.91098 44.2006C8.91098 44.2006 8.93197 44.3431 8.969 44.5557C7.94181 44.1652 6.9651 43.6541 6.05957 43.0331Z" fill="#7685D6"/>
<path d="M24.5505 40.6083C23.8227 41.4555 22.9951 42.2122 22.0854 42.8621C21.9484 42.6201 21.8336 42.3663 21.7422 42.1039L20.1869 39.1238L19.1365 37.1134L19.3364 31.9238L21.0411 32.2237C21.0411 32.2237 22.0434 33.2215 22.4446 34.4197L23.247 38.0117L24.5492 40.6071L24.5505 40.6083Z" fill="#7685D6"/>
<path d="M96.037 23.5943C96.0382 25.9783 95.4224 28.3224 94.2491 30.4006C93.0757 32.4788 91.3843 34.221 89.338 35.4592C89.0911 35.6091 88.8393 35.7504 88.5825 35.8856C88.1999 36.0871 87.8061 36.2715 87.4037 36.4349V36.4361C87.2753 36.489 87.147 36.5394 87.0174 36.5873C86.9569 36.6106 86.8951 36.634 86.8334 36.6561C85.3116 37.2022 83.7061 37.4812 82.0885 37.4807C81.0262 37.4815 79.9673 37.3619 78.9322 37.1243C78.3945 37.0004 77.8649 36.8444 77.346 36.6573H77.3448C76.6862 36.4198 76.0466 36.1331 75.4315 35.7996C75.271 35.7135 75.113 35.6238 74.9575 35.5304C74.8489 35.4665 74.7427 35.4014 74.6365 35.3351C72.5865 34.0455 70.9096 32.2462 69.7711 30.1146C68.6327 27.983 68.0721 25.5927 68.1447 23.1796C68.2172 20.7665 68.9204 18.414 70.1849 16.354C71.4493 14.294 73.2314 12.5977 75.3552 11.4325C77.479 10.2674 79.8713 9.67351 82.296 9.70956C84.7207 9.74561 87.0941 10.4103 89.182 11.6381C91.27 12.8659 93.0003 14.6144 94.2024 16.7111C95.4045 18.8077 96.0368 21.1802 96.037 23.5943Z" fill="#26B4FC"/>
<path d="M80.4807 21.5674C80.4807 21.5674 80.5633 23.7046 80.0679 24.1978C79.5725 24.691 82.545 26.4172 82.545 26.4172L84.2789 23.7046C84.2789 23.7046 83.6184 22.5538 83.7835 21.5674L80.4807 21.5674Z" fill="#8E555D"/>
<path d="M81.9256 22.7593C83.5673 22.7593 84.8981 21.4344 84.8981 19.8001C84.8981 18.1657 83.5673 16.8408 81.9256 16.8408C80.284 16.8408 78.9531 18.1657 78.9531 19.8001C78.9531 21.4344 80.284 22.7593 81.9256 22.7593Z" fill="#8E555D"/>
<path d="M86.9632 35.9012C86.9817 36.1298 86.9998 36.3584 87.0175 36.5869C86.957 36.6103 86.8953 36.6336 86.8336 36.6558C85.3118 37.2018 83.7063 37.4808 82.0886 37.4803C81.0264 37.4811 79.9674 37.3616 78.9323 37.124C78.3947 37 77.865 36.8441 77.3462 36.657L77.3449 36.668C77.3437 36.6645 77.3437 36.6606 77.3449 36.657C77.3639 36.4063 77.4111 36.1586 77.4856 35.9184V35.9172C77.5548 35.6641 77.6486 35.3716 77.756 35.0484C77.872 34.7031 77.8794 33.9485 77.8547 33.2395C77.8523 33.1854 77.851 33.1301 77.8486 33.0773C77.8387 32.8475 77.8263 32.6275 77.814 32.4321C77.7856 31.9909 77.756 31.6776 77.756 31.6776L75.939 26.8272L80.3272 23.637C80.5864 24.4739 81.1419 24.4444 81.1419 24.4444C83.4971 24.6054 83.9303 22.9857 83.9439 22.9329V22.9316L88.1593 25.677L86.4262 29.8687C86.4262 29.8687 86.4966 30.579 86.5966 31.6628C86.6114 31.8226 86.6262 31.9909 86.6435 32.1667C86.7398 33.2309 86.857 34.5568 86.9632 35.9012Z" fill="#F9D60A"/>
<path d="M77.962 32.4583L77.8756 33.0826L77.8546 33.2399L77.488 35.9065L77.4855 35.9176V35.9188L77.346 36.6574L77.3448 36.6684C77.3436 36.6648 77.3436 36.661 77.3448 36.6574C76.6862 36.4199 76.0466 36.1331 75.4315 35.7996C75.271 35.7136 75.1131 35.6239 74.9575 35.5305C75.0601 35.2124 75.1812 34.9005 75.3204 34.5965L75.5722 32.6451L75.65 32.0479L77.8139 32.4325L77.962 32.4583Z" fill="#8E555D"/>
<path d="M77.1366 26.7051L75.9393 26.8284C75.9393 26.8284 75.1549 32.6235 75.4026 32.6235C75.6503 32.6235 78.4577 33.2811 78.5403 33.1167C78.6228 32.9523 77.1366 26.7051 77.1366 26.7051Z" fill="#F9D60A"/>
<path d="M79.6323 16.7663L79.0964 16.5723C79.0964 16.5723 80.2168 15.4569 81.7756 15.5539L81.3372 15.1175C81.3372 15.1175 82.4089 14.7295 83.3831 15.7479C83.8953 16.2833 84.4878 16.9125 84.8572 17.6214H85.431L85.1915 18.0983L86.0298 18.5751L85.1694 18.4895C85.2509 18.9012 85.2229 19.327 85.088 19.7245L84.8932 20.258C84.8932 20.258 84.1138 18.7061 84.1138 18.5121V18.9971C84.1138 18.9971 83.5779 18.5606 83.5779 18.2697L83.2857 18.6091L83.1395 18.0757L81.3372 18.6091L81.6295 18.1727L80.5091 18.3182L80.9475 17.7847C80.9475 17.7847 79.681 18.4152 79.6323 18.9486C79.5836 19.4821 78.9503 20.161 78.9503 20.161L78.6581 19.676C78.6581 19.676 78.2196 17.4937 79.6323 16.7663Z" fill="#171720"/>
<path d="M89.3381 35.4594C89.0912 35.6093 88.8394 35.7506 88.5826 35.8858C88.2 36.0873 87.8062 36.2717 87.4038 36.4351V36.4363C87.2754 36.4892 87.1471 36.5396 87.0175 36.5875C86.957 36.6108 86.8952 36.6342 86.8335 36.6563L86.9631 35.9018L86.3756 32.1844L86.3015 31.7187L86.5965 31.6634L89.3566 31.1436V34.5144C89.3566 34.5144 89.364 34.8793 89.3381 35.4594Z" fill="#8E555D"/>
<path d="M86.5495 25.4717L88.1596 25.6772C88.1596 25.6772 90.0999 31.5545 89.6045 31.8011C89.1091 32.0478 85.8889 32.2122 85.8889 32.2122L86.5495 25.4717Z" fill="#F9D60A"/>
<path d="M22.9619 25.0696C25.2116 25.0696 27.0353 23.254 27.0353 21.0143C27.0353 18.7746 25.2116 16.959 22.9619 16.959C20.7122 16.959 18.8884 18.7746 18.8884 21.0143C18.8884 23.254 20.7122 25.0696 22.9619 25.0696Z" fill="#8FE169"/>
<path d="M58.7588 42.8879C61.0085 42.8879 62.8322 41.0723 62.8322 38.8326C62.8322 36.593 61.0085 34.7773 58.7588 34.7773C56.509 34.7773 54.6853 36.593 54.6853 38.8326C54.6853 41.0723 56.509 42.8879 58.7588 42.8879Z" fill="#8FE169"/>
<path d="M92.2104 17.8186C94.4601 17.8186 96.2839 16.003 96.2839 13.7633C96.2839 11.5236 94.4601 9.70801 92.2104 9.70801C89.9607 9.70801 88.137 11.5236 88.137 13.7633C88.137 16.003 89.9607 17.8186 92.2104 17.8186Z" fill="#8FE169"/>
<path d="M106.647 11.9145C108.563 11.9145 110.116 10.3686 110.116 8.46166C110.116 6.55469 108.563 5.00879 106.647 5.00879C104.732 5.00879 103.179 6.55469 103.179 8.46166C103.179 10.3686 104.732 11.9145 106.647 11.9145Z" fill="#CD8787"/>
<path d="M109.289 4.04692C109.004 3.66529 108.634 3.35428 108.208 3.138C107.782 2.92172 107.312 2.806 106.834 2.7998H106.718C104.472 2.7998 102.652 4.82272 102.652 7.31811V7.31812H103.405L103.526 6.39732L103.704 7.31812H108.167L108.541 6.5391L108.447 7.31812H109.325C109.735 9.34358 109.146 11.369 107.559 13.3945H109.055L109.803 11.8364L109.616 13.3945H112.466L113.027 9.81098C113.027 7.12726 111.461 4.85153 109.289 4.04692Z" fill="#2F2E41"/>
<path d="M110.109 4.42396C111.336 4.42396 112.331 3.43363 112.331 2.21198C112.331 0.990338 111.336 0 110.109 0C108.882 0 107.887 0.990338 107.887 2.21198C107.887 3.43363 108.882 4.42396 110.109 4.42396Z" fill="#2F2E41"/>
</svg>
