<svg width="34" height="34" viewBox="0 0 34 34" fill="none" xmlns="http://www.w3.org/2000/svg">
<circle cx="16.7541" cy="16.7541" r="16.4549" stroke="#EEAB1B" stroke-width="0.598361"/>
<circle cx="16.7541" cy="16.7542" r="14.3607" fill="#EEAB1B"/>
<path d="M10.9617 22.2004C10.9052 22.1438 10.8268 22.1113 10.7469 22.1113C10.667 22.1113 10.5886 22.1438 10.5321 22.2004C10.4756 22.2569 10.4431 22.3353 10.4431 22.4152C10.4431 22.4951 10.4755 22.5735 10.5321 22.63C10.5886 22.6865 10.667 22.7191 10.7469 22.7191C10.8268 22.7191 10.9052 22.6866 10.9617 22.63C11.0182 22.5735 11.0508 22.4951 11.0508 22.4152C11.0508 22.3353 11.0183 22.2569 10.9617 22.2004Z" fill="white"/>
<path d="M22.6438 13.9357C22.5873 13.8792 22.5092 13.8467 22.429 13.8467C22.3491 13.8467 22.2707 13.8792 22.2142 13.9357C22.1577 13.9922 22.1251 14.0706 22.1251 14.1505C22.1251 14.2305 22.1576 14.3089 22.2142 14.3654C22.2707 14.4219 22.3491 14.4544 22.429 14.4544C22.5092 14.4544 22.5873 14.4219 22.6438 14.3654C22.7006 14.3089 22.7331 14.2305 22.7331 14.1505C22.7331 14.0706 22.7006 13.9922 22.6438 13.9357Z" fill="white"/>
<path d="M23.8457 8.46596C23.7887 8.40898 23.7114 8.37695 23.6308 8.37695L16.1558 8.37735C15.988 8.37735 15.852 8.51342 15.852 8.68122V9.55019L12.9716 10.322C12.8095 10.3654 12.7133 10.532 12.7568 10.6941L14.2496 16.2653L12.9582 17.5567C12.7938 17.3167 12.5178 17.1589 12.2057 17.1589H9.28862C8.78596 17.1589 8.37704 17.5679 8.37704 18.0705V23.0234C8.37704 23.5261 8.78596 23.935 9.28862 23.935H12.2057C12.6327 23.935 12.992 23.6398 13.0904 23.2428L13.4517 23.5579C13.7306 23.8011 14.088 23.9351 14.4581 23.9351H23.6308C23.7986 23.9351 23.9347 23.799 23.9347 23.6312V8.68082C23.9347 8.60024 23.9027 8.52293 23.8457 8.46596ZM12.5095 23.0234C12.5095 23.191 12.3732 23.3273 12.2056 23.3273H9.28859C9.12104 23.3273 8.98472 23.191 8.98472 23.0234V18.0705C8.98472 17.903 9.12104 17.7666 9.28859 17.7666H10.4433V21.2671C10.4433 21.4349 10.5793 21.5709 10.7471 21.5709C10.9149 21.5709 11.051 21.4349 11.051 21.2671V17.7666H12.2057C12.3732 17.7666 12.5095 17.903 12.5095 18.0705V23.0234H12.5095ZM13.4224 10.8304L15.852 10.1793V11.3053L15.6483 11.3599C15.5704 11.3808 15.5041 11.4317 15.4638 11.5015C15.4235 11.5713 15.4126 11.6542 15.4334 11.7321C15.5502 12.1678 15.2907 12.6173 14.8549 12.7341C14.777 12.755 14.7105 12.806 14.6703 12.876C14.63 12.9459 14.6191 13.029 14.6402 13.1069L15.8246 17.4929H15.2148L14.9005 16.2633C14.8905 16.2241 14.873 16.1881 14.8496 16.1567L13.4224 10.8304ZM15.852 12.6988V15.2629L15.2977 13.2107C15.5293 13.0912 15.7187 12.9123 15.852 12.6988ZM20.2175 23.3273H14.458C14.2348 23.3273 14.0193 23.2465 13.8511 23.0998L13.1172 22.4599V18.2571L14.4439 16.9305L14.6845 17.8719C14.7189 18.0064 14.84 18.1005 14.9789 18.1005L20.953 18.1009C21.1876 18.1009 21.3785 18.2917 21.3785 18.5263C21.3785 18.7609 21.1876 18.9517 20.953 18.9517H17.8919C17.7241 18.9517 17.588 19.0878 17.588 19.2556C17.588 19.4234 17.7241 19.5594 17.8919 19.5594H21.9041C22.1387 19.5594 22.3296 19.7503 22.3296 19.9849C22.3296 20.2194 22.1387 20.4103 21.9041 20.4103H17.8919C17.7241 20.4103 17.588 20.5463 17.588 20.7141C17.588 20.8819 17.7241 21.018 17.8919 21.018H21.254C21.4885 21.018 21.6794 21.2088 21.6794 21.4434C21.6794 21.678 21.4885 21.8688 21.254 21.8688H17.8919C17.7241 21.8688 17.588 22.0049 17.588 22.1727C17.588 22.3405 17.7241 22.4766 17.8919 22.4766H20.2175C20.4521 22.4766 20.6429 22.6674 20.6429 22.902C20.6428 23.1365 20.452 23.3273 20.2175 23.3273ZM23.327 23.3273H23.327H21.1586C21.2175 23.1974 21.2506 23.0535 21.2506 22.9019C21.2506 22.7502 21.2175 22.6063 21.1586 22.4765H21.254C21.8236 22.4765 22.2871 22.013 22.2871 21.4433C22.2871 21.2772 22.2474 21.1202 22.1774 20.9809C22.6149 20.8608 22.9372 20.4598 22.9372 19.9848C22.9372 19.7543 22.8613 19.5413 22.7333 19.3693V15.5181C22.7333 15.3503 22.5972 15.2142 22.4294 15.2142C22.2616 15.2142 22.1256 15.3503 22.1256 15.5181V18.9759C22.0542 18.9602 21.9801 18.9517 21.9041 18.9517H21.8941C21.953 18.8219 21.9861 18.6779 21.9861 18.5263C21.9861 17.9566 21.5227 17.4932 20.953 17.4932H20.4645C20.9832 17.2707 21.3475 16.7552 21.3475 16.156C21.3475 15.3541 20.6951 14.7017 19.8933 14.7017C19.0914 14.7017 18.439 15.3541 18.439 16.156C18.439 16.7552 18.8034 17.2707 19.322 17.4932H17.661V11.7153C18.2038 11.597 18.6321 11.1687 18.7504 10.6259H21.0361C21.1544 11.1687 21.5827 11.597 22.1255 11.7153V12.6601C22.1255 12.8279 22.2616 12.9639 22.4294 12.9639C22.5972 12.9639 22.7333 12.8279 22.7333 12.6601V11.444C22.7333 11.2763 22.5972 11.1402 22.4294 11.1402C21.9783 11.1402 21.6113 10.7731 21.6113 10.322C21.6113 10.1542 21.4752 10.0181 21.3074 10.0181H18.4791C18.3113 10.0181 18.1753 10.1542 18.1753 10.322C18.1753 10.7732 17.8082 11.1402 17.3571 11.1402C17.1893 11.1402 17.0533 11.2763 17.0533 11.444V17.4931H16.4597V8.98502L23.327 8.98469V23.3273ZM19.8933 17.0025C19.4266 17.0025 19.0468 16.6228 19.0468 16.156C19.0468 15.6893 19.4266 15.3095 19.8933 15.3095C20.3601 15.3095 20.7398 15.6892 20.7398 16.156C20.7398 16.6227 20.3601 17.0025 19.8933 17.0025Z" fill="white"/>
</svg>
