<svg width="24" height="24" viewBox="0 0 24 24" fill="none" xmlns="http://www.w3.org/2000/svg">
<path fill-rule="evenodd" clip-rule="evenodd" d="M11.7639 0C18.2608 0 23.5279 5.34204 23.5279 11.9315C23.5279 18.5209 18.2608 23.863 11.7639 23.863C5.26701 23.863 0 18.5209 0 11.9315C0 5.34204 5.26701 0 11.7639 0ZM16.9607 9.08426C16.9662 9.20759 16.9684 9.33206 16.9684 9.45766C16.9684 13.2765 14.2714 17.678 9.33981 17.6768C7.82472 17.6768 6.41559 17.1903 5.2282 16.3553C5.43788 16.3824 5.65193 16.3971 5.86825 16.3971C7.12402 16.4005 8.28047 15.9343 9.19859 15.1536C8.0256 15.1253 7.03465 14.2733 6.69366 13.1067C6.85698 13.143 7.02473 13.1622 7.19796 13.1633C7.44184 13.1644 7.6791 13.1305 7.90422 13.0649C6.67716 12.7865 5.75241 11.5939 5.75241 10.1705V10.1331C6.11435 10.3572 6.52705 10.4941 6.96733 10.5145C6.24787 9.98042 5.77447 9.07523 5.77447 8.05686C5.77447 7.51824 5.90688 7.01586 6.13751 6.58589C7.45954 8.38043 9.43588 9.57078 11.666 9.71786C11.6197 9.50403 11.5965 9.28223 11.5965 9.05368C11.5965 7.44584 12.7971 6.16271 14.278 6.1876C15.0494 6.20119 15.7468 6.56437 16.2357 7.13467C16.8459 7.01472 17.4197 6.78389 17.9384 6.46142C17.7375 7.1324 17.3127 7.69135 16.7587 8.04099C17.3017 7.9788 17.8181 7.83058 18.2992 7.60878C17.9395 8.18246 17.4848 8.6837 16.9607 9.08426Z" fill="#A3A3A3"/>
</svg>
