<svg width="29" height="28" viewBox="0 0 29 28" fill="none" xmlns="http://www.w3.org/2000/svg">
<circle cx="4.31684" cy="3.20209" r="2.83979" fill="#4CB449"/>
<path d="M3.39078 8.32612C2.84752 8.52367 3.04096 9.31388 3.20558 9.68428C3.41136 10.0753 3.88466 11.0054 4.1316 11.5981C4.44027 12.3389 4.37854 12.9562 4.81068 13.5736C5.24282 14.1909 5.98363 13.5736 7.09486 12.9562C8.20608 12.3389 9.99638 10.9807 11.8484 9.31388C13.7004 7.64704 14.3178 5.85674 14.7499 4.86899C15.0956 4.07879 14.4413 3.46968 14.0709 3.26389C13.3095 3.01696 11.6262 2.49839 10.9841 2.39961C10.1816 2.27614 10.1816 2.52308 8.94689 4.43685C7.7122 6.35062 4.06986 8.07919 3.39078 8.32612Z" fill="#49B747"/>
<circle cx="2.889" cy="25.147" r="2.83979" transform="rotate(-90.2674 2.889 25.147)" fill="#259DD9"/>
<path d="M8.01726 26.0492C8.21734 26.5915 9.00663 26.3944 9.37627 26.2281C9.76629 26.0205 10.6942 25.5428 11.2857 25.2931C12.0251 24.981 12.6427 25.0399 13.258 24.6048C13.8733 24.1698 13.2525 23.4319 12.63 22.3236C12.0075 21.2152 10.641 19.4313 8.96553 17.5871C7.29007 15.7428 5.49691 15.1338 4.50715 14.7063C3.71534 14.3643 3.10929 15.0215 2.90524 15.3929C2.66186 16.1554 2.15115 17.8411 2.05537 18.4836C1.93565 19.2867 2.18258 19.2856 4.1021 20.5113C6.02161 21.7371 7.76715 25.3713 8.01726 26.0492Z" fill="#259DD9"/>
<circle cx="24.8931" cy="24.664" r="2.83979" transform="rotate(178.552 24.8931 24.664)" fill="#4CB449"/>
<path d="M25.6894 19.5183C26.2275 19.3071 26.0141 18.522 25.8402 18.1559C25.6246 17.7703 25.128 16.8524 24.8661 16.2662C24.5388 15.5334 24.585 14.9147 24.1374 14.3084C23.6898 13.7022 22.9648 14.3381 21.8695 14.9833C20.7742 15.6285 19.0188 17.0315 17.2095 18.7446C15.4002 20.4577 14.8283 22.263 14.4212 23.2614C14.0956 24.06 14.7651 24.6524 15.1406 24.8488C15.908 25.0764 17.6039 25.5523 18.2482 25.6348C19.0536 25.738 19.0474 25.4911 20.2333 23.5467C21.4193 21.6024 25.0168 19.7823 25.6894 19.5183Z" fill="#4CB449"/>
<circle cx="26.0042" cy="2.87478" r="2.83979" transform="rotate(89.2897 26.0042 2.87478)" fill="#259DD9"/>
<path d="M20.8692 2.01241C20.6649 1.47164 19.8772 1.67486 19.5089 1.84406C19.1204 2.05467 18.1963 2.53947 17.6067 2.79373C16.8698 3.11157 16.2517 3.05749 15.6398 3.49725C15.0278 3.93701 15.6543 4.67012 16.2854 5.7736C16.9165 6.87708 18.2967 8.65041 19.9864 10.4816C21.676 12.3129 23.4739 12.908 24.4669 13.3278C25.2613 13.6637 25.8623 13.0018 26.0634 12.6289C26.3009 11.8645 26.7986 10.1749 26.8894 9.5317C27.0029 8.72768 26.756 8.73074 24.8271 7.51987C22.8981 6.30901 21.1245 2.68838 20.8692 2.01241Z" fill="#259DD9"/>
</svg>
