<svg width="79" height="138" viewBox="0 0 79 138" fill="none" xmlns="http://www.w3.org/2000/svg">
<circle cx="28.1525" cy="47.6925" r="3.03774" fill="white"/>
<path d="M27.1618 53.1737C26.5807 53.385 26.7876 54.2303 26.9637 54.6265C27.1839 55.0448 27.6901 56.0397 27.9543 56.6737C28.2845 57.4662 28.2184 58.1265 28.6807 58.7869C29.143 59.4473 29.9354 58.7869 31.1241 58.1265C32.3128 57.4662 34.2279 56.0133 36.209 54.2303C38.1901 52.4473 38.8505 50.5322 39.3128 49.4756C39.6826 48.6303 38.9826 47.9787 38.5864 47.7586C37.7719 47.4945 35.9713 46.9397 35.2845 46.8341C34.426 46.702 34.426 46.9662 33.1052 49.0133C31.7845 51.0605 27.8883 52.9096 27.1618 53.1737Z" fill="white"/>
<circle cx="26.6255" cy="71.1678" r="3.03774" transform="rotate(-90.2674 26.6255 71.1678)" fill="white"/>
<path d="M32.1111 72.1327C32.3251 72.7128 33.1694 72.5019 33.5648 72.324C33.982 72.1019 34.9746 71.591 35.6073 71.3239C36.3982 70.99 37.0589 71.053 37.7171 70.5876C38.3753 70.1223 37.7113 69.3329 37.0453 68.1473C36.3794 66.9617 34.9177 65.0534 33.1254 63.0807C31.3332 61.1079 29.415 60.4564 28.3563 59.9991C27.5093 59.6332 26.861 60.3363 26.6427 60.7335C26.3824 61.5492 25.836 63.3524 25.7336 64.0397C25.6055 64.8988 25.8697 64.8976 27.923 66.2087C29.9763 67.5199 31.8435 71.4075 32.1111 72.1327Z" fill="white"/>
<circle cx="50.1631" cy="70.6508" r="3.03774" transform="rotate(178.552 50.1631 70.6508)" fill="white"/>
<path d="M51.0149 65.1461C51.5905 64.9202 51.3623 64.0804 51.1762 63.6887C50.9456 63.2762 50.4143 62.2943 50.1342 61.6672C49.7841 60.8834 49.8335 60.2216 49.3547 59.5731C48.8759 58.9246 48.1004 59.6048 46.9287 60.295C45.7571 60.9852 43.8793 62.4859 41.9439 64.3184C40.0084 66.1509 39.3967 68.0821 38.9612 69.1501C38.6129 70.0044 39.3292 70.6381 39.7308 70.8481C40.5517 71.0916 42.3658 71.6007 43.055 71.6889C43.9166 71.7993 43.9099 71.5352 45.1785 69.4553C46.4471 67.3754 50.2954 65.4285 51.0149 65.1461Z" fill="white"/>
<circle cx="51.3519" cy="47.3427" r="3.03774" transform="rotate(89.2897 51.3519 47.3427)" fill="white"/>
<path d="M45.8591 46.4204C45.6406 45.842 44.7979 46.0594 44.4039 46.2404C43.9884 46.4657 42.9998 46.9842 42.3692 47.2562C41.5809 47.5962 40.9197 47.5384 40.2651 48.0088C39.6105 48.4792 40.2807 49.2634 40.9558 50.4438C41.6308 51.6242 43.1073 53.5211 44.9147 55.48C46.7222 57.4389 48.6453 58.0755 49.7076 58.5246C50.5574 58.8839 51.2002 58.1759 51.4154 57.777C51.6694 56.9593 52.2018 55.1519 52.2989 54.4639C52.4204 53.6038 52.1562 53.6071 50.0928 52.3118C48.0294 51.0165 46.1322 47.1435 45.8591 46.4204Z" fill="white"/>
<path d="M70.9836 0H7.73701C3.47058 0 0 3.91389 0 8.72493V129.087C0 133.897 3.47084 137.812 7.73727 137.812H70.9836C75.2501 137.812 78.7209 133.898 78.7209 129.087V8.72493C78.7207 3.91389 75.2501 0 70.9836 0ZM3.87716 21.9292H74.8437V113.069H3.87716V21.9292ZM7.73701 4.37208H70.9836C73.112 4.37208 74.8437 6.32466 74.8437 8.72493V19.0145H3.87716V8.72493C3.87716 6.32466 5.60871 4.37208 7.73701 4.37208ZM70.9836 133.439H7.73701C5.60871 133.439 3.87691 131.487 3.87691 129.086V115.983H74.8435V129.086C74.8435 131.487 73.112 133.439 70.9836 133.439Z" fill="white"/>
<path d="M39.3604 117.916C35.8594 117.916 33.0112 121.128 33.0112 125.076C33.0112 129.024 35.8596 132.235 39.3604 132.235C42.8613 132.235 45.7097 129.023 45.7097 125.076C45.7097 121.128 42.8615 117.916 39.3604 117.916V117.916ZM39.3604 129.321C37.2846 129.321 35.596 127.416 35.596 125.076C35.596 122.735 37.2846 120.83 39.3604 120.83C41.4363 120.83 43.1249 122.735 43.1249 125.076C43.1249 127.416 41.4363 129.321 39.3604 129.321Z" fill="white"/>
<path d="M30.5722 13.8874H48.1487C48.8626 13.8874 49.4411 13.2348 49.4411 12.43C49.4411 11.6253 48.8626 10.9727 48.1487 10.9727H30.5722C29.8583 10.9727 29.2798 11.6253 29.2798 12.43C29.2798 13.2348 29.8583 13.8874 30.5722 13.8874Z" fill="white"/>
<path d="M25.9204 13.8874C26.259 13.8874 26.5925 13.7329 26.8328 13.4618C27.0732 13.1878 27.2128 12.8148 27.2128 12.43C27.2128 12.0453 27.0732 11.6722 26.8328 11.3982C26.5922 11.1271 26.2588 10.9727 25.9204 10.9727C25.5792 10.9727 25.2481 11.1271 25.0054 11.3982C24.765 11.6693 24.628 12.0453 24.628 12.43C24.628 12.8148 24.765 13.1878 25.0054 13.4618C25.2458 13.7329 25.5792 13.8874 25.9204 13.8874Z" fill="white"/>
</svg>
