<svg width="72" height="73" viewBox="0 0 72 73" fill="none" xmlns="http://www.w3.org/2000/svg">
<path d="M51.6895 36.7977C50.3059 36.14 48.8941 35.5735 47.4576 35.0989C52.1099 31.6069 55.1249 26.0464 55.1249 19.7949C55.1249 9.24945 46.5456 0.669922 35.9999 0.669922C25.4543 0.669922 16.8749 9.24945 16.8749 19.7949C16.8749 26.0533 19.8967 31.6192 24.5577 35.1105C20.2872 36.5165 16.2801 38.7042 12.7729 41.589C6.34185 46.8789 1.8704 54.2573 0.182477 62.3653C-0.346554 64.9059 0.287243 67.5153 1.92102 69.5243C3.54679 71.5234 5.95752 72.6699 8.5349 72.6699H43.1718C44.7252 72.6699 45.9843 71.4108 45.9843 69.8574C45.9843 68.3041 44.7252 67.0449 43.1718 67.0449H8.5349C7.33424 67.0449 6.60988 66.3747 6.28504 65.9753C5.72409 65.2856 5.50696 64.3877 5.68935 63.5117C8.60802 49.4921 20.974 39.251 35.2544 38.9056C35.5017 38.9151 35.7502 38.9199 35.9999 38.9199C36.2521 38.9199 36.5031 38.915 36.7528 38.9053C41.1291 39.008 45.338 40.0067 49.2747 41.8781C50.6777 42.5447 52.3553 41.9483 53.0222 40.5453C53.689 39.1424 53.0925 37.4646 51.6895 36.7977ZM36.6859 33.2776C36.4577 33.2735 36.229 33.2714 35.9999 33.2714C35.773 33.2714 35.546 33.2737 35.3193 33.2779C28.1903 32.9223 22.4999 27.0107 22.4999 19.7949C22.4999 12.3509 28.556 6.29492 35.9999 6.29492C43.4439 6.29492 49.4999 12.3509 49.4999 19.7949C49.4999 27.0088 43.8124 32.9193 36.6859 33.2776Z" fill="white"/>
<path d="M69.1875 56.498H61.4531V48.7637C61.4531 47.2103 60.194 45.9512 58.6406 45.9512C57.0873 45.9512 55.8281 47.2103 55.8281 48.7637V56.498H48.0938C46.5404 56.498 45.2812 57.7572 45.2812 59.3105C45.2812 60.8639 46.5404 62.123 48.0938 62.123H55.8281V69.8574C55.8281 71.4108 57.0873 72.6699 58.6406 72.6699C60.194 72.6699 61.4531 71.4108 61.4531 69.8574V62.123H69.1875C70.7408 62.123 72 60.8639 72 59.3105C72 57.7572 70.7408 56.498 69.1875 56.498Z" fill="white"/>
</svg>
