<svg width="9" height="11" viewBox="0 0 9 11" fill="none" xmlns="http://www.w3.org/2000/svg">
<path d="M6.13518 0C6.15898 0 6.18277 0 6.20792 0C6.26628 0.721061 5.99106 1.25984 5.65657 1.65C5.32837 2.03747 4.87894 2.41326 4.15204 2.35624C4.10355 1.64551 4.37922 1.14669 4.71327 0.757428C5.02306 0.394653 5.59102 0.0718367 6.13518 0Z" fill="black"/>
<path d="M9 8.19608C9 8.20348 9 8.20996 9 8.21691C8.77944 8.85482 8.46483 9.40153 8.0809 9.90889C7.73042 10.3695 7.30093 10.9894 6.53404 10.9894C5.87138 10.9894 5.43122 10.5824 4.75207 10.5713C4.03366 10.5602 3.63859 10.9116 2.98174 11C2.9066 11 2.83147 11 2.75778 11C2.27545 10.9333 1.88619 10.5686 1.60261 10.2399C0.766401 9.26867 0.12022 8.01415 0 6.40873C0 6.25134 0 6.09441 0 5.93701C0.0508995 4.78804 0.635517 3.85386 1.41258 3.40112C1.82269 3.1604 2.38646 2.95533 3.01422 3.04699C3.28326 3.0868 3.55812 3.17475 3.79904 3.26178C4.02736 3.34557 4.31288 3.49417 4.58338 3.4863C4.76662 3.48121 4.94889 3.39001 5.13358 3.32567C5.67457 3.13911 6.20489 2.92524 6.90391 3.02569C7.74399 3.14698 8.34025 3.50343 8.70866 4.05338C7.99801 4.48529 7.43617 5.13616 7.53216 6.24764C7.61747 7.25727 8.23214 7.84796 9 8.19608Z" fill="black"/>
</svg>
