<svg width="243" height="210" viewBox="0 0 243 210" fill="none" xmlns="http://www.w3.org/2000/svg">
<path d="M242.6 6.521H128.368C128.368 6.521 107.751 25.4711 107.751 71.5578C107.751 111.202 123.365 164.868 117.529 186.926C113.132 203.527 91.6808 206.331 81.4478 206.786H190.221C190.221 206.786 225.999 208.908 231.836 186.926C237.673 164.944 222.058 111.202 222.058 71.5578C222.058 25.3953 242.6 6.521 242.6 6.521Z" fill="#70CCFB"/>
<path opacity="0.7" d="M242.6 6.521H128.368C128.368 6.521 107.751 25.4711 107.751 71.5578C107.751 111.202 123.365 164.868 117.529 186.926C113.132 203.527 91.6808 206.331 81.4478 206.786H190.221C190.221 206.786 225.999 208.908 231.836 186.926C237.673 164.944 222.058 111.202 222.058 71.5578C222.058 25.3953 242.6 6.521 242.6 6.521Z" fill="white"/>
<g opacity="0.8">
<path opacity="0.8" d="M211.522 55.1097H120.182C122.759 34.8709 129.733 23.046 133.599 17.8916H221.679C217.358 26.9119 213.265 39.1915 211.522 55.1097Z" fill="#70CCFB"/>
<path opacity="0.3" d="M210.763 65.8735H119.272C119.348 64.0543 119.424 62.2351 119.575 60.4917H211.067C210.915 62.2351 210.839 63.9785 210.763 65.8735Z" fill="#407BFF"/>
<path opacity="0.3" d="M148.001 76.561H119.272C119.197 74.8176 119.197 73.15 119.197 71.4824V71.1792H147.925V71.4824C147.925 73.2258 147.925 74.8934 148.001 76.561Z" fill="#407BFF"/>
<path opacity="0.3" d="M211.37 87.3247H119.879C119.727 85.5055 119.576 83.7621 119.5 81.9429H210.991C211.067 83.7621 211.218 85.5055 211.37 87.3247Z" fill="#407BFF"/>
<path opacity="0.3" d="M212.355 98.0884H121.016C120.788 96.2692 120.637 94.5258 120.409 92.7065H211.825C211.976 94.5258 212.128 96.2692 212.355 98.0884Z" fill="#407BFF"/>
<path opacity="0.3" d="M213.644 108.776H122.38C122.153 106.957 121.926 105.213 121.698 103.394H213.038C213.189 105.213 213.417 107.032 213.644 108.776Z" fill="#407BFF"/>
<path opacity="0.3" d="M215.16 119.541H123.896C123.593 117.721 123.365 115.978 123.138 114.159H214.402C214.629 115.978 214.932 117.797 215.16 119.541Z" fill="#407BFF"/>
<path opacity="0.3" d="M216.752 130.304H125.564C125.412 129.319 125.261 128.333 125.109 127.348C124.957 126.59 124.882 125.756 124.73 124.922H215.994C216.221 126.742 216.524 128.485 216.752 130.304Z" fill="#407BFF"/>
<path opacity="0.3" d="M127.155 141.067C126.928 139.324 126.625 137.505 126.397 135.686H217.661C217.965 137.505 218.192 139.248 218.495 141.067H127.155Z" fill="#407BFF"/>
<path opacity="0.3" d="M128.596 151.755C128.368 150.012 128.141 148.193 127.913 146.374H204.017C204.244 148.193 204.548 149.936 204.775 151.755H128.596Z" fill="#407BFF"/>
<path opacity="0.3" d="M129.733 162.519C129.581 160.776 129.43 158.956 129.202 157.137H220.542C220.769 158.956 220.921 160.776 221.072 162.519H129.733Z" fill="#407BFF"/>
<path opacity="0.3" d="M130.263 173.283C130.263 171.539 130.187 169.796 130.112 167.901H178.321C178.472 169.796 178.472 171.539 178.548 173.283H130.263Z" fill="#407BFF"/>
</g>
<path d="M198.939 200.874C193.102 201.935 187.265 201.101 181.429 200.874C178.624 200.722 175.819 200.722 173.015 201.101C170.286 201.48 167.557 202.162 164.828 201.935C165.738 201.48 166.572 200.874 167.406 200.192C167.557 200.04 167.481 199.813 167.254 199.737C158.689 196.705 150.881 204.891 142.391 202.996C144.817 201.177 148.228 201.177 150.275 198.827C150.426 198.676 150.35 198.372 150.047 198.372C142.391 198.221 135.19 201.177 127.686 201.859C127.307 201.859 127.307 202.466 127.686 202.466C135.039 201.859 142.012 199.055 149.365 198.979C147.167 200.95 143.832 201.025 141.558 202.996C141.406 203.148 141.482 203.451 141.709 203.451C150.275 205.801 158.158 197.614 166.648 200.192C165.738 200.874 164.828 201.48 163.767 201.935C163.54 202.011 163.616 202.39 163.843 202.466C166.648 202.92 169.376 202.314 172.105 201.935C175.213 201.48 178.321 201.404 181.429 201.556C187.341 201.859 193.254 202.617 199.09 201.556C199.469 201.404 199.318 200.798 198.939 200.874Z" fill="#263239"/>
<path d="M44.2297 34.4912C44.6845 35.0976 45.2909 35.8556 45.8973 36.462C46.5037 37.1442 47.0343 37.8264 47.7165 38.4328C48.9294 39.7214 50.1422 41.0101 51.5066 42.2229C54.0838 44.5727 56.8884 46.6951 59.8446 48.0595C60.2236 48.2111 60.6026 48.3627 60.9058 48.5143C61.1332 48.5901 61.2848 48.6659 61.4364 48.6659C61.588 48.7417 61.7396 48.7417 61.967 48.8175C62.6493 48.9691 63.4073 49.1207 64.1653 49.1965C65.7571 49.2723 67.4247 49.1965 69.1681 48.8933C70.9115 48.6659 72.6549 48.2111 74.3983 47.7563C76.1417 47.3015 77.8852 46.7709 79.5528 46.1645L81.0688 49.1965C77.6578 51.3189 74.1709 52.9107 70.2293 54.0478C68.2585 54.5784 66.2119 54.9574 64.0137 55.0332C62.9525 55.0332 61.8154 55.0332 60.6026 54.8058C60.2994 54.73 59.9962 54.73 59.693 54.6542C59.3898 54.5784 59.0866 54.5026 58.8592 54.4268C58.3286 54.2752 57.798 54.1236 57.3432 53.8962C53.3258 52.3043 49.9148 49.9545 46.8827 47.3015C45.3667 46.0129 43.9265 44.6485 42.5621 43.1325C41.8799 42.3745 41.1977 41.6923 40.5913 40.9343C39.9091 40.1763 39.3785 39.4183 38.6963 38.5844L44.2297 34.4912Z" fill="#FFB573"/>
<path d="M36.4978 32.2931C36.3462 36.5379 38.0138 44.1937 38.0138 44.1937L48.5501 42.9051C48.5501 42.9051 48.9291 31.6867 46.8825 29.0336C43.3956 24.4856 36.6494 28.3514 36.4978 32.2931Z" fill="#259DD9"/>
<path d="M78.1125 47.3018L83.0396 42.8296L83.646 47.6808C83.646 47.6808 81.5994 50.4096 79.3254 49.2726L78.1125 47.3018Z" fill="#FFB573"/>
<path d="M85.541 43.057L87.5876 45.7858L83.6459 47.6808L83.0396 42.8296L85.541 43.057Z" fill="#FFB573"/>
<path d="M84.2524 30.7778C84.783 30.7778 85.0862 30.7778 85.4653 30.7778C85.6927 30.7778 85.8442 30.7778 85.92 30.7778L86.2991 30.8536C86.7539 30.9294 87.0571 31.081 87.2087 31.2326C87.3603 31.3842 87.4361 31.6116 87.4361 31.7632L87.5877 32.3696L88.2699 34.6437L89.7101 39.2675L92.5147 48.4394C94.4097 54.5792 96.3047 60.719 98.1239 66.8589C101.838 79.1386 105.249 91.494 108.736 103.85C112.147 116.205 115.331 128.636 118.666 140.992C122.001 153.347 124.957 165.854 126.019 178.816C126.17 180.863 124.654 182.682 122.608 182.834C121.016 182.985 119.5 182.076 118.893 180.635C113.511 168.811 110.025 156.455 106.917 144.024C103.809 131.593 100.55 119.161 97.5175 106.73C94.4855 94.2987 91.5293 81.7916 88.8005 69.2845C87.3603 62.9931 86.0717 56.7774 84.7072 50.486L82.6606 41.0867L81.6752 36.3871L81.1446 34.0373L80.993 33.4309C80.993 33.2034 80.8414 33.0518 80.9172 32.8244C80.993 32.597 81.2204 32.3696 81.5236 32.0664L81.8268 31.839C81.9026 31.7632 82.0542 31.6874 82.2058 31.6116C82.509 31.46 82.7364 31.2326 83.267 31.0052C83.7218 30.8536 84.025 30.7778 84.2524 30.7778Z" fill="black"/>
<path d="M125.336 180.787C125.185 180.332 124.806 180.105 124.351 180.181L122.683 180.636L121.016 181.09C120.561 181.166 120.334 181.621 120.409 182.076C121.471 186.851 120.409 190.262 121.546 194.431C122.683 198.828 127.686 201.102 127.686 201.102L127.535 199.207L128.293 200.95C128.293 200.95 131.552 196.554 130.415 192.157C129.278 187.988 126.701 185.487 125.336 180.787Z" fill="#259DD9"/>
<path opacity="0.3" d="M125.336 180.787C125.185 180.332 124.806 180.105 124.351 180.181L122.683 180.636L121.016 181.09C120.561 181.166 120.334 181.621 120.409 182.076C121.471 186.851 120.409 190.262 121.546 194.431C122.683 198.828 127.686 201.102 127.686 201.102L127.535 199.207L128.293 200.95C128.293 200.95 131.552 196.554 130.415 192.157C129.278 187.988 126.701 185.487 125.336 180.787Z" fill="white"/>
<path d="M125.564 193.066C126.15 193.066 126.625 192.591 126.625 192.005C126.625 191.419 126.15 190.944 125.564 190.944C124.978 190.944 124.503 191.419 124.503 192.005C124.503 192.591 124.978 193.066 125.564 193.066Z" fill="#263238"/>
<path d="M127.534 199.509C127.383 199.509 127.307 199.434 127.231 199.358L125.336 192.081C125.336 191.929 125.412 191.854 125.488 191.778C125.639 191.778 125.715 191.854 125.791 191.929L127.686 199.206C127.762 199.358 127.686 199.434 127.534 199.509Z" fill="#263238"/>
<path d="M121.395 154.788L111.162 157.441C110.555 157.592 109.949 157.213 109.797 156.683C109.646 156.076 110.025 155.47 110.555 155.318L120.864 152.589C121.47 152.438 122.077 152.817 122.228 153.347C122.304 154.03 122.001 154.636 121.395 154.788Z" fill="#66BAE4"/>
<path d="M69.5467 15.9963C69.3951 16.4511 69.4709 16.9059 69.7742 17.0575C70.0774 17.2091 70.4563 16.9059 70.6079 16.4511C70.7596 15.9963 70.6837 15.5415 70.3805 15.3899C70.0773 15.3141 69.6983 15.5415 69.5467 15.9963Z" fill="#263238"/>
<path d="M70.229 15.3896L71.4418 15.5412C71.4418 15.5412 70.608 16.1477 70.229 15.3896Z" fill="#263238"/>
<path d="M69.6988 16.6782C69.6988 16.6782 69.6988 18.9522 70.1536 20.3166C69.3198 20.6199 68.4102 19.9376 68.4102 19.9376L69.6988 16.6782Z" fill="#ED893E"/>
<path d="M71.3662 13.267C71.2904 13.267 71.2904 13.267 71.2146 13.1912C70.2292 12.3574 69.168 12.5848 69.168 12.5848C69.0164 12.6606 68.8648 12.509 68.789 12.3574C68.7132 12.2058 68.8648 12.0542 69.0164 11.9784C69.0922 11.9784 70.3808 11.5994 71.5936 12.6606C71.7452 12.7364 71.7452 12.9638 71.5936 13.0396C71.5936 13.267 71.442 13.267 71.3662 13.267Z" fill="#263238"/>
<path d="M53.4774 15.7686C53.7806 19.4828 52.5678 25.471 49.7632 27.5934C49.7632 27.5934 51.8856 31.4593 58.556 32.3689C65.9845 33.3543 62.4977 29.1852 62.4977 29.1852C58.556 27.6692 59.0108 24.713 59.9963 22.06L53.4774 15.7686Z" fill="#FFB573"/>
<path d="M73.5644 35.4766C74.1708 38.8876 74.853 42.526 75.611 45.937C75.99 47.6804 76.4448 49.4239 76.8996 51.0915C77.3544 52.8349 77.8092 54.5025 78.3398 56.1701C78.643 57.0039 78.8704 57.8377 79.1736 58.6715L79.6284 59.8843L79.7042 60.1875V60.2633C79.7042 60.3391 79.7042 60.3391 79.78 60.4149C79.8558 60.5665 80.0074 60.7939 80.4622 60.9455C80.917 61.0971 81.5992 61.2487 82.3572 61.3245C83.7974 61.4003 85.5408 61.2487 87.2085 60.9455C88.8761 60.6423 90.6195 60.2633 92.2871 59.8085L93.6515 62.9164C92.8177 63.447 91.9839 63.826 91.0743 64.2808C90.2405 64.7356 89.3309 65.1146 88.4213 65.4178C86.602 66.1 84.6312 66.6306 82.433 66.858C81.3718 66.9338 80.159 66.9338 78.8704 66.6306C77.5818 66.3274 76.0658 65.6452 75.0046 64.2808C74.7014 63.9776 74.474 63.5986 74.3224 63.2954C74.2466 63.1438 74.1708 62.9164 74.0192 62.7648L73.8676 62.4616L73.2611 61.0971C72.8821 60.1875 72.5031 59.3537 72.1999 58.4441C71.5177 56.6249 70.9113 54.8815 70.3807 53.0623C69.8501 51.2431 69.3953 49.4239 68.8647 47.6046C67.9551 43.9662 67.1971 40.3278 66.6665 36.5378L73.5644 35.4766Z" fill="#FFB573"/>
<path d="M91.6048 60.0358L94.561 57.686L95.8496 62.1583C95.8496 62.1583 91.8322 65.0387 90.771 61.6277L91.6048 60.0358Z" fill="#FFB573"/>
<path d="M97.2143 58.5198L98.2755 61.7793L95.8499 62.2341L94.5613 57.686L97.2143 58.5198Z" fill="#FFB573"/>
<path d="M42.562 202.996L48.6261 203.451L50.4453 189.352L44.3812 188.897L42.562 202.996Z" fill="#FFB573"/>
<path d="M3.37305 185.107L8.67908 188.367L17.4719 177.3L12.1659 174.116L3.37305 185.107Z" fill="#FFB573"/>
<path d="M12.3935 189.958C12.3177 189.958 12.2419 189.958 12.1661 189.958C11.4081 189.958 10.4985 188.746 10.0437 188.063C10.0437 187.988 10.0437 187.988 10.0437 187.912C10.0437 187.836 10.1195 187.836 10.1953 187.836C10.4227 187.912 12.6209 188.367 12.9241 189.049C12.9999 189.2 12.9999 189.352 12.8483 189.504C12.6967 189.807 12.5451 189.883 12.3935 189.958ZM10.4985 188.215C11.1049 189.125 11.7871 189.655 12.1661 189.655C12.3177 189.655 12.4693 189.579 12.6209 189.428C12.6967 189.352 12.6967 189.276 12.6967 189.2C12.4693 188.821 11.3323 188.442 10.4985 188.215Z" fill="#259DD9"/>
<path d="M12.0145 188.063C11.3323 188.215 10.4985 188.291 10.1195 188.139C10.0437 188.139 10.0437 188.063 10.0437 188.063C10.0437 187.987 10.0437 187.987 10.0437 187.912C10.1195 187.836 11.3323 186.623 12.1661 186.699C12.3935 186.699 12.6209 186.775 12.7725 187.002C12.9999 187.305 12.9241 187.533 12.8483 187.608C12.6967 187.836 12.3935 187.987 12.0145 188.063ZM10.4227 187.912C11.1807 187.987 12.3177 187.76 12.5451 187.457C12.6209 187.381 12.6209 187.305 12.4693 187.154C12.3935 187.002 12.2419 187.002 12.0903 187.002C11.6355 186.926 10.8775 187.533 10.4227 187.912Z" fill="#259DD9"/>
<path d="M10.271 187.153L5.26814 182.302C5.11654 182.15 4.81333 182.075 4.66173 182.226L0.341102 185.561C-0.113701 185.94 -0.113701 186.623 0.341102 187.002C2.08451 188.669 3.06992 189.351 5.26814 191.474C6.63255 192.762 8.45176 194.809 10.3468 196.628C12.166 198.372 14.061 196.704 13.4546 195.794C10.65 191.701 11.1048 190.109 10.8016 188.063C10.7258 187.76 10.4984 187.456 10.271 187.153Z" fill="black"/>
<path d="M51.279 203.602C50.5968 203.602 49.8388 203.45 49.384 203.374C49.3082 203.374 49.3082 203.298 49.2324 203.223C49.2324 203.147 49.2324 203.071 49.3082 203.071C49.6114 202.92 52.037 201.707 52.795 202.086C52.9466 202.161 53.0224 202.313 53.0224 202.465C53.0224 202.768 52.9467 202.995 52.7193 203.147C52.4918 203.526 51.8854 203.602 51.279 203.602ZM49.8388 203.223C51.2032 203.45 52.1886 203.374 52.5676 203.071C52.7192 202.92 52.7951 202.768 52.7193 202.616C52.7193 202.541 52.7192 202.465 52.6434 202.465C52.2644 202.161 50.9 202.692 49.8388 203.223Z" fill="#259DD9"/>
<path d="M49.384 203.375H49.3082C49.2324 203.375 49.2324 203.299 49.2324 203.223C49.2324 203.147 49.5356 200.646 50.9 200.646C50.9758 200.646 50.9758 200.646 51.0516 200.646C51.4306 200.722 51.5822 200.873 51.5822 201.025C51.7338 201.707 50.2178 203.072 49.384 203.375C49.4598 203.375 49.4598 203.375 49.384 203.375ZM50.9758 200.949C50.0662 200.949 49.763 202.389 49.6114 202.996C50.3694 202.541 51.3548 201.48 51.279 201.101C51.279 201.101 51.279 200.949 50.9758 200.949Z" fill="#259DD9"/>
<path d="M49.005 202.541H42.1072C41.8798 202.541 41.6524 202.693 41.5766 202.996L40.667 208.453C40.5912 208.984 41.046 209.515 41.6524 209.515C44.078 209.439 45.215 209.363 48.247 209.363C50.142 209.363 53.9321 209.59 56.5093 209.59C59.0107 209.59 59.3139 207.013 58.2527 206.786C53.4772 205.725 51.658 204.36 50.0662 202.996C49.763 202.693 49.384 202.541 49.005 202.541Z" fill="black"/>
<path opacity="0.2" d="M50.4452 189.352L49.4598 197.16L43.3958 196.174L44.3812 188.897L50.4452 189.352Z" fill="black"/>
<path opacity="0.2" d="M12.1661 174.116L17.4722 177.376L13.8337 181.924L8.4519 178.816L12.1661 174.116Z" fill="black"/>
<path d="M39.4543 64.433C44.2298 65.0395 54.387 66.4039 64.2411 67.7683C73.8678 33.0516 70.9874 32.0662 70.9874 32.0662C70.2293 31.6114 68.7133 31.1566 67.6521 30.7776C66.5151 30.3228 65.3023 29.9438 64.0895 29.6406C61.7397 28.9584 59.3141 28.352 56.8127 27.973C52.0372 27.1392 47.186 26.9118 42.4106 27.1392C41.501 27.215 40.5155 27.7456 39.9849 28.5036C39.9091 28.6552 39.8333 28.8068 39.7575 28.9584C39.4543 29.5648 39.3785 30.1712 39.4543 30.7776C41.501 49.0455 40.8188 55.1096 39.4543 64.433Z" fill="#259DD9"/>
<path opacity="0.2" d="M66.6663 42.7537C65.9841 47.6049 67.1969 51.5465 68.0307 53.3657C69.6983 46.6195 70.5321 41.9956 70.9869 38.812C69.0919 38.6604 67.1211 39.4184 66.6663 42.7537Z" fill="black"/>
<path d="M70.76 31.9899C75.0049 34.4155 77.9611 40.1764 78.8707 43.5874L69.8504 51.8496C69.8504 51.8496 65.1508 40.9344 65.5298 37.5991C65.9088 34.1123 69.1682 31.0803 70.76 31.9899Z" fill="#259DD9"/>
<path d="M54.7658 8.18888C52.8708 13.9497 51.9612 16.2995 53.6288 20.3928C56.1302 26.5326 63.6344 27.8212 67.1971 22.8184C70.3807 18.3461 72.9579 9.70489 68.4099 5.08106C63.8618 0.608826 56.6608 2.42804 54.7658 8.18888Z" fill="#FFB573"/>
<path d="M64.2411 13.2668C63.7863 14.2522 63.7863 15.5409 64.0895 16.5263C64.4685 18.0423 65.6055 18.1939 66.2877 17.2085C66.8941 16.2989 67.5005 14.4797 66.7425 13.191C65.9087 11.9782 64.6959 12.1298 64.2411 13.2668Z" fill="#FFB573"/>
<path d="M56.8884 0.987556C52.7952 -1.28646 45.4425 5.38399 43.5475 16.2235C42.1831 24.0309 58.8592 27.7451 69.3197 27.6693C68.6375 25.8501 64.241 20.3167 67.0457 15.0107C69.0923 11.1448 71.3663 12.0544 71.5179 7.5822C71.7453 1.89716 64.2411 -1.89286 56.8884 0.987556Z" fill="#263238"/>
<path d="M66.2117 3.48906C70.9871 3.03426 75.7626 7.73389 72.2 12.3577C72.2 12.3577 69.6227 10.0837 65.9843 10.8417C63.7861 11.2965 66.2117 3.48906 66.2117 3.48906Z" fill="#263238"/>
<path d="M57.6464 66.8583C57.6464 66.8583 48.0198 107.487 43.5475 130.834C38.7721 155.469 16.0319 181.166 16.0319 181.166L8.30029 176.845C8.30029 176.845 22.6266 153.423 27.2504 130.379C36.6497 83.6861 30.2824 74.2868 39.3785 64.3569L57.6464 66.8583Z" fill="black"/>
<path d="M16.8656 181.923L7.16309 176.542L8.6033 173.661L19.4428 178.664L16.8656 181.923Z" fill="#259DD9"/>
<path opacity="0.2" d="M52.5675 75.727C45.0633 82.2459 45.8971 105.289 46.6551 115.674C49.7629 100.893 53.5529 84.4441 55.7512 74.969C54.9932 74.3626 53.9319 74.5142 52.5675 75.727Z" fill="black"/>
<path d="M63.8619 67.768C63.8619 67.768 68.1825 116.053 65.8327 134.397C63.4071 153.574 50.9 195.189 50.9 195.189L42.1072 194.052C42.1072 194.052 49.3082 152.74 50.521 133.79C51.8854 113.097 45.7456 65.2666 45.7456 65.2666L63.8619 67.768Z" fill="black"/>
<path d="M52.7194 195.719L40.1365 194.127L40.3639 190.413L54.008 191.701L52.7194 195.719Z" fill="#259DD9"/>
<path d="M39.2267 62.9162L37.8623 64.9629C37.7865 65.1145 37.9381 65.3419 38.2413 65.3419L64.2409 68.8287C64.4683 68.8287 64.6957 68.7529 64.6957 68.6013L65.1505 66.4031C65.1505 66.2515 64.9989 66.0999 64.7715 66.0999L39.6815 62.7646C39.4541 62.7646 39.3025 62.8404 39.2267 62.9162Z" fill="#259DD9"/>
<path opacity="0.5" d="M39.2267 62.9162L37.8623 64.9629C37.7865 65.1145 37.9381 65.3419 38.2413 65.3419L64.2409 68.8287C64.4683 68.8287 64.6957 68.7529 64.6957 68.6013L65.1505 66.4031C65.1505 66.2515 64.9989 66.0999 64.7715 66.0999L39.6815 62.7646C39.4541 62.7646 39.3025 62.8404 39.2267 62.9162Z" fill="black"/>
<path d="M42.3347 66.1763L41.6525 66.1005C41.5009 66.1005 41.425 66.0247 41.425 65.9489L42.0315 63.1443C42.0315 63.0685 42.1831 62.9927 42.3347 62.9927L43.0169 63.0685C43.1685 63.0685 43.2443 63.1443 43.2443 63.2201L42.6379 66.0247C42.5621 66.1763 42.4105 66.1763 42.3347 66.1763Z" fill="#263238"/>
<path d="M59.238 68.5254L58.5558 68.4496C58.4042 68.4496 58.3284 68.3738 58.3284 68.298L58.9348 65.4934C58.9348 65.4176 59.0864 65.3418 59.238 65.3418L59.9202 65.4176C60.0718 65.4176 60.1476 65.4934 60.1476 65.5692L59.5412 68.3738C59.5412 68.4496 59.3896 68.5254 59.238 68.5254Z" fill="#263238"/>
</svg>
