<svg width="24" height="24" viewBox="0 0 24 24" fill="none" xmlns="http://www.w3.org/2000/svg">
<path fill-rule="evenodd" clip-rule="evenodd" d="M0 12C0 5.38323 5.38323 0 12 0C18.6173 0 24 5.38323 24 12C24 18.6163 18.6163 24 12 24C5.38323 24 0 18.6163 0 12ZM13.0396 10.9817C13.3992 10.4265 14.0418 9.63557 15.4808 9.63557C17.2637 9.63557 18.6011 10.8009 18.6024 13.3037V17.9794H18.6017H15.8918V13.6172C15.8918 12.5202 15.4997 11.7727 14.5192 11.7727C13.7703 11.7727 13.3247 12.2771 13.1283 12.7647C13.0552 12.9387 13.0396 13.1832 13.0396 13.4263V17.9815H10.3297C10.3297 17.9815 10.3649 10.5917 10.3297 9.82788H13.0396V10.9817ZM13.0207 11.0102H13.0376V10.9824C13.0355 10.9883 13.0316 10.9939 13.0276 10.9996L13.0241 11.0047L13.0207 11.0102ZM8.82697 9.82782H6.11701V17.9814H8.82697V9.82782ZM5.95824 7.30566C5.95824 6.50527 6.56497 5.89719 7.49131 5.89719C8.41901 5.89719 8.98849 6.50595 9.00678 7.30566C9.00678 8.08777 8.41833 8.71414 7.47303 8.71414H7.45542C6.54669 8.71414 5.95824 8.08777 5.95824 7.30566Z" fill="#A3A3A3"/>
</svg>
