<svg width="317" height="26" viewBox="0 0 317 26" fill="none" xmlns="http://www.w3.org/2000/svg">
<path fill-rule="evenodd" clip-rule="evenodd" d="M309.1 19H120.5C116.6 19 113.5 15.9 113.5 12C113.5 8.1 116.6 5 120.5 5L309.1 5C313 5 316.1 8.1 316.1 12C316.1 15.9 313 19 309.1 19Z" fill="#221F1F" fill-opacity="0.26"/>
<path opacity="0.5" fill-rule="evenodd" clip-rule="evenodd" d="M115.6 12C115.6 15.9 112.5 19 108.6 19H7.5C3.6 19 0.5 15.9 0.5 12C0.5 8.1 3.6 5 7.5 5L108.6 5C112.5 5 115.6 8.1 115.6 12Z" fill="#70CCFB"/>
<g filter="url(#filter0_dd)">
<path fill-rule="evenodd" clip-rule="evenodd" d="M116 22C121.523 22 126 17.5228 126 12C126 6.47715 121.523 2 116 2C110.477 2 106 6.47715 106 12C106 17.5228 110.477 22 116 22Z" fill="#70CCFB"/>
<path d="M125.75 12C125.75 17.3848 121.385 21.75 116 21.75C110.615 21.75 106.25 17.3848 106.25 12C106.25 6.61522 110.615 2.25 116 2.25C121.385 2.25 125.75 6.61522 125.75 12Z" stroke="url(#paint0_linear)" stroke-width="0.5"/>
<path d="M125.75 12C125.75 17.3848 121.385 21.75 116 21.75C110.615 21.75 106.25 17.3848 106.25 12C106.25 6.61522 110.615 2.25 116 2.25C121.385 2.25 125.75 6.61522 125.75 12Z" stroke="url(#paint1_linear)" stroke-width="0.5"/>
</g>
<defs>
<filter id="filter0_dd" x="104" y="0" width="24" height="26" filterUnits="userSpaceOnUse" color-interpolation-filters="sRGB">
<feFlood flood-opacity="0" result="BackgroundImageFix"/>
<feColorMatrix in="SourceAlpha" type="matrix" values="0 0 0 0 0 0 0 0 0 0 0 0 0 0 0 0 0 0 127 0"/>
<feOffset dy="2"/>
<feGaussianBlur stdDeviation="1"/>
<feColorMatrix type="matrix" values="0 0 0 0 0 0 0 0 0 0 0 0 0 0 0 0 0 0 0.24 0"/>
<feBlend mode="normal" in2="BackgroundImageFix" result="effect1_dropShadow"/>
<feColorMatrix in="SourceAlpha" type="matrix" values="0 0 0 0 0 0 0 0 0 0 0 0 0 0 0 0 0 0 127 0"/>
<feOffset/>
<feGaussianBlur stdDeviation="1"/>
<feColorMatrix type="matrix" values="0 0 0 0 0 0 0 0 0 0 0 0 0 0 0 0 0 0 0.12 0"/>
<feBlend mode="normal" in2="effect1_dropShadow" result="effect2_dropShadow"/>
<feBlend mode="normal" in="SourceGraphic" in2="effect2_dropShadow" result="shape"/>
</filter>
<linearGradient id="paint0_linear" x1="106.098" y1="2" x2="106.098" y2="21.8043" gradientUnits="userSpaceOnUse">
<stop stop-opacity="0"/>
<stop offset="0.8" stop-opacity="0.02"/>
<stop offset="1" stop-opacity="0.04"/>
</linearGradient>
<linearGradient id="paint1_linear" x1="106" y1="2" x2="106" y2="22" gradientUnits="userSpaceOnUse">
<stop stop-color="white" stop-opacity="0.12"/>
<stop offset="0.2" stop-color="white" stop-opacity="0.06"/>
<stop offset="1" stop-color="white" stop-opacity="0"/>
</linearGradient>
</defs>
</svg>
