<svg width="77" height="55" viewBox="0 0 77 55" fill="none" xmlns="http://www.w3.org/2000/svg">
<path d="M77 9.691C77 4.33914 72.6904 0 67.375 0H9.625C4.30959 0 0 4.33914 0 9.691V44.7724C0 50.1243 4.30959 54.4634 9.625 54.4634H67.375C72.6904 54.4634 77 50.1243 77 44.7724V9.691ZM9.625 3.8764H67.375C70.5597 3.8764 73.15 6.57231 73.15 9.77882V10.2725H3.85V9.77882C3.85 6.57231 6.44033 3.8764 9.625 3.8764ZM73.15 14.1489V20.9326H3.85V14.1489H73.15ZM67.375 50.7808H9.625C6.44033 50.7808 3.85 48.0849 3.85 44.8784V24.809H73.15V44.8784C73.15 48.0849 70.5597 50.7808 67.375 50.7808Z" fill="#39BF9E"/>
<path d="M42.5484 30.0488C41.1295 30.0483 39.7349 30.3907 38.5037 31.0412C35.0748 29.2347 30.7321 29.9496 28.1957 32.7398C25.6587 35.5299 25.6587 39.5923 28.1957 42.3824C30.7321 45.1721 35.0748 45.888 38.5037 44.0804C41.4771 45.6448 45.1956 45.3318 47.8125 43.298C50.4295 41.2635 51.3871 37.9406 50.211 34.9792C49.0337 32.0173 45.9737 30.0483 42.5484 30.0488ZM38.1803 37.5611C38.1803 37.0409 38.2899 36.5256 38.5037 36.0441C38.9354 37.0164 38.9354 38.1053 38.5037 39.0775C38.2905 38.596 38.1803 38.0818 38.1803 37.5616V37.5611ZM30.0914 37.5611C30.0914 36.3135 30.7203 35.1373 31.7928 34.3751C32.8659 33.6138 34.2617 33.3543 35.5716 33.6716C33.997 36.0621 33.997 39.0595 35.5716 41.45C34.2617 41.7679 32.8653 41.5078 31.7928 40.7466C30.7203 39.9849 30.0914 38.8081 30.0914 37.5611ZM42.5484 41.5831C42.1736 41.5831 41.7993 41.5389 41.4369 41.45C43.0109 39.0606 43.0109 36.0621 41.4369 33.6716C43.0755 33.2741 44.8166 33.7862 45.9027 34.9852C46.9882 36.1832 47.2227 37.8528 46.5044 39.2662C45.786 40.6801 44.2439 41.5831 42.5484 41.5831Z" fill="#39BF9E"/>
</svg>
