<svg width="33" height="23" viewBox="0 0 33 23" fill="none" xmlns="http://www.w3.org/2000/svg">
<path d="M32.5172 4.09253C32.5172 1.83243 30.6973 0 28.4526 0H4.06466C1.81995 0 0 1.83243 0 4.09253V18.9075C0 21.1676 1.81995 23 4.06466 23H28.4526C30.6973 23 32.5172 21.1676 32.5172 18.9075V4.09253ZM4.06466 1.63701H28.4526C29.7975 1.63701 30.8914 2.7755 30.8914 4.12962V4.33808H1.62586V4.12962C1.62586 2.7755 2.71976 1.63701 4.06466 1.63701ZM30.8914 5.97509V8.83986H1.62586V5.97509H30.8914ZM28.4526 21.4448H4.06466C2.71976 21.4448 1.62586 20.3063 1.62586 18.9522V10.4769H30.8914V18.9522C30.8914 20.3063 29.7975 21.4448 28.4526 21.4448Z" fill="#39BF9E"/>
<path d="M10.8305 12.6895C10.2313 12.6892 9.64235 12.8338 9.12242 13.1085C7.6744 12.3457 5.84049 12.6475 4.76936 13.8258C3.69797 15.0041 3.69797 16.7197 4.76936 17.898C5.84049 19.076 7.6744 19.3784 9.12242 18.615C10.3781 19.2757 11.9484 19.1435 13.0536 18.2846C14.1587 17.4254 14.5631 16.0222 14.0664 14.7716C13.5693 13.5207 12.277 12.6892 10.8305 12.6895ZM8.98587 15.8619C8.98587 15.6422 9.03213 15.4246 9.12242 15.2213C9.30473 15.6319 9.30473 16.0917 9.12242 16.5023C9.03238 16.299 8.98587 16.0818 8.98587 15.8621V15.8619ZM5.56989 15.8619C5.56989 15.335 5.83549 14.8383 6.2884 14.5164C6.74156 14.195 7.33103 14.0854 7.88422 14.2194C7.21924 15.2289 7.21924 16.4947 7.88422 17.5042C7.33103 17.6384 6.74131 17.5286 6.2884 17.2071C5.83549 16.8855 5.56989 16.3885 5.56989 15.8619ZM10.8305 17.5604C10.6722 17.5604 10.5142 17.5417 10.3611 17.5042C11.0258 16.4951 11.0258 15.2289 10.3611 14.2194C11.0531 14.0515 11.7884 14.2677 12.247 14.7741C12.7054 15.28 12.8045 15.9851 12.5011 16.582C12.1978 17.1791 11.5465 17.5604 10.8305 17.5604Z" fill="#39BF9E"/>
</svg>
