<svg width="70" height="80" viewBox="0 0 70 80" fill="none" xmlns="http://www.w3.org/2000/svg">
<path d="M68.0772 18.8147C67.9278 17.6884 66.9952 16.8428 65.8599 16.8011C54.5758 16.3947 43.1859 8.59573 36.2888 1.43189C35.3682 0.479254 33.8591 0.491351 32.9573 1.42584C23.9456 10.7151 12.892 16.463 3.38618 16.8023C2.24966 16.8428 1.31699 17.6884 1.16698 18.8159C-4.21315 59.3305 15.4414 79.922 34.8825 80H34.9914C53.7006 80 73.6352 60.5511 68.0772 18.8147ZM63.2856 54.3405C49.0257 94.8859 -4.88877 82.2567 3.48114 19.1352C15.0132 18.7197 26.5803 11.349 34.6194 3.0674C38.7898 7.3951 43.6558 11.1542 48.6936 13.9402C54.5709 17.1888 60.314 18.9374 65.7649 19.1352C67.568 32.6959 66.7333 44.5407 63.2856 54.3405Z" fill="url(#paint0_linear)"/>
<path d="M61.5536 21.8338C52.9436 20.4276 43.8194 15.7249 35.8614 8.59067C35.1465 7.95074 34.0692 7.9459 33.3543 8.5828C27.6143 13.6968 18.5041 20.1505 7.70447 21.8496C6.84921 21.9832 6.19718 22.6764 6.11734 23.5341C5.81673 26.7658 5.69395 29.8445 5.72963 32.7707C5.7375 33.4107 6.25767 33.9248 6.8976 33.9248C7.54418 33.9248 8.06435 33.401 8.06435 32.758V32.7441C8.03108 30.0035 8.14177 27.122 8.41154 24.1014C19.4277 22.2651 28.6746 15.821 34.6033 10.5982C42.7138 17.7832 52.0012 22.5579 60.8375 24.0809C66.2817 83.5678 12.8995 86.3035 8.2198 37.8176C8.16234 37.22 7.6591 36.7621 7.0597 36.7621H7.05788C6.36956 36.7621 5.82762 37.3555 5.89476 38.039C10.8654 89.5613 69.13 86.6072 63.1292 23.5141C63.0488 22.6625 62.401 21.9724 61.5536 21.8338Z" fill="url(#paint1_linear)"/>
<path d="M42.5549 20.1086C43.3793 17.0033 39.1883 15.1344 37.4349 17.8441C37.4349 17.8441 32.6009 25.3999 32.5634 25.4573H26.5663C25.4074 25.4573 24.3302 26.0803 23.7508 27.0832L15.6748 41.0709C15.0954 42.0737 15.0954 43.3191 15.6748 44.3226L23.7508 58.3097C24.1354 58.9762 24.7397 59.4746 25.4419 59.7347L23.0764 64.6915C21.5661 67.5754 25.3458 70.3166 27.6206 67.9788C27.6533 67.9462 27.6829 67.9105 27.7107 67.8748L33.7858 59.9355H42.7182C43.8771 59.9355 44.955 59.3125 45.5338 58.3097L53.6104 44.3226C54.1892 43.3191 54.1892 42.0737 53.6104 41.0709L50.1186 35.0067C49.795 34.449 49.0812 34.2579 48.5224 34.5803C48.1474 34.7962 47.9387 35.1887 47.9387 35.594C47.9387 35.7918 47.9883 35.9926 48.0941 36.1765L51.5871 42.2401C51.7492 42.5219 51.7492 42.8709 51.5871 43.1546L43.5112 57.1417C43.3479 57.4236 43.0442 57.5996 42.7182 57.5996H35.5738L39.0807 53.0784C39.4369 52.6132 39.3934 51.9564 38.9791 51.5427L38.9778 51.5414C38.4782 51.0418 37.6532 51.0963 37.2244 51.6576C32.841 57.3873 27.9109 63.7697 25.9077 66.3875C25.6712 66.598 25.4449 66.5151 25.2943 66.4044C25.0197 66.2024 25.0403 65.9859 25.174 65.7197C31.4795 52.5104 24.9218 66.2459 33.3001 48.6938C34.1003 47.0184 32.8828 45.0671 31.0108 45.0671H23.1562C23.0782 45.0671 23.0189 45.0308 22.9814 44.9625C22.9439 44.8942 22.9457 44.8252 22.9874 44.7599C42.2186 14.7031 29.4533 34.6516 39.3982 19.11C39.59 18.8173 39.8404 18.8499 40.0182 18.9292C40.1894 19.006 40.3763 19.1645 40.3031 19.482C35.6082 32.7397 40.5178 18.8766 34.4324 36.0531C33.8481 37.7007 35.0723 39.4342 36.821 39.4342H46.129C46.1586 39.4342 46.2518 39.4342 46.308 39.5461C46.3624 39.6568 46.305 39.7299 46.2862 39.7547C44.9229 41.5372 42.5694 44.6117 39.9111 48.0878C39.5555 48.5529 39.5984 49.2098 40.0127 49.6241C40.5117 50.1237 41.3368 50.0686 41.7662 49.5079L48.1425 41.1749C49.4163 39.5074 48.2284 37.0982 46.129 37.0982H36.821C36.7526 37.0982 36.6982 37.0704 36.6589 37.0142C36.6183 36.9579 36.6111 36.8974 36.6341 36.8333L39.8361 27.7932H42.7182C43.0442 27.7932 43.3479 27.9693 43.5112 28.2511L45.6947 32.0326C46.0171 32.5915 46.7314 32.7833 47.2909 32.4609C47.6647 32.2443 47.8746 31.8518 47.8746 31.4483C47.8746 31.2506 47.8232 31.0498 47.7173 30.8659L45.5338 27.0832C44.955 26.0803 43.8771 25.4573 42.7182 25.4573H40.6642L42.5223 20.2127C42.5313 20.1842 42.5459 20.1371 42.5549 20.1086ZM21.0211 43.5C19.9402 45.1911 21.1608 47.4025 23.1562 47.4025H31.0108C31.084 47.4025 31.1414 47.4339 31.1807 47.4962C31.2194 47.5567 31.2225 47.622 31.1916 47.6873L26.4635 57.5936C26.1768 57.5609 25.9204 57.394 25.774 57.1417L17.6974 43.1528C17.5359 42.8709 17.5359 42.5219 17.6974 42.2389L25.774 28.2511C25.9373 27.9693 26.2409 27.7932 26.5663 27.7932H31.07L21.0211 43.5Z" fill="url(#paint2_linear)"/>
<defs>
<linearGradient id="paint0_linear" x1="34.6448" y1="0.721191" x2="34.6448" y2="80" gradientUnits="userSpaceOnUse">
<stop stop-color="#4CB449"/>
<stop offset="1" stop-color="#066797"/>
</linearGradient>
<linearGradient id="paint1_linear" x1="34.643" y1="8.10791" x2="34.643" y2="74.0075" gradientUnits="userSpaceOnUse">
<stop stop-color="#4CB449"/>
<stop offset="1" stop-color="#066797"/>
</linearGradient>
<linearGradient id="paint2_linear" x1="34.6424" y1="16.5366" x2="34.6424" y2="68.8592" gradientUnits="userSpaceOnUse">
<stop stop-color="#4CB449"/>
<stop offset="1" stop-color="#066797"/>
</linearGradient>
</defs>
</svg>
