<svg width="19" height="19" viewBox="0 0 19 19" fill="none" xmlns="http://www.w3.org/2000/svg">
<path d="M2.87475 17.024L2.87454 17.0242L2.87475 17.024ZM2.87475 17.024L2.87479 17.024L2.87475 17.024ZM2.87484 17.2847C2.80508 17.2847 2.74021 17.2579 2.69075 17.2085C2.69075 17.2085 2.69074 17.2085 2.69074 17.2085C2.69072 17.2085 2.6907 17.2085 2.69069 17.2085C2.69067 17.2085 2.69065 17.2084 2.69063 17.2084C2.69062 17.2084 2.6906 17.2084 2.69059 17.2084C2.69052 17.2083 2.69046 17.2083 2.69039 17.2082C2.64131 17.159 2.61444 17.0942 2.61444 17.0243C2.61444 16.9542 2.64136 16.8895 2.69039 16.8403C2.69048 16.8402 2.69057 16.8401 2.69065 16.84C2.69069 16.84 2.69072 16.84 2.69075 16.8399C2.7401 16.7907 2.80492 16.7639 2.87484 16.7639C2.94499 16.7639 3.00967 16.7908 3.05877 16.8398C3.05878 16.8398 3.05879 16.8398 3.0588 16.8398C3.05885 16.8399 3.05891 16.8399 3.05897 16.84C3.05898 16.84 3.059 16.84 3.05901 16.84C3.05902 16.8401 3.05902 16.8401 3.05903 16.8401C3.10842 16.8895 3.13524 16.9544 3.13524 17.0243C3.13524 17.0945 3.10819 17.1592 3.05913 17.2083C3.0591 17.2083 3.05906 17.2084 3.05903 17.2084C3.05901 17.2084 3.05899 17.2084 3.05897 17.2085C3.0096 17.2578 2.94473 17.2847 2.87484 17.2847Z" fill="#516573" stroke="#717171" stroke-width="1.25779"/>
<path d="M17.0413 7.00165L17.0413 7.00165L17.0413 7.00165ZM17.0413 7.00165L17.0413 7.00163M16.8572 6.81753L16.8584 6.81639C16.8581 6.81661 16.8579 6.81683 16.8577 6.81705M16.8572 6.81753L16.8572 6.81758M16.8572 6.81753C16.8572 6.81755 16.8572 6.81757 16.8572 6.81758M16.8572 6.81753L16.8572 6.81758M16.8572 6.81753C16.8574 6.81737 16.8575 6.81721 16.8577 6.81705M16.8572 6.81753L16.8582 7.18704C16.9073 7.23547 16.972 7.26219 17.0413 7.26219C17.1113 7.26219 17.1761 7.23531 17.2255 7.18597C17.2256 7.18593 17.2256 7.18589 17.2256 7.18584C17.2257 7.18581 17.2257 7.18578 17.2257 7.18574C17.2747 7.13667 17.3017 7.07199 17.3017 7.00179C17.3017 6.93187 17.2749 6.8671 17.2257 6.81779C17.2256 6.81772 17.2256 6.81765 17.2255 6.81759C17.2255 6.81758 17.2255 6.81758 17.2255 6.81758C17.2255 6.81754 17.2254 6.8175 17.2254 6.81747C17.1763 6.76841 17.1116 6.74139 17.0413 6.74139C16.9719 6.74139 16.9073 6.76815 16.8584 6.8164C16.8581 6.81661 16.8579 6.81683 16.8577 6.81705M16.8577 6.81705C16.8575 6.81723 16.8574 6.81741 16.8572 6.81758M16.8572 6.81758L16.8571 6.8177M16.8572 6.81758C16.8571 6.81762 16.8571 6.81766 16.8571 6.8177M16.8572 6.81758C16.8571 6.81763 16.8571 6.81766 16.8571 6.8177M16.8572 6.81758L16.8582 7.18703C16.8579 7.18667 16.8575 7.18631 16.8572 7.18594C16.8571 7.18594 16.8571 7.18593 16.8571 7.18592C16.8571 7.1859 16.8571 7.18587 16.8571 7.18584C16.808 7.1364 16.7813 7.0715 16.7813 7.00179C16.7813 6.93218 16.8079 6.86724 16.8571 6.8177M16.8572 7.18595C16.8575 7.18625 16.8578 7.18656 16.8581 7.18686L16.8572 7.18595ZM16.8572 7.18595C16.8571 7.18594 16.8571 7.18593 16.8571 7.18593M16.8572 7.18595L16.8571 7.18593M16.8571 7.18593C16.8571 7.1859 16.8571 7.18587 16.8571 7.18584L16.8571 7.18593Z" fill="#516573" stroke="#717171" stroke-width="1.25779"/>
<mask id="path-3-inside-1" fill="white">
<path d="M18.7584 0.107931C18.6893 0.0388391 18.5955 0 18.4978 0L9.43307 0.00047904C9.22959 0.00047904 9.06461 0.16549 9.06461 0.368971V1.42275L5.57171 2.35868C5.37512 2.41138 5.25846 2.61342 5.31115 2.80997L7.12144 9.56598L5.55539 11.132C5.35607 10.841 5.02141 10.6496 4.64285 10.6496H1.10544C0.49588 10.6496 0 11.1455 0 11.755V17.7613C0 18.3709 0.49588 18.8668 1.10544 18.8668H4.64289C5.16073 18.8668 5.59636 18.5088 5.71576 18.0274L6.15389 18.4095C6.49213 18.7044 6.92548 18.8668 7.37426 18.8668H18.4978C18.7013 18.8668 18.8663 18.7018 18.8663 18.4983V0.368492C18.8662 0.270768 18.8275 0.177024 18.7584 0.107931ZM5.01131 17.7614C5.01131 17.9645 4.846 18.1299 4.64282 18.1299H1.1054C0.902216 18.1299 0.736911 17.9645 0.736911 17.7614V11.7551C0.736911 11.5519 0.902216 11.3866 1.1054 11.3866H2.50564V15.6314C2.50564 15.8349 2.67065 15.9999 2.87413 15.9999C3.07761 15.9999 3.24262 15.8349 3.24262 15.6314V11.3866H4.64285C4.84604 11.3866 5.01135 11.5519 5.01135 11.7551V17.7614H5.01131ZM6.11837 2.97517L9.06461 2.18571V3.55116L8.81765 3.61734C8.7232 3.64266 8.64276 3.70438 8.5939 3.78902C8.54504 3.87366 8.53177 3.97423 8.55709 4.06863C8.6987 4.59709 8.38397 5.1422 7.85552 5.28381C7.761 5.30916 7.68041 5.37099 7.63158 5.45582C7.58276 5.54061 7.5696 5.64136 7.59514 5.73584L9.03148 11.0546H8.29192L7.91079 9.56351C7.89867 9.51605 7.87744 9.47231 7.84903 9.43428L6.11837 2.97517ZM9.06461 5.24103V8.3504L8.39252 5.86179C8.67327 5.71682 8.90303 5.49993 9.06461 5.24103ZM14.3585 18.1298H7.37419C7.10353 18.1298 6.84216 18.0319 6.63816 17.854L5.74829 17.0779V11.9814L7.35706 10.3727L7.64883 11.5142C7.69054 11.6774 7.83746 11.7915 8.00582 11.7915L15.2505 11.7919C15.535 11.7919 15.7664 12.0233 15.7664 12.3078C15.7664 12.5923 15.535 12.8237 15.2505 12.8237H11.5383C11.3349 12.8237 11.1698 12.9887 11.1698 13.1922C11.1698 13.3956 11.3349 13.5607 11.5383 13.5607H16.4039C16.6884 13.5607 16.9198 13.7921 16.9198 14.0765C16.9198 14.361 16.6884 14.5924 16.4039 14.5924H11.5383C11.3349 14.5924 11.1698 14.7574 11.1698 14.9609C11.1698 15.1644 11.3349 15.3294 11.5383 15.3294H15.6154C15.8999 15.3294 16.1313 15.5608 16.1313 15.8453C16.1313 16.1298 15.8999 16.3612 15.6154 16.3612H11.5383C11.3349 16.3612 11.1698 16.5262 11.1698 16.7297C11.1698 16.9332 11.3349 17.0982 11.5383 17.0982H14.3585C14.643 17.0982 14.8744 17.3296 14.8744 17.6141C14.8744 17.8984 14.643 18.1298 14.3585 18.1298ZM18.1293 18.1298H18.1293H15.4998C15.5712 17.9724 15.6114 17.7978 15.6114 17.6139C15.6114 17.43 15.5712 17.2555 15.4998 17.098H15.6154C16.3063 17.098 16.8683 16.536 16.8683 15.8452C16.8683 15.6437 16.8202 15.4533 16.7353 15.2845C17.2658 15.1388 17.6567 14.6525 17.6567 14.0765C17.6567 13.797 17.5647 13.5387 17.4094 13.3301V8.65982C17.4094 8.45634 17.2444 8.29133 17.0409 8.29133C16.8374 8.29133 16.6724 8.45634 16.6724 8.65982V12.853C16.5858 12.834 16.496 12.8237 16.4038 12.8237H16.3917C16.4632 12.6662 16.5033 12.4917 16.5033 12.3078C16.5033 11.6169 15.9413 11.0549 15.2505 11.0549H14.6581C15.2871 10.7852 15.7289 10.16 15.7289 9.4334C15.7289 8.46099 14.9378 7.66987 13.9654 7.66987C12.993 7.66987 12.2019 8.46099 12.2019 9.4334C12.2019 10.16 12.6437 10.7852 13.2726 11.0549H11.2583V4.04837C11.9166 3.90491 12.436 3.38552 12.5794 2.72721H15.3513C15.4947 3.38552 16.0141 3.90491 16.6724 4.04837V5.19401C16.6724 5.39749 16.8374 5.5625 17.0409 5.5625C17.2444 5.5625 17.4094 5.39749 17.4094 5.19401V3.71938C17.4094 3.51589 17.2444 3.35088 17.0409 3.35088C16.4938 3.35088 16.0488 2.90578 16.0488 2.35872C16.0488 2.15524 15.8837 1.99023 15.6803 1.99023H12.2505C12.047 1.99023 11.882 2.15524 11.882 2.35872C11.882 2.90582 11.4369 3.35088 10.8899 3.35088C10.6864 3.35088 10.5214 3.51589 10.5214 3.71938V11.0549H9.80163V0.73739L18.1293 0.736984V18.1298ZM13.9654 10.4599C13.3994 10.4599 12.9389 9.99944 12.9389 9.43344C12.9389 8.86743 13.3994 8.40689 13.9654 8.40689C14.5315 8.40689 14.992 8.8674 14.992 9.4334C14.992 9.9994 14.5315 10.4599 13.9654 10.4599Z"/>
</mask>
<path d="M18.7584 0.107931C18.6893 0.0388391 18.5955 0 18.4978 0L9.43307 0.00047904C9.22959 0.00047904 9.06461 0.16549 9.06461 0.368971V1.42275L5.57171 2.35868C5.37512 2.41138 5.25846 2.61342 5.31115 2.80997L7.12144 9.56598L5.55539 11.132C5.35607 10.841 5.02141 10.6496 4.64285 10.6496H1.10544C0.49588 10.6496 0 11.1455 0 11.755V17.7613C0 18.3709 0.49588 18.8668 1.10544 18.8668H4.64289C5.16073 18.8668 5.59636 18.5088 5.71576 18.0274L6.15389 18.4095C6.49213 18.7044 6.92548 18.8668 7.37426 18.8668H18.4978C18.7013 18.8668 18.8663 18.7018 18.8663 18.4983V0.368492C18.8662 0.270768 18.8275 0.177024 18.7584 0.107931ZM5.01131 17.7614C5.01131 17.9645 4.846 18.1299 4.64282 18.1299H1.1054C0.902216 18.1299 0.736911 17.9645 0.736911 17.7614V11.7551C0.736911 11.5519 0.902216 11.3866 1.1054 11.3866H2.50564V15.6314C2.50564 15.8349 2.67065 15.9999 2.87413 15.9999C3.07761 15.9999 3.24262 15.8349 3.24262 15.6314V11.3866H4.64285C4.84604 11.3866 5.01135 11.5519 5.01135 11.7551V17.7614H5.01131ZM6.11837 2.97517L9.06461 2.18571V3.55116L8.81765 3.61734C8.7232 3.64266 8.64276 3.70438 8.5939 3.78902C8.54504 3.87366 8.53177 3.97423 8.55709 4.06863C8.6987 4.59709 8.38397 5.1422 7.85552 5.28381C7.761 5.30916 7.68041 5.37099 7.63158 5.45582C7.58276 5.54061 7.5696 5.64136 7.59514 5.73584L9.03148 11.0546H8.29192L7.91079 9.56351C7.89867 9.51605 7.87744 9.47231 7.84903 9.43428L6.11837 2.97517ZM9.06461 5.24103V8.3504L8.39252 5.86179C8.67327 5.71682 8.90303 5.49993 9.06461 5.24103ZM14.3585 18.1298H7.37419C7.10353 18.1298 6.84216 18.0319 6.63816 17.854L5.74829 17.0779V11.9814L7.35706 10.3727L7.64883 11.5142C7.69054 11.6774 7.83746 11.7915 8.00582 11.7915L15.2505 11.7919C15.535 11.7919 15.7664 12.0233 15.7664 12.3078C15.7664 12.5923 15.535 12.8237 15.2505 12.8237H11.5383C11.3349 12.8237 11.1698 12.9887 11.1698 13.1922C11.1698 13.3956 11.3349 13.5607 11.5383 13.5607H16.4039C16.6884 13.5607 16.9198 13.7921 16.9198 14.0765C16.9198 14.361 16.6884 14.5924 16.4039 14.5924H11.5383C11.3349 14.5924 11.1698 14.7574 11.1698 14.9609C11.1698 15.1644 11.3349 15.3294 11.5383 15.3294H15.6154C15.8999 15.3294 16.1313 15.5608 16.1313 15.8453C16.1313 16.1298 15.8999 16.3612 15.6154 16.3612H11.5383C11.3349 16.3612 11.1698 16.5262 11.1698 16.7297C11.1698 16.9332 11.3349 17.0982 11.5383 17.0982H14.3585C14.643 17.0982 14.8744 17.3296 14.8744 17.6141C14.8744 17.8984 14.643 18.1298 14.3585 18.1298ZM18.1293 18.1298H18.1293H15.4998C15.5712 17.9724 15.6114 17.7978 15.6114 17.6139C15.6114 17.43 15.5712 17.2555 15.4998 17.098H15.6154C16.3063 17.098 16.8683 16.536 16.8683 15.8452C16.8683 15.6437 16.8202 15.4533 16.7353 15.2845C17.2658 15.1388 17.6567 14.6525 17.6567 14.0765C17.6567 13.797 17.5647 13.5387 17.4094 13.3301V8.65982C17.4094 8.45634 17.2444 8.29133 17.0409 8.29133C16.8374 8.29133 16.6724 8.45634 16.6724 8.65982V12.853C16.5858 12.834 16.496 12.8237 16.4038 12.8237H16.3917C16.4632 12.6662 16.5033 12.4917 16.5033 12.3078C16.5033 11.6169 15.9413 11.0549 15.2505 11.0549H14.6581C15.2871 10.7852 15.7289 10.16 15.7289 9.4334C15.7289 8.46099 14.9378 7.66987 13.9654 7.66987C12.993 7.66987 12.2019 8.46099 12.2019 9.4334C12.2019 10.16 12.6437 10.7852 13.2726 11.0549H11.2583V4.04837C11.9166 3.90491 12.436 3.38552 12.5794 2.72721H15.3513C15.4947 3.38552 16.0141 3.90491 16.6724 4.04837V5.19401C16.6724 5.39749 16.8374 5.5625 17.0409 5.5625C17.2444 5.5625 17.4094 5.39749 17.4094 5.19401V3.71938C17.4094 3.51589 17.2444 3.35088 17.0409 3.35088C16.4938 3.35088 16.0488 2.90578 16.0488 2.35872C16.0488 2.15524 15.8837 1.99023 15.6803 1.99023H12.2505C12.047 1.99023 11.882 2.15524 11.882 2.35872C11.882 2.90582 11.4369 3.35088 10.8899 3.35088C10.6864 3.35088 10.5214 3.51589 10.5214 3.71938V11.0549H9.80163V0.73739L18.1293 0.736984V18.1298ZM13.9654 10.4599C13.3994 10.4599 12.9389 9.99944 12.9389 9.43344C12.9389 8.86743 13.3994 8.40689 13.9654 8.40689C14.5315 8.40689 14.992 8.8674 14.992 9.4334C14.992 9.9994 14.5315 10.4599 13.9654 10.4599Z" fill="#516573" stroke="#717171" stroke-width="2.51558" mask="url(#path-3-inside-1)"/>
</svg>
