<svg width="127" height="127" viewBox="0 0 127 127" fill="none" xmlns="http://www.w3.org/2000/svg">
<path d="M28.1931 46.9872C28.1655 47.1374 28.1499 47.2895 28.1449 47.4417V50.5672C28.1489 51.8553 28.9489 53.0068 30.1556 53.4593V58.0582C30.1611 59.5978 31.3719 60.8633 32.9095 60.9361V87.5046C31.3719 87.578 30.1611 88.8434 30.1556 90.3826V94.9679C28.9464 95.4325 28.1469 96.5925 28.1449 97.8871V100.944C28.1449 101.514 28.6079 101.977 29.1779 101.977H98.8254C99.3954 101.977 99.8579 101.514 99.8579 100.944V97.8871C99.8559 96.592 99.0564 95.432 97.8477 94.9679V90.3555C97.8422 88.8158 96.6309 87.5503 95.0938 87.4775V60.9361C96.6309 60.8633 97.8422 59.5978 97.8477 58.0582V53.4593C99.0539 53.0068 99.8539 51.8553 99.8579 50.5672V47.4623C99.8534 47.3101 99.8373 47.158 99.8097 47.0078C100.329 47.2378 100.936 47.0038 101.166 46.4846C101.396 45.9658 101.162 45.3587 100.643 45.1282L64.4767 26.1194C64.1749 25.9602 63.8143 25.9602 63.5125 26.1194L27.3465 45.1076C26.8418 45.3743 26.6484 45.9985 26.9141 46.5031C27.1571 46.9641 27.7055 47.172 28.1931 46.9872ZM32.2211 55.249V53.6586H44.1316V55.2354L32.2211 55.249ZM58.7414 60.9432V87.5046C57.2037 87.578 55.993 88.8434 55.9875 90.3826V94.7751H46.183V90.3826C46.1775 88.8434 44.9667 87.578 43.4291 87.5046V60.9361C44.9667 60.8633 46.1775 59.5978 46.183 58.0582V53.6586H55.9734V58.0516C55.9759 59.5938 57.1877 60.8623 58.7278 60.9361L58.7414 60.9432ZM58.0529 55.249V53.6586H69.964V55.2354L58.0529 55.249ZM84.5737 60.9432V87.5046C83.0361 87.578 81.8248 88.8434 81.8193 90.3826V94.7751H72.0154V90.3826C72.0098 88.8434 70.7986 87.578 69.2614 87.5046V60.9361C70.7986 60.8633 72.0098 59.5978 72.0154 58.0582V53.6586H81.8057V58.0516C81.8077 59.5938 83.0195 60.8623 84.5597 60.9361L84.5737 60.9432ZM83.8852 55.249V53.6586H95.7958V55.2354L83.8852 55.249ZM95.7958 93.1988V94.7751H83.8712V93.1988H95.7958ZM69.964 93.1988V94.7751H58.0393V93.1988H69.964ZM59.7603 58.8913H58.8654C58.4089 58.8913 58.0393 58.5217 58.0393 58.0652V57.3144H69.9499V58.0652C69.9499 58.5217 69.5803 58.8913 69.1238 58.8913H59.7603ZM67.203 60.9567V87.4911H60.7933V60.9567H67.203ZM59.7603 89.5565H69.1238C69.5803 89.5565 69.9499 89.9261 69.9499 90.3826V91.1334H58.0393V90.3826C58.0393 89.9261 58.4089 89.5565 58.8654 89.5565H59.7603ZM44.1181 93.1988V94.7751H32.207V93.1988H44.1181ZM32.207 58.0858V57.3144H44.1181V58.0652C44.1181 58.5217 43.7485 58.8913 43.2915 58.8913H33.0125C32.5615 58.8802 32.203 58.5091 32.207 58.0582V58.0858ZM41.3641 60.9773V87.4911H34.9609V60.9567L41.3641 60.9773ZM32.207 90.4037C32.207 89.9467 32.5766 89.5771 33.0331 89.5771H43.2915C43.7485 89.5771 44.1181 89.9467 44.1181 90.4037V91.1539H32.207V90.4037ZM97.7924 97.9288V99.9525H30.1968V97.9288C30.1968 97.3392 30.6744 96.8611 31.2639 96.8611H96.7253C97.3063 96.8611 97.7814 97.3267 97.7924 97.9077V97.9288ZM95.7822 90.4037V91.1539H83.8712V90.4037C83.8712 89.9467 84.2408 89.5771 84.6973 89.5771H94.9768C95.4172 89.5882 95.7712 89.9422 95.7822 90.3826V90.4037ZM86.6251 87.5117V60.9567H93.0348V87.4911L86.6251 87.5117ZM95.7822 58.0858C95.7822 58.5423 95.4126 58.9119 94.9562 58.9119H84.7043C84.2478 58.9119 83.8782 58.5423 83.8782 58.0858V57.3144H95.7888L95.7822 58.0858ZM63.9946 28.1848L94.7493 44.3503H33.24L63.9946 28.1848ZM30.1968 47.4623C30.1968 46.8923 30.6593 46.4298 31.2293 46.4298H96.76C97.3299 46.4298 97.7924 46.8923 97.7924 47.4623V50.5883C97.7924 51.1583 97.3299 51.6208 96.76 51.6208H31.2293C30.6593 51.6208 30.1968 51.1583 30.1968 50.5883V47.4623Z" fill="#717171"/>
<circle cx="63.5" cy="63.5" r="62.5" stroke="#717171" stroke-width="2"/>
<line x1="106.707" y1="18.7071" x2="18.7071" y2="106.707" stroke="#717171" stroke-width="2"/>
</svg>
