<svg width="293" height="440" viewBox="0 0 293 440" fill="none" xmlns="http://www.w3.org/2000/svg">
<g opacity="0.3">
<path d="M133.909 245.55C72.6759 245.241 23.1946 195.141 23.5039 133.908C23.8131 72.6754 73.9129 23.1941 135.146 23.5034C196.379 23.8127 246.17 73.9124 245.86 135.145C245.242 196.379 195.142 245.86 133.909 245.55ZM135.146 35.2552C80.4073 34.9459 35.5649 79.4791 35.2557 133.908C34.9464 188.647 79.4795 233.489 133.909 233.799C188.648 234.108 233.49 189.575 233.799 135.145C234.108 80.4068 189.575 35.5644 135.146 35.2552Z" fill="#CCCCCC" fill-opacity="0.5"/>
<path d="M133.91 269.054C59.6879 268.745 -0.308068 208.131 0.00119023 133.909H10.2067C9.89744 202.255 65.2546 258.54 133.91 258.849C202.256 259.158 258.541 203.801 258.85 135.146C259.159 66.7997 203.802 10.5148 135.147 10.2055V0C209.369 0.309258 269.365 60.9238 269.055 135.146C268.746 209.368 208.132 269.364 133.91 269.054Z" fill="#CCCCCC" fill-opacity="0.5"/>
<path d="M245.86 247.716L238.748 240.293C296.888 183.081 297.197 89.0664 239.675 30.9259L247.098 23.813C308.64 85.6646 308.021 186.483 245.86 247.716Z" fill="#CCCCCC" fill-opacity="0.5"/>
<path d="M122.795 174.691C122.795 171.766 122.986 168.968 123.368 166.297C123.749 163.626 124.449 161.082 125.466 158.665C126.611 156.122 128.201 153.769 130.236 151.606C132.271 149.444 134.942 147.473 138.249 145.692C139.902 144.802 142.064 143.657 144.735 142.258C147.534 140.732 150.205 139.015 152.748 137.107C155.419 135.199 157.709 133.037 159.617 130.62C161.524 128.077 162.478 125.278 162.478 122.226C162.478 118.029 160.952 114.785 157.899 112.496C154.847 110.079 151.349 108.871 147.406 108.871C144.863 108.871 142.573 109.38 140.538 110.397C138.63 111.288 136.85 112.432 135.196 113.831C133.67 115.103 132.335 116.566 131.19 118.219C130.045 119.873 129.028 121.336 128.137 122.607L108.487 108.871C111.794 101.113 117.008 95.0711 124.131 90.7467C131.381 86.4222 139.521 84.26 148.551 84.26C153.384 84.26 158.217 84.9596 163.051 86.3587C167.884 87.7577 172.208 89.9835 176.024 93.0361C179.84 96.0886 182.956 100.031 185.372 104.865C187.789 109.698 188.997 115.548 188.997 122.417C188.997 129.666 187.471 135.771 184.418 140.732C181.493 145.565 177.105 149.826 171.254 153.514C168.583 155.295 165.849 156.885 163.051 158.284C160.38 159.683 157.899 161.146 155.61 162.672C153.321 164.198 151.476 165.915 150.077 167.823C148.678 169.731 147.979 172.02 147.979 174.691H122.795ZM123.368 221.433V192.816H148.36V221.433H123.368Z" fill="#E6E6E6"/>
<path d="M170.554 192.476C170.554 191.306 170.63 190.187 170.783 189.118C170.936 188.05 171.215 187.032 171.622 186.066C172.08 185.048 172.716 184.107 173.53 183.242C174.344 182.377 175.413 181.589 176.735 180.876C177.397 180.52 178.262 180.062 179.33 179.503C180.449 178.892 181.518 178.206 182.535 177.442C183.604 176.679 184.519 175.814 185.282 174.848C186.046 173.83 186.427 172.711 186.427 171.49C186.427 169.811 185.817 168.514 184.596 167.598C183.375 166.631 181.976 166.148 180.398 166.148C179.381 166.148 178.465 166.352 177.651 166.759C176.888 167.115 176.176 167.573 175.514 168.132C174.904 168.641 174.37 169.226 173.912 169.887C173.454 170.549 173.047 171.134 172.691 171.643L164.83 166.148C166.153 163.045 168.239 160.628 171.088 158.898C173.988 157.169 177.244 156.304 180.856 156.304C182.79 156.304 184.723 156.583 186.656 157.143C188.589 157.703 190.319 158.593 191.845 159.814C193.372 161.035 194.618 162.612 195.585 164.545C196.551 166.479 197.035 168.819 197.035 171.566C197.035 174.466 196.424 176.908 195.203 178.892C194.033 180.826 192.278 182.53 189.938 184.005C188.869 184.718 187.775 185.354 186.656 185.913C185.588 186.473 184.596 187.058 183.68 187.668C182.764 188.279 182.026 188.966 181.467 189.729C180.907 190.492 180.627 191.408 180.627 192.476H170.554ZM170.783 211.173V199.726H180.78V211.173H170.783Z" fill="#E6E6E6"/>
<path d="M84.3275 162.908C84.3275 162.23 84.3717 161.582 84.46 160.964C84.5484 160.345 84.7104 159.756 84.946 159.196C85.2111 158.607 85.5793 158.062 86.0506 157.562C86.5218 157.061 87.1404 156.604 87.9062 156.192C88.2891 155.986 88.7898 155.721 89.4083 155.397C90.0563 155.043 90.6749 154.646 91.264 154.204C91.8825 153.762 92.4127 153.261 92.8545 152.702C93.2963 152.113 93.5172 151.465 93.5172 150.758C93.5172 149.786 93.1638 149.035 92.4569 148.504C91.75 147.945 90.94 147.665 90.0269 147.665C89.4378 147.665 88.9076 147.783 88.4364 148.018C87.9945 148.225 87.5822 148.49 87.1993 148.814C86.8458 149.108 86.5366 149.447 86.2715 149.83C86.0064 150.213 85.7707 150.551 85.5646 150.846L81.0139 147.665C81.7797 145.868 82.9873 144.469 84.6368 143.468C86.3156 142.466 88.2007 141.966 90.292 141.966C91.4112 141.966 92.5305 142.128 93.6498 142.452C94.769 142.776 95.7705 143.291 96.6541 143.998C97.5377 144.705 98.2593 145.618 98.819 146.737C99.3786 147.856 99.6584 149.211 99.6584 150.802C99.6584 152.481 99.305 153.895 98.5981 155.043C97.9206 156.162 96.9044 157.149 95.5496 158.003C94.931 158.416 94.2977 158.784 93.6498 159.108C93.0312 159.432 92.4569 159.771 91.9267 160.124C91.3965 160.478 90.9694 160.875 90.6454 161.317C90.3214 161.759 90.1594 162.289 90.1594 162.908H84.3275ZM84.46 173.732V167.105H90.2478V173.732H84.46Z" fill="#E6E6E6"/>
<path d="M195.038 366.022C170.857 365.9 151.317 346.116 151.439 321.935C151.561 297.754 171.345 278.214 195.526 278.337C219.707 278.459 239.369 298.243 239.247 322.424C239.002 346.604 219.218 366.144 195.038 366.022ZM195.526 282.977C173.91 282.855 156.202 300.441 156.08 321.935C155.958 343.551 173.544 361.259 195.038 361.381C216.654 361.503 234.362 343.917 234.484 322.424C234.606 300.807 217.02 283.099 195.526 282.977Z" fill="#E6E6E6" fill-opacity="0.82"/>
<path d="M195.038 375.303C165.728 375.181 142.036 351.245 142.158 321.935H146.188C146.066 348.924 167.926 371.151 195.038 371.273C222.027 371.395 244.254 349.535 244.376 322.423C244.498 295.434 222.638 273.207 195.526 273.085V269.055C224.836 269.177 248.528 293.113 248.406 322.423C248.284 351.733 224.348 375.425 195.038 375.303Z" fill="#E6E6E6" fill-opacity="0.82"/>
<path d="M239.246 366.877L236.438 363.946C259.397 341.353 259.519 304.227 236.804 281.267L239.735 278.458C264.038 302.883 263.793 342.696 239.246 366.877Z" fill="#E6E6E6" fill-opacity="0.82"/>
<path d="M190.649 338.067C190.649 336.912 190.724 335.807 190.875 334.752C191.025 333.697 191.301 332.692 191.703 331.738C192.155 330.734 192.783 329.804 193.587 328.951C194.39 328.097 195.445 327.318 196.751 326.615C197.404 326.264 198.258 325.811 199.313 325.259C200.418 324.656 201.472 323.978 202.477 323.225C203.532 322.471 204.436 321.618 205.189 320.663C205.942 319.659 206.319 318.554 206.319 317.348C206.319 315.691 205.716 314.41 204.511 313.506C203.306 312.552 201.924 312.075 200.367 312.075C199.363 312.075 198.459 312.275 197.655 312.677C196.902 313.029 196.199 313.481 195.546 314.033C194.943 314.536 194.416 315.113 193.963 315.766C193.511 316.419 193.11 316.997 192.758 317.499L184.998 312.075C186.304 309.011 188.363 306.625 191.176 304.917C194.039 303.21 197.253 302.356 200.819 302.356C202.728 302.356 204.637 302.632 206.545 303.185C208.454 303.737 210.161 304.616 211.668 305.821C213.175 307.027 214.406 308.584 215.36 310.492C216.314 312.401 216.791 314.711 216.791 317.424C216.791 320.287 216.189 322.697 214.983 324.656C213.828 326.565 212.095 328.247 209.785 329.704C208.73 330.407 207.65 331.035 206.545 331.588C205.49 332.14 204.511 332.718 203.607 333.32C202.703 333.923 201.975 334.601 201.422 335.354C200.87 336.108 200.593 337.012 200.593 338.067H190.649ZM190.875 356.525V345.224H200.744V356.525H190.875Z" fill="#E6E6E6" fill-opacity="0.82"/>
<path d="M209.508 345.395C209.508 344.932 209.539 344.49 209.599 344.069C209.659 343.647 209.77 343.245 209.93 342.863C210.111 342.461 210.362 342.09 210.684 341.748C211.005 341.407 211.427 341.095 211.949 340.814C212.211 340.673 212.552 340.492 212.974 340.271C213.416 340.03 213.838 339.759 214.24 339.458C214.662 339.156 215.023 338.815 215.325 338.433C215.626 338.031 215.777 337.589 215.777 337.107C215.777 336.444 215.536 335.932 215.053 335.57C214.571 335.189 214.019 334.998 213.396 334.998C212.994 334.998 212.633 335.078 212.311 335.239C212.01 335.379 211.728 335.56 211.467 335.781C211.226 335.982 211.015 336.213 210.834 336.474C210.654 336.736 210.493 336.967 210.352 337.167L207.248 334.998C207.771 333.772 208.594 332.818 209.719 332.135C210.865 331.452 212.15 331.11 213.577 331.11C214.34 331.11 215.104 331.221 215.867 331.442C216.631 331.663 217.314 332.014 217.916 332.496C218.519 332.979 219.011 333.601 219.393 334.365C219.775 335.128 219.966 336.052 219.966 337.137C219.966 338.283 219.724 339.247 219.242 340.03C218.78 340.794 218.087 341.467 217.163 342.049C216.741 342.331 216.309 342.582 215.867 342.803C215.445 343.024 215.053 343.255 214.692 343.496C214.33 343.737 214.039 344.008 213.818 344.31C213.597 344.611 213.486 344.973 213.486 345.395H209.508ZM209.599 352.778V348.257H213.547V352.778H209.599Z" fill="#E6E6E6" fill-opacity="0.82"/>
<path d="M175.458 333.38C175.458 333.113 175.475 332.857 175.51 332.613C175.545 332.368 175.609 332.136 175.702 331.915C175.807 331.682 175.952 331.467 176.138 331.269C176.324 331.071 176.569 330.891 176.871 330.728C177.022 330.647 177.22 330.542 177.464 330.414C177.72 330.275 177.964 330.118 178.197 329.943C178.441 329.769 178.651 329.571 178.825 329.35C179 329.117 179.087 328.861 179.087 328.582C179.087 328.198 178.947 327.902 178.668 327.693C178.389 327.472 178.069 327.361 177.709 327.361C177.476 327.361 177.267 327.408 177.08 327.501C176.906 327.582 176.743 327.687 176.592 327.815C176.452 327.931 176.33 328.065 176.226 328.216C176.121 328.367 176.028 328.501 175.946 328.617L174.149 327.361C174.452 326.652 174.929 326.099 175.58 325.704C176.243 325.308 176.987 325.11 177.813 325.11C178.255 325.11 178.697 325.174 179.139 325.302C179.581 325.43 179.977 325.634 180.326 325.913C180.675 326.192 180.96 326.553 181.181 326.995C181.402 327.437 181.512 327.972 181.512 328.6C181.512 329.263 181.372 329.821 181.093 330.275C180.826 330.717 180.424 331.106 179.889 331.444C179.645 331.606 179.395 331.752 179.139 331.88C178.895 332.008 178.668 332.142 178.459 332.281C178.249 332.421 178.081 332.578 177.953 332.752C177.825 332.927 177.761 333.136 177.761 333.38H175.458ZM175.51 337.655V335.038H177.796V337.655H175.51Z" fill="#E6E6E6" fill-opacity="0.82"/>
<path d="M236.315 434.328C221.538 434.253 209.597 422.163 209.672 407.386C209.746 392.609 221.837 380.667 236.614 380.742C251.391 380.817 263.407 392.907 263.332 407.684C263.183 422.461 251.092 434.402 236.315 434.328ZM236.614 383.578C223.404 383.503 212.582 394.25 212.508 407.386C212.433 420.595 223.18 431.417 236.315 431.492C249.525 431.566 260.347 420.819 260.421 407.684C260.496 394.474 249.749 383.653 236.614 383.578Z" fill="#E6E6E6" fill-opacity="0.51"/>
<path d="M236.315 439.999C218.404 439.925 203.925 425.297 204 407.385H206.463C206.388 423.879 219.747 437.462 236.315 437.537C252.809 437.611 266.392 424.252 266.467 407.684C266.541 391.19 253.182 377.607 236.614 377.533V375.07C254.526 375.144 269.004 389.772 268.929 407.684C268.855 425.596 254.227 440.074 236.315 439.999Z" fill="#E6E6E6" fill-opacity="0.51"/>
<path d="M263.332 434.85L261.615 433.059C275.646 419.252 275.721 396.564 261.839 382.533L263.63 380.816C278.482 395.743 278.333 420.073 263.332 434.85Z" fill="#E6E6E6" fill-opacity="0.51"/>
<path d="M233.633 417.133C233.633 416.427 233.679 415.751 233.771 415.107C233.863 414.462 234.032 413.848 234.278 413.265C234.554 412.651 234.938 412.083 235.429 411.562C235.92 411.04 236.564 410.564 237.363 410.134C237.762 409.92 238.283 409.643 238.928 409.306C239.603 408.937 240.248 408.523 240.862 408.063C241.506 407.602 242.059 407.08 242.519 406.497C242.979 405.883 243.21 405.208 243.21 404.471C243.21 403.458 242.841 402.676 242.105 402.123C241.368 401.54 240.524 401.249 239.572 401.249C238.959 401.249 238.406 401.371 237.915 401.617C237.455 401.832 237.025 402.108 236.626 402.446C236.258 402.753 235.935 403.105 235.659 403.505C235.383 403.904 235.137 404.257 234.922 404.563L230.18 401.249C230.978 399.376 232.237 397.918 233.955 396.875C235.705 395.831 237.669 395.309 239.849 395.309C241.015 395.309 242.181 395.478 243.348 395.816C244.514 396.153 245.558 396.69 246.479 397.427C247.399 398.164 248.151 399.115 248.735 400.282C249.318 401.448 249.609 402.86 249.609 404.517C249.609 406.267 249.241 407.74 248.504 408.937C247.798 410.104 246.739 411.132 245.328 412.022C244.683 412.452 244.023 412.835 243.348 413.173C242.703 413.511 242.105 413.864 241.552 414.232C241 414.6 240.555 415.015 240.217 415.475C239.879 415.936 239.711 416.488 239.711 417.133H233.633ZM233.771 428.413V421.506H239.803V428.413H233.771Z" fill="#E6E6E6" fill-opacity="0.51"/>
<path d="M245.159 421.833C245.159 421.551 245.177 421.281 245.214 421.023C245.251 420.765 245.318 420.52 245.417 420.286C245.527 420.041 245.681 419.814 245.877 419.605C246.073 419.396 246.331 419.206 246.65 419.034C246.81 418.948 247.019 418.837 247.277 418.702C247.547 418.555 247.805 418.389 248.05 418.205C248.308 418.021 248.529 417.812 248.713 417.579C248.897 417.333 248.989 417.063 248.989 416.769C248.989 416.364 248.842 416.05 248.547 415.829C248.253 415.596 247.915 415.48 247.534 415.48C247.289 415.48 247.068 415.529 246.871 415.627C246.687 415.713 246.515 415.823 246.356 415.958C246.208 416.081 246.08 416.222 245.969 416.382C245.859 416.542 245.76 416.683 245.674 416.806L243.778 415.48C244.097 414.731 244.6 414.147 245.288 413.73C245.987 413.313 246.773 413.104 247.645 413.104C248.111 413.104 248.578 413.171 249.045 413.306C249.511 413.442 249.929 413.656 250.297 413.951C250.665 414.246 250.966 414.626 251.199 415.093C251.433 415.559 251.549 416.124 251.549 416.787C251.549 417.487 251.402 418.076 251.107 418.555C250.825 419.022 250.401 419.433 249.836 419.789C249.579 419.961 249.315 420.114 249.045 420.249C248.787 420.384 248.547 420.526 248.326 420.673C248.105 420.82 247.927 420.986 247.792 421.17C247.657 421.354 247.59 421.575 247.59 421.833H245.159ZM245.214 426.345V423.583H247.627V426.345H245.214Z" fill="#E6E6E6" fill-opacity="0.51"/>
<path d="M224.35 414.213C224.35 414.049 224.36 413.893 224.382 413.744C224.403 413.595 224.442 413.452 224.499 413.317C224.563 413.175 224.652 413.044 224.765 412.923C224.879 412.802 225.028 412.692 225.213 412.592C225.306 412.543 225.427 412.479 225.576 412.4C225.732 412.315 225.881 412.219 226.024 412.113C226.173 412.006 226.301 411.885 226.407 411.75C226.514 411.608 226.567 411.452 226.567 411.281C226.567 411.046 226.482 410.865 226.311 410.737C226.141 410.602 225.945 410.535 225.725 410.535C225.583 410.535 225.455 410.563 225.341 410.62C225.235 410.67 225.135 410.734 225.043 410.812C224.957 410.883 224.883 410.965 224.819 411.057C224.755 411.149 224.698 411.231 224.648 411.302L223.55 410.535C223.735 410.101 224.026 409.763 224.424 409.522C224.829 409.28 225.284 409.159 225.789 409.159C226.059 409.159 226.329 409.198 226.599 409.276C226.869 409.355 227.111 409.479 227.324 409.65C227.538 409.82 227.712 410.041 227.847 410.311C227.982 410.581 228.049 410.908 228.049 411.292C228.049 411.697 227.964 412.038 227.794 412.315C227.63 412.585 227.385 412.823 227.058 413.029C226.909 413.129 226.756 413.218 226.599 413.296C226.45 413.374 226.311 413.456 226.184 413.541C226.056 413.627 225.953 413.723 225.874 413.829C225.796 413.936 225.757 414.064 225.757 414.213H224.35ZM224.382 416.825V415.226H225.778V416.825H224.382Z" fill="#E6E6E6" fill-opacity="0.51"/>
</g>
</svg>
