<svg width="26" height="25" viewBox="0 0 26 25" fill="none" xmlns="http://www.w3.org/2000/svg">
<circle cx="3.85388" cy="2.85877" r="2.53552" fill="#4CB449"/>
<path d="M3.02674 7.4339C2.54168 7.61028 2.71439 8.31582 2.86138 8.64654C3.04511 8.99563 3.4677 9.82611 3.68818 10.3553C3.96378 11.0167 3.90866 11.5679 4.2945 12.1191C4.68034 12.6703 5.34178 12.1191 6.33394 11.5679C7.3261 11.0167 8.92458 9.80406 10.5782 8.31582C12.2318 6.82758 12.783 5.22909 13.1688 4.34717C13.4775 3.64164 12.8932 3.09778 12.5625 2.91405C11.8827 2.69357 10.3798 2.23056 9.80651 2.14237C9.08995 2.03213 9.08995 2.25261 7.98754 3.96133C6.88514 5.67005 3.63306 7.21342 3.02674 7.4339Z" fill="#49B747"/>
<circle cx="2.57933" cy="22.4527" r="2.53552" transform="rotate(-90.2674 2.57933 22.4527)" fill="#259DD9"/>
<path d="M7.15744 23.258C7.33609 23.7423 8.04081 23.5663 8.37084 23.4177C8.71908 23.2324 9.54757 22.8059 10.0757 22.583C10.7358 22.3043 11.2873 22.3568 11.8367 21.9684C12.3861 21.58 11.8318 20.9211 11.276 19.9316C10.7201 18.942 9.50006 17.3492 8.00411 15.7025C6.50817 14.0559 4.90713 13.5122 4.02342 13.1305C3.31645 12.8251 2.77533 13.4119 2.59314 13.7435C2.37584 14.4243 1.91985 15.9294 1.83433 16.503C1.72744 17.2201 1.94792 17.2191 3.66177 18.3135C5.37561 19.4079 6.93414 22.6527 7.15744 23.258Z" fill="#259DD9"/>
<circle cx="22.2254" cy="22.0215" r="2.53552" transform="rotate(178.552 22.2254 22.0215)" fill="#4CB449"/>
<path d="M22.9367 17.4274C23.4172 17.2389 23.2267 16.5379 23.0714 16.211C22.8789 15.8667 22.4355 15.0471 22.2017 14.5237C21.9095 13.8695 21.9506 13.317 21.551 12.7758C21.1513 12.2345 20.504 12.8022 19.5261 13.3783C18.5482 13.9544 16.9809 15.2071 15.3654 16.7366C13.7499 18.2661 13.2393 19.878 12.8759 20.7694C12.5851 21.4825 13.1829 22.0115 13.5182 22.1868C14.2034 22.39 15.7175 22.8149 16.2928 22.8886C17.0119 22.9807 17.0064 22.7603 18.0652 21.0242C19.1241 19.2882 22.3362 17.6632 22.9367 17.4274Z" fill="#4CB449"/>
<circle cx="23.2178" cy="2.56676" r="2.53552" transform="rotate(89.2897 23.2178 2.56676)" fill="#259DD9"/>
<path d="M18.6335 1.79671C18.4511 1.31388 17.7477 1.49532 17.4189 1.64639C17.0721 1.83444 16.2469 2.26729 15.7205 2.49432C15.0626 2.7781 14.5107 2.72982 13.9643 3.12246C13.418 3.5151 13.9773 4.16966 14.5408 5.15491C15.1042 6.14016 16.3366 7.72349 17.8452 9.35851C19.3539 10.9935 20.9591 11.5249 21.8457 11.8998C22.555 12.1997 23.0916 11.6087 23.2712 11.2757C23.4832 10.5932 23.9276 9.08465 24.0086 8.51036C24.11 7.79248 23.8895 7.79522 22.1673 6.71408C20.445 5.63295 18.8614 2.40025 18.6335 1.79671Z" fill="#259DD9"/>
</svg>
