<svg width="10" height="10" viewBox="0 0 10 10" fill="none" xmlns="http://www.w3.org/2000/svg">
<path d="M9.60085 3.05087C9.07363 1.8217 8.17771 0.927762 6.93828 0.39915C6.31881 0.134951 5.6698 0 4.99178 0C4.31387 0 3.66966 0.133677 3.05087 0.39915C1.8217 0.926356 0.921814 1.81972 0.39366 3.05087C0.129003 3.66766 0 4.31386 0 4.99177C0 5.66981 0.129003 6.32136 0.39366 6.93829C0.921814 8.16943 1.82181 9.06815 3.05087 9.59549C3.66977 9.86096 4.31386 9.99451 4.99178 9.99451C5.66971 9.99451 6.31881 9.85956 6.93819 9.59549C8.17762 9.06686 9.07353 8.16734 9.60087 6.93829C9.86632 6.31938 10 5.66981 10 4.99177C10 4.31386 9.86644 3.66976 9.60085 3.05087ZM8.80268 7.20074C8.41018 7.87386 7.87247 8.40786 7.19525 8.80268C6.52212 9.19518 5.78459 9.39312 4.9919 9.39312C4.39598 9.39312 3.82735 9.27835 3.28601 9.0432C2.74469 8.80817 2.2773 8.49918 1.88632 8.10832C1.49534 7.71734 1.18415 7.24539 0.951454 6.70314C0.719444 6.16286 0.60701 5.58781 0.60701 4.99178C0.60701 4.19897 0.801797 3.46518 1.19209 2.79392C1.58377 2.12021 2.1216 1.58564 2.79404 1.19196C3.46636 0.798301 4.1991 0.601405 4.99178 0.601405C5.78459 0.601405 6.52199 0.799461 7.19513 1.19196C7.87235 1.5868 8.40891 2.12136 8.80257 2.79391C9.19623 3.46634 9.39301 4.19897 9.39301 4.99177C9.39301 5.78459 9.19752 6.52338 8.80268 7.20074Z" fill="#4F4F4F"/>
<path d="M5.30927 4.94792V2.11575C5.30927 1.94627 5.1616 1.80957 4.99211 1.80957C4.8336 1.80957 4.69141 1.94627 4.69141 2.11575V4.99165C4.69141 4.99714 4.70237 5.01906 4.70237 5.0354C4.69141 5.13384 4.71882 5.21585 4.78438 5.28151L6.41924 6.91625C6.52864 7.02565 6.73089 7.02565 6.84021 6.91625C6.96593 6.79052 6.95766 6.60808 6.84021 6.4898L5.30927 4.94792Z" fill="#4F4F4F"/>
</svg>
