<svg width="34" height="34" viewBox="0 0 34 34" fill="none" xmlns="http://www.w3.org/2000/svg">
<circle cx="16.7541" cy="16.7541" r="16.4549" stroke="#BE3939" stroke-width="0.598361"/>
<circle cx="16.7542" cy="16.7542" r="14.3607" fill="#BE3939"/>
<path d="M10.9618 22.2004C10.9053 22.1438 10.8269 22.1113 10.747 22.1113C10.6671 22.1113 10.5887 22.1438 10.5321 22.2004C10.4756 22.2569 10.4431 22.3353 10.4431 22.4152C10.4431 22.4951 10.4756 22.5735 10.5321 22.63C10.5887 22.6865 10.6671 22.7191 10.747 22.7191C10.8269 22.7191 10.9053 22.6866 10.9618 22.63C11.0183 22.5735 11.0509 22.4951 11.0509 22.4152C11.0509 22.3353 11.0183 22.2569 10.9618 22.2004Z" fill="white"/>
<path d="M22.6437 13.9357C22.5872 13.8792 22.5091 13.8467 22.4289 13.8467C22.349 13.8467 22.2706 13.8792 22.214 13.9357C22.1575 13.9922 22.125 14.0706 22.125 14.1505C22.125 14.2305 22.1575 14.3089 22.214 14.3654C22.2706 14.4219 22.349 14.4544 22.4289 14.4544C22.5091 14.4544 22.5872 14.4219 22.6437 14.3654C22.7005 14.3089 22.733 14.2305 22.733 14.1505C22.733 14.0706 22.7005 13.9922 22.6437 13.9357Z" fill="white"/>
<path d="M23.8456 8.46596C23.7886 8.40898 23.7113 8.37695 23.6307 8.37695L16.1557 8.37735C15.9879 8.37735 15.8519 8.51342 15.8519 8.68122V9.55019L12.9715 10.322C12.8094 10.3654 12.7132 10.532 12.7567 10.6941L14.2495 16.2653L12.9581 17.5567C12.7937 17.3167 12.5177 17.1589 12.2056 17.1589H9.28853C8.78587 17.1589 8.37695 17.5679 8.37695 18.0705V23.0234C8.37695 23.5261 8.78587 23.935 9.28853 23.935H12.2056C12.6326 23.935 12.9919 23.6398 13.0903 23.2428L13.4516 23.5579C13.7305 23.8011 14.0879 23.9351 14.458 23.9351H23.6308C23.7986 23.9351 23.9346 23.799 23.9346 23.6312V8.68082C23.9346 8.60024 23.9026 8.52293 23.8456 8.46596ZM12.5094 23.0234C12.5094 23.191 12.3731 23.3273 12.2055 23.3273H9.2885C9.12094 23.3273 8.98463 23.191 8.98463 23.0234V18.0705C8.98463 17.903 9.12094 17.7666 9.2885 17.7666H10.4432V21.2671C10.4432 21.4349 10.5792 21.5709 10.747 21.5709C10.9148 21.5709 11.0509 21.4349 11.0509 21.2671V17.7666H12.2056C12.3731 17.7666 12.5094 17.903 12.5094 18.0705V23.0234H12.5094ZM13.4223 10.8304L15.8519 10.1793V11.3053L15.6482 11.3599C15.5703 11.3808 15.504 11.4317 15.4637 11.5015C15.4234 11.5713 15.4125 11.6542 15.4334 11.7321C15.5501 12.1678 15.2906 12.6173 14.8548 12.7341C14.7769 12.755 14.7104 12.806 14.6702 12.876C14.6299 12.9459 14.6191 13.029 14.6401 13.1069L15.8246 17.4929H15.2147L14.9004 16.2633C14.8904 16.2241 14.8729 16.1881 14.8495 16.1567L13.4223 10.8304ZM15.8519 12.6988V15.2629L15.2976 13.2107C15.5292 13.0912 15.7186 12.9123 15.8519 12.6988ZM20.2174 23.3273H14.4579C14.2347 23.3273 14.0192 23.2465 13.851 23.0998L13.1171 22.4599V18.2571L14.4438 16.9305L14.6844 17.8719C14.7188 18.0064 14.8399 18.1005 14.9788 18.1005L20.9529 18.1009C21.1875 18.1009 21.3784 18.2917 21.3784 18.5263C21.3784 18.7609 21.1875 18.9517 20.9529 18.9517H17.8918C17.724 18.9517 17.5879 19.0878 17.5879 19.2556C17.5879 19.4234 17.724 19.5594 17.8918 19.5594H21.9041C22.1386 19.5594 22.3295 19.7503 22.3295 19.9849C22.3295 20.2194 22.1386 20.4103 21.9041 20.4103H17.8918C17.724 20.4103 17.5879 20.5463 17.5879 20.7141C17.5879 20.8819 17.724 21.018 17.8918 21.018H21.2539C21.4885 21.018 21.6793 21.2088 21.6793 21.4434C21.6793 21.678 21.4885 21.8688 21.2539 21.8688H17.8918C17.724 21.8688 17.5879 22.0049 17.5879 22.1727C17.5879 22.3405 17.724 22.4766 17.8918 22.4766H20.2174C20.452 22.4766 20.6428 22.6674 20.6428 22.902C20.6428 23.1365 20.4519 23.3273 20.2174 23.3273ZM23.3269 23.3273H23.3269H21.1585C21.2174 23.1974 21.2505 23.0535 21.2505 22.9019C21.2505 22.7502 21.2174 22.6063 21.1585 22.4765H21.2539C21.8235 22.4765 22.287 22.013 22.287 21.4433C22.287 21.2772 22.2473 21.1202 22.1773 20.9809C22.6148 20.8608 22.9371 20.4598 22.9371 19.9848C22.9371 19.7543 22.8612 19.5413 22.7332 19.3693V15.5181C22.7332 15.3503 22.5971 15.2142 22.4294 15.2142C22.2616 15.2142 22.1255 15.3503 22.1255 15.5181V18.9759C22.0541 18.9602 21.98 18.9517 21.904 18.9517H21.894C21.9529 18.8219 21.986 18.6779 21.986 18.5263C21.986 17.9566 21.5226 17.4932 20.9529 17.4932H20.4644C20.9831 17.2707 21.3474 16.7552 21.3474 16.156C21.3474 15.3541 20.6951 14.7017 19.8932 14.7017C19.0913 14.7017 18.439 15.3541 18.439 16.156C18.439 16.7552 18.8033 17.2707 19.3219 17.4932H17.6609V11.7153C18.2037 11.597 18.632 11.1687 18.7503 10.6259H21.036C21.1543 11.1687 21.5826 11.597 22.1255 11.7153V12.6601C22.1255 12.8279 22.2615 12.9639 22.4293 12.9639C22.5971 12.9639 22.7332 12.8279 22.7332 12.6601V11.444C22.7332 11.2763 22.5971 11.1402 22.4293 11.1402C21.9782 11.1402 21.6112 10.7731 21.6112 10.322C21.6112 10.1542 21.4751 10.0181 21.3073 10.0181H18.479C18.3112 10.0181 18.1752 10.1542 18.1752 10.322C18.1752 10.7732 17.8082 11.1402 17.357 11.1402C17.1892 11.1402 17.0532 11.2763 17.0532 11.444V17.4931H16.4596V8.98502L23.3269 8.98469V23.3273ZM19.8932 17.0025C19.4265 17.0025 19.0467 16.6228 19.0467 16.156C19.0467 15.6893 19.4265 15.3095 19.8932 15.3095C20.36 15.3095 20.7397 15.6892 20.7397 16.156C20.7397 16.6227 20.36 17.0025 19.8932 17.0025Z" fill="white"/>
</svg>
