<svg width="125" height="91" viewBox="0 0 125 91" fill="none" xmlns="http://www.w3.org/2000/svg">
<path d="M106.278 86.8139C116.373 86.8139 124.556 85.2885 124.556 83.4069C124.556 81.5253 116.373 80 106.278 80C96.1827 80 87.999 81.5253 87.999 83.4069C87.999 85.2885 96.1827 86.8139 106.278 86.8139Z" fill="#F2F2F2"/>
<path d="M39.0641 5.81152C39.0641 5.81152 34.2229 12.277 37.6863 19.8131C41.1496 27.3492 31.6501 39.4576 31.6501 39.4576" stroke="#535461" stroke-width="2" stroke-miterlimit="10"/>
<path d="M41.2347 3.39215C40.8502 5.05606 39.0102 6.04736 39.0102 6.04736C39.0102 6.04736 37.7952 4.34062 38.1797 2.6767C38.5642 1.01279 39.5575 -0.176263 40.4043 0.0214923C41.251 0.219247 41.6192 1.72823 41.2347 3.39215Z" fill="#8ED16F"/>
<path d="M39.9989 3.10195C40.1197 2.57956 40.0599 2.11915 39.8652 2.07358C39.6704 2.02801 39.4146 2.41455 39.2937 2.93694C39.1728 3.45933 39.2327 3.91975 39.4274 3.96532C39.6221 4.01088 39.878 3.62434 39.9989 3.10195Z" fill="#8ED16F"/>
<path opacity="0.3" d="M39.9989 3.10195C40.1197 2.57956 40.0599 2.11915 39.8652 2.07358C39.6704 2.02801 39.4146 2.41455 39.2937 2.93694C39.1728 3.45933 39.2327 3.91975 39.4274 3.96532C39.6221 4.01088 39.878 3.62434 39.9989 3.10195Z" fill="black"/>
<path d="M40.3981 10.785C38.7998 11.3644 36.9723 10.3491 36.9723 10.3491C36.9723 10.3491 37.7364 8.39552 39.3359 7.81737C40.9354 7.23922 42.4673 7.4395 42.7616 8.25319C43.056 9.06688 41.9963 10.2056 40.3981 10.785Z" fill="#8ED16F"/>
<path d="M39.9491 9.50163C40.4505 9.31927 40.8018 9.01825 40.7338 8.82927C40.6658 8.64028 40.2043 8.63492 39.703 8.81727C39.2016 8.99963 38.8503 9.30066 38.9182 9.48964C38.9862 9.67862 39.4478 9.68399 39.9491 9.50163Z" fill="#8ED16F"/>
<path opacity="0.3" d="M39.9491 9.50163C40.4505 9.31927 40.8018 9.01825 40.7338 8.82927C40.6658 8.64028 40.2043 8.63492 39.703 8.81727C39.2016 8.99963 38.8503 9.30066 38.9182 9.48964C38.9862 9.67862 39.4478 9.68399 39.9491 9.50163Z" fill="black"/>
<path d="M40.0261 16.6756C38.4278 17.255 36.6003 16.2398 36.6003 16.2398C36.6003 16.2398 37.3644 14.2861 38.9639 13.708C40.5635 13.1298 42.0953 13.3301 42.3897 14.1438C42.6841 14.9575 41.6244 16.0974 40.0261 16.6756Z" fill="#8ED16F"/>
<path d="M39.5957 15.482C40.0975 15.3003 40.4494 14.9997 40.3817 14.8106C40.3139 14.6214 39.8522 14.6153 39.3504 14.797C38.8486 14.9787 38.4967 15.2793 38.5644 15.4685C38.6321 15.6576 39.0938 15.6637 39.5957 15.482Z" fill="#8ED16F"/>
<path opacity="0.3" d="M39.5957 15.482C40.0975 15.3003 40.4494 14.9997 40.3817 14.8106C40.3139 14.6214 39.8522 14.6153 39.3504 14.797C38.8486 14.9787 38.4967 15.2793 38.5644 15.4685C38.6321 15.6576 39.0938 15.6637 39.5957 15.482Z" fill="black"/>
<path d="M41.8937 23.5877C40.2954 24.1671 38.4679 23.1519 38.4679 23.1519C38.4679 23.1519 39.232 21.1983 40.8315 20.6201C42.431 20.042 43.9629 20.2422 44.2572 21.0559C44.5516 21.8696 43.4919 23.0121 41.8937 23.5877Z" fill="#8ED16F"/>
<path d="M41.4636 22.3961C41.9654 22.2144 42.3173 21.9138 42.2496 21.7246C42.1819 21.5355 41.7202 21.5294 41.2183 21.7111C40.7165 21.8928 40.3646 22.1934 40.4323 22.3825C40.5 22.5717 40.9617 22.5778 41.4636 22.3961Z" fill="#8ED16F"/>
<path opacity="0.3" d="M41.4636 22.3961C41.9654 22.2144 42.3173 21.9138 42.2496 21.7246C42.1819 21.5355 41.7202 21.5294 41.2183 21.7111C40.7165 21.8928 40.3646 22.1934 40.4323 22.3825C40.5 22.5717 40.9617 22.5778 41.4636 22.3961Z" fill="black"/>
<path d="M40.6787 29.908C39.0804 30.4874 37.2529 29.4722 37.2529 29.4722C37.2529 29.4722 38.017 27.5186 39.6165 26.9404C41.2161 26.3623 42.7479 26.5625 43.0423 27.3762C43.3366 28.1899 42.2782 29.3299 40.6787 29.908Z" fill="#8ED16F"/>
<path d="M40.2518 28.61C40.7532 28.4277 41.1045 28.1266 41.0365 27.9377C40.9686 27.7487 40.507 27.7433 40.0057 27.9257C39.5043 28.108 39.153 28.4091 39.221 28.598C39.289 28.787 39.7505 28.7924 40.2518 28.61Z" fill="#8ED16F"/>
<path opacity="0.3" d="M40.2518 28.61C40.7532 28.4277 41.1045 28.1266 41.0365 27.9377C40.9686 27.7487 40.507 27.7433 40.0057 27.9257C39.5043 28.108 39.153 28.4091 39.221 28.598C39.289 28.787 39.7505 28.7924 40.2518 28.61Z" fill="black"/>
<path d="M33.182 12.4579C34.3619 13.6873 36.4474 13.5916 36.4474 13.5916C36.4474 13.5916 36.619 11.4994 35.4391 10.27C34.2592 9.04069 32.7975 8.53434 32.1737 9.13642C31.5499 9.7385 32.0021 11.2286 33.182 12.4579Z" fill="#8ED16F"/>
<path d="M35.0262 12.0225C35.17 11.8829 34.9864 11.4569 34.6159 11.071C34.2455 10.6851 33.8286 10.4855 33.6848 10.6251C33.5409 10.7647 33.7246 11.1907 34.095 11.5766C34.4655 11.9625 34.8824 12.1621 35.0262 12.0225Z" fill="#8ED16F"/>
<path opacity="0.3" d="M35.0262 12.0225C35.17 11.8829 34.9864 11.4569 34.6159 11.071C34.2455 10.6851 33.8286 10.4855 33.6848 10.6251C33.5409 10.7647 33.7246 11.1907 34.095 11.5766C34.4655 11.9625 34.8824 12.1621 35.0262 12.0225Z" fill="black"/>
<path d="M32.5044 31.9814C33.6843 33.2108 35.7698 33.115 35.7698 33.115C35.7698 33.115 35.9414 31.0228 34.7615 29.7935C33.5816 28.5641 32.1198 28.0578 31.4961 28.6599C30.8723 29.2619 31.3245 30.752 32.5044 31.9814Z" fill="#8ED16F"/>
<path d="M34.3468 31.5469C34.4906 31.4073 34.3069 30.9813 33.9365 30.5954C33.566 30.2095 33.1491 30.0099 33.0053 30.1495C32.8615 30.2892 33.0452 30.7152 33.4156 31.101C33.786 31.4869 34.2029 31.6865 34.3468 31.5469Z" fill="#8ED16F"/>
<path opacity="0.3" d="M34.3468 31.5469C34.4906 31.4073 34.3069 30.9813 33.9365 30.5954C33.566 30.2095 33.1491 30.0099 33.0053 30.1495C32.8615 30.2892 33.0452 30.7152 33.4156 31.101C33.786 31.4869 34.2029 31.6865 34.3468 31.5469Z" fill="black"/>
<path d="M34.0688 19.3584C35.5894 20.1217 37.5221 19.3282 37.5221 19.3282C37.5221 19.3282 36.9898 17.299 35.4704 16.5357C33.9511 15.7724 32.4042 15.7799 32.0171 16.5659C31.6301 17.3519 32.5482 18.5951 34.0688 19.3584Z" fill="#8ED16F"/>
<path d="M35.6582 18.3247C35.7474 18.1448 35.4329 17.8049 34.9557 17.5654C34.4785 17.3259 34.0192 17.2776 33.9299 17.4575C33.8407 17.6374 34.1552 17.9773 34.6324 18.2168C35.1097 18.4563 35.5689 18.5046 35.6582 18.3247Z" fill="#8ED16F"/>
<path opacity="0.3" d="M35.6582 18.3247C35.7474 18.1448 35.4329 17.8049 34.9557 17.5654C34.4785 17.3259 34.0192 17.2776 33.9299 17.4575C33.8407 17.6374 34.1552 17.9773 34.6324 18.2168C35.1097 18.4563 35.5689 18.5046 35.6582 18.3247Z" fill="black"/>
<path d="M34.7064 26.2324C36.227 26.9958 38.1597 26.2022 38.1597 26.2022C38.1597 26.2022 37.6274 24.173 36.108 23.4097C34.5886 22.6464 33.0417 22.654 32.6547 23.4399C32.2676 24.2259 33.192 25.4767 34.7064 26.2324Z" fill="#8ED16F"/>
<path d="M36.2962 25.1997C36.3855 25.0198 36.071 24.6799 35.5937 24.4404C35.1165 24.2009 34.6573 24.1526 34.568 24.3325C34.4787 24.5124 34.7932 24.8523 35.2705 25.0918C35.7477 25.3313 36.207 25.3796 36.2962 25.1997Z" fill="#8ED16F"/>
<path opacity="0.3" d="M36.2962 25.1997C36.3855 25.0198 36.071 24.6799 35.5937 24.4404C35.1165 24.2009 34.6573 24.1526 34.568 24.3325C34.4787 24.5124 34.7932 24.8523 35.2705 25.0918C35.7477 25.3313 36.207 25.3796 36.2962 25.1997Z" fill="black"/>
<path d="M15.7475 19.709C15.7475 19.709 24.5894 28.6004 19.5979 41.7946C14.6064 54.9887 28.1542 76.9295 28.1542 76.9295C28.1542 76.9295 28.0089 76.9081 27.7396 76.8602C9.57736 73.6369 0.558877 52.7505 10.6546 37.2349C14.4035 31.466 17.4911 24.6995 15.7475 19.709Z" fill="#8ED16F"/>
<path d="M-0.000976562 55.6717C-0.000976562 55.6717 10.0884 54.0556 11.0078 63.1486C11.9272 72.2415 30.4088 73.5024 30.4088 73.5024C30.4088 73.5024 30.2836 73.5855 30.0619 73.7341C14.8019 83.8108 0.214466 80.1505 2.41272 66.7749C3.2319 61.8008 3.16426 56.8066 -0.000976562 55.6717Z" fill="#8ED16F"/>
<path opacity="0.3" d="M-0.000976562 55.6717C-0.000976562 55.6717 10.0884 54.0556 11.0078 63.1486C11.9272 72.2415 30.4088 73.5024 30.4088 73.5024C30.4088 73.5024 30.2836 73.5855 30.0619 73.7341C14.8019 83.8108 0.214466 80.1505 2.41272 66.7749C3.2319 61.8008 3.16426 56.8066 -0.000976562 55.6717Z" fill="white"/>
<path d="M13.1936 55.5593C14.7259 55.5593 15.9681 52.3003 15.9681 48.2801C15.9681 44.26 14.7259 41.001 13.1936 41.001C11.6613 41.001 10.4192 44.26 10.4192 48.2801C10.4192 52.3003 11.6613 55.5593 13.1936 55.5593Z" fill="#8ED16F"/>
<path opacity="0.3" d="M13.1936 55.5593C14.7259 55.5593 15.9681 52.3003 15.9681 48.2801C15.9681 44.26 14.7259 41.001 13.1936 41.001C11.6613 41.001 10.4192 44.26 10.4192 48.2801C10.4192 52.3003 11.6613 55.5593 13.1936 55.5593Z" fill="black"/>
<path d="M12.9401 74.7165C13.6705 73.9821 12.9448 72.0617 11.3193 70.4271C9.69384 68.7925 7.78411 68.0628 7.05379 68.7972C6.32348 69.5316 7.04915 71.452 8.67462 73.0866C10.3001 74.7212 12.2098 75.4509 12.9401 74.7165Z" fill="#8ED16F"/>
<path opacity="0.3" d="M12.9401 74.7165C13.6705 73.9821 12.9448 72.0617 11.3193 70.4271C9.69384 68.7925 7.78411 68.0628 7.05379 68.7972C6.32348 69.5316 7.04915 71.452 8.67462 73.0866C10.3001 74.7212 12.2098 75.4509 12.9401 74.7165Z" fill="black"/>
<path d="M90.6711 33.4375H24.994C24.2003 33.4375 23.4392 33.7545 22.878 34.3189C22.3169 34.8832 22.0016 35.6486 22.0016 36.4467V75.1575C22.0016 75.9556 22.3169 76.721 22.878 77.2853C23.4392 77.8497 24.2003 78.1667 24.994 78.1667H90.6711C91.4647 78.1667 92.2258 77.8497 92.787 77.2853C93.3482 76.721 93.6634 75.9556 93.6634 75.1575V36.4467C93.6634 35.6486 93.3482 34.8832 92.787 34.3189C92.2258 33.7545 91.4647 33.4375 90.6711 33.4375Z" fill="url(#paint0_linear)"/>
<path d="M89.7118 33.9629H25.9523C24.2361 33.9629 22.8447 35.362 22.8447 37.0879V74.514C22.8447 76.2399 24.2361 77.6391 25.9523 77.6391H89.7118C91.428 77.6391 92.8194 76.2399 92.8194 74.514V37.0879C92.8194 35.362 91.428 33.9629 89.7118 33.9629Z" fill="#6C63FF"/>
<path d="M92.8194 41.6074H22.8447V49.6146H92.8194V41.6074Z" fill="#6C63FF"/>
<path opacity="0.3" d="M92.8194 41.6074H22.8447V49.6146H92.8194V41.6074Z" fill="black"/>
<path d="M86.1843 55.5586H29.4806V59.4406H86.1843V55.5586Z" fill="#D6D6E3"/>
<path d="M34.1853 74.7289C37.2505 74.7289 39.7354 72.2301 39.7354 69.1476C39.7354 66.0652 37.2505 63.5664 34.1853 63.5664C31.12 63.5664 28.6351 66.0652 28.6351 69.1476C28.6351 72.2301 31.12 74.7289 34.1853 74.7289Z" fill="#6C63FF"/>
<path opacity="0.3" d="M34.1853 74.7289C37.2505 74.7289 39.7354 72.2301 39.7354 69.1476C39.7354 66.0652 37.2505 63.5664 34.1853 63.5664C31.12 63.5664 28.6351 66.0652 28.6351 69.1476C28.6351 72.2301 31.12 74.7289 34.1853 74.7289Z" fill="black"/>
<path d="M88.8412 23.1945C88.9307 23.4793 89.121 23.7213 89.376 23.8747C90.5271 24.6392 93.0297 24.4767 93.3303 24.4767C93.3942 24.4767 93.4781 24.5914 93.5708 24.7841C94.013 25.7011 94.6981 28.389 94.7445 28.9936C94.8059 29.7254 95.4823 33.1503 96.5895 34.4262C96.6233 34.4653 96.6572 34.5018 96.6897 34.5358C97.7757 35.6329 99.0496 34.4262 99.0496 34.4262L99.2324 33.7876C99.1811 34.0395 99.1235 34.333 99.0658 34.6618C99.037 34.8268 99.0082 35.0019 98.9807 35.182C98.8157 36.1969 98.729 37.2232 98.7214 38.2516C98.7186 38.625 98.7345 38.9983 98.769 39.3701C98.779 39.4734 98.7903 39.5754 98.8041 39.6749C98.8606 40.1278 98.8882 40.5839 98.8867 41.0403C98.8767 43.7509 98.1891 47.1229 98.1891 47.1229L98.2154 47.114C98.1991 47.1984 98.1891 47.24 98.1891 47.24L98.2291 47.2274C98.2099 47.3525 98.1916 47.4806 98.174 47.6116C97.941 49.312 97.807 51.4281 97.7431 52.6499C97.7101 53.2944 97.7386 53.9406 97.8283 54.5796L99.0508 63.2342V67.2649C99.0467 67.8757 99.1208 68.4845 99.2713 69.0762C99.6696 70.599 99.3414 75.9145 99.1573 78.4362C99.1059 79.1239 99.0659 79.6051 99.0546 79.7436V79.7852L99.0896 79.7714C99.0896 79.8003 99.0896 79.8154 99.0896 79.8154C99.1418 79.793 99.1965 79.7769 99.2525 79.7676C98.7677 80.5233 97.8897 81.7728 97.2146 81.9832C96.8167 82.1051 96.4628 82.341 96.1962 82.6621L96.1787 82.686L96.1536 82.7213C96.0702 82.8336 96.0194 82.9671 96.0071 83.1067C95.9973 83.0827 95.9898 83.0578 95.9845 83.0324C95.9332 83.3133 96.101 83.5703 96.6284 83.695C96.9358 83.754 97.2487 83.7793 97.5615 83.7705C99.3903 83.7705 102.636 83.205 102.994 82.5966V80.4981L103.053 80.517V80.5359L103.277 80.6102L103.892 78.5344C104.63 77.9853 104.017 68.1567 103.892 65.8983C103.779 63.8401 105.046 55.6528 105.27 54.2106L105.24 54.174L105.274 53.9637C105.319 53.9966 105.361 54.0337 105.399 54.0745C105.472 54.1624 105.537 54.2578 105.59 54.3592C105.696 54.5394 105.787 54.7282 105.862 54.9235C107.1 58.0271 107.657 66.9022 107.657 67.6982V76.0442C107.655 76.8678 107.769 77.6876 107.995 78.479C108.109 78.8955 108.197 79.3187 108.258 79.7462C108.285 79.9137 108.307 80.08 108.329 80.2387C108.35 80.3974 108.371 80.5788 108.387 80.7274C108.387 80.7664 108.396 80.8042 108.4 80.8395C108.404 80.8748 108.4 80.8735 108.4 80.8911C108.434 81.2199 108.451 81.4353 108.451 81.4353C108.456 81.4172 108.465 81.4005 108.476 81.3861L108.483 81.4655C108.491 81.4354 108.508 81.4084 108.531 81.3874C108.582 81.3372 108.638 81.2916 108.697 81.2514V82.3119L108.667 82.2893V82.4719C109.942 83.4393 112.017 83.7315 113.611 83.7202C114.644 83.7202 115.481 83.5942 115.771 83.4481C116.187 83.2428 115.959 82.7641 115.581 82.3976C115.288 82.1129 114.906 81.8938 114.664 81.9215C114.261 81.9656 112.882 80.3949 112.159 79.5346L112.24 79.498L112.356 79.4476V65.5317C112.356 65.5317 112.541 60.0374 113.093 54.6035C113.355 51.8644 113.033 49.1006 112.148 46.4968L112.13 46.4452L112.298 46.4717C112.476 46.4994 112.571 46.5157 112.571 46.5157C112.571 46.5157 112.571 46.4729 112.56 46.3898H112.571C112.571 46.3898 112.356 44.0331 112.353 41.0731C112.353 37.7175 112.635 33.6264 113.801 31.3113C114.472 29.9786 114.697 28.918 114.678 28.0817C114.707 27.3457 114.496 26.6204 114.078 26.016C113.902 25.7727 113.664 25.5827 113.388 25.4668L113.364 25.4529H113.351C113.15 25.371 112.935 25.3282 112.718 25.327H110.199C109.907 25.3272 109.621 25.2512 109.367 25.1065L108.381 24.5448C108.053 23.823 108.005 22.9287 108.076 22.0898C108.076 22.0231 108.088 21.9563 108.094 21.8908L108.166 21.8152C108.221 21.756 108.272 21.6893 108.322 21.6326C108.321 21.6823 108.317 21.7319 108.311 21.7812C108.299 21.8606 108.277 21.9072 108.243 21.9173C108.782 21.8467 109.383 21.7397 109.714 21.3215C109.728 21.3051 109.74 21.2875 109.753 21.2698C109.85 21.1108 109.931 20.9419 109.994 20.766C110.041 20.6458 110.103 20.5323 110.179 20.4284C110.261 20.3201 110.369 20.2319 110.458 20.1287L110.473 20.111C110.79 19.7331 110.807 19.1915 110.811 18.6978C110.817 17.4986 110.782 16.1786 109.984 15.2792C109.322 14.531 108.265 14.2476 107.261 14.2149C106.258 14.1821 105.257 14.3635 104.255 14.3686C103.574 14.3686 102.752 14.3572 102.376 14.924C102.192 15.2024 102.17 15.5664 101.969 15.8335C101.854 15.9871 101.677 16.1194 101.667 16.3108C101.666 16.3992 101.689 16.4862 101.733 16.5628V16.5716C101.976 17.0527 102.492 17.3525 103.03 17.447C102.939 17.5572 102.856 17.6733 102.78 17.7946C102.451 18.3233 102.277 18.9345 102.279 19.5581C102.279 19.6311 102.279 19.7029 102.286 19.7747C102.342 20.6216 102.718 21.4151 103.336 21.9928C103.326 22.0634 103.316 22.1339 103.305 22.2032L103.327 22.2233C103.398 22.288 103.472 22.3493 103.549 22.4072L103.576 22.4287C103.576 22.4727 103.576 22.5168 103.576 22.5546C103.576 22.6277 103.576 22.702 103.569 22.7738C103.561 22.8456 103.569 22.8897 103.561 22.9476L103.545 22.9338L102.321 21.9059L100.353 20.0745C100.353 20.0745 95.4334 16.4733 95.1867 18.1851C95.1568 18.4891 95.2403 18.7934 95.4209 19.0391C96.324 20.4247 99.4291 21.6036 99.4291 21.6036C99.4291 21.6036 101.28 23.5724 102.519 25.6948C102.475 25.7187 102.431 25.7414 102.385 25.7628C101.283 26.278 99.6746 26.06 99.6746 26.06C97.817 26.351 97.6492 28.3978 97.6592 29.2254C97.6592 29.2644 97.6592 29.3022 97.6592 29.3362C97.6592 29.3702 97.6592 29.3778 97.6592 29.3967L95.1942 23.5761L95.1867 23.5585C95.1062 23.369 94.9796 23.203 94.8185 23.0757C94.6573 22.9485 94.4669 22.8641 94.2648 22.8305C92.6164 22.5521 88.4967 21.9714 88.8412 23.1945ZM99.161 79.7499C99.197 79.7413 99.2334 79.7346 99.27 79.7298L99.2587 79.7474L99.161 79.7499Z" fill="url(#paint1_linear)"/>
<path d="M111.478 78.5586C111.478 78.5586 113.812 81.5098 114.352 81.4494C114.892 81.3889 116.148 82.5931 115.431 82.9609C114.713 83.3287 110.581 83.5629 108.542 81.9973V79.6381L111.478 78.5586Z" fill="#ACA9C9"/>
<path d="M99.6796 78.7393C99.6796 78.7393 98.3018 81.208 97.3448 81.5103C96.3878 81.8126 95.5486 82.8959 96.8062 83.1969C98.0638 83.498 102.555 82.8354 102.974 82.1124V78.9194L99.6796 78.7393Z" fill="#ACA9C9"/>
<path d="M97.9498 54.4862L99.1397 63.0237V66.9926C99.1361 67.5948 99.2085 68.1949 99.3551 68.7787C99.7434 70.2814 99.424 75.5238 99.2437 78.0115C99.1848 78.8227 99.1397 79.3416 99.1397 79.3416C99.9175 78.9801 103.212 80.1238 103.212 80.1238L103.545 78.9839L103.811 78.077C104.529 77.5354 103.936 67.8403 103.811 65.6071C103.729 64.0817 104.405 59.1366 104.839 56.1728C104.964 55.3352 105.066 54.6613 105.127 54.2557C105.166 54.0038 105.187 53.864 105.187 53.864C105.319 53.9722 105.429 54.1053 105.51 54.2557C105.613 54.4337 105.702 54.6199 105.775 54.8124C106.98 57.8745 107.528 66.6286 107.528 67.4083V75.641C107.526 76.4532 107.637 77.2618 107.858 78.043C108.006 78.6128 108.114 79.1924 108.182 79.7774C108.267 80.4312 108.307 80.9577 108.307 80.9577C108.367 80.5962 112.08 78.9701 112.08 78.9701V65.2406C112.08 65.2406 112.259 59.8243 112.799 54.461C113.031 52.0214 112.797 49.5597 112.11 47.2083C111.961 46.6957 111.812 46.2611 111.683 45.9172C111.464 45.3315 111.307 45.0078 111.307 45.0078H99.0771C98.8717 45.0469 98.7013 45.4625 98.5472 46.0936C98.447 46.5168 98.3594 47.0357 98.2829 47.6051C98.0562 49.2816 97.926 51.3687 97.8633 52.5754C97.8317 53.2137 97.8607 53.8535 97.9498 54.4862Z" fill="#618FD8"/>
<path opacity="0.1" d="M111.864 79.0084V65.2789C111.864 65.2789 112.044 59.8627 112.583 54.4994C113.123 49.1361 111.08 45.0449 111.08 45.0449H111.32C111.32 45.0449 113.355 49.1398 112.823 54.4994C112.29 59.8589 112.104 65.2789 112.104 65.2789V79.0084C112.104 79.0084 108.391 80.6345 108.331 80.996C108.331 80.996 108.331 80.9154 108.312 80.7769C109.121 80.2113 111.864 79.0084 111.864 79.0084Z" fill="black"/>
<path opacity="0.1" d="M99.4991 79.304C99.3861 79.3063 99.2745 79.3293 99.1697 79.372V79.3115C99.2791 79.3005 99.3893 79.2979 99.4991 79.304Z" fill="black"/>
<path opacity="0.1" d="M103.601 78.1063C104.32 77.5647 103.726 67.8697 103.601 65.6364C103.476 63.4032 104.979 53.8945 104.979 53.8945C105.058 53.9557 105.127 54.0278 105.186 54.1087C104.965 55.5295 103.733 63.6072 103.842 65.6364C103.967 67.8646 104.561 77.5597 103.842 78.1063L103.243 80.1532L103.025 80.0801L103.601 78.1063Z" fill="black"/>
<path d="M100.397 30.1427L99.1447 34.5991C99.1447 34.5991 97.827 35.8587 96.7498 34.5991C95.6726 33.3395 95.0087 29.9626 94.9436 29.2396C94.8784 28.5166 93.9252 24.7832 93.5657 24.7832C93.2063 24.7832 89.6139 25.0237 89.1943 23.5236C88.8586 22.3169 92.8693 22.8938 94.4751 23.1646C94.6729 23.1984 94.8589 23.282 95.0159 23.4075C95.1729 23.5331 95.2958 23.6965 95.3732 23.8826L97.8357 29.7963C97.8357 29.7963 99.1397 28.276 100.397 30.1427Z" fill="#D69F76"/>
<path d="M108.481 19.7852C108.481 19.7852 106.924 24.1811 108.901 25.7468C110.878 27.3124 101.833 27.7344 101.833 27.7344L103.06 26.5605C103.06 26.5605 103.928 23.0979 103.33 20.2071L108.481 19.7852Z" fill="#D69F76"/>
<path opacity="0.1" d="M106.565 25.747C106.565 25.747 108.152 25.3553 108.152 24.9346L109.558 25.747H113.092C113.092 25.747 115.667 27.1917 113.512 31.5285C111.356 35.8653 112.314 46.5176 112.314 46.5176C112.314 46.5176 104.65 45.132 98.3017 47.2406C98.3017 47.2406 99.2599 42.4831 98.9004 39.7738C98.5409 37.0644 99.4991 33.2705 99.4991 33.2705L100.038 30.9818C100.038 30.9818 100.008 28.8405 97.7919 29.9276C97.7919 29.9276 97.4625 26.8265 99.7384 26.465C99.7384 26.465 102.369 26.8265 103.152 25.5014C103.152 25.5064 104.889 26.5305 106.565 25.747Z" fill="black"/>
<path d="M106.565 25.6269C106.565 25.6269 108.152 25.2352 108.152 24.8145L109.183 25.4102C109.429 25.5522 109.708 25.6268 109.992 25.6269H112.463C112.722 25.6261 112.976 25.6872 113.207 25.805C113.437 25.9229 113.636 26.0941 113.787 26.3045C114.355 27.1069 114.863 28.6889 113.512 31.4084C111.356 35.7439 112.314 46.3975 112.314 46.3975C112.314 46.3975 104.65 45.0119 98.3018 47.1205C98.3018 47.1205 99.2601 42.363 98.9006 39.6536C98.5411 36.9443 99.4993 33.1592 99.4993 33.1592L100.038 30.8705C100.038 30.8705 100.008 28.7292 97.792 29.8163C97.792 29.8163 97.4714 26.8008 99.6446 26.37C99.705 26.3565 99.7671 26.3523 99.8287 26.3574C100.293 26.4066 102.459 26.564 103.153 25.3838C103.152 25.385 104.889 26.4091 106.565 25.6269Z" fill="#E14B5A"/>
<path opacity="0.1" d="M112.614 31.1063C112.614 31.1063 110.697 32.3105 107.583 31.1063C107.583 31.1063 104.17 29.8467 103.091 27.3729C102.013 24.899 108.54 27.7948 108.54 27.7948C108.54 27.7948 109.918 27.7948 110.336 27.4938C110.755 27.1927 113.691 29.7812 112.614 31.1063Z" fill="black"/>
<path d="M112.613 30.8663C112.613 30.8663 110.697 32.0705 107.583 30.8663C107.583 30.8663 104.17 29.6067 103.091 27.1329C102.013 24.6591 99.499 21.9497 99.499 21.9497C99.499 21.9497 95.1276 20.2631 95.3656 18.5778C95.6036 16.8924 100.396 20.4445 100.396 20.4445L102.312 22.2507L108.54 27.5498C108.54 27.5498 109.918 27.5498 110.336 27.2488C110.755 26.9477 113.691 29.5412 112.613 30.8663Z" fill="#D69F76"/>
<path opacity="0.1" d="M103.272 20.3878L108.421 19.9658C108.156 20.7619 107.976 21.584 107.884 22.4182C107.285 23.0424 106.467 23.4054 105.605 23.4289C104.743 23.4525 103.906 23.1348 103.274 22.5442C103.406 21.8314 103.405 21.1003 103.272 20.3878Z" fill="black"/>
<path d="M105.578 23.2479C107.397 23.2479 108.871 21.7653 108.871 19.9365C108.871 18.1076 107.397 16.625 105.578 16.625C103.759 16.625 102.285 18.1076 102.285 19.9365C102.285 21.7653 103.759 23.2479 105.578 23.2479Z" fill="#D69F76"/>
<path opacity="0.1" d="M107.385 20.6559C107.192 20.336 107.585 19.9191 107.456 19.5689C107.337 19.2465 106.863 19.191 106.704 18.89C106.579 18.6469 106.704 18.3484 106.654 18.0801C106.582 17.7337 106.212 17.5183 105.86 17.5007C105.508 17.483 105.168 17.6153 104.834 17.7287C104.289 17.9138 103.715 18.0561 103.144 17.9907C102.573 17.9252 102.003 17.6128 101.749 17.1001C101.707 17.0254 101.685 16.9413 101.685 16.8558C101.695 16.6668 101.868 16.5371 101.979 16.3859C102.175 16.1227 102.197 15.7637 102.375 15.4891C102.738 14.9299 103.536 14.9437 104.2 14.9412C105.177 14.9412 106.149 14.7573 107.126 14.79C108.103 14.8228 109.13 15.1012 109.778 15.8393C110.554 16.7273 110.589 18.0272 110.583 19.2112C110.583 19.6986 110.563 20.2289 110.254 20.6056C110.164 20.7151 110.053 20.8058 109.967 20.9179C109.779 21.1698 109.729 21.4923 109.552 21.748C109.239 22.2027 108.628 22.3136 108.083 22.3866C108.243 22.3652 108.111 21.2857 108.083 21.1862C107.978 20.6899 107.864 20.7 107.385 20.6559Z" fill="black"/>
<path d="M107.385 20.5358C107.192 20.2159 107.585 19.799 107.456 19.4488C107.337 19.1263 106.863 19.0709 106.704 18.7699C106.579 18.5268 106.704 18.2283 106.654 17.96C106.582 17.6136 106.212 17.3982 105.86 17.3806C105.508 17.3629 105.168 17.4952 104.834 17.6085C104.289 17.7937 103.715 17.936 103.144 17.8705C102.573 17.805 102.003 17.4927 101.749 16.98C101.707 16.9053 101.685 16.8212 101.685 16.7356C101.695 16.5467 101.868 16.417 101.979 16.2658C102.175 16.0026 102.197 15.6436 102.375 15.369C102.738 14.8097 103.536 14.8236 104.2 14.8211C105.177 14.8211 106.149 14.6372 107.126 14.6699C108.103 14.7027 109.13 14.981 109.778 15.7192C110.554 16.6072 110.589 17.9071 110.583 19.0911C110.583 19.5785 110.563 20.1088 110.254 20.4854C110.164 20.595 110.053 20.6857 109.967 20.7978C109.779 21.0497 109.729 21.3722 109.552 21.6279C109.239 22.0826 108.628 22.1934 108.083 22.2665C108.243 22.2451 108.111 21.1656 108.083 21.0661C107.978 20.5635 107.864 20.5786 107.385 20.5358Z" fill="#281C1C"/>
<path opacity="0.1" d="M112.583 31.2578C112.583 31.2578 110.966 27.042 109.709 26.9223C108.451 26.8027 112.104 26.9223 112.104 26.9223L113.301 29.0901L112.583 31.2578Z" fill="black"/>
<path d="M112.704 31.2578C112.704 31.2578 111.087 27.042 109.829 26.9223C108.572 26.8027 112.224 26.9223 112.224 26.9223L113.422 29.0901L112.704 31.2578Z" fill="#E14B5A"/>
<path d="M108.177 79.7873C108.262 80.441 108.302 80.9675 108.302 80.9675C108.362 80.606 112.075 78.9799 112.075 78.9799V78.0012C111.98 77.9976 111.886 78.0022 111.792 78.015C111.072 78.112 110.404 78.4634 109.788 78.8388C109.267 79.1823 108.73 79.4989 108.177 79.7873Z" fill="#618FD8"/>
<path opacity="0.3" d="M108.177 79.7873C108.262 80.441 108.302 80.9675 108.302 80.9675C108.362 80.606 112.075 78.9799 112.075 78.9799V78.0012C111.98 77.9976 111.886 78.0022 111.792 78.015C111.072 78.112 110.404 78.4634 109.788 78.8388C109.267 79.1823 108.73 79.4989 108.177 79.7873Z" fill="black"/>
<path d="M99.1398 79.3408C99.9176 78.9793 103.212 80.123 103.212 80.123L103.545 78.9831C102.97 78.8659 102.399 78.7198 101.838 78.546C101.576 78.4697 101.32 78.3746 101.071 78.2613C100.905 78.1722 100.735 78.0923 100.56 78.022C100.131 77.8734 99.6834 77.9363 99.2425 78.0107C99.1849 78.8218 99.1398 79.3408 99.1398 79.3408Z" fill="#618FD8"/>
<path opacity="0.3" d="M99.1398 79.3408C99.9176 78.9793 103.212 80.123 103.212 80.123L103.545 78.9831C102.97 78.8659 102.399 78.7198 101.838 78.546C101.576 78.4697 101.32 78.3746 101.071 78.2613C100.905 78.1722 100.735 78.0923 100.56 78.022C100.131 77.8734 99.6834 77.9363 99.2425 78.0107C99.1849 78.8218 99.1398 79.3408 99.1398 79.3408Z" fill="black"/>
<path opacity="0.4" d="M115.398 82.7741C115.448 82.7526 115.493 82.7198 115.528 82.6783C115.564 82.6369 115.59 82.5878 115.603 82.5348C115.626 82.6179 115.617 82.7063 115.579 82.7835C115.542 82.8607 115.477 82.9214 115.398 82.9543C114.679 83.3158 110.548 83.5563 108.509 81.9907V81.8105C110.548 83.3762 114.679 83.1356 115.398 82.7741Z" fill="white"/>
<path opacity="0.4" d="M96.7749 83.0142C98.0275 83.3152 102.524 82.6527 102.943 81.9297V82.1098C102.523 82.8328 98.0325 83.4953 96.7749 83.1943C96.2613 83.0683 96.0973 82.8164 96.1486 82.5406C96.1887 82.7446 96.3766 82.9134 96.7749 83.0142Z" fill="white"/>
<path opacity="0.1" d="M104.08 39.1465C104.08 39.1465 102.762 38.7246 102.403 39.1465C102.043 39.5685 98.9706 40.5573 98.9706 40.5573" fill="black"/>
<path d="M89.1705 22.6006H95.5774V22.4646H89.1705V22.6006Z" fill="#8ED16F"/>
<path d="M89.1705 22.7363H95.5774V22.6003H89.1705V22.7363Z" fill="#8ED16F"/>
<path opacity="0.1" d="M89.1705 22.7363H95.5774V22.6003H89.1705V22.7363Z" fill="black"/>
<path d="M89.1705 22.873H95.5774V22.737H89.1705V22.873Z" fill="#8ED16F"/>
<path d="M89.1705 23.0078H95.5774V22.8718H89.1705V23.0078Z" fill="#8ED16F"/>
<path opacity="0.1" d="M89.1705 23.0078H95.5774V22.8718H89.1705V23.0078Z" fill="black"/>
<path d="M89.1705 23.1436H95.5774V23.0075H89.1705V23.1436Z" fill="#8ED16F"/>
<path d="M89.1705 23.2783H95.5774V23.1423H89.1705V23.2783Z" fill="#8ED16F"/>
<path opacity="0.1" d="M89.1705 23.2783H95.5774V23.1423H89.1705V23.2783Z" fill="black"/>
<path d="M89.1705 23.4141H95.5774V23.278H89.1705V23.4141Z" fill="#8ED16F"/>
<path d="M89.1705 23.5488H95.5774V23.4128H89.1705V23.5488Z" fill="#8ED16F"/>
<path opacity="0.1" d="M89.1705 23.5488H95.5774V23.4128H89.1705V23.5488Z" fill="black"/>
<path d="M89.1705 21.5176H95.5774V21.3815H89.1705V21.5176Z" fill="#8ED16F"/>
<path d="M93.7023 18.2962L98.6282 22.416L98.7147 22.3114L93.7888 18.1917L93.7023 18.2962Z" fill="#8ED16F"/>
<path d="M89.2112 16.1293L94.1371 20.249L94.2236 20.1444L89.2977 16.0247L89.2112 16.1293Z" fill="#8ED16F"/>
<path d="M89.1705 21.6523H95.5774V21.5163H89.1705V21.6523Z" fill="#8ED16F"/>
<path opacity="0.1" d="M89.1705 21.6523H95.5774V21.5163H89.1705V21.6523Z" fill="black"/>
<path d="M89.1705 21.7891H95.5774V21.653H89.1705V21.7891Z" fill="#8ED16F"/>
<path d="M89.1705 21.9238H95.5774V21.7878H89.1705V21.9238Z" fill="#8ED16F"/>
<path opacity="0.1" d="M89.1705 21.9238H95.5774V21.7878H89.1705V21.9238Z" fill="black"/>
<path d="M89.1705 22.0586H95.5774V21.9226H89.1705V22.0586Z" fill="#8ED16F"/>
<path d="M89.1705 22.1953H95.5774V22.0593H89.1705V22.1953Z" fill="#8ED16F"/>
<path opacity="0.1" d="M89.1705 22.1953H95.5774V22.0593H89.1705V22.1953Z" fill="black"/>
<path d="M89.1705 22.3301H95.5774V22.194H89.1705V22.3301Z" fill="#8ED16F"/>
<path d="M89.1705 22.4668H95.5774V22.3308H89.1705V22.4668Z" fill="#8ED16F"/>
<path opacity="0.1" d="M89.1705 22.4668H95.5774V22.3308H89.1705V22.4668Z" fill="black"/>
<path d="M88.3584 27.7481L90.6539 28.1768L91.4848 23.6776L89.1892 23.2489L88.3584 27.7481Z" fill="#8ED16F"/>
<path d="M90.4239 25.8143C90.5205 25.291 90.3883 24.8275 90.1284 24.779C89.8686 24.7305 89.5797 25.1153 89.4831 25.6386C89.3864 26.1618 89.5187 26.6253 89.7785 26.6738C90.0384 26.7223 90.3273 26.3375 90.4239 25.8143Z" fill="#8ED16F"/>
<path opacity="0.1" d="M90.4239 25.8143C90.5205 25.291 90.3883 24.8275 90.1284 24.779C89.8686 24.7305 89.5797 25.1153 89.4831 25.6386C89.3864 26.1618 89.5187 26.6253 89.7785 26.6738C90.0384 26.7223 90.3273 26.3375 90.4239 25.8143Z" fill="black"/>
<path d="M88.7512 37.2442L91.0468 37.6729L91.8776 33.1737L89.582 32.745L88.7512 37.2442Z" fill="#8ED16F"/>
<path d="M90.8155 35.3103C90.9122 34.7871 90.7799 34.3236 90.5201 34.2751C90.2602 34.2266 89.9713 34.6114 89.8747 35.1346C89.778 35.6579 89.9103 36.1214 90.1702 36.1699C90.43 36.2184 90.7189 35.8336 90.8155 35.3103Z" fill="#8ED16F"/>
<path opacity="0.1" d="M90.8155 35.3103C90.9122 34.7871 90.7799 34.3236 90.5201 34.2751C90.2602 34.2266 89.9713 34.6114 89.8747 35.1346C89.778 35.6579 89.9103 36.1214 90.1702 36.1699C90.43 36.2184 90.7189 35.8336 90.8155 35.3103Z" fill="black"/>
<path d="M80.4484 13.9019L79.3372 15.9668L83.3393 18.1447L84.4505 16.0798L80.4484 13.9019Z" fill="#8ED16F"/>
<path d="M83.1269 16.5749C83.2538 16.341 82.9791 15.9444 82.5134 15.6889C82.0477 15.4335 81.5673 15.416 81.4405 15.6498C81.3136 15.8837 81.5883 16.2803 82.054 16.5358C82.5197 16.7912 83.0001 16.8087 83.1269 16.5749Z" fill="#8ED16F"/>
<path opacity="0.1" d="M83.1269 16.5749C83.2538 16.341 82.9791 15.9444 82.5134 15.6889C82.0477 15.4335 81.5673 15.416 81.4405 15.6498C81.3136 15.8837 81.5883 16.2803 82.054 16.5358C82.5197 16.7912 83.0001 16.8087 83.1269 16.5749Z" fill="black"/>
<path d="M71.6608 54.6529L70.5496 56.7178L74.5517 58.8957L75.6629 56.8308L71.6608 54.6529Z" fill="#8ED16F"/>
<path d="M73.936 57.2597C74.0618 57.0259 73.7864 56.6312 73.321 56.3779C72.8556 56.1246 72.3763 56.1087 72.2506 56.3424C72.1248 56.5762 72.4001 56.9709 72.8656 57.2242C73.331 57.4775 73.8103 57.4934 73.936 57.2597Z" fill="#8ED16F"/>
<path opacity="0.1" d="M73.936 57.2597C74.0618 57.0259 73.7864 56.6312 73.321 56.3779C72.8556 56.1246 72.3763 56.1087 72.2506 56.3424C72.1248 56.5762 72.4001 56.9709 72.8656 57.2242C73.331 57.4775 73.8103 57.4934 73.936 57.2597Z" fill="black"/>
<path d="M66.2842 21.024L65.173 23.0889L69.1751 25.2668L70.2863 23.2019L66.2842 21.024Z" fill="#8ED16F"/>
<path d="M68.5582 23.6298C68.684 23.3961 68.4086 23.0013 67.9432 22.748C67.4778 22.4947 66.9985 22.4789 66.8727 22.7126C66.747 22.9463 67.0223 23.3411 67.4878 23.5943C67.9532 23.8476 68.4324 23.8635 68.5582 23.6298Z" fill="#8ED16F"/>
<path opacity="0.1" d="M68.5582 23.6298C68.684 23.3961 68.4086 23.0013 67.9432 22.748C67.4778 22.4947 66.9985 22.4789 66.8727 22.7126C66.747 22.9463 67.0223 23.3411 67.4878 23.5943C67.9532 23.8476 68.4324 23.8635 68.5582 23.6298Z" fill="black"/>
<path d="M73.0227 13.9019L71.9115 15.9668L75.9136 18.1447L77.0248 16.0798L73.0227 13.9019Z" fill="#8ED16F"/>
<path d="M75.2971 16.5077C75.4229 16.274 75.1475 15.8792 74.6821 15.6259C74.2167 15.3726 73.7374 15.3568 73.6116 15.5905C73.4859 15.8242 73.7612 16.219 74.2266 16.4723C74.6921 16.7255 75.1713 16.7414 75.2971 16.5077Z" fill="#8ED16F"/>
<path opacity="0.1" d="M75.2971 16.5077C75.4229 16.274 75.1475 15.8792 74.6821 15.6259C74.2167 15.3726 73.7374 15.3568 73.6116 15.5905C73.4859 15.8242 73.7612 16.219 74.2266 16.4723C74.6921 16.7255 75.1713 16.7414 75.2971 16.5077Z" fill="black"/>
<path d="M79.7508 22.3053L77.4298 22.5605L77.9244 27.1095L80.2454 26.8543L79.7508 22.3053Z" fill="#8ED16F"/>
<path d="M78.9111 25.6691C79.1738 25.6402 79.3401 25.188 79.2826 24.6589C79.2251 24.1299 78.9655 23.7245 78.7028 23.7534C78.4401 23.7822 78.2738 24.2345 78.3313 24.7635C78.3888 25.2926 78.6484 25.698 78.9111 25.6691Z" fill="#8ED16F"/>
<path opacity="0.1" d="M78.9111 25.6691C79.1738 25.6402 79.3401 25.188 79.2826 24.6589C79.2251 24.1299 78.9655 23.7245 78.7028 23.7534C78.4401 23.7822 78.2738 24.2345 78.3313 24.7635C78.3888 25.2926 78.6484 25.698 78.9111 25.6691Z" fill="black"/>
<path d="M95.6635 47.2155L93.3425 47.4707L93.8371 52.0197L96.1581 51.7645L95.6635 47.2155Z" fill="#8ED16F"/>
<path d="M94.8249 50.5783C95.0876 50.5494 95.2539 50.0971 95.1964 49.5681C95.1389 49.0391 94.8793 48.6337 94.6166 48.6625C94.3539 48.6914 94.1876 49.1437 94.2451 49.6727C94.3027 50.2017 94.5622 50.6072 94.8249 50.5783Z" fill="#8ED16F"/>
<path opacity="0.1" d="M94.8249 50.5783C95.0876 50.5494 95.2539 50.0971 95.1964 49.5681C95.1389 49.0391 94.8793 48.6337 94.6166 48.6625C94.3539 48.6914 94.1876 49.1437 94.2451 49.6727C94.3027 50.2017 94.5622 50.6072 94.8249 50.5783Z" fill="black"/>
<path d="M70.6626 31.9683L69.5514 34.0332L73.5535 36.2111L74.6647 34.1462L70.6626 31.9683Z" fill="#8ED16F"/>
<path d="M72.9359 34.5761C73.0617 34.3423 72.7863 33.9476 72.3209 33.6943C71.8555 33.441 71.3762 33.4251 71.2504 33.6589C71.1247 33.8926 71.4 34.2874 71.8654 34.5406C72.3309 34.7939 72.8101 34.8098 72.9359 34.5761Z" fill="#8ED16F"/>
<path opacity="0.1" d="M72.9359 34.5761C73.0617 34.3423 72.7863 33.9476 72.3209 33.6943C71.8555 33.441 71.3762 33.4251 71.2504 33.6589C71.1247 33.8926 71.4 34.2874 71.8654 34.5406C72.3309 34.7939 72.8101 34.8098 72.9359 34.5761Z" fill="black"/>
<path d="M60.5632 29.0679L59.452 31.1328L63.4542 33.3107L64.5654 31.2458L60.5632 29.0679Z" fill="#8ED16F"/>
<path d="M63.1698 31.8122C63.2966 31.5783 63.0219 31.1817 62.5562 30.9262C62.0905 30.6708 61.6102 30.6533 61.4833 30.8871C61.3565 31.121 61.6312 31.5176 62.0969 31.7731C62.5626 32.0285 63.0429 32.046 63.1698 31.8122Z" fill="#8ED16F"/>
<path opacity="0.1" d="M63.1698 31.8122C63.2966 31.5783 63.0219 31.1817 62.5562 30.9262C62.0905 30.6708 61.6102 30.6533 61.4833 30.8871C61.3565 31.121 61.6312 31.5176 62.0969 31.7731C62.5626 32.0285 63.0429 32.046 63.1698 31.8122Z" fill="black"/>
<path d="M57.3287 77.9038L56.2175 79.9688L60.2197 82.1466L61.3309 80.0817L57.3287 77.9038Z" fill="#8ED16F"/>
<path d="M59.6028 80.5097C59.7285 80.2759 59.4532 79.8812 58.9878 79.6279C58.5223 79.3746 58.0431 79.3587 57.9173 79.5924C57.7915 79.8262 58.0669 80.221 58.5323 80.4742C58.9977 80.7275 59.477 80.7434 59.6028 80.5097Z" fill="#8ED16F"/>
<path opacity="0.1" d="M59.6028 80.5097C59.7285 80.2759 59.4532 79.8812 58.9878 79.6279C58.5223 79.3746 58.0431 79.3587 57.9173 79.5924C57.7915 79.8262 58.0669 80.221 58.5323 80.4742C58.9977 80.7275 59.477 80.7434 59.6028 80.5097Z" fill="black"/>
<path d="M54.4168 78.6993L53.991 81.0078L58.4652 81.8425L58.8911 79.534L54.4168 78.6993Z" fill="#8ED16F"/>
<path opacity="0.05" d="M54.4168 78.6993L53.991 81.0078L58.4652 81.8425L58.8911 79.534L54.4168 78.6993Z" fill="black"/>
<path d="M57.3787 80.4761C57.4269 80.2148 57.0441 79.9243 56.5238 79.8272C56.0035 79.7302 55.5426 79.8633 55.4944 80.1246C55.4462 80.3858 55.8289 80.6763 56.3492 80.7734C56.8696 80.8705 57.3305 80.7374 57.3787 80.4761Z" fill="#8ED16F"/>
<path opacity="0.1" d="M57.3787 80.4761C57.4269 80.2148 57.0441 79.9243 56.5238 79.8272C56.0035 79.7302 55.5426 79.8633 55.4944 80.1246C55.4462 80.3858 55.8289 80.6763 56.3492 80.7734C56.8696 80.8705 57.3305 80.7374 57.3787 80.4761Z" fill="black"/>
<path d="M54.836 80.0841L54.4102 82.3926L58.8844 83.2273L59.3103 80.9188L54.836 80.0841Z" fill="#8ED16F"/>
<path d="M57.7966 81.8609C57.8448 81.5996 57.4621 81.3091 56.9418 81.212C56.4214 81.1149 55.9606 81.2481 55.9124 81.5093C55.8641 81.7706 56.2469 82.0611 56.7672 82.1582C57.2875 82.2553 57.7484 82.1221 57.7966 81.8609Z" fill="#8ED16F"/>
<path opacity="0.1" d="M57.7966 81.8609C57.8448 81.5996 57.4621 81.3091 56.9418 81.212C56.4214 81.1149 55.9606 81.2481 55.9124 81.5093C55.8641 81.7706 56.2469 82.0611 56.7672 82.1582C57.2875 82.2553 57.7484 82.1221 57.7966 81.8609Z" fill="black"/>
<path d="M62.0496 83.8384L60.9384 85.9033L64.9405 88.0812L66.0517 86.0163L62.0496 83.8384Z" fill="#8ED16F"/>
<path d="M64.3248 86.4452C64.4506 86.2115 64.1753 85.8167 63.7098 85.5634C63.2444 85.3101 62.7651 85.2943 62.6393 85.528C62.5136 85.7617 62.7889 86.1565 63.2544 86.4098C63.7198 86.6631 64.1991 86.6789 64.3248 86.4452Z" fill="#8ED16F"/>
<path opacity="0.1" d="M64.3248 86.4452C64.4506 86.2115 64.1753 85.8167 63.7098 85.5634C63.2444 85.3101 62.7651 85.2943 62.6393 85.528C62.5136 85.7617 62.7889 86.1565 63.2544 86.4098C63.7198 86.6631 64.1991 86.6789 64.3248 86.4452Z" fill="black"/>
<path d="M59.1386 84.6329L58.7128 86.9414L63.187 87.7761L63.6129 85.4676L59.1386 84.6329Z" fill="#8ED16F"/>
<path opacity="0.05" d="M59.1386 84.6329L58.7128 86.9414L63.187 87.7761L63.6129 85.4676L59.1386 84.6329Z" fill="black"/>
<path d="M62.0991 86.4097C62.1473 86.1484 61.7646 85.8579 61.2443 85.7608C60.7239 85.6638 60.263 85.7969 60.2148 86.0582C60.1666 86.3194 60.5494 86.6099 61.0697 86.707C61.59 86.8041 62.0509 86.671 62.0991 86.4097Z" fill="#8ED16F"/>
<path opacity="0.1" d="M62.0991 86.4097C62.1473 86.1484 61.7646 85.8579 61.2443 85.7608C60.7239 85.6638 60.263 85.7969 60.2148 86.0582C60.1666 86.3194 60.5494 86.6099 61.0697 86.707C61.59 86.8041 62.0509 86.671 62.0991 86.4097Z" fill="black"/>
<path d="M59.5577 86.0177L59.1318 88.3262L63.6061 89.1609L64.0319 86.8524L59.5577 86.0177Z" fill="#8ED16F"/>
<path d="M62.5194 87.7945C62.5676 87.5332 62.1849 87.2427 61.6646 87.1456C61.1442 87.0485 60.6833 87.1817 60.6351 87.4429C60.5869 87.7042 60.9697 87.9947 61.49 88.0918C62.0103 88.1888 62.4712 88.0557 62.5194 87.7945Z" fill="#8ED16F"/>
<path opacity="0.1" d="M62.5194 87.7945C62.5676 87.5332 62.1849 87.2427 61.6646 87.1456C61.1442 87.0485 60.6833 87.1817 60.6351 87.4429C60.5869 87.7042 60.9697 87.9947 61.49 88.0918C62.0103 88.1888 62.4712 88.0557 62.5194 87.7945Z" fill="black"/>
<path d="M69.1326 80.0132L68.0214 82.0781L72.0235 84.256L73.1347 82.1911L69.1326 80.0132Z" fill="#8ED16F"/>
<path d="M71.4056 82.619C71.5314 82.3853 71.256 81.9905 70.7906 81.7373C70.3252 81.484 69.8459 81.4681 69.7202 81.7018C69.5944 81.9355 69.8697 82.3303 70.3352 82.5836C70.8006 82.8369 71.2798 82.8527 71.4056 82.619Z" fill="#8ED16F"/>
<path opacity="0.1" d="M71.4056 82.619C71.5314 82.3853 71.256 81.9905 70.7906 81.7373C70.3252 81.484 69.8459 81.4681 69.7202 81.7018C69.5944 81.9355 69.8697 82.3303 70.3352 82.5836C70.8006 82.8369 71.2798 82.8527 71.4056 82.619Z" fill="black"/>
<path d="M66.2209 80.8087L65.795 83.1172L70.2693 83.9519L70.6952 81.6434L66.2209 80.8087Z" fill="#8ED16F"/>
<path opacity="0.05" d="M66.2209 80.8087L65.795 83.1172L70.2693 83.9519L70.6952 81.6434L66.2209 80.8087Z" fill="black"/>
<path d="M69.1815 82.5855C69.2297 82.3242 68.847 82.0337 68.3267 81.9366C67.8063 81.8395 67.3454 81.9727 67.2972 82.2339C67.249 82.4952 67.6318 82.7857 68.1521 82.8828C68.6724 82.9799 69.1333 82.8468 69.1815 82.5855Z" fill="#8ED16F"/>
<path opacity="0.1" d="M69.1815 82.5855C69.2297 82.3242 68.847 82.0337 68.3267 81.9366C67.8063 81.8395 67.3454 81.9727 67.2972 82.2339C67.249 82.4952 67.6318 82.7857 68.1521 82.8828C68.6724 82.9799 69.1333 82.8468 69.1815 82.5855Z" fill="black"/>
<path d="M66.6399 82.1935L66.214 84.502L70.6882 85.3367L71.1141 83.0282L66.6399 82.1935Z" fill="#8ED16F"/>
<path d="M69.6017 83.9702C69.6499 83.709 69.2671 83.4185 68.7468 83.3214C68.2265 83.2243 67.7656 83.3574 67.7174 83.6187C67.6692 83.88 68.0519 84.1705 68.5723 84.2676C69.0926 84.3646 69.5535 84.2315 69.6017 83.9702Z" fill="#8ED16F"/>
<path opacity="0.1" d="M69.6017 83.9702C69.6499 83.709 69.2671 83.4185 68.7468 83.3214C68.2265 83.2243 67.7656 83.3574 67.7174 83.6187C67.6692 83.88 68.0519 84.1705 68.5723 84.2676C69.0926 84.3646 69.5535 84.2315 69.6017 83.9702Z" fill="black"/>
<defs>
<linearGradient id="paint0_linear" x1="57.8325" y1="78.1667" x2="57.8325" y2="33.4375" gradientUnits="userSpaceOnUse">
<stop stop-color="#808080" stop-opacity="0.25"/>
<stop offset="0.54" stop-color="#808080" stop-opacity="0.12"/>
<stop offset="1" stop-color="#808080" stop-opacity="0.1"/>
</linearGradient>
<linearGradient id="paint1_linear" x1="-80477.3" y1="52726.4" x2="-80477.3" y2="14316" gradientUnits="userSpaceOnUse">
<stop stop-color="#808080" stop-opacity="0.25"/>
<stop offset="0.54" stop-color="#808080" stop-opacity="0.12"/>
<stop offset="1" stop-color="#808080" stop-opacity="0.1"/>
</linearGradient>
</defs>
</svg>
