<svg width="10" height="11" viewBox="0 0 10 11" fill="none" xmlns="http://www.w3.org/2000/svg">
<path d="M9.3034 3.58691H9.33158C9.69279 3.58691 9.9873 3.88237 9.9873 4.24264V7.09757C9.9873 7.45927 9.69279 7.75376 9.33158 7.75376H9.30292C8.94171 7.75376 8.64719 7.45831 8.64719 7.09757V4.24262C8.64767 3.88237 8.94264 3.58691 9.3034 3.58691Z" fill="#010002"/>
<path d="M8.3335 8.19977C8.3335 8.53139 8.06248 8.80147 7.73086 8.80147H7.08687V10.3436C7.08687 10.7057 6.79141 11.0002 6.43114 11.0002H6.40296C6.04127 11.0002 5.7463 10.7052 5.7463 10.3436V8.80147H4.84631V10.3436C4.84631 10.7057 4.54992 11.0002 4.18965 11.0002H4.16192C3.80025 11.0002 3.50574 10.7052 3.50574 10.3436V8.80147H2.86129C2.53015 8.80147 2.25911 8.53139 2.25911 8.19977V3.69189H8.3335V8.19977Z" fill="#010002"/>
<path d="M3.78317 0.95775L3.27164 0.168167C3.23876 0.118366 3.25332 0.0502742 3.30358 0.0178503C3.35336 -0.0150308 3.42148 -0.00139927 3.4539 0.0497951L3.9842 0.866641C4.38204 0.703651 4.82639 0.612063 5.29566 0.612063C5.76538 0.612063 6.20879 0.703651 6.60757 0.866641L7.13694 0.0497951C7.16934 -0.00139927 7.23793 -0.0150308 7.28819 0.0178503C7.33845 0.0502524 7.35301 0.118366 7.32013 0.168167L6.80815 0.95775C7.73115 1.41009 8.35352 2.26263 8.35352 3.24057C8.35352 3.30069 8.34975 3.35988 8.34459 3.41859H2.24627C2.24111 3.35988 2.23782 3.30069 2.23782 3.24057C2.2378 2.26263 2.86065 1.41009 3.78317 0.95775ZM6.7095 2.3716C6.87156 2.3716 7.00308 2.24101 7.00308 2.0785C7.00308 1.91598 6.87156 1.78585 6.7095 1.78585C6.54651 1.78585 6.41592 1.91596 6.41592 2.0785C6.41592 2.24103 6.54745 2.3716 6.7095 2.3716ZM3.88227 2.3716C4.04432 2.3716 4.17585 2.24101 4.17585 2.0785C4.17585 1.91598 4.04432 1.78585 3.88227 1.78585C3.71976 1.78585 3.58917 1.91596 3.58917 2.0785C3.58917 2.24101 3.71976 2.3716 3.88227 2.3716Z" fill="#010002"/>
<path d="M1.26092 3.58691H1.28816C1.64937 3.58691 1.94482 3.88237 1.94482 4.24264V7.09757C1.94482 7.45927 1.64889 7.75376 1.28816 7.75376H1.26044C0.898768 7.75376 0.604711 7.45831 0.604711 7.09757V4.24262C0.604711 3.88237 0.899705 3.58691 1.26092 3.58691Z" fill="#010002"/>
</svg>
