<svg width="317" height="26" viewBox="0 0 317 26" fill="none" xmlns="http://www.w3.org/2000/svg">
<path fill-rule="evenodd" clip-rule="evenodd" d="M309.101 19H181.4C177.5 19 174.4 15.9 174.4 12C174.4 8.1 177.5 5 181.4 5H309.101C313.001 5 316.102 8.1 316.102 12C316.102 15.9 313.001 19 309.101 19Z" fill="#221F1F" fill-opacity="0.26"/>
<path opacity="0.5" fill-rule="evenodd" clip-rule="evenodd" d="M182 12C182 15.9 178.9 19 175 19H7.5C3.6 19 0.5 15.9 0.5 12C0.5 8.1 3.6 5 7.5 5H175C178.9 5 182 8.1 182 12Z" fill="#70CCFB"/>
<g filter="url(#filter0_dd)">
<path fill-rule="evenodd" clip-rule="evenodd" d="M177 22C182.523 22 187 17.5228 187 12C187 6.47715 182.523 2 177 2C171.477 2 167 6.47715 167 12C167 17.5228 171.477 22 177 22Z" fill="#70CCFB"/>
<path d="M186.75 12C186.75 17.3848 182.385 21.75 177 21.75C171.615 21.75 167.25 17.3848 167.25 12C167.25 6.61522 171.615 2.25 177 2.25C182.385 2.25 186.75 6.61522 186.75 12Z" stroke="url(#paint0_linear)" stroke-width="0.5"/>
<path d="M186.75 12C186.75 17.3848 182.385 21.75 177 21.75C171.615 21.75 167.25 17.3848 167.25 12C167.25 6.61522 171.615 2.25 177 2.25C182.385 2.25 186.75 6.61522 186.75 12Z" stroke="url(#paint1_linear)" stroke-width="0.5"/>
</g>
<defs>
<filter id="filter0_dd" x="165" y="0" width="24" height="26" filterUnits="userSpaceOnUse" color-interpolation-filters="sRGB">
<feFlood flood-opacity="0" result="BackgroundImageFix"/>
<feColorMatrix in="SourceAlpha" type="matrix" values="0 0 0 0 0 0 0 0 0 0 0 0 0 0 0 0 0 0 127 0"/>
<feOffset dy="2"/>
<feGaussianBlur stdDeviation="1"/>
<feColorMatrix type="matrix" values="0 0 0 0 0 0 0 0 0 0 0 0 0 0 0 0 0 0 0.24 0"/>
<feBlend mode="normal" in2="BackgroundImageFix" result="effect1_dropShadow"/>
<feColorMatrix in="SourceAlpha" type="matrix" values="0 0 0 0 0 0 0 0 0 0 0 0 0 0 0 0 0 0 127 0"/>
<feOffset/>
<feGaussianBlur stdDeviation="1"/>
<feColorMatrix type="matrix" values="0 0 0 0 0 0 0 0 0 0 0 0 0 0 0 0 0 0 0.12 0"/>
<feBlend mode="normal" in2="effect1_dropShadow" result="effect2_dropShadow"/>
<feBlend mode="normal" in="SourceGraphic" in2="effect2_dropShadow" result="shape"/>
</filter>
<linearGradient id="paint0_linear" x1="167.098" y1="2" x2="167.098" y2="21.8043" gradientUnits="userSpaceOnUse">
<stop stop-opacity="0"/>
<stop offset="0.8" stop-opacity="0.02"/>
<stop offset="1" stop-opacity="0.04"/>
</linearGradient>
<linearGradient id="paint1_linear" x1="167" y1="2" x2="167" y2="22" gradientUnits="userSpaceOnUse">
<stop stop-color="white" stop-opacity="0.12"/>
<stop offset="0.2" stop-color="white" stop-opacity="0.06"/>
<stop offset="1" stop-color="white" stop-opacity="0"/>
</linearGradient>
</defs>
</svg>
