<svg width="24" height="24" viewBox="0 0 24 24" fill="none" xmlns="http://www.w3.org/2000/svg">
<path d="M9.70312 12C9.70312 13.2686 10.7314 14.2969 12 14.2969C13.2686 14.2969 14.2969 13.2686 14.2969 12C14.2969 10.7314 13.2686 9.70312 12 9.70312C10.7314 9.70312 9.70312 10.7314 9.70312 12Z" fill="#A3A3A3"/>
<path d="M6.62848 7.93671C6.73889 7.63751 6.91504 7.3667 7.14392 7.14441C7.36621 6.91553 7.63684 6.73938 7.93622 6.62897C8.17901 6.53467 8.54376 6.42242 9.21557 6.39185C9.94232 6.3587 10.1602 6.35156 12.0001 6.35156C13.8401 6.35156 14.058 6.35852 14.7845 6.39166C15.4564 6.42242 15.8213 6.53467 16.0639 6.62897C16.3633 6.73938 16.6341 6.91553 16.8562 7.14441C17.0851 7.3667 17.2612 7.63733 17.3718 7.93671C17.4661 8.1795 17.5784 8.54443 17.6089 9.21625C17.6421 9.94281 17.6492 10.1607 17.6492 12.0007C17.6492 13.8406 17.6421 14.0585 17.6089 14.7852C17.5784 15.457 17.4661 15.8218 17.3718 16.0646C17.2612 16.364 17.0853 16.6346 16.8564 16.8569C16.6341 17.0858 16.3635 17.2619 16.0641 17.3723C15.8213 17.4668 15.4564 17.579 14.7845 17.6096C14.058 17.6428 13.8403 17.6497 12.0002 17.6497C10.16 17.6497 9.94214 17.6428 9.21576 17.6096C8.54394 17.579 8.17901 17.4668 7.93622 17.3723C7.33526 17.1405 6.86029 16.6655 6.62848 16.0646C6.53418 15.8218 6.42193 15.457 6.39117 14.7852C6.35803 14.0585 6.35107 13.8406 6.35107 12.0007C6.35107 10.1607 6.35803 9.94281 6.39117 9.21625C6.42175 8.54443 6.53399 8.1795 6.62848 7.93671V7.93671ZM12.0001 15.5389C13.9543 15.5389 15.5386 13.9548 15.5386 12.0005C15.5386 10.0463 13.9543 8.46222 12.0001 8.46222C10.046 8.46222 8.46173 10.0463 8.46173 12.0005C8.46173 13.9548 10.046 15.5389 12.0001 15.5389ZM8.32184 9.14923C8.7785 9.14923 9.14874 8.77899 9.14874 8.32233C9.14874 7.86566 8.7785 7.49542 8.32184 7.49542C7.86517 7.49542 7.49493 7.86566 7.49493 8.32233C7.49512 8.77899 7.86517 9.14923 8.32184 9.14923Z" fill="#A3A3A3"/>
<path d="M12 0C18.6264 0 24 5.3736 24 12C24 18.6264 18.6264 24 12 24C5.3736 24 0 18.6264 0 12C0 5.3736 5.3736 0 12 0ZM5.15094 14.8409C5.18427 15.5744 5.3009 16.0752 5.47119 16.5135C5.82916 17.4391 6.56085 18.1708 7.48645 18.5288C7.92462 18.6991 8.4256 18.8156 9.15894 18.8491C9.89374 18.8826 10.1285 18.8906 11.9998 18.8906C13.8713 18.8906 14.1059 18.8826 14.8409 18.8491C15.5742 18.8156 16.0752 18.6991 16.5134 18.5288C16.9733 18.3558 17.3897 18.0846 17.7339 17.7339C18.0844 17.3899 18.3556 16.9733 18.5286 16.5135C18.6989 16.0754 18.8156 15.5744 18.8489 14.8411C18.8828 14.1061 18.8906 13.8713 18.8906 12C18.8906 10.1287 18.8828 9.89392 18.8491 9.15912C18.8157 8.4256 18.6993 7.9248 18.529 7.48645C18.356 7.02667 18.0846 6.61011 17.7339 6.26605C17.3899 5.91541 16.9733 5.64423 16.5135 5.47119C16.0752 5.3009 15.5744 5.18445 14.8409 5.15094C14.1061 5.11743 13.8713 5.10938 12 5.10938C10.1287 5.10938 9.89392 5.11743 9.15912 5.15112C8.4256 5.18445 7.9248 5.3009 7.48645 5.47101C7.02667 5.64404 6.61011 5.91541 6.26587 6.26605C5.91541 6.61029 5.64404 7.02667 5.47119 7.48645C5.30072 7.9248 5.18427 8.4256 5.15076 9.15912C5.11725 9.89392 5.10938 10.1287 5.10938 12C5.10938 13.8713 5.11725 14.1061 5.15094 14.8409V14.8409Z" fill="#A3A3A3"/>
</svg>
