<svg width="41" height="29" viewBox="0 0 41 29" fill="none" xmlns="http://www.w3.org/2000/svg">
<path d="M41 5.16014C41 2.31045 38.7053 0 35.875 0H5.125C2.29472 0 0 2.31045 0 5.16014V23.8399C0 26.6895 2.29472 29 5.125 29H35.875C38.7053 29 41 26.6895 41 23.8399V5.16014ZM5.125 2.06406H35.875C37.5707 2.06406 38.95 3.49954 38.95 5.20691V5.46975H2.05V5.20691C2.05 3.49954 3.42927 2.06406 5.125 2.06406ZM38.95 7.53381V11.1459H2.05V7.53381H38.95ZM35.875 27.0391H5.125C3.42927 27.0391 2.05 25.6037 2.05 23.8963V13.21H38.95V23.8963C38.95 25.6037 37.5707 27.0391 35.875 27.0391Z" fill="#39BF9E"/>
<path d="M13.6555 16C12.9 15.9997 12.1574 16.182 11.5018 16.5284C9.67603 15.5665 7.36372 15.9472 6.01316 17.4328C4.66228 18.9185 4.66228 21.0816 6.01316 22.5672C7.36372 24.0526 9.67603 24.4339 11.5018 23.4714C13.0851 24.3044 15.065 24.1377 16.4585 23.0547C17.8519 21.9715 18.3618 20.2021 17.7356 18.6253C17.1087 17.0481 15.4794 15.9997 13.6555 16ZM11.3296 20C11.3296 19.7231 11.388 19.4487 11.5018 19.1923C11.7317 19.71 11.7317 20.2898 11.5018 20.8075C11.3883 20.5511 11.3296 20.2773 11.3296 20.0003V20ZM7.02253 20C7.02253 19.3357 7.35741 18.7095 7.92847 18.3036C8.49985 17.8983 9.24308 17.7601 9.94059 17.929C9.10213 19.2019 9.10213 20.7979 9.94059 22.0708C9.24308 22.24 8.49954 22.1015 7.92847 21.6962C7.35741 21.2906 7.02253 20.6641 7.02253 20ZM13.6555 22.1416C13.4559 22.1416 13.2566 22.1181 13.0636 22.0708C13.9018 20.7985 13.9018 19.2019 13.0636 17.929C13.9361 17.7174 14.8632 17.99 15.4415 18.6285C16.0195 19.2663 16.1444 20.1554 15.7619 20.9079C15.3794 21.6608 14.5583 22.1416 13.6555 22.1416Z" fill="#39BF9E"/>
</svg>
