<svg width="73" height="53" viewBox="0 0 73 53" fill="none" xmlns="http://www.w3.org/2000/svg">
<mask id="path-1-inside-1" fill="white">
<path d="M61.1958 29.8896C57.3946 29.8896 54.0101 31.6588 51.8497 34.398L48.4568 32.149C49.4181 30.6038 49.9968 28.8417 50.1366 27.0382C50.2736 25.2662 49.9929 23.4697 49.3095 21.8227C48.9402 20.9329 48.4568 20.0889 47.8748 19.3158L50.8144 17.0613C52.0719 19.3261 54.107 21.1559 56.5264 22.176C58.846 23.1541 61.4798 23.3689 63.9365 22.8013C66.3748 22.2381 68.5809 20.8942 70.201 19.0268C71.849 17.1273 72.8309 14.7262 72.9796 12.2384C73.1077 10.0974 72.6215 7.93942 71.5744 6.05408C70.5797 4.26307 69.0994 2.74193 67.321 1.68095C65.4943 0.590528 63.3757 0.007153 61.2359 6.5271e-05C59.095 -0.00702246 56.9708 0.563268 55.1351 1.64278C53.3551 2.68959 51.8687 4.19546 50.8628 5.97339C49.7818 7.88327 49.2805 10.0777 49.4131 12.2564C49.456 12.9652 49.5651 13.6701 49.74 14.3593L45.925 17.2854C44.1427 15.8275 41.9333 14.9034 39.6237 14.663C39.3274 14.6319 39.0306 14.6123 38.7326 14.6035C38.4686 14.5954 38.2029 14.5823 37.9473 14.6597C37.4984 14.7954 37.1392 15.152 37.0066 15.5931C36.8707 16.0456 36.9832 16.5467 37.3012 16.9011C37.4522 17.0695 37.6443 17.2015 37.8582 17.2816C38.0904 17.3688 38.3227 17.3705 38.5677 17.3759C40.4936 17.4174 42.3772 18.0787 43.8932 19.2427C45.3697 20.3768 46.4669 21.9595 46.9865 23.7255C47.6103 25.8436 47.3869 28.1684 46.3644 30.1333C46.2263 30.3977 46.0748 30.6556 45.9105 30.9048C44.8027 29.659 43.407 28.628 41.8504 27.983C43.138 25.7842 42.5153 22.5941 40.1589 21.3396C39.1581 20.8064 37.9495 20.7442 36.9014 21.1842C35.8242 21.6357 35.0061 22.5527 34.5778 23.6088C33.9986 25.0367 34.1155 26.7203 34.9186 28.0441C33.3525 28.6672 31.9189 29.6568 30.8452 30.9397C29.5124 28.9415 29.0757 26.4352 29.6394 24.1142C29.7853 23.5139 29.998 22.9316 30.2687 22.3744C30.4781 21.9421 30.4926 21.4568 30.2459 21.0343C29.7574 20.1963 28.5166 20.1042 27.9051 20.8598C27.7023 21.1101 27.5843 21.4339 27.4601 21.7262C27.3269 22.0397 27.2078 22.3586 27.1036 22.6825C26.8853 23.3607 26.7327 24.0591 26.6469 24.7652H23.5197C23.2618 22.6661 22.403 20.6565 21.0641 18.9985C19.7447 17.3645 17.9775 16.0892 15.9887 15.3483C13.9274 14.5801 11.6523 14.398 9.48972 14.8205C7.41789 15.2251 5.47638 16.1863 3.90803 17.57C2.35917 18.9369 1.18903 20.7012 0.554674 22.647C-0.158213 24.8339 -0.183833 27.223 0.477259 29.4251C1.19627 31.8207 2.72731 33.946 4.77074 35.4366C6.80748 36.9223 9.3115 37.7188 11.85 37.7085C14.373 37.6987 16.8542 36.8967 18.8725 35.4115C20.9204 33.904 22.4448 31.758 23.1493 29.3449C23.322 28.7545 23.4456 28.1504 23.5202 27.5408H26.6497C26.8547 29.2255 27.4417 30.8584 28.364 32.2945C29.2857 33.7284 30.5327 34.9622 31.9869 35.8804C33.4193 36.7854 35.0501 37.3737 36.7387 37.6005C38.4357 37.8284 40.1845 37.6976 41.8236 37.2085C43.4527 36.7222 44.962 35.8815 46.229 34.7687C46.3889 34.628 46.5454 34.483 46.6974 34.3342L50.3967 36.7865C49.4822 38.8103 49.1847 41.0773 49.5362 43.2631C49.8581 45.2662 50.7286 47.1662 52.038 48.737C53.3373 50.2957 55.046 51.5192 56.9664 52.24C58.9028 52.9662 61.0304 53.1734 63.0771 52.8555C65.0933 52.5431 67.0064 51.7078 68.5931 50.4517C70.211 49.1715 71.4792 47.4814 72.2233 45.578C72.9417 43.7407 73.1662 41.7267 72.8782 39.7803C72.6298 38.1032 71.9977 36.4883 71.0414 35.0756C70.0991 33.6848 68.8499 32.4979 67.4012 31.6179C65.9198 30.7183 64.2389 30.1475 62.5063 29.9594C62.0707 29.913 61.633 29.8896 61.1958 29.8896ZM55.6186 18.4331C56.6133 17.0902 58.1571 16.1154 59.7906 15.7016C60.6305 15.489 61.5183 15.4186 62.3743 15.5735C63.2013 15.7234 63.9872 16.0669 64.6945 16.5069C65.5043 17.0117 66.2311 17.6534 66.827 18.3906C64.3459 20.361 60.8705 20.8745 57.8992 19.7269C57.0789 19.4096 56.308 18.9712 55.6186 18.4331ZM61.1958 12.7127C60.5397 12.7127 60.112 12.0645 59.9622 11.5111C59.7795 10.8383 59.892 10.0347 60.3615 9.49218C60.7597 9.03203 61.3846 8.92407 61.8669 9.3308C62.406 9.78551 62.5837 10.575 62.4851 11.2407C62.3915 11.8775 61.9566 12.7127 61.1958 12.7127ZM61.1958 2.77573C63.5606 2.77573 65.8624 3.7135 67.5344 5.35022C69.2063 6.98749 70.1642 9.2403 70.1642 11.5558C70.1642 13.234 69.6697 14.8969 68.7396 16.3073C67.6329 15.061 66.235 14.0305 64.6795 13.385C65.9671 11.1862 65.3445 7.99667 62.9875 6.7416C61.9866 6.20892 60.7786 6.14677 59.7299 6.58676C58.6533 7.03819 57.8352 7.95523 57.4069 9.01131C56.8277 10.4387 56.9446 12.1228 57.7472 13.4466C56.1816 14.0698 54.7481 15.0593 53.6743 16.3422C52.1243 14.0191 51.8024 11.0253 52.8121 8.43556C53.6292 6.33868 55.2766 4.59401 57.3451 3.62735C58.5442 3.06688 59.8669 2.77573 61.1958 2.77573ZM6.22659 33.0311C7.21683 31.6866 8.76848 30.7123 10.3998 30.2991C11.2391 30.087 12.1263 30.0161 12.9823 30.1715C13.8194 30.323 14.6119 30.6731 15.3265 31.1201C16.1274 31.6212 16.8458 32.2591 17.4351 32.9886C14.9533 34.9584 11.4786 35.4726 8.50727 34.3243C7.68689 34.0076 6.91608 33.5692 6.22659 33.0311ZM11.8033 27.3102C11.1477 27.3102 10.72 26.6625 10.5702 26.1091C10.387 25.4363 10.5 24.6321 10.969 24.0902C11.3672 23.63 11.9926 23.5221 12.4744 23.9288C13.0135 24.3835 13.1912 25.173 13.0931 25.8387C12.9996 26.475 12.5646 27.3102 11.8033 27.3102ZM19.3476 30.9048C18.2399 29.659 16.8436 28.6285 15.2869 27.983C16.5746 25.7842 15.9525 22.5947 13.5955 21.3396C12.5947 20.8069 11.3867 20.7448 10.3379 21.1848C9.26137 21.6362 8.44266 22.5533 8.01437 23.6088C7.43571 25.0367 7.55267 26.7203 8.35522 28.0446C6.7891 28.6678 5.35608 29.6568 4.28174 30.9402C2.76463 28.6651 2.42155 25.7455 3.36 23.1906C4.14919 21.0425 5.80442 19.2449 7.90131 18.2488C10.0611 17.2233 12.6114 17.0962 14.8659 17.901C17.0569 18.6823 18.8859 20.3097 19.8945 22.3668C21.0563 24.7368 21.0574 27.5676 19.8984 29.9398C19.7358 30.2729 19.5515 30.5951 19.3476 30.9048ZM38.3667 23.6644C39.0222 23.6644 39.4494 24.3121 39.5997 24.8655C39.7824 25.5383 39.6699 26.3425 39.2004 26.8844C38.8022 27.3446 38.1773 27.4525 37.6956 27.0458C37.1559 26.5911 36.9782 25.8016 37.0768 25.1359C37.1704 24.4997 37.6053 23.6644 38.3667 23.6644ZM32.7894 33.0311C33.7691 31.7013 35.3035 30.727 36.9158 30.3111C37.759 30.0935 38.6479 30.0155 39.5095 30.1649C40.3355 30.3089 41.1224 30.6469 41.8298 31.0825C42.654 31.5907 43.3942 32.24 43.9979 32.9886C41.5162 34.9584 38.042 35.4726 35.0707 34.3243C34.2498 34.0076 33.4795 33.5692 32.7894 33.0311ZM55.6186 48.3221C56.6038 46.9863 58.1465 46.0093 59.7683 45.5966C60.6099 45.3823 61.4982 45.306 62.3565 45.4592C63.1919 45.6086 63.9861 45.9537 64.6995 46.3991C65.5076 46.904 66.2328 47.5435 66.827 48.2796C64.3453 50.2494 60.8705 50.7635 57.8992 49.6153C57.0789 49.2986 56.308 48.8602 55.6186 48.3221ZM61.1958 42.6017C60.5397 42.6017 60.112 41.9535 59.9622 41.4001C59.7795 40.7273 59.892 39.9231 60.3615 39.3812C60.7597 38.921 61.3846 38.8131 61.8669 39.2198C62.406 39.6745 62.5837 40.4645 62.4851 41.1297C62.3915 41.7665 61.9566 42.6017 61.1958 42.6017ZM68.7396 46.1963C67.6324 44.95 66.2356 43.919 64.6795 43.274C65.9671 41.0751 65.3445 37.8857 62.9875 36.6306C61.9866 36.0979 60.7786 36.0358 59.7299 36.4757C58.6533 36.9272 57.8352 37.8442 57.4069 38.8998C56.8277 40.3277 56.9446 42.0113 57.7472 43.3356C56.1811 43.9593 54.7486 44.9478 53.6743 46.2312C52.1566 43.9566 51.8141 41.037 52.7525 38.4821C53.5412 36.334 55.1964 34.5364 57.2938 33.5403C59.4531 32.5148 62.0034 32.3878 64.2584 33.1925C66.4489 33.9738 68.2779 35.6012 69.2865 37.6583C70.4483 40.0283 70.45 42.8591 69.291 45.2313C69.1283 45.5639 68.944 45.8861 68.7396 46.1963Z"/>
</mask>
<path d="M61.1958 29.8896C57.3946 29.8896 54.0101 31.6588 51.8497 34.398L48.4568 32.149C49.4181 30.6038 49.9968 28.8417 50.1366 27.0382C50.2736 25.2662 49.9929 23.4697 49.3095 21.8227C48.9402 20.9329 48.4568 20.0889 47.8748 19.3158L50.8144 17.0613C52.0719 19.3261 54.107 21.1559 56.5264 22.176C58.846 23.1541 61.4798 23.3689 63.9365 22.8013C66.3748 22.2381 68.5809 20.8942 70.201 19.0268C71.849 17.1273 72.8309 14.7262 72.9796 12.2384C73.1077 10.0974 72.6215 7.93942 71.5744 6.05408C70.5797 4.26307 69.0994 2.74193 67.321 1.68095C65.4943 0.590528 63.3757 0.007153 61.2359 6.5271e-05C59.095 -0.00702246 56.9708 0.563268 55.1351 1.64278C53.3551 2.68959 51.8687 4.19546 50.8628 5.97339C49.7818 7.88327 49.2805 10.0777 49.4131 12.2564C49.456 12.9652 49.5651 13.6701 49.74 14.3593L45.925 17.2854C44.1427 15.8275 41.9333 14.9034 39.6237 14.663C39.3274 14.6319 39.0306 14.6123 38.7326 14.6035C38.4686 14.5954 38.2029 14.5823 37.9473 14.6597C37.4984 14.7954 37.1392 15.152 37.0066 15.5931C36.8707 16.0456 36.9832 16.5467 37.3012 16.9011C37.4522 17.0695 37.6443 17.2015 37.8582 17.2816C38.0904 17.3688 38.3227 17.3705 38.5677 17.3759C40.4936 17.4174 42.3772 18.0787 43.8932 19.2427C45.3697 20.3768 46.4669 21.9595 46.9865 23.7255C47.6103 25.8436 47.3869 28.1684 46.3644 30.1333C46.2263 30.3977 46.0748 30.6556 45.9105 30.9048C44.8027 29.659 43.407 28.628 41.8504 27.983C43.138 25.7842 42.5153 22.5941 40.1589 21.3396C39.1581 20.8064 37.9495 20.7442 36.9014 21.1842C35.8242 21.6357 35.0061 22.5527 34.5778 23.6088C33.9986 25.0367 34.1155 26.7203 34.9186 28.0441C33.3525 28.6672 31.9189 29.6568 30.8452 30.9397C29.5124 28.9415 29.0757 26.4352 29.6394 24.1142C29.7853 23.5139 29.998 22.9316 30.2687 22.3744C30.4781 21.9421 30.4926 21.4568 30.2459 21.0343C29.7574 20.1963 28.5166 20.1042 27.9051 20.8598C27.7023 21.1101 27.5843 21.4339 27.4601 21.7262C27.3269 22.0397 27.2078 22.3586 27.1036 22.6825C26.8853 23.3607 26.7327 24.0591 26.6469 24.7652H23.5197C23.2618 22.6661 22.403 20.6565 21.0641 18.9985C19.7447 17.3645 17.9775 16.0892 15.9887 15.3483C13.9274 14.5801 11.6523 14.398 9.48972 14.8205C7.41789 15.2251 5.47638 16.1863 3.90803 17.57C2.35917 18.9369 1.18903 20.7012 0.554674 22.647C-0.158213 24.8339 -0.183833 27.223 0.477259 29.4251C1.19627 31.8207 2.72731 33.946 4.77074 35.4366C6.80748 36.9223 9.3115 37.7188 11.85 37.7085C14.373 37.6987 16.8542 36.8967 18.8725 35.4115C20.9204 33.904 22.4448 31.758 23.1493 29.3449C23.322 28.7545 23.4456 28.1504 23.5202 27.5408H26.6497C26.8547 29.2255 27.4417 30.8584 28.364 32.2945C29.2857 33.7284 30.5327 34.9622 31.9869 35.8804C33.4193 36.7854 35.0501 37.3737 36.7387 37.6005C38.4357 37.8284 40.1845 37.6976 41.8236 37.2085C43.4527 36.7222 44.962 35.8815 46.229 34.7687C46.3889 34.628 46.5454 34.483 46.6974 34.3342L50.3967 36.7865C49.4822 38.8103 49.1847 41.0773 49.5362 43.2631C49.8581 45.2662 50.7286 47.1662 52.038 48.737C53.3373 50.2957 55.046 51.5192 56.9664 52.24C58.9028 52.9662 61.0304 53.1734 63.0771 52.8555C65.0933 52.5431 67.0064 51.7078 68.5931 50.4517C70.211 49.1715 71.4792 47.4814 72.2233 45.578C72.9417 43.7407 73.1662 41.7267 72.8782 39.7803C72.6298 38.1032 71.9977 36.4883 71.0414 35.0756C70.0991 33.6848 68.8499 32.4979 67.4012 31.6179C65.9198 30.7183 64.2389 30.1475 62.5063 29.9594C62.0707 29.913 61.633 29.8896 61.1958 29.8896ZM55.6186 18.4331C56.6133 17.0902 58.1571 16.1154 59.7906 15.7016C60.6305 15.489 61.5183 15.4186 62.3743 15.5735C63.2013 15.7234 63.9872 16.0669 64.6945 16.5069C65.5043 17.0117 66.2311 17.6534 66.827 18.3906C64.3459 20.361 60.8705 20.8745 57.8992 19.7269C57.0789 19.4096 56.308 18.9712 55.6186 18.4331ZM61.1958 12.7127C60.5397 12.7127 60.112 12.0645 59.9622 11.5111C59.7795 10.8383 59.892 10.0347 60.3615 9.49218C60.7597 9.03203 61.3846 8.92407 61.8669 9.3308C62.406 9.78551 62.5837 10.575 62.4851 11.2407C62.3915 11.8775 61.9566 12.7127 61.1958 12.7127ZM61.1958 2.77573C63.5606 2.77573 65.8624 3.7135 67.5344 5.35022C69.2063 6.98749 70.1642 9.2403 70.1642 11.5558C70.1642 13.234 69.6697 14.8969 68.7396 16.3073C67.6329 15.061 66.235 14.0305 64.6795 13.385C65.9671 11.1862 65.3445 7.99667 62.9875 6.7416C61.9866 6.20892 60.7786 6.14677 59.7299 6.58676C58.6533 7.03819 57.8352 7.95523 57.4069 9.01131C56.8277 10.4387 56.9446 12.1228 57.7472 13.4466C56.1816 14.0698 54.7481 15.0593 53.6743 16.3422C52.1243 14.0191 51.8024 11.0253 52.8121 8.43556C53.6292 6.33868 55.2766 4.59401 57.3451 3.62735C58.5442 3.06688 59.8669 2.77573 61.1958 2.77573ZM6.22659 33.0311C7.21683 31.6866 8.76848 30.7123 10.3998 30.2991C11.2391 30.087 12.1263 30.0161 12.9823 30.1715C13.8194 30.323 14.6119 30.6731 15.3265 31.1201C16.1274 31.6212 16.8458 32.2591 17.4351 32.9886C14.9533 34.9584 11.4786 35.4726 8.50727 34.3243C7.68689 34.0076 6.91608 33.5692 6.22659 33.0311ZM11.8033 27.3102C11.1477 27.3102 10.72 26.6625 10.5702 26.1091C10.387 25.4363 10.5 24.6321 10.969 24.0902C11.3672 23.63 11.9926 23.5221 12.4744 23.9288C13.0135 24.3835 13.1912 25.173 13.0931 25.8387C12.9996 26.475 12.5646 27.3102 11.8033 27.3102ZM19.3476 30.9048C18.2399 29.659 16.8436 28.6285 15.2869 27.983C16.5746 25.7842 15.9525 22.5947 13.5955 21.3396C12.5947 20.8069 11.3867 20.7448 10.3379 21.1848C9.26137 21.6362 8.44266 22.5533 8.01437 23.6088C7.43571 25.0367 7.55267 26.7203 8.35522 28.0446C6.7891 28.6678 5.35608 29.6568 4.28174 30.9402C2.76463 28.6651 2.42155 25.7455 3.36 23.1906C4.14919 21.0425 5.80442 19.2449 7.90131 18.2488C10.0611 17.2233 12.6114 17.0962 14.8659 17.901C17.0569 18.6823 18.8859 20.3097 19.8945 22.3668C21.0563 24.7368 21.0574 27.5676 19.8984 29.9398C19.7358 30.2729 19.5515 30.5951 19.3476 30.9048ZM38.3667 23.6644C39.0222 23.6644 39.4494 24.3121 39.5997 24.8655C39.7824 25.5383 39.6699 26.3425 39.2004 26.8844C38.8022 27.3446 38.1773 27.4525 37.6956 27.0458C37.1559 26.5911 36.9782 25.8016 37.0768 25.1359C37.1704 24.4997 37.6053 23.6644 38.3667 23.6644ZM32.7894 33.0311C33.7691 31.7013 35.3035 30.727 36.9158 30.3111C37.759 30.0935 38.6479 30.0155 39.5095 30.1649C40.3355 30.3089 41.1224 30.6469 41.8298 31.0825C42.654 31.5907 43.3942 32.24 43.9979 32.9886C41.5162 34.9584 38.042 35.4726 35.0707 34.3243C34.2498 34.0076 33.4795 33.5692 32.7894 33.0311ZM55.6186 48.3221C56.6038 46.9863 58.1465 46.0093 59.7683 45.5966C60.6099 45.3823 61.4982 45.306 62.3565 45.4592C63.1919 45.6086 63.9861 45.9537 64.6995 46.3991C65.5076 46.904 66.2328 47.5435 66.827 48.2796C64.3453 50.2494 60.8705 50.7635 57.8992 49.6153C57.0789 49.2986 56.308 48.8602 55.6186 48.3221ZM61.1958 42.6017C60.5397 42.6017 60.112 41.9535 59.9622 41.4001C59.7795 40.7273 59.892 39.9231 60.3615 39.3812C60.7597 38.921 61.3846 38.8131 61.8669 39.2198C62.406 39.6745 62.5837 40.4645 62.4851 41.1297C62.3915 41.7665 61.9566 42.6017 61.1958 42.6017ZM68.7396 46.1963C67.6324 44.95 66.2356 43.919 64.6795 43.274C65.9671 41.0751 65.3445 37.8857 62.9875 36.6306C61.9866 36.0979 60.7786 36.0358 59.7299 36.4757C58.6533 36.9272 57.8352 37.8442 57.4069 38.8998C56.8277 40.3277 56.9446 42.0113 57.7472 43.3356C56.1811 43.9593 54.7486 44.9478 53.6743 46.2312C52.1566 43.9566 51.8141 41.037 52.7525 38.4821C53.5412 36.334 55.1964 34.5364 57.2938 33.5403C59.4531 32.5148 62.0034 32.3878 64.2584 33.1925C66.4489 33.9738 68.2779 35.6012 69.2865 37.6583C70.4483 40.0283 70.45 42.8591 69.291 45.2313C69.1283 45.5639 68.944 45.8861 68.7396 46.1963Z" stroke="url(#paint0_linear)" stroke-width="2.61628" mask="url(#path-1-inside-1)"/>
<circle cx="32.5946" cy="16.5946" r="0.59461" fill="#4CB449"/>
<defs>
<linearGradient id="paint0_linear" x1="36.5" y1="0" x2="36.5" y2="53" gradientUnits="userSpaceOnUse">
<stop stop-color="#4CB449"/>
<stop offset="1" stop-color="#066797"/>
</linearGradient>
</defs>
</svg>
