<svg width="120" height="116" viewBox="0 0 120 116" fill="none" xmlns="http://www.w3.org/2000/svg">
<circle cx="17.7398" cy="13.1592" r="11.671" fill="#B042BA" fill-opacity="0.43"/>
<path d="M13.9328 34.2179C11.7001 35.0298 12.4951 38.2774 13.1717 39.7997C14.0174 41.4066 15.9626 45.2292 16.9775 47.6649C18.246 50.7095 17.9923 53.2467 19.7683 55.7838C21.5444 58.321 24.589 55.7838 29.1559 53.2467C33.7228 50.7095 41.0805 45.1277 48.692 38.2774C56.3035 31.427 58.8407 24.0693 60.6167 20.0098C62.0375 16.7622 59.3481 14.2589 57.8258 13.4132C54.6967 12.3983 47.7787 10.2671 45.14 9.86112C41.8417 9.35369 41.8417 10.3686 36.7674 18.2338C31.693 26.099 16.7237 33.2031 13.9328 34.2179Z" fill="#B042BA" fill-opacity="0.43"/>
<circle cx="11.8728" cy="103.349" r="11.671" transform="rotate(-90.2674 11.8728 103.349)" fill="#B042BA" fill-opacity="0.43"/>
<path d="M32.948 107.057C33.7703 109.286 37.0142 108.476 38.5333 107.792C40.1362 106.939 43.9498 104.976 46.3807 103.949C49.4193 102.667 51.9576 102.909 54.4865 101.121C57.0153 99.3329 54.464 96.3002 51.9055 91.7452C49.3471 87.1902 43.731 79.8585 36.8452 72.2791C29.9594 64.6996 22.5899 62.1968 18.5222 60.4398C15.268 59.0341 12.7773 61.7352 11.9387 63.2614C10.9384 66.3953 8.83949 73.3232 8.44586 75.9637C7.95383 79.2643 8.96868 79.2596 16.8575 84.2972C24.7463 89.3347 31.9202 104.271 32.948 107.057Z" fill="#B042BA" fill-opacity="0.43"/>
<circle cx="102.305" cy="101.365" r="11.671" transform="rotate(178.552 102.305 101.365)" fill="#B042BA" fill-opacity="0.43"/>
<path d="M105.578 80.2177C107.789 79.3497 106.912 76.1232 106.197 74.6185C105.311 73.0335 103.27 69.2612 102.194 66.8519C100.849 63.8404 101.039 61.2976 99.199 58.8061C97.3595 56.3146 94.38 58.9279 89.8786 61.5797C85.3773 64.2314 78.1629 69.9973 70.7269 77.0378C63.2909 84.0782 60.9405 91.4978 59.2676 95.6008C57.9293 98.8833 60.6811 101.318 62.2242 102.125C65.3781 103.06 72.3477 105.016 74.9958 105.355C78.3059 105.779 78.2802 104.765 83.1542 96.7737C88.0282 88.7828 102.813 81.3028 105.578 80.2177Z" fill="#B042BA" fill-opacity="0.43"/>
<circle cx="106.872" cy="11.8148" r="11.671" transform="rotate(89.2897 106.872 11.8148)" fill="#B042BA" fill-opacity="0.43"/>
<path d="M85.7687 8.27089C84.9291 6.04842 81.6917 6.8836 80.1779 7.579C78.5816 8.44458 74.7834 10.437 72.3604 11.482C69.3318 12.7882 66.7917 12.566 64.2767 14.3733C61.7618 16.1806 64.3365 19.1935 66.9301 23.7286C69.5237 28.2637 75.1962 35.5517 82.1404 43.0777C89.0846 50.6037 96.4733 53.0495 100.554 54.775C103.819 56.1555 106.289 53.4352 107.116 51.9026C108.092 48.7611 110.137 41.8172 110.51 39.1737C110.977 35.8693 109.962 35.8819 102.035 30.9055C94.1071 25.929 86.818 11.049 85.7687 8.27089Z" fill="#B042BA" fill-opacity="0.43"/>
</svg>
