<svg width="110" height="81" viewBox="0 0 110 81" fill="none" xmlns="http://www.w3.org/2000/svg">
<path d="M44.0917 81.0004C54.1867 81.0004 62.3704 79.4751 62.3704 77.5935C62.3704 75.7119 54.1867 74.1865 44.0917 74.1865C33.9966 74.1865 25.813 75.7119 25.813 77.5935C25.813 79.4751 33.9966 81.0004 44.0917 81.0004Z" fill="#F2F2F2"/>
<path d="M104.538 9.46777H7.06934V62.0373H104.538V9.46777Z" fill="#F2F2F2" fill-opacity="0.49"/>
<path d="M104.537 50.708H95.3262V62.0371H104.537V50.708Z" fill="#3F3D56"/>
<path d="M103.222 56.972C103.222 59.1723 101.916 59.9405 100.305 59.9405C98.694 59.9405 97.3882 59.1723 97.3882 56.972C97.3882 54.7717 100.305 51.9727 100.305 51.9727C100.305 51.9727 103.222 54.7717 103.222 56.972Z" fill="#6C63FF"/>
<path d="M100.199 59.6039L100.228 57.7625L101.472 55.4844L100.233 57.4737L100.247 56.6457L101.103 54.9975L100.25 56.4266L100.274 54.9375L101.192 53.6253L100.278 54.7033L100.293 51.9727L100.198 55.5875L100.206 55.4384L99.2734 54.0082L100.191 55.7246L100.104 57.3877L100.102 57.3437L99.0264 55.8385L100.098 57.4995L100.088 57.7076L100.086 57.7107L100.087 57.7277L99.866 61.9472H100.161L100.196 59.7677L101.265 58.1108L100.199 59.6039Z" fill="#3F3D56"/>
<path d="M14.2455 4.72053C13.7795 4.72053 13.3239 4.5821 12.9364 4.32275C12.5489 4.06341 12.2469 3.69478 12.0685 3.2635C11.8902 2.83222 11.8435 2.35765 11.9344 1.8998C12.0254 1.44196 12.2498 1.0214 12.5793 0.691307C12.9089 0.361218 13.3287 0.136424 13.7858 0.0453528C14.2429 -0.0457186 14.7167 0.00102297 15.1473 0.179666C15.5779 0.358309 15.9459 0.66083 16.2048 1.04897C16.4637 1.43712 16.6019 1.89345 16.6019 2.36027C16.6012 2.98603 16.3527 3.58596 15.911 4.02844C15.4692 4.47093 14.8703 4.71982 14.2455 4.72053ZM14.2455 0.214571C13.8219 0.214571 13.4077 0.340413 13.0554 0.576185C12.7031 0.811957 12.4286 1.14707 12.2664 1.53914C12.1043 1.93122 12.0619 2.36265 12.1445 2.77887C12.2272 3.1951 12.4312 3.57742 12.7308 3.8775C13.0304 4.17758 13.4121 4.38194 13.8276 4.46473C14.2432 4.54752 14.6739 4.50503 15.0653 4.34263C15.4567 4.18023 15.7913 3.90521 16.0267 3.55235C16.2621 3.19949 16.3877 2.78464 16.3877 2.36027C16.387 1.79139 16.1611 1.246 15.7596 0.843749C15.358 0.441494 14.8135 0.215222 14.2455 0.214571Z" fill="white"/>
<path d="M1.39241 15.2347C2.16141 15.2347 2.78481 14.6103 2.78481 13.84C2.78481 13.0697 2.16141 12.4453 1.39241 12.4453C0.623401 12.4453 0 13.0697 0 13.84C0 14.6103 0.623401 15.2347 1.39241 15.2347Z" fill="white"/>
<path d="M108.608 25.4261C109.377 25.4261 110 24.8017 110 24.0314C110 23.2611 109.377 22.6367 108.608 22.6367C107.839 22.6367 107.215 23.2611 107.215 24.0314C107.215 24.8017 107.839 25.4261 108.608 25.4261Z" fill="white"/>
<path d="M91.4166 20.1963H20.2969V20.84H91.4166V20.1963Z" fill="#3F3D56"/>
<path d="M91.4166 25.9902H20.2969V26.6339H91.4166V25.9902Z" fill="#3F3D56"/>
<path d="M91.4166 31.7832H20.2969V32.4269H91.4166V31.7832Z" fill="#3F3D56"/>
<path d="M34.1141 17.8359H32.4004V23.2002H34.1141V17.8359Z" fill="#6C63FF"/>
<path d="M53.6078 23.6289H51.894V28.9931H53.6078V23.6289Z" fill="#6C63FF"/>
<path d="M87.0253 29.4229H85.3115V34.7871H87.0253V29.4229Z" fill="#6C63FF"/>
<path d="M45.5744 45.0859H20.2969V45.7297H45.5744V45.0859Z" fill="#3F3D56"/>
<path d="M32.9356 47.4473H20.2969V48.091H32.9356V47.4473Z" fill="#3F3D56"/>
<path d="M24.1529 53.6688H20.1899V49.6992H24.0458V49.9138H20.4042V53.4542H23.9387V51.4361H24.1529V53.6688Z" fill="#3F3D56"/>
<path d="M91.4167 45.0859H66.1392V45.7297H91.4167V45.0859Z" fill="#3F3D56"/>
<path d="M74.2794 47.4473H66.1392V48.091H74.2794V47.4473Z" fill="#3F3D56"/>
<path d="M91.4166 47.4473H83.2764V48.091H91.4166V47.4473Z" fill="#3F3D56"/>
<path d="M69.9952 53.6688H66.0322V49.6992H69.9952V53.6688ZM66.2464 53.4542H69.781V49.9138H66.2464V53.4542Z" fill="#3F3D56"/>
<path d="M40.4895 35.7557H37.6772V34.376H40.0303L40.5469 34.6634L40.4895 35.7557Z" fill="#575A89"/>
<path d="M35.6113 73.7551L35.726 75.8247L37.4479 75.4798L37.1609 73.4102L35.6113 73.7551Z" fill="#FFB9B9"/>
<path d="M43.7607 72.6629C43.7607 72.6629 43.8181 74.3875 43.646 74.8474C43.4738 75.3073 44.1051 75.5373 44.1051 75.5373H45.4825L46.286 75.6523V74.7899C46.286 74.7899 45.3677 73.3527 45.3677 72.5479C45.3677 71.7431 43.7607 72.6629 43.7607 72.6629Z" fill="#FFB9B9"/>
<path d="M35.8977 75.4801C35.8977 75.4801 37.0456 74.9369 37.4473 75.266C37.8491 75.5951 39.3413 78.412 38.7673 78.5845C38.7673 78.5845 38.3656 79.2743 36.9882 78.8144C35.6107 78.3545 35.6107 77.8371 35.6107 77.8371C35.6107 77.8371 35.209 77.4922 35.209 77.3772C35.209 77.2622 35.3812 76.2275 35.3812 76.2275C35.3812 76.2275 35.5085 75.3617 35.7031 75.4209L35.8977 75.4801Z" fill="#2F2E41"/>
<path d="M43.8755 74.6177C43.8755 74.6177 43.7033 74.4452 43.5885 74.6177C43.4737 74.7901 42.8424 76.9747 43.4164 77.0896C43.9903 77.2046 44.8512 77.607 44.966 77.492C45.0619 77.37 45.1392 77.2344 45.1955 77.0896C45.1955 77.0896 46.1138 77.492 46.4008 77.837C46.6877 78.1819 50.1313 78.9292 50.0165 77.837C49.9017 76.7447 48.18 75.8249 48.18 75.8249L46.286 74.5602C46.286 74.5602 45.5399 74.6177 45.3677 74.9626C45.1955 75.3075 43.9903 75.25 43.8755 74.6177Z" fill="#2F2E41"/>
<path d="M27.0593 52.3693C27.0593 52.3693 26.428 53.1741 26.5428 53.2316C26.6575 53.2891 29.1828 53.8639 30.5603 53.519C31.9377 53.1741 34.8073 53.2316 34.9795 52.8292C35.1517 52.4267 37.2752 47.4253 37.2752 47.4253L36.5865 43.6311L35.8404 42.6539L34.1186 41.1592L30.6751 47.5978L27.0593 52.3693Z" fill="#575A89"/>
<path opacity="0.1" d="M27.0593 52.3693C27.0593 52.3693 26.428 53.1741 26.5428 53.2316C26.6575 53.2891 29.1828 53.8639 30.5603 53.519C31.9377 53.1741 34.8073 53.2316 34.9795 52.8292C35.1517 52.4267 37.2752 47.4253 37.2752 47.4253L36.5865 43.6311L35.8404 42.6539L34.1186 41.1592L30.6751 47.5978L27.0593 52.3693Z" fill="black"/>
<path d="M34.3483 50.9904C34.3483 50.9904 33.5448 53.8648 34.3483 57.8315C35.1518 61.7981 34.4057 62.6604 34.5779 62.8329C34.7501 63.0054 34.8075 62.9479 34.8075 63.1203C34.8075 63.2928 34.9796 64.0976 34.8075 64.3851C34.6353 64.6725 34.6353 73.813 35.1518 74.043C35.6684 74.2729 37.1606 74.8478 37.4475 74.043C37.7345 73.2381 37.5049 67.4319 37.6197 67.1445C37.7345 66.857 37.7345 66.1672 37.7345 65.9947C37.7345 65.8222 38.0789 63.8677 38.1363 63.3503C38.1937 62.8329 38.3658 61.7981 38.3658 61.7981C38.3658 61.7981 38.251 57.7165 38.5954 56.5093C38.9398 55.302 39.0545 55.187 39.0545 55.187L41.8094 62.373C41.8094 62.373 41.5798 63.1203 41.8094 63.3503C42.039 63.5802 41.752 63.5227 41.9816 63.9252C42.2112 64.3276 42.4407 64.4425 42.4407 64.6725C42.4407 64.9024 42.2112 64.9024 42.3259 65.0749C42.4407 65.2474 42.6129 65.8797 42.6129 65.8797L42.3259 66.5696C42.3259 66.5696 42.4981 68.0068 42.7277 68.8691C42.9573 69.7314 42.9573 73.2381 43.2442 73.2956C43.5312 73.3531 45.7695 73.9855 45.7695 72.6633C45.7695 71.3411 45.5973 65.5923 45.5973 65.5923C45.5973 65.5923 45.253 64.73 45.253 64.5C45.253 64.2701 45.1956 64.1551 45.3104 64.0401C45.4252 63.9252 45.54 63.6952 45.3678 63.5227C45.1956 63.3503 45.253 63.1203 45.253 62.8904C45.2431 62.5809 45.2046 62.273 45.1382 61.9706C45.0808 61.7406 43.9903 54.5547 43.9903 54.5547C43.9903 54.5547 44.2199 53.6924 43.9903 53.6349C43.7608 53.5774 43.7608 53.1175 43.7608 52.8875C43.7608 52.6576 44.3347 49.7832 43.646 49.7832C42.9573 49.7832 34.3483 50.9904 34.3483 50.9904Z" fill="#2F2E41"/>
<path d="M26.7725 47.541L25.969 47.9434C25.969 47.9434 23.0994 49.4956 24.362 50.3579C25.6247 51.2202 26.8873 49.1507 26.8873 49.1507L28.0926 48.2309L26.7725 47.541Z" fill="#CD8E60"/>
<path d="M37.9642 31.7893C37.9642 31.7893 37.7346 34.4337 36.5294 35.0086C35.3241 35.5835 36.1276 39.8951 36.1276 39.8951L37.792 41.5047L40.719 40.6424L41.0634 38.6878L41.3504 36.6758L40.6616 35.641C40.6616 35.641 39.8007 35.411 40.1451 33.1115C40.4895 30.812 37.9642 31.7893 37.9642 31.7893Z" fill="#CD8E60"/>
<path d="M36.2424 35.9284C36.2424 35.9284 37.5624 40.2974 38.4807 40.2974C39.399 40.2974 39.9155 39.2627 40.0303 37.9979C40.1451 36.7332 40.8912 35.3535 40.8912 35.3535L42.6704 36.9632C42.6704 36.9632 44.1052 49.6679 43.9904 50.0129C43.8757 50.3578 39.399 50.7602 37.6198 51.2776C35.8407 51.795 34.0615 51.3926 34.0615 51.1051C34.0615 50.8491 34.972 48.6323 34.2791 47.0133C34.0261 46.4366 33.855 45.8271 33.7708 45.2028C33.6635 44.3505 33.5639 43.3192 33.6597 42.9994C33.8319 42.4245 34.7502 36.3308 34.7502 36.3308L36.2424 35.9284Z" fill="#6C63FF"/>
<path d="M37.2139 34.3419C37.2139 34.3419 36.1847 34.8933 35.7256 35.1233C35.2665 35.3532 32.4542 36.0431 32.3968 36.388C32.3394 36.7329 32.7986 41.5619 32.569 42.0793C32.3394 42.5966 30.0437 47.1957 30.0437 47.1957L29.9289 48.1729C29.9289 48.1729 26.141 52.7145 26.6001 53.2318C27.0593 53.7492 28.7811 51.6222 28.7811 51.6222C28.7811 51.6222 32.6264 45.471 32.7412 45.2411C32.856 45.0111 35.2091 40.757 35.5534 40.6421C35.8978 40.5271 36.7013 35.6981 36.8161 35.4682C36.9309 35.2382 37.3821 34.2504 37.2139 34.3419Z" fill="#575A89"/>
<path d="M32.684 36.3301H32.3397C32.3397 36.3301 31.077 41.159 30.7327 41.7914C30.3883 42.4238 30.3309 43.4585 30.2735 43.631C30.2161 43.8035 29.9866 43.746 29.9292 44.1484C29.8718 44.5508 29.2978 45.0682 28.8387 45.2981C28.3796 45.5281 26.3134 47.4827 26.3708 47.5402C26.4282 47.5976 27.0595 49.6097 27.4613 49.6097C27.863 49.6097 29.47 47.6551 29.6422 47.6551C29.8144 47.6551 30.5605 46.9653 30.6753 46.9078C30.7901 46.8503 33.7171 41.4465 33.6023 40.1243C33.4875 38.802 32.684 36.3301 32.684 36.3301Z" fill="#575A89"/>
<path d="M47.0043 51.2246L47.7113 51.7798C47.7113 51.7798 50.2131 53.8754 48.8038 54.4674C47.3945 55.0594 46.5705 52.7788 46.5705 52.7788L45.5732 51.6361L47.0043 51.2246Z" fill="#CD8E60"/>
<path d="M40.0747 34.4102C40.0747 34.4102 40.8336 34.7785 41.1779 35.0659C41.5223 35.3533 44.1624 36.1007 44.1624 36.3306C44.1624 36.5606 43.8754 40.1248 43.8754 40.1248L44.2771 46.4484C44.2771 46.4484 44.8511 53.5769 44.9659 53.7494C45.0807 53.9218 45.2528 54.8416 44.9659 54.8416C44.6789 54.8416 43.2441 53.232 43.3015 52.4272C43.3589 51.6223 43.7606 49.7827 43.3589 49.3228C42.9571 48.8629 41.0631 41.1596 41.0631 40.6997C41.0631 40.2398 40.2596 35.6408 40.317 35.5258C40.3744 35.4108 40.0747 34.4102 40.0747 34.4102Z" fill="#575A89"/>
<path d="M43.3018 36.2734L44.1627 36.3309L46.2862 45.0116C46.2862 45.0116 46.4584 46.1038 46.5158 46.2188C46.5732 46.3338 47.4341 51.3352 47.0897 51.5077C46.7454 51.6801 45.5975 52.3125 45.5401 51.9101C45.4827 51.5077 44.9088 49.2656 44.3349 48.7482C43.7609 48.2309 43.187 39.3203 43.187 39.3203L43.3018 36.2734Z" fill="#575A89"/>
<path d="M39.5 34C40.8807 34 42 32.8807 42 31.5C42 30.1193 40.8807 29 39.5 29C38.1193 29 37 30.1193 37 31.5C37 32.8807 38.1193 34 39.5 34Z" fill="#CD8E60"/>
<path d="M38.2162 31.1566C38.3659 31.0795 38.5629 31.152 38.7011 31.3197C38.7742 30.9692 38.928 30.6407 39.1502 30.3602C39.3724 30.0797 39.6569 29.8551 39.9811 29.7041C40.3052 29.5532 40.6601 29.4801 41.0174 29.4907C41.3747 29.5014 41.7246 29.5954 42.0393 29.7653V29.5257C42.0393 28.9978 41.8299 28.4915 41.4572 28.1182C41.0845 27.7449 40.579 27.5352 40.052 27.5352H39.5743C39.084 27.5352 38.5985 27.6319 38.1456 27.8198C37.6926 28.0078 37.281 28.2832 36.9343 28.6305C36.5876 28.9777 36.3126 29.39 36.125 29.8437C35.9374 30.2974 35.8408 30.7837 35.8408 31.2748V31.9422C35.8408 32.5617 36.012 33.169 36.3356 33.6968C36.6591 34.2247 37.1224 34.6524 37.6739 34.9326L39.8229 33.7931C39.5116 33.6174 39.2456 33.3714 39.0459 33.0747C38.8462 32.778 38.7183 32.4387 38.6725 32.0838C38.4906 32.1633 38.2471 32.0346 38.1204 31.7875C37.99 31.5333 38.0329 31.2509 38.2162 31.1566Z" fill="#2F2E41"/>
<path d="M20.9487 50.9792L22.118 52.3016L24.6741 49.792" stroke="#57B894" stroke-width="0.5" stroke-miterlimit="10"/>
</svg>
