<svg width="138" height="138" viewBox="0 0 138 138" fill="none" xmlns="http://www.w3.org/2000/svg">
<path d="M115 99.4424L109.142 95.9329C107.357 94.8649 105.314 94.3011 103.233 94.3H94.4168C92.612 94.2966 90.8152 94.5291 89.0699 94.9895L62.5076 102.12C59.6034 102.922 57.2709 105.085 56.2534 107.92L32.8895 95.2804C30.995 94.2023 28.7769 93.8362 26.6364 94.2472C25.8289 94.3898 25.0462 94.647 24.3106 95.0109C22.6496 95.806 21.2716 97.0908 20.3597 98.6911C19.5623 100.085 19.1434 101.663 19.1434 103.268C19.1187 106.545 20.855 109.581 23.6895 111.223L65.5635 136.277C67.3828 137.404 69.4784 138 71.6178 138H104.024C105.472 138.001 106.906 137.727 108.252 137.195L115 134.53V138H138V92H115V99.4424ZM106.561 132.917C105.756 133.235 104.897 133.399 104.031 133.4H71.6178C70.3218 133.399 69.0516 133.034 67.9533 132.347L26.0221 107.263C24.597 106.44 23.7244 104.915 23.7356 103.27C23.739 102.463 23.9512 101.671 24.3521 100.97C24.8103 100.176 25.4999 99.539 26.3276 99.1459C26.6926 98.9685 27.0789 98.8427 27.4776 98.7731C27.7684 98.7192 28.0638 98.6911 28.3592 98.6911C29.1498 98.6889 29.9269 98.8955 30.6131 99.2886L55.9479 112.979C55.9771 113.119 55.9771 113.257 56.0142 113.397C57.1035 117.412 60.7456 120.201 64.9065 120.205C66.1867 120.089 67.4547 119.862 68.6968 119.529L92.5929 113.135L91.407 108.691L67.5883 115.057C66.5394 115.299 65.1861 115.575 64.9065 115.599C62.8288 115.602 61.0073 114.214 60.4603 112.21C60.3862 111.932 60.3424 111.647 60.3267 111.359C60.3267 111.359 60.3087 110.802 60.3267 110.607C60.5019 108.683 61.8495 107.068 63.7104 106.55L90.2615 99.4469C91.617 99.0842 93.0141 98.9 94.4168 98.9H103.233C104.482 98.9 105.707 99.2392 106.777 99.8804L115 104.804V129.582L106.561 132.917ZM119.6 96.6H133.4V133.4H119.6V96.6Z" fill="white"/>
<path d="M94.8615 18.4001L82.5237 6.06341C78.6503 2.16756 73.3799 -0.0156383 67.887 8.43368e-05H38.9708C37.1863 0.00233043 35.4265 0.418981 33.8284 1.2141L28.6736 3.79261C27.6404 4.31258 26.4927 4.56078 25.337 4.51473L23 4.43275V8.43368e-05H0V50.6001H23V43.7001H26.9104L28.3019 44.6198C32.1955 47.2051 36.7292 48.6651 41.4 48.8358V78.2001H138V18.4001H94.8615ZM18.4 46.0001H4.6V4.60008H18.4V46.0001ZM30.8478 40.7925L28.2895 39.1001H23V9.03499L25.1686 9.11248C27.0946 9.18099 29.006 8.76659 30.7299 7.90745L35.8802 5.32894C36.8393 4.8494 37.8983 4.60008 38.9708 4.60008H67.887C72.1591 4.58773 76.2593 6.28578 79.2714 9.31463L88.3568 18.4001H69.3773L63.7946 12.8185L60.5434 16.0698L76.7905 32.318C78.5953 34.1149 78.6009 37.0348 76.804 38.8406C75.006 40.6454 72.0861 40.651 70.2814 38.8541L56.7116 25.2844L55.1011 26.6646C50.655 30.4403 44.1559 30.5368 39.5986 26.8937L38.2656 25.8133L35.367 29.3868L36.7146 30.4796C38.1241 31.606 39.7064 32.4977 41.4 33.1198V44.2335C37.6355 44.0662 33.9868 42.8769 30.8478 40.7925V40.7925ZM63.5655 38.6396L67.0358 42.111C70.6385 45.6598 76.4222 45.6654 80.0305 42.1222C76.6547 47.35 77.9866 54.3072 83.0549 57.9178C88.1232 61.5284 95.1344 60.5143 98.9718 55.6167C102.809 50.718 102.116 43.6675 97.3973 39.6111C92.6794 35.5546 85.6042 35.9263 81.3378 40.4545C82.9089 37.9871 83.1897 34.9122 82.0913 32.2001H112.891C113.88 37.9871 118.413 42.5197 124.2 43.5092V53.091C118.413 54.0804 113.88 58.613 112.891 64.4001H66.5091C65.5196 58.613 60.987 54.0804 55.2 53.091V43.5092C58.4871 42.9555 61.4598 41.2249 63.5655 38.6396V38.6396ZM82.8 48.3001C82.8 44.4896 85.8895 41.4001 89.7 41.4001C93.5105 41.4001 96.6 44.4896 96.6 48.3001C96.6 52.1106 93.5105 55.2001 89.7 55.2001C85.8895 55.2001 82.8 52.1106 82.8 48.3001ZM133.4 73.6001H46V34.0834C49.6465 34.3574 53.2818 33.4276 56.35 31.4386L60.2739 35.3626C58.5478 37.7075 55.812 39.0945 52.9 39.1001H50.6V57.5001H52.9C57.9806 57.5001 62.1 61.6194 62.1 66.7001V69.0001H117.3V66.7001C117.3 61.6194 121.419 57.5001 126.5 57.5001H128.8V39.1001H126.5C121.419 39.1001 117.3 34.9807 117.3 29.9001V27.6001H78.5773L73.9773 23.0001H133.4V73.6001Z" fill="white"/>
</svg>
