<svg width="40" height="38" viewBox="0 0 40 38" fill="none" xmlns="http://www.w3.org/2000/svg">
<circle cx="5.85791" cy="4.34521" r="3.854" fill="#4CB449"/>
<path d="M4.60106 11.2989C3.86378 11.567 4.1263 12.6394 4.34972 13.1421C4.62899 13.6728 5.27133 14.9351 5.60646 15.7394C6.02537 16.7448 5.94159 17.5826 6.52807 18.4204C7.11455 19.2583 8.11994 18.4204 9.62803 17.5826C11.1361 16.7448 13.5658 14.9016 16.0793 12.6394C18.5928 10.3773 19.4306 7.94761 20.0171 6.60709C20.4863 5.53467 19.5982 4.70801 19.0955 4.42874C18.0622 4.0936 15.7777 3.38983 14.9063 3.25578C13.8172 3.08821 13.8172 3.42334 12.1415 6.02061C10.4659 8.61787 5.52267 10.9638 4.60106 11.2989Z" fill="#49B747"/>
<circle cx="3.92069" cy="34.1281" r="3.854" transform="rotate(-90.2674 3.92069 34.1281)" fill="#259DD9"/>
<path d="M10.8799 35.3523C11.1515 36.0884 12.2227 35.8208 12.7243 35.5951C13.2536 35.3133 14.5129 34.6651 15.3157 34.3262C16.3191 33.9026 17.1573 33.9825 17.9924 33.3921C18.8275 32.8017 17.985 31.8003 17.1401 30.2961C16.2952 28.7919 14.4407 26.3709 12.1669 23.868C9.89303 21.3651 7.45945 20.5386 6.11621 19.9584C5.04161 19.4942 4.21911 20.3861 3.94218 20.8901C3.61188 21.925 2.91877 24.2127 2.78879 25.0847C2.62631 26.1746 2.96143 26.1731 5.56649 27.8366C8.17154 29.5001 10.5405 34.4323 10.8799 35.3523Z" fill="#259DD9"/>
<circle cx="33.7831" cy="33.4731" r="3.854" transform="rotate(178.552 33.7831 33.4731)" fill="#4CB449"/>
<path d="M34.8637 26.4894C35.5939 26.2027 35.3044 25.1373 35.0684 24.6404C34.7758 24.117 34.1017 22.8713 33.7464 22.0757C33.3022 21.0812 33.3648 20.2416 32.7573 19.4188C32.1499 18.5961 31.166 19.459 29.6795 20.3347C28.1931 21.2104 25.8107 23.1144 23.3552 25.4393C20.8997 27.7642 20.1235 30.2143 19.5711 31.5692C19.1292 32.6531 20.0379 33.4571 20.5475 33.7236C21.5889 34.0325 23.8905 34.6783 24.7649 34.7903C25.858 34.9303 25.8495 34.5953 27.459 31.9565C29.0685 29.3178 33.9508 26.8477 34.8637 26.4894Z" fill="#4CB449"/>
<circle cx="35.2911" cy="3.90149" r="3.854" transform="rotate(89.2897 35.2911 3.90149)" fill="#259DD9"/>
<path d="M28.3224 2.73158C28.0451 1.99768 26.9761 2.27347 26.4762 2.50311C25.949 2.78894 24.6948 3.44688 23.8947 3.79195C22.8946 4.2233 22.0558 4.14991 21.2253 4.74673C20.3948 5.34355 21.245 6.33848 22.1015 7.83606C22.9579 9.33365 24.8311 11.7403 27.1242 14.2256C29.4174 16.7108 31.8573 17.5184 33.2049 18.0882C34.2831 18.5441 35.0987 17.6458 35.3717 17.1397C35.694 16.1023 36.3694 13.8093 36.4926 12.9363C36.6467 11.8452 36.3116 11.8493 33.6937 10.206C31.0759 8.56268 28.6689 3.64897 28.3224 2.73158Z" fill="#259DD9"/>
</svg>
