<svg width="202" height="49" viewBox="0 0 202 49" fill="none" xmlns="http://www.w3.org/2000/svg">
<circle cx="7.46739" cy="5.53868" r="4.9127" fill="#4CB449"/>
<path d="M5.86535 14.403C4.92553 14.7448 5.26017 16.1118 5.54496 16.7526C5.90095 17.429 6.71974 19.0381 7.14693 20.0633C7.68092 21.3449 7.57412 22.4129 8.32171 23.4809C9.06929 24.5488 10.3509 23.4809 12.2732 22.4129C14.1956 21.3449 17.2927 18.9953 20.4967 16.1118C23.7006 13.2283 24.7686 10.1311 25.5162 8.42236C26.1142 7.05535 24.9822 6.00161 24.3414 5.64562C23.0242 5.21843 20.1122 4.32132 19.0015 4.15045C17.6131 3.93685 17.6131 4.36404 15.4772 7.67477C13.3412 10.9855 7.04013 13.9758 5.86535 14.403Z" fill="#49B747"/>
<circle cx="4.99775" cy="43.5029" r="4.9127" transform="rotate(-90.2674 4.99775 43.5029)" fill="#259DD9"/>
<path d="M13.8691 45.063C14.2152 46.0012 15.5807 45.6602 16.2201 45.3724C16.8948 45.0132 18.5001 44.187 19.5233 43.755C20.8024 43.215 21.8709 43.3168 22.9353 42.5643C23.9998 41.8117 22.9259 40.5351 21.8489 38.6178C20.772 36.7004 18.408 33.6143 15.5096 30.4238C12.6111 27.2334 9.509 26.1799 7.79677 25.4403C6.42698 24.8486 5.37853 25.9856 5.02554 26.628C4.6045 27.9472 3.72099 30.8633 3.5553 31.9748C3.34819 33.3642 3.77538 33.3622 7.09604 35.4827C10.4167 37.6031 13.4364 43.8902 13.8691 45.063Z" fill="#259DD9"/>
<circle cx="43.0633" cy="42.6681" r="4.9127" transform="rotate(178.552 43.0633 42.6681)" fill="#4CB449"/>
<path d="M44.4408 33.7663C45.3717 33.4009 45.0026 32.0428 44.7017 31.4094C44.3288 30.7422 43.4696 29.1543 43.0166 28.1402C42.4504 26.8725 42.5302 25.8022 41.7559 24.7534C40.9815 23.7047 39.7274 24.8047 37.8326 25.9209C35.9378 27.0371 32.901 29.4642 29.771 32.4277C26.6409 35.3913 25.6515 38.5145 24.9474 40.2416C24.384 41.6233 25.5424 42.6481 26.1919 42.9877C27.5195 43.3815 30.4532 44.2048 31.5679 44.3475C32.9612 44.526 32.9504 44.0989 35.0021 40.7353C37.0537 37.3716 43.2772 34.223 44.4408 33.7663Z" fill="#4CB449"/>
<circle cx="44.9859" cy="4.97323" r="4.9127" transform="rotate(89.2897 44.9859 4.97323)" fill="#259DD9"/>
<path d="M36.1027 3.48145C35.7494 2.54594 34.3866 2.89749 33.7494 3.19021C33.0775 3.55456 31.4787 4.39323 30.4588 4.8331C29.1839 5.38294 28.1147 5.28939 27.0561 6.05015C25.9974 6.81092 27.0812 8.07916 28.173 9.98813C29.2647 11.8971 31.6525 14.9649 34.5755 18.1328C37.4985 21.3008 40.6087 22.3303 42.3266 23.0566C43.7009 23.6377 44.7405 22.4926 45.0886 21.8475C45.4994 20.5251 46.3603 17.6022 46.5174 16.4895C46.7138 15.0986 46.2866 15.1039 42.9497 13.0091C39.6127 10.9144 36.5445 4.65084 36.1027 3.48145Z" fill="#259DD9"/>
<path d="M66.1534 32.5887H76.5174V36.5098H61.2724V12.8207H66.1534V32.5887ZM89.1247 36.8352C86.5432 36.8352 84.439 36.0434 82.812 34.4597C81.1958 32.8761 80.3877 30.7665 80.3877 28.1307V27.6752C80.3877 25.9072 80.7294 24.329 81.4127 22.9406C82.0961 21.5414 83.0614 20.4676 84.3088 19.7191C85.567 18.9599 86.9988 18.5802 88.6041 18.5802C91.012 18.5802 92.9048 19.3395 94.2823 20.858C95.6707 22.3766 96.3649 24.5296 96.3649 27.3172V29.2371H85.1548C85.3067 30.3868 85.7622 31.3088 86.5215 32.003C87.2916 32.6972 88.2624 33.0443 89.4338 33.0443C91.2452 33.0443 92.6607 32.388 93.6803 31.0756L95.9906 33.6625C95.2856 34.6604 94.3311 35.4414 93.1271 36.0054C91.9231 36.5586 90.589 36.8352 89.1247 36.8352ZM88.5878 22.3874C87.655 22.3874 86.8957 22.702 86.31 23.3311C85.7351 23.9602 85.3663 24.8605 85.2036 26.0319H91.7442V25.6577C91.7225 24.6164 91.4405 23.8138 90.8981 23.2497C90.3558 22.6749 89.5857 22.3874 88.5878 22.3874ZM105.376 18.9056L105.523 20.9394C106.781 19.3666 108.468 18.5802 110.583 18.5802C112.448 18.5802 113.837 19.128 114.748 20.2235C115.659 21.319 116.126 22.9569 116.147 25.137V36.5098H111.445V25.2509C111.445 24.253 111.228 23.5317 110.794 23.087C110.361 22.6315 109.639 22.4037 108.63 22.4037C107.307 22.4037 106.315 22.9677 105.653 24.0958V36.5098H100.951V18.9056H105.376ZM120.994 27.5775C120.994 24.8333 121.607 22.6477 122.832 21.0207C124.069 19.3937 125.755 18.5802 127.892 18.5802C129.606 18.5802 131.021 19.2202 132.139 20.5001V11.5191H136.857V36.5098H132.61L132.383 34.6387C131.211 36.103 129.704 36.8352 127.86 36.8352C125.788 36.8352 124.123 36.0217 122.865 34.3947C121.617 32.7568 120.994 30.4844 120.994 27.5775ZM125.696 27.9192C125.696 29.5679 125.983 30.8315 126.558 31.7101C127.133 32.5887 127.968 33.028 129.064 33.028C130.517 33.028 131.542 32.4152 132.139 31.1895V24.2422C131.553 23.0165 130.539 22.4037 129.096 22.4037C126.829 22.4037 125.696 24.2422 125.696 27.9192ZM152.702 36.5098C152.485 36.0867 152.328 35.5607 152.23 34.9316C151.091 36.2006 149.611 36.8352 147.788 36.8352C146.064 36.8352 144.632 36.3362 143.493 35.3383C142.365 34.3404 141.801 33.0822 141.801 31.5637C141.801 29.6981 142.49 28.2663 143.867 27.2684C145.256 26.2705 147.257 25.7662 149.871 25.7553H152.035V24.7466C152.035 23.9331 151.823 23.2823 151.4 22.7942C150.988 22.3061 150.332 22.062 149.432 22.062C148.64 22.062 148.016 22.2518 147.561 22.6315C147.116 23.0111 146.894 23.5317 146.894 24.1934H142.192C142.192 23.1738 142.506 22.2301 143.135 21.3624C143.764 20.4947 144.654 19.8168 145.803 19.3287C146.953 18.8297 148.244 18.5802 149.676 18.5802C151.845 18.5802 153.564 19.128 154.833 20.2235C156.113 21.3082 156.753 22.8376 156.753 24.8116V32.4423C156.764 34.1127 156.997 35.3763 157.453 36.2332V36.5098H152.702ZM148.813 33.2395C149.508 33.2395 150.148 33.0876 150.733 32.7839C151.319 32.4694 151.753 32.0518 152.035 31.5312V28.5049H150.278C147.924 28.5049 146.671 29.3184 146.519 30.9454L146.503 31.222C146.503 31.8077 146.709 32.2904 147.121 32.67C147.534 33.0497 148.098 33.2395 148.813 33.2395ZM178.228 27.8704C178.228 30.6905 177.626 32.8924 176.422 34.476C175.218 36.0488 173.536 36.8352 171.378 36.8352C169.469 36.8352 167.945 36.103 166.806 34.6387L166.595 36.5098H162.364V11.5191H167.066V20.4838C168.151 19.2148 169.577 18.5802 171.345 18.5802C173.493 18.5802 175.174 19.372 176.389 20.9557C177.615 22.5284 178.228 24.7466 178.228 27.6101V27.8704ZM173.526 27.5287C173.526 25.7499 173.244 24.4537 172.68 23.6402C172.116 22.8159 171.275 22.4037 170.158 22.4037C168.661 22.4037 167.63 23.0165 167.066 24.2422V31.1895C167.641 32.426 168.683 33.0443 170.19 33.0443C171.709 33.0443 172.707 32.2958 173.184 30.799C173.412 30.0831 173.526 28.993 173.526 27.5287ZM193.34 36.5098C193.124 36.0867 192.966 35.5607 192.869 34.9316C191.73 36.2006 190.249 36.8352 188.427 36.8352C186.702 36.8352 185.271 36.3362 184.132 35.3383C183.004 34.3404 182.44 33.0822 182.44 31.5637C182.44 29.6981 183.128 28.2663 184.506 27.2684C185.894 26.2705 187.895 25.7662 190.51 25.7553H192.673V24.7466C192.673 23.9331 192.462 23.2823 192.039 22.7942C191.627 22.3061 190.97 22.062 190.07 22.062C189.278 22.062 188.655 22.2518 188.199 22.6315C187.754 23.0111 187.532 23.5317 187.532 24.1934H182.83C182.83 23.1738 183.145 22.2301 183.774 21.3624C184.403 20.4947 185.292 19.8168 186.442 19.3287C187.592 18.8297 188.883 18.5802 190.314 18.5802C192.484 18.5802 194.203 19.128 195.472 20.2235C196.752 21.3082 197.392 22.8376 197.392 24.8116V32.4423C197.403 34.1127 197.636 35.3763 198.091 36.2332V36.5098H193.34ZM189.452 33.2395C190.146 33.2395 190.786 33.0876 191.372 32.7839C191.958 32.4694 192.391 32.0518 192.673 31.5312V28.5049H190.916C188.563 28.5049 187.31 29.3184 187.158 30.9454L187.142 31.222C187.142 31.8077 187.348 32.2904 187.76 32.67C188.172 33.0497 188.736 33.2395 189.452 33.2395Z" fill="#259DD9"/>
</svg>
