<svg width="184" height="45" viewBox="0 0 184 45" fill="none" xmlns="http://www.w3.org/2000/svg">
<circle cx="6.79798" cy="5.04238" r="4.47229" fill="white"/>
<path d="M5.33955 13.112C4.48398 13.4231 4.78861 14.6676 5.04788 15.2509C5.37196 15.8667 6.11734 17.3315 6.50623 18.2649C6.99235 19.4316 6.89513 20.4038 7.5757 21.376C8.25626 22.3483 9.42295 21.376 11.173 20.4038C12.923 19.4316 15.7425 17.2926 18.6592 14.6676C21.5759 12.0426 22.5482 9.22306 23.2287 7.66748C23.7732 6.42302 22.7426 5.46374 22.1593 5.13966C20.9602 4.75077 18.3092 3.93409 17.2981 3.77853C16.0342 3.58408 16.0342 3.97298 14.0897 6.98691C12.1452 10.0009 6.40901 12.7231 5.33955 13.112Z" fill="white"/>
<circle cx="4.54952" cy="39.6034" r="4.47229" transform="rotate(-90.2674 4.54952 39.6034)" fill="white"/>
<path d="M12.6255 41.0239C12.9406 41.878 14.1836 41.5676 14.7658 41.3056C15.38 40.9787 16.8414 40.2265 17.7729 39.8332C18.9373 39.3416 19.91 39.4343 20.879 38.7492C21.8481 38.0641 20.8704 36.902 19.89 35.1565C18.9096 33.4111 16.7575 30.6016 14.1189 27.6972C11.4803 24.7927 8.65629 23.8337 7.09755 23.1604C5.85056 22.6217 4.89611 23.6568 4.57475 24.2416C4.19146 25.4425 3.38716 28.0972 3.23632 29.1091C3.04777 30.3739 3.43666 30.3721 6.45964 32.3025C9.48262 34.2329 12.2316 39.9563 12.6255 41.0239Z" fill="white"/>
<circle cx="39.2028" cy="38.8428" r="4.47229" transform="rotate(178.552 39.2028 38.8428)" fill="white"/>
<path d="M40.4567 30.7388C41.3041 30.4062 40.9682 29.1698 40.6942 28.5932C40.3547 27.9859 39.5726 26.5403 39.1602 25.6171C38.6448 24.4631 38.7174 23.4887 38.0125 22.534C37.3076 21.5792 36.1658 22.5806 34.4409 23.5968C32.716 24.6129 29.9515 26.8224 27.102 29.5203C24.2525 32.2182 23.3519 35.0614 22.7108 36.6336C22.198 37.8915 23.2525 38.8244 23.8438 39.1336C25.0523 39.4921 27.7231 40.2415 28.7378 40.3715C30.0062 40.534 29.9964 40.1452 31.8641 37.0831C33.7318 34.021 39.3974 31.1546 40.4567 30.7388Z" fill="white"/>
<circle cx="40.9531" cy="4.52743" r="4.47229" transform="rotate(89.2897 40.9531 4.52743)" fill="white"/>
<path d="M32.8663 3.16933C32.5446 2.31768 31.304 2.63772 30.7239 2.9042C30.1122 3.23588 28.6567 3.99937 27.7283 4.39981C26.5677 4.90035 25.5943 4.81519 24.6306 5.50776C23.6669 6.20033 24.6535 7.35487 25.6474 9.09271C26.6412 10.8305 28.8149 13.6233 31.4759 16.5072C34.137 19.3912 36.9683 20.3284 38.5322 20.9896C39.7833 21.5186 40.7297 20.4762 41.0465 19.8889C41.4205 18.6851 42.2043 16.0242 42.3473 15.0112C42.5261 13.745 42.1372 13.7498 39.0994 11.8429C36.0616 9.9359 33.2684 4.23389 32.8663 3.16933Z" fill="white"/>
<path d="M60.2232 29.446H69.6581V33.0155H55.7797V11.4501H60.2232V29.446ZM81.1351 33.3117C78.7851 33.3117 76.8694 32.5909 75.3883 31.1493C73.917 29.7076 73.1814 27.7871 73.1814 25.3876V24.9729C73.1814 23.3634 73.4924 21.9267 74.1145 20.6628C74.7366 19.389 75.6154 18.4114 76.751 17.7301C77.8964 17.0389 79.1998 16.6933 80.6612 16.6933C82.8533 16.6933 84.5763 17.3845 85.8304 18.7669C87.0943 20.1493 87.7262 22.1094 87.7262 24.6471V26.3948H77.5211C77.6594 27.4415 78.0741 28.2808 78.7653 28.9127C79.4664 29.5447 80.3501 29.8607 81.4166 29.8607C83.0656 29.8607 84.3542 29.2633 85.2823 28.0685L87.3856 30.4235C86.7437 31.332 85.8748 32.0429 84.7788 32.5564C83.6827 33.06 82.4682 33.3117 81.1351 33.3117ZM80.6464 20.1592C79.7972 20.1592 79.106 20.4455 78.5728 21.0183C78.0494 21.591 77.7137 22.4105 77.5656 23.477H83.5198V23.1363C83.5 22.1884 83.2433 21.4577 82.7496 20.9442C82.2559 20.4209 81.5548 20.1592 80.6464 20.1592ZM95.93 16.9895L96.0633 18.841C97.2087 17.4092 98.7442 16.6933 100.67 16.6933C102.368 16.6933 103.632 17.192 104.461 18.1893C105.291 19.1866 105.715 20.6776 105.735 22.6623V33.0155H101.455V22.766C101.455 21.8576 101.257 21.2009 100.862 20.7961C100.467 20.3814 99.8106 20.174 98.8923 20.174C97.6876 20.174 96.7841 20.6875 96.1818 21.7144V33.0155H91.9013V16.9895H95.93ZM110.147 24.884C110.147 22.3858 110.705 20.3962 111.821 18.915C112.947 17.4339 114.482 16.6933 116.427 16.6933C117.987 16.6933 119.276 17.2759 120.293 18.4411V10.2652H124.588V33.0155H120.723L120.515 31.3122C119.449 32.6452 118.076 33.3117 116.398 33.3117C114.512 33.3117 112.996 32.5712 111.851 31.09C110.715 29.599 110.147 27.5303 110.147 24.884ZM114.428 25.1951C114.428 26.696 114.689 27.8463 115.213 28.6461C115.736 29.446 116.496 29.8459 117.494 29.8459C118.817 29.8459 119.75 29.288 120.293 28.1722V21.8477C119.76 20.7319 118.837 20.174 117.523 20.174C115.46 20.174 114.428 21.8477 114.428 25.1951ZM139.013 33.0155C138.815 32.6304 138.672 32.1515 138.583 31.5788C137.547 32.7341 136.199 33.3117 134.54 33.3117C132.97 33.3117 131.666 32.8575 130.63 31.9491C129.603 31.0407 129.089 29.8952 129.089 28.5128C129.089 26.8145 129.716 25.5111 130.97 24.6026C132.234 23.6942 134.056 23.235 136.436 23.2252H138.406V22.3068C138.406 21.5663 138.213 20.9738 137.828 20.5295C137.453 20.0851 136.855 19.863 136.036 19.863C135.315 19.863 134.747 20.0358 134.332 20.3814C133.928 20.727 133.725 21.2009 133.725 21.8033H129.445C129.445 20.8751 129.731 20.016 130.304 19.2261C130.876 18.4361 131.686 17.819 132.733 17.3746C133.78 16.9204 134.955 16.6933 136.258 16.6933C138.233 16.6933 139.798 17.192 140.953 18.1893C142.118 19.1767 142.701 20.569 142.701 22.3661V29.3127C142.711 30.8333 142.923 31.9837 143.338 32.7637V33.0155H139.013ZM135.473 30.0384C136.105 30.0384 136.688 29.9002 137.221 29.6237C137.754 29.3373 138.149 28.9572 138.406 28.4832V25.7283H136.806C134.663 25.7283 133.523 26.4689 133.385 27.95L133.37 28.2018C133.37 28.735 133.557 29.1744 133.933 29.52C134.308 29.8656 134.821 30.0384 135.473 30.0384ZM162.25 25.1506C162.25 27.718 161.702 29.7224 160.606 31.1641C159.51 32.5959 157.98 33.3117 156.015 33.3117C154.277 33.3117 152.889 32.6452 151.853 31.3122L151.66 33.0155H147.809V10.2652H152.09V18.4263C153.077 17.271 154.376 16.6933 155.985 16.6933C157.94 16.6933 159.471 17.4141 160.577 18.8558C161.692 20.2876 162.25 22.3068 162.25 24.9137V25.1506ZM157.97 24.8396C157.97 23.2202 157.713 22.0402 157.2 21.2997C156.686 20.5492 155.921 20.174 154.904 20.174C153.541 20.174 152.603 20.7319 152.09 21.8477V28.1722C152.613 29.2978 153.561 29.8607 154.933 29.8607C156.316 29.8607 157.224 29.1794 157.659 27.8167C157.866 27.165 157.97 26.1726 157.97 24.8396ZM176.008 33.0155C175.811 32.6304 175.668 32.1515 175.579 31.5788C174.542 32.7341 173.194 33.3117 171.535 33.3117C169.965 33.3117 168.662 32.8575 167.625 31.9491C166.598 31.0407 166.085 29.8952 166.085 28.5128C166.085 26.8145 166.712 25.5111 167.966 24.6026C169.23 23.6942 171.051 23.235 173.431 23.2252H175.401V22.3068C175.401 21.5663 175.209 20.9738 174.823 20.5295C174.448 20.0851 173.851 19.863 173.031 19.863C172.31 19.863 171.743 20.0358 171.328 20.3814C170.923 20.727 170.721 21.2009 170.721 21.8033H166.44C166.44 20.8751 166.726 20.016 167.299 19.2261C167.872 18.4361 168.682 17.819 169.728 17.3746C170.775 16.9204 171.95 16.6933 173.253 16.6933C175.228 16.6933 176.793 17.192 177.949 18.1893C179.114 19.1767 179.696 20.569 179.696 22.3661V29.3127C179.706 30.8333 179.919 31.9837 180.333 32.7637V33.0155H176.008ZM172.468 30.0384C173.1 30.0384 173.683 29.9002 174.216 29.6237C174.749 29.3373 175.144 28.9572 175.401 28.4832V25.7283H173.801C171.659 25.7283 170.518 26.4689 170.38 27.95L170.365 28.2018C170.365 28.735 170.553 29.1744 170.928 29.52C171.303 29.8656 171.817 30.0384 172.468 30.0384Z" fill="white"/>
</svg>
