<svg width="216" height="52" viewBox="0 0 216 52" fill="none" xmlns="http://www.w3.org/2000/svg">
<circle cx="7.99976" cy="5.93384" r="5.26294" fill="#4CB449"/>
<path d="M6.28348 15.4302C5.27665 15.7963 5.63514 17.2608 5.94024 17.9473C6.32162 18.6719 7.19877 20.3957 7.65642 21.494C8.22848 22.867 8.11407 24.0111 8.91495 25.1552C9.71583 26.2993 11.0888 25.1552 13.1482 24.0111C15.2076 22.867 18.5255 20.3499 21.9579 17.2608C25.3902 14.1717 26.5344 10.8537 27.3352 9.02316C27.9759 7.55869 26.7632 6.42983 26.0767 6.04846C24.6656 5.59081 21.546 4.62975 20.3561 4.44669C18.8688 4.21787 18.8688 4.67551 16.5805 8.22228C14.2923 11.769 7.54201 14.9726 6.28348 15.4302Z" fill="#49B747"/>
<circle cx="5.35404" cy="46.6046" r="5.26294" transform="rotate(-90.2674 5.35404 46.6046)" fill="#259DD9"/>
<path d="M14.8579 48.2761C15.2287 49.2812 16.6915 48.9159 17.3765 48.6076C18.0994 48.2229 19.8191 47.3377 20.9153 46.8749C22.2855 46.2964 23.4302 46.4055 24.5705 45.5993C25.7109 44.7931 24.5604 43.4255 23.4067 41.3714C22.2529 39.3174 19.7204 36.0112 16.6153 32.5933C13.5102 29.1754 10.187 28.0468 8.35267 27.2545C6.88523 26.6206 5.76204 27.8387 5.38387 28.5269C4.93282 29.9401 3.98633 33.0642 3.80882 34.2549C3.58694 35.7433 4.04459 35.7412 7.60199 38.0128C11.1594 40.2845 14.3944 47.0197 14.8579 48.2761Z" fill="#259DD9"/>
<circle cx="46.1334" cy="45.7096" r="5.26294" transform="rotate(178.552 46.1334 45.7096)" fill="#4CB449"/>
<path d="M47.6091 36.1731C48.6064 35.7816 48.211 34.3267 47.8886 33.6482C47.4891 32.9334 46.5687 31.2323 46.0834 30.1459C45.4768 28.7878 45.5623 27.6412 44.7328 26.5177C43.9032 25.3942 42.5596 26.5726 40.5298 27.7684C38.5 28.9642 35.2467 31.5643 31.8935 34.7391C28.5403 37.914 27.4803 41.2598 26.726 43.11C26.1225 44.5902 27.3634 45.688 28.0593 46.0519C29.4814 46.4738 32.6244 47.3557 33.8185 47.5087C35.3111 47.6998 35.2996 47.2423 37.4975 43.6389C39.6954 40.0354 46.3626 36.6624 47.6091 36.1731Z" fill="#4CB449"/>
<circle cx="48.1931" cy="5.32778" r="5.26294" transform="rotate(89.2897 48.1931 5.32778)" fill="#259DD9"/>
<path d="M38.6765 3.72953C38.2979 2.72733 36.838 3.10394 36.1554 3.41753C35.4356 3.80786 33.7228 4.70632 32.6302 5.17755C31.2644 5.76658 30.119 5.66636 28.9849 6.48137C27.8508 7.29637 29.0118 8.65502 30.1814 10.7001C31.351 12.7452 33.909 16.0316 37.0404 19.4254C40.1718 22.8192 43.5037 23.9221 45.3441 24.7002C46.8164 25.3227 47.9301 24.0961 48.3029 23.4049C48.7431 21.9883 49.6654 18.857 49.8337 17.6649C50.044 16.1748 49.5864 16.1805 46.0116 13.9364C42.4367 11.6923 39.1497 4.98229 38.6765 3.72953Z" fill="#259DD9"/>
<path d="M70.8696 34.7017H81.9725V38.9023H65.6406V13.5244H70.8696V34.7017ZM95.4786 39.2509C92.713 39.2509 90.4587 38.4027 88.7158 36.7062C86.9844 35.0097 86.1187 32.7496 86.1187 29.9259V29.4379C86.1187 27.5439 86.4847 25.8532 87.2168 24.3658C87.9488 22.8668 88.983 21.7165 90.3193 20.9147C91.6672 20.1013 93.2011 19.6946 94.9208 19.6946C97.5004 19.6946 99.5281 20.508 101.004 22.1348C102.491 23.7616 103.235 26.0681 103.235 29.0544V31.1112H91.2257C91.3883 32.3429 91.8764 33.3306 92.6898 34.0743C93.5148 34.8179 94.5548 35.1898 95.8097 35.1898C97.7503 35.1898 99.2667 34.4868 100.359 33.0808L102.834 35.8521C102.079 36.9211 101.056 37.7578 99.7663 38.362C98.4765 38.9546 97.0473 39.2509 95.4786 39.2509ZM94.9034 23.7732C93.9041 23.7732 93.0907 24.1102 92.4632 24.7841C91.8473 25.4581 91.4522 26.4225 91.2779 27.6775H98.2848V27.2766C98.2615 26.1611 97.9594 25.3012 97.3784 24.697C96.7974 24.0811 95.9724 23.7732 94.9034 23.7732ZM112.889 20.0432L113.046 22.2219C114.394 20.537 116.201 19.6946 118.467 19.6946C120.465 19.6946 121.953 20.2814 122.929 21.455C123.905 22.6286 124.404 24.3832 124.428 26.7188V38.9023H119.39V26.8408C119.39 25.7718 119.158 24.9991 118.693 24.5227C118.228 24.0346 117.456 23.7906 116.375 23.7906C114.957 23.7906 113.894 24.3948 113.185 25.6033V38.9023H108.148V20.0432H112.889ZM129.62 29.3333C129.62 26.3935 130.276 24.0521 131.589 22.3091C132.914 20.5661 134.721 19.6946 137.01 19.6946C138.846 19.6946 140.362 20.3802 141.559 21.7513V12.13H146.614V38.9023H142.065L141.821 36.8979C140.566 38.4666 138.95 39.2509 136.975 39.2509C134.756 39.2509 132.972 38.3794 131.624 36.6365C130.288 34.8818 129.62 32.4475 129.62 29.3333ZM134.657 29.6994C134.657 31.4656 134.965 32.8193 135.581 33.7605C136.196 34.7017 137.091 35.1723 138.265 35.1723C139.822 35.1723 140.92 34.5158 141.559 33.2028V25.7602C140.932 24.4471 139.845 23.7906 138.3 23.7906C135.871 23.7906 134.657 25.7602 134.657 29.6994ZM163.588 38.9023C163.356 38.4492 163.187 37.8856 163.083 37.2116C161.863 38.5712 160.277 39.2509 158.325 39.2509C156.477 39.2509 154.943 38.7164 153.723 37.6474C152.515 36.5784 151.91 35.2304 151.91 33.6037C151.91 31.605 152.648 30.0712 154.124 29.0022C155.611 27.9331 157.755 27.3928 160.556 27.3812H162.874V26.3005C162.874 25.429 162.647 24.7318 162.194 24.2089C161.752 23.686 161.049 23.4246 160.085 23.4246C159.237 23.4246 158.569 23.6279 158.081 24.0346C157.604 24.4413 157.366 24.9991 157.366 25.7079H152.329C152.329 24.6156 152.666 23.6047 153.34 22.6751C154.014 21.7455 154.966 21.0193 156.198 20.4964C157.43 19.9618 158.813 19.6946 160.346 19.6946C162.67 19.6946 164.512 20.2814 165.872 21.455C167.243 22.617 167.928 24.2554 167.928 26.3702V34.5449C167.94 36.3343 168.19 37.6881 168.678 38.606V38.9023H163.588ZM159.423 35.3989C160.166 35.3989 160.852 35.2363 161.479 34.9109C162.107 34.5739 162.572 34.1265 162.874 33.5688V30.3268H160.991C158.47 30.3268 157.128 31.1983 156.965 32.9413L156.948 33.2376C156.948 33.8651 157.168 34.3822 157.61 34.7889C158.051 35.1956 158.656 35.3989 159.423 35.3989ZM190.934 29.6471C190.934 32.6682 190.289 35.0271 188.999 36.7236C187.709 38.4085 185.908 39.2509 183.596 39.2509C181.551 39.2509 179.918 38.4666 178.698 36.8979L178.471 38.9023H173.94V12.13H178.977V21.7339C180.139 20.3743 181.667 19.6946 183.561 19.6946C185.862 19.6946 187.663 20.5428 188.964 22.2393C190.277 23.9242 190.934 26.3005 190.934 29.3682V29.6471ZM185.897 29.281C185.897 27.3754 185.594 25.9868 184.99 25.1153C184.386 24.2322 183.485 23.7906 182.289 23.7906C180.685 23.7906 179.581 24.4471 178.977 25.7602V33.2028C179.593 34.5274 180.708 35.1898 182.323 35.1898C183.95 35.1898 185.019 34.388 185.531 32.7844C185.775 32.0175 185.897 30.8497 185.897 29.281ZM207.124 38.9023C206.892 38.4492 206.723 37.8856 206.619 37.2116C205.399 38.5712 203.812 39.2509 201.86 39.2509C200.013 39.2509 198.479 38.7164 197.259 37.6474C196.05 36.5784 195.446 35.2304 195.446 33.6037C195.446 31.605 196.184 30.0712 197.66 29.0022C199.147 27.9331 201.291 27.3928 204.091 27.3812H206.409V26.3005C206.409 25.429 206.183 24.7318 205.73 24.2089C205.288 23.686 204.585 23.4246 203.621 23.4246C202.772 23.4246 202.104 23.6279 201.616 24.0346C201.14 24.4413 200.902 24.9991 200.902 25.7079H195.864C195.864 24.6156 196.201 23.6047 196.875 22.6751C197.549 21.7455 198.502 21.0193 199.734 20.4964C200.966 19.9618 202.348 19.6946 203.882 19.6946C206.206 19.6946 208.048 20.2814 209.407 21.455C210.779 22.617 211.464 24.2554 211.464 26.3702V34.5449C211.476 36.3343 211.726 37.6881 212.214 38.606V38.9023H207.124ZM202.958 35.3989C203.702 35.3989 204.388 35.2363 205.015 34.9109C205.643 34.5739 206.107 34.1265 206.409 33.5688V30.3268H204.527C202.006 30.3268 200.663 31.1983 200.501 32.9413L200.483 33.2376C200.483 33.8651 200.704 34.3822 201.146 34.7889C201.587 35.1956 202.191 35.3989 202.958 35.3989Z" fill="#259DD9"/>
</svg>
