<svg width="32" height="32" viewBox="0 0 32 32" fill="none" xmlns="http://www.w3.org/2000/svg">
<path d="M0.92319 8.83673C0.911561 8.89995 0.905006 8.96402 0.902892 9.02808V10.3441C0.904584 10.8864 1.24141 11.3713 1.7495 11.5618V13.4982C1.75183 14.1465 2.26162 14.6793 2.90905 14.7099V25.8967C2.26162 25.9276 1.75183 26.4604 1.7495 27.1085V29.0391C1.24035 29.2347 0.903738 29.7232 0.902892 30.2682V31.5555C0.902892 31.7955 1.09784 31.9902 1.33783 31.9902H30.6631C30.9031 31.9902 31.0978 31.7955 31.0978 31.5555V30.2682C31.097 29.7229 30.7604 29.2345 30.2514 29.0391V27.097C30.2491 26.4488 29.7391 25.9159 29.0919 25.8853V14.7099C29.7391 14.6793 30.2491 14.1465 30.2514 13.4982V11.5618C30.7593 11.3713 31.0961 10.8864 31.0978 10.3441V9.03675C31.0959 8.97269 31.0892 8.90862 31.0775 8.8454C31.2962 8.94224 31.5518 8.84371 31.6486 8.62508C31.7455 8.40666 31.6469 8.15102 31.4285 8.05397L16.2005 0.0502703C16.0734 -0.0167568 15.9216 -0.0167568 15.7945 0.0502703L0.5667 8.0453C0.354201 8.15758 0.272796 8.4204 0.384648 8.6329C0.486986 8.827 0.717881 8.91454 0.92319 8.83673ZM2.61916 12.3154V11.6457H7.63414V12.3097L2.61916 12.3154ZM13.7856 14.7129V25.8967C13.1382 25.9276 12.6284 26.4604 12.6261 27.1085V28.9579H8.49788V27.1085C8.49555 26.4604 7.98577 25.9276 7.33833 25.8967V14.7099C7.98577 14.6793 8.49555 14.1465 8.49788 13.4982V11.6457H12.6201V13.4954C12.6212 14.1448 13.1314 14.6789 13.7799 14.7099L13.7856 14.7129ZM13.4957 12.3154V11.6457H18.5109V12.3097L13.4957 12.3154ZM24.6624 14.7129V25.8967C24.015 25.9276 23.505 26.4604 23.5026 27.1085V28.9579H19.3747V27.1085C19.3723 26.4604 18.8623 25.9276 18.2151 25.8967V14.7099C18.8623 14.6793 19.3723 14.1465 19.3747 13.4982V11.6457H23.4969V13.4954C23.4978 14.1448 24.008 14.6789 24.6565 14.7099L24.6624 14.7129ZM24.3725 12.3154V11.6457H29.3875V12.3097L24.3725 12.3154ZM29.3875 28.2942V28.9579H24.3666V28.2942H29.3875ZM18.5109 28.2942V28.9579H13.49V28.2942H18.5109ZM14.2146 13.849H13.8378C13.6456 13.849 13.49 13.6933 13.49 13.5011V13.185H18.505V13.5011C18.505 13.6933 18.3494 13.849 18.1572 13.849H14.2146ZM17.3484 14.7186V25.891H14.6496V14.7186H17.3484ZM14.2146 26.7606H18.1572C18.3494 26.7606 18.505 26.9163 18.505 27.1085V27.4246H13.49V27.1085C13.49 26.9163 13.6456 26.7606 13.8378 26.7606H14.2146ZM7.62843 28.2942V28.9579H2.61324V28.2942H7.62843ZM2.61324 13.5098V13.185H7.62843V13.5011C7.62843 13.6933 7.47281 13.849 7.2804 13.849H2.9524C2.76252 13.8443 2.61155 13.688 2.61324 13.4982V13.5098ZM6.46888 14.7273V25.891H3.77279V14.7186L6.46888 14.7273ZM2.61324 27.1173C2.61324 26.9249 2.76887 26.7693 2.96107 26.7693H7.2804C7.47281 26.7693 7.62843 26.9249 7.62843 27.1173V27.4332H2.61324V27.1173ZM30.2282 30.2858V31.1379H1.76684V30.2858C1.76684 30.0376 1.96792 29.8363 2.21616 29.8363H29.7789C30.0235 29.8363 30.2235 30.0323 30.2282 30.2769V30.2858ZM29.3818 27.1173V27.4332H24.3666V27.1173C24.3666 26.9249 24.5222 26.7693 24.7144 26.7693H29.0426C29.228 26.774 29.3771 26.923 29.3818 27.1085V27.1173ZM25.5261 25.8997V14.7186H28.225V25.891L25.5261 25.8997ZM29.3818 13.5098C29.3818 13.702 29.2261 13.8576 29.0339 13.8576H24.7174C24.5252 13.8576 24.3695 13.702 24.3695 13.5098V13.185H29.3845L29.3818 13.5098ZM15.9975 0.91993L28.9468 7.72645H3.04818L15.9975 0.91993ZM1.76684 9.03675C1.76684 8.79677 1.96158 8.60203 2.20157 8.60203H29.7934C30.0334 8.60203 30.2282 8.79677 30.2282 9.03675V10.353C30.2282 10.593 30.0334 10.7877 29.7934 10.7877H2.20157C1.96158 10.7877 1.76684 10.593 1.76684 10.353V9.03675Z" fill="#39BF9E"/>
</svg>
