<svg width="32" height="32" viewBox="0 0 32 32" fill="none" xmlns="http://www.w3.org/2000/svg">
<path d="M26.2434 13.9453H25.7729V9.77631C25.7729 4.38774 21.3917 0 15.9965 0C10.608 0 6.22024 4.38111 6.22024 9.77631C6.22024 10.2734 6.61792 10.6711 7.11502 10.6711C7.61212 10.6711 8.0098 10.2734 8.0098 9.77631C8.0098 5.37531 11.5889 1.78956 15.9965 1.78956C20.3975 1.78956 23.9833 5.36868 23.9833 9.77631V13.9453H5.75628C4.80184 13.9453 4.02637 14.7208 4.02637 15.6752V26.8169C4.02637 29.6736 6.3528 32 9.20947 32H22.7902C25.6469 32 27.9733 29.6736 27.9733 26.8169V15.6752C27.9733 14.7208 27.1979 13.9453 26.2434 13.9453ZM26.1838 26.8169C26.1838 28.686 24.666 30.2104 22.7902 30.2104H9.21609C7.347 30.2104 5.82256 28.6926 5.82256 26.8169V15.7349H26.1838V26.8169Z" fill="#39BF9E"/>
<path d="M16.0029 26.4521C17.8521 26.4521 19.3501 24.9475 19.3501 23.105C19.3501 21.2557 17.8455 19.7578 16.0029 19.7578C14.1537 19.7578 12.6558 21.2624 12.6558 23.105C12.6558 24.9475 14.1537 26.4521 16.0029 26.4521ZM16.0029 21.5407C16.8646 21.5407 17.5605 22.2433 17.5605 23.0983C17.5605 23.9533 16.8646 24.6625 16.0029 24.6625C15.1413 24.6625 14.4453 23.96 14.4453 23.105C14.4453 22.2499 15.1413 21.5407 16.0029 21.5407Z" fill="#39BF9E"/>
</svg>
