<svg width="19" height="19" viewBox="0 0 19 19" fill="none" xmlns="http://www.w3.org/2000/svg">
<path d="M9.50016 9.66667C9.86816 9.66667 10.1668 9.368 10.1668 9V0.666667C10.1668 0.298667 9.86816 0 9.50016 0C9.13216 0 8.8335 0.298667 8.8335 0.666667V9C8.8335 9.368 9.13216 9.66667 9.50016 9.66667Z" fill="#717171"/>
<path d="M18.1395 9.67489C18.1372 9.64456 18.1352 9.61389 18.1325 9.58356C17.8458 6.24122 15.6635 3.44256 12.6648 2.26523C12.6342 2.25323 12.6042 2.24089 12.5735 2.22923C12.3788 2.15556 12.1812 2.08856 11.9802 2.02856C11.9655 2.02423 11.9515 2.01823 11.9368 2.01389C11.9328 2.01289 11.9288 2.01389 11.9248 2.01289C11.5172 1.89423 11.0968 1.80623 10.6668 1.74789V3.09389C14.1578 3.65422 16.8335 6.68656 16.8335 10.3332C16.8335 14.3769 13.5438 17.6666 9.50016 17.6666C5.4565 17.6666 2.16683 14.3769 2.16683 10.3332C2.16683 6.68656 4.8425 3.65423 8.3335 3.09356V1.74756C7.9075 1.80556 7.4905 1.89256 7.08616 2.00956C7.08216 2.01056 7.07783 2.00956 7.07383 2.01056C7.05816 2.01523 7.0435 2.02123 7.02816 2.02589C6.82683 2.08556 6.62883 2.15223 6.43383 2.22623C6.40383 2.23756 6.3745 2.24989 6.3445 2.26156C5.92616 2.42523 5.5235 2.62023 5.13983 2.84423C5.1365 2.84623 5.13316 2.84789 5.1295 2.84989C2.76416 4.23489 1.11483 6.70756 0.867829 9.58256C0.865163 9.61289 0.863163 9.64356 0.860829 9.67422C0.844496 9.89189 0.833496 10.1112 0.833496 10.3332C0.833496 15.1196 4.71383 18.9999 9.50016 18.9999C14.2865 18.9999 18.1668 15.1196 18.1668 10.3332C18.1668 10.1116 18.1558 9.89222 18.1395 9.67489Z" fill="#717171"/>
</svg>
