<svg width="75" height="75" viewBox="0 0 75 75" fill="none" xmlns="http://www.w3.org/2000/svg">
<path d="M54.1829 27.6643C54.1829 30.0509 52.2495 31.9855 49.8629 31.9855C47.4775 31.9855 45.543 30.0509 45.543 27.6643C45.543 25.2777 47.4775 23.3444 49.8629 23.3444C52.2495 23.3444 54.1829 25.2777 54.1829 27.6643Z" fill="#959595"/>
<path d="M29.344 27.6643C29.344 30.0509 27.4095 31.9855 25.0241 31.9855C22.6386 31.9855 20.7041 30.0509 20.7041 27.6643C20.7041 25.2777 22.6386 23.3444 25.0241 23.3444C27.4095 23.3444 29.344 25.2777 29.344 27.6643Z" fill="#959595"/>
<path d="M22.8046 59.9585C21.822 59.9585 21.0244 59.1622 21.0244 58.1784C21.0244 50.4938 27.2053 44.2417 34.8033 44.2417H40.8037C48.4017 44.2417 54.5826 50.4593 54.5826 58.1012C54.5826 59.085 53.7862 59.8825 52.8024 59.8825C51.8197 59.8825 51.0234 59.085 51.0234 58.1012C51.0234 52.4235 46.4388 47.8032 40.8039 47.8032H34.8034C29.1684 47.8032 24.585 52.4567 24.585 58.1782C24.5847 59.1622 23.7872 59.9585 22.8046 59.9585Z" fill="#959595"/>
<path d="M37.4999 75C16.8269 75 0.00878906 58.1771 0.00878906 37.4994C0.00878906 16.8229 16.8269 0 37.4999 0C58.1716 0 74.9898 16.8229 74.9898 37.4994C74.9898 58.177 58.1716 75 37.4999 75ZM37.4999 3.56165C18.7899 3.56165 3.56925 18.786 3.56925 37.4994C3.56925 56.2141 18.79 71.4383 37.4999 71.4383C56.2087 71.4383 71.4293 56.214 71.4293 37.4994C71.4293 18.7859 56.2087 3.56165 37.4999 3.56165Z" fill="#959595"/>
</svg>
