<svg width="22" height="22" viewBox="0 0 22 22" fill="none" xmlns="http://www.w3.org/2000/svg">
<path d="M21.7357 2.00028C21.5306 1.82932 21.2482 1.78484 21.0004 1.88437L2.42734 9.38097C2.23949 9.45691 2.14877 9.67079 2.22471 9.85864C2.30065 10.0465 2.51454 10.1372 2.70238 10.0613L20.4452 2.90207L11.6439 13.2826C11.5129 13.4371 11.532 13.6685 11.6866 13.7995C11.8411 13.9304 12.0725 13.9113 12.2035 13.7568L21.138 3.21854L19.9439 9.21229L18.741 17.2498C18.7245 17.3622 18.6568 17.4607 18.5577 17.5164C18.4626 17.5695 18.3481 17.5748 18.2485 17.5307L13.2475 15.5643L10.8477 14.5595C10.6609 14.4812 10.446 14.569 10.3676 14.7557C10.3596 14.7808 10.3544 14.8068 10.3522 14.8331H10.3434L9.15193 19.434L7.44228 13.4619L16.3537 6.82423C16.4676 6.74941 16.5306 6.61765 16.5173 6.48202C16.504 6.34639 16.4167 6.22932 16.2904 6.17801C16.1642 6.12669 16.0199 6.1496 15.9158 6.23748L6.95859 12.9063L0.502039 10.2927C0.314666 10.2183 0.102453 10.3092 0.0268595 10.496C-0.0487343 10.6829 0.0406546 10.8957 0.226996 10.9726L6.71801 13.5991L8.44893 19.6419C8.53905 19.9541 8.82522 20.1685 9.15012 20.1674H9.15854C9.33564 20.1642 9.50535 20.096 9.63527 19.9756C9.64808 19.9679 9.66033 19.9593 9.67193 19.95L13.2167 16.3253L17.9694 18.2099C18.2748 18.3396 18.6232 18.3201 18.9123 18.1571C19.2101 17.9919 19.4143 17.6977 19.4649 17.3609L20.6645 9.33847L21.9847 2.71504C22.0396 2.44911 21.944 2.1745 21.7357 2.00028ZM10.1799 18.384L10.9541 15.4L12.1664 15.909L12.4789 16.0329L10.1799 18.384Z" fill="#70CCFB"/>
</svg>
