<svg width="74" height="75" viewBox="0 0 74 75" fill="none" xmlns="http://www.w3.org/2000/svg">
<path d="M1.65745 20.7605C1.63021 20.9086 1.61485 21.0587 1.6099 21.2088V24.2917C1.61386 25.5622 2.40292 26.698 3.59318 27.1443V31.6804C3.59863 33.1991 4.79285 34.4473 6.30954 34.5191V60.7253C4.79285 60.7976 3.59863 62.0458 3.59318 63.564V68.0868C2.40044 68.5449 1.61188 69.6891 1.6099 70.9661V73.9816C1.6099 74.5438 2.06659 75 2.62878 75H71.3263C71.8885 75 72.3447 74.5438 72.3447 73.9816V70.9661C72.3427 69.6886 71.5541 68.5444 70.3619 68.0868V63.5372C70.3564 62.0185 69.1617 60.7703 67.6455 60.6985V34.5191C69.1617 34.4473 70.3564 33.1991 70.3619 31.6804V27.1443C71.5516 26.698 72.3407 25.5622 72.3447 24.2917V21.2291C72.3402 21.079 72.3243 20.9289 72.2971 20.7808C72.8093 21.0077 73.4081 20.7769 73.635 20.2647C73.8618 19.753 73.631 19.1542 73.1193 18.9268L37.4461 0.177334C37.1484 0.0203159 36.7928 0.0203159 36.4951 0.177334L0.822336 18.9065C0.324536 19.1695 0.133836 19.7852 0.395862 20.283C0.635599 20.7377 1.17649 20.9428 1.65745 20.7605ZM5.63045 28.9096V27.3409H17.3785V28.8962L5.63045 28.9096ZM31.789 34.5261V60.7253C30.2723 60.7976 29.0781 62.0458 29.0727 63.564V67.8966H19.4019V63.564C19.3965 62.0458 18.2023 60.7976 16.6856 60.7253V34.5191C18.2023 34.4473 19.3965 33.1991 19.4019 31.6804V27.3409H29.0588V31.674C29.0613 33.1951 30.2565 34.4463 31.7756 34.5191L31.789 34.5261ZM31.1099 28.9096V27.3409H42.8585V28.8962L31.1099 28.9096ZM57.269 34.5261V60.7253C55.7523 60.7976 54.5576 62.0458 54.5521 63.564V67.8966H44.8819V63.564C44.8765 62.0458 43.6817 60.7976 42.1656 60.7253V34.5191C43.6817 34.4473 44.8765 33.1991 44.8819 31.6804V27.3409H54.5387V31.674C54.5407 33.1951 55.7359 34.4463 57.2551 34.5191L57.269 34.5261ZM56.5899 28.9096V27.3409H68.338V28.8962L56.5899 28.9096ZM68.338 66.3417V67.8966H56.576V66.3417H68.338ZM42.8585 66.3417V67.8966H31.0965V66.3417H42.8585ZM32.794 32.5022H31.9114C31.4611 32.5022 31.0965 32.1376 31.0965 31.6874V30.9469H42.8446V31.6874C42.8446 32.1376 42.4801 32.5022 42.0298 32.5022H32.794ZM40.1352 34.5395V60.7119H33.8129V34.5395H40.1352ZM32.794 62.7491H42.0298C42.4801 62.7491 42.8446 63.1137 42.8446 63.564V64.3045H31.0965V63.564C31.0965 63.1137 31.4611 62.7491 31.9114 62.7491H32.794ZM17.3652 66.3417V67.8966H5.61658V66.3417H17.3652ZM5.61658 31.7077V30.9469H17.3652V31.6874C17.3652 32.1376 17.0006 32.5022 16.5499 32.5022H6.41108C5.96628 32.4913 5.61262 32.1252 5.61658 31.6804V31.7077ZM14.6488 34.5598V60.7119H8.33294V34.5395L14.6488 34.5598ZM5.61658 63.5848C5.61658 63.134 5.98114 62.7695 6.43139 62.7695H16.5499C17.0006 62.7695 17.3652 63.134 17.3652 63.5848V64.3248H5.61658V63.5848ZM70.3074 71.0072V73.0033H3.6338V71.0072C3.6338 70.4257 4.10485 69.9541 4.68636 69.9541H69.2548C69.8279 69.9541 70.2965 70.4133 70.3074 70.9864V71.0072ZM68.3246 63.5848V64.3248H56.576V63.5848C56.576 63.134 56.9406 62.7695 57.3908 62.7695H67.5301C67.9645 62.7804 68.3137 63.1296 68.3246 63.564V63.5848ZM59.2924 60.7322V34.5395H65.6147V60.7119L59.2924 60.7322ZM68.3246 31.7077C68.3246 32.1579 67.96 32.5225 67.5098 32.5225H57.3978C56.9475 32.5225 56.583 32.1579 56.583 31.7077V30.9469H68.331L68.3246 31.7077ZM36.9706 2.2146L67.3057 18.1596H6.63546L36.9706 2.2146ZM3.6338 21.2291C3.6338 20.6669 4.08999 20.2107 4.65218 20.2107H69.289C69.8512 20.2107 70.3074 20.6669 70.3074 21.2291V24.3125C70.3074 24.8747 69.8512 25.3309 69.289 25.3309H4.65218C4.08999 25.3309 3.6338 24.8747 3.6338 24.3125V21.2291Z" fill="#717171"/>
</svg>
