<svg width="7" height="13" viewBox="0 0 7 13" fill="none" xmlns="http://www.w3.org/2000/svg">
<path d="M0.534505 13C0.361604 13 0.191773 12.8781 0.089049 12.6527C-0.0739727 12.2953 -0.00686481 11.8135 0.238867 11.5764L5.50032 6.50014L0.238867 1.42385C-0.00686481 1.18675 -0.0739727 0.704955 0.089049 0.347551C0.252071 -0.0103641 0.583166 -0.107457 0.829057 0.129649L6.76121 5.85304C6.91032 5.9971 7 6.23979 7 6.50014C7 6.7605 6.91032 7.00319 6.76121 7.14724L0.829089 12.8706C0.738355 12.958 0.635822 13 0.534505 13Z" fill="#939393"/>
<path d="M0.534505 13C0.361604 13 0.191773 12.8781 0.089049 12.6527C-0.0739727 12.2953 -0.00686481 11.8135 0.238867 11.5764L5.50032 6.50014L0.238867 1.42385C-0.00686481 1.18675 -0.0739727 0.704955 0.089049 0.347551C0.252071 -0.0103641 0.583166 -0.107457 0.829057 0.129649L6.76121 5.85304C6.91032 5.9971 7 6.23979 7 6.50014C7 6.7605 6.91032 7.00319 6.76121 7.14724L0.829089 12.8706C0.738355 12.958 0.635822 13 0.534505 13Z" stroke="black"/>
</svg>
