<svg width="25" height="30" viewBox="0 0 25 30" fill="none" xmlns="http://www.w3.org/2000/svg">
<path d="M8.9715 1.9725L10.3435 4.4715L7.33 5.525L10.3435 6.554L8.8735 9.151L6.4235 6.995L7.036 10.18H4.1695L4.7575 6.995L2.332 9.1755L0.813 6.5295L3.8265 5.476L0.8375 4.496L2.234 1.9725L4.782 4.104L4.145 0.87H7.0605L6.4235 4.104L8.9715 1.9725ZM23.5289 1.9725L24.9009 4.4715L21.8874 5.525L24.9009 6.554L23.4309 9.151L20.9809 6.995L21.5934 10.18H18.7269L19.3149 6.995L16.8894 9.1755L15.3704 6.5295L18.3839 5.476L15.3949 4.496L16.7914 1.9725L19.3394 4.104L18.7024 0.87H21.6179L20.9809 4.104L23.5289 1.9725ZM8.9715 20.9725L10.3435 23.4715L7.33 24.525L10.3435 25.554L8.8735 28.151L6.4235 25.995L7.036 29.18H4.1695L4.7575 25.995L2.332 28.1755L0.813 25.5295L3.8265 24.476L0.8375 23.496L2.234 20.9725L4.782 23.104L4.145 19.87H7.0605L6.4235 23.104L8.9715 20.9725ZM23.5289 20.9725L24.9009 23.4715L21.8874 24.525L24.9009 25.554L23.4309 28.151L20.9809 25.995L21.5934 29.18H18.7269L19.3149 25.995L16.8894 28.1755L15.3704 25.5295L18.3839 24.476L15.3949 23.496L16.7914 20.9725L19.3394 23.104L18.7024 19.87H21.6179L20.9809 23.104L23.5289 20.9725Z" fill="#39BF9E"/>
</svg>
